
<svg xmlns="http://www.w3.org/2000/svg" xmlns:xlink="http://www.w3.org/1999/xlink" data-name="Layer 1" viewBox="0 0 1000 600"><defs><linearGradient id="a" x1="178.76" x2="107.27" y1="391.86" y2="312.67" gradientUnits="userSpaceOnUse"><stop offset="0" stop-color="#f1cdd4"/><stop offset=".99" stop-color="#fedde5"/></linearGradient><linearGradient id="i" x1="249.41" x2="163.73" y1="218.99" y2="124.08" xlink:href="#a"/><linearGradient id="j" x1="794.38" x2="745.69" y1="550.1" y2="496.17" xlink:href="#a"/><linearGradient id="k" x1="846.75" x2="778.85" y1="198.63" y2="123.42" gradientTransform="rotate(36.01 803.634 150.864)" xlink:href="#a"/><linearGradient id="l" x1="601.23" x2="529.74" y1="556.85" y2="477.66" xlink:href="#a"/><linearGradient id="m" x1="607.71" x2="536.22" y1="155.68" y2="76.49" xlink:href="#a"/><linearGradient id="n" x1="913.9" x2="842.41" y1="453.95" y2="374.76" xlink:href="#a"/><linearGradient id="c" x1="5444.85" x2="5478.24" y1="333.02" y2="324.49" gradientTransform="matrix(-1 0 0 1 5763.31 0)" gradientUnits="userSpaceOnUse"><stop offset="0" stop-color="#413c3c"/><stop offset=".33" stop-color="#3d3938"/><stop offset=".67" stop-color="#312e2d"/><stop offset="1" stop-color="#1d1e1c"/></linearGradient><linearGradient id="b" x1="315.82" x2="329.02" y1="271.52" y2="248.24" gradientUnits="userSpaceOnUse"><stop offset="0" stop-color="#00f7c7"/><stop offset=".23" stop-color="#00deb3"/><stop offset=".49" stop-color="#00c9a2"/><stop offset=".75" stop-color="#00bd98"/><stop offset="1" stop-color="#00b995"/></linearGradient><linearGradient id="p" x1="278.3" x2="295.1" y1="300.84" y2="266.52" xlink:href="#b"/><linearGradient id="d" x1="228.92" x2="233.35" y1="6405.72" y2="6418.16" gradientTransform="matrix(-.11 .99 -.99 -.11 7096.83 899.19)" gradientUnits="userSpaceOnUse"><stop offset="0" stop-color="#ff5464"/><stop offset=".42" stop-color="#ff5969"/><stop offset=".95" stop-color="#ff6977"/><stop offset="1" stop-color="#ff6b79"/></linearGradient><linearGradient id="q" x1="-3815.82" x2="-3783.3" y1="468.54" y2="460.23" gradientTransform="translate(4525.86)" xlink:href="#c"/><linearGradient id="r" x1="-3451.03" x2="-3461.97" y1="-158.69" y2="-123.75" gradientTransform="matrix(.99 -.12 .12 .99 4164.03 137.01)" xlink:href="#b"/><linearGradient id="s" x1="-3729.19" x2="-3723.38" y1="383.21" y2="433.86" gradientTransform="translate(4471.36)" xlink:href="#b"/><linearGradient id="t" x1="706.93" x2="723.27" y1="430.82" y2="430.82" xlink:href="#c"/><linearGradient id="u" x1="707.85" x2="676.47" y1="433.36" y2="404.66" xlink:href="#c"/><linearGradient id="v" x1="-25.82" x2="-20.86" y1="16.63" y2="30.54" gradientTransform="matrix(.09 1 1 -.09 748.02 424.66)" xlink:href="#d"/><linearGradient id="w" x1="957.19" x2="988.32" y1="505.4" y2="505.4" gradientTransform="matrix(-1 0 0 1 1607.24 0)" xlink:href="#c"/><linearGradient id="e" x1="960.33" x2="985.18" y1="505.4" y2="505.4" gradientTransform="matrix(-1 0 0 1 1607.24 0)" gradientUnits="userSpaceOnUse"><stop offset="0" stop-color="#1d1e1c"/><stop offset=".33" stop-color="#312e2d"/><stop offset=".67" stop-color="#3d3938"/><stop offset="1" stop-color="#413c3c"/></linearGradient><linearGradient id="x" x1="1025.33" x2="1056.46" y1="505.4" y2="505.4" gradientTransform="matrix(-1 0 0 1 1607.24 0)" xlink:href="#c"/><linearGradient id="y" x1="1028.47" x2="1053.32" y1="505.4" y2="505.4" xlink:href="#e"/><linearGradient id="z" x1="945.81" x2="1044.75" y1="441.43" y2="441.43" gradientTransform="matrix(-1 0 0 1 1607.24 0)" xlink:href="#b"/><linearGradient id="A" x1="968.9" x2="1067.84" y1="441.43" y2="441.43" gradientTransform="matrix(-1 0 0 1 1607.24 0)" xlink:href="#b"/><linearGradient id="B" x1="944.61" x2="954.46" y1="483.53" y2="483.53" gradientTransform="matrix(-1 0 0 1 1607.24 0)" xlink:href="#b"/><linearGradient id="f" x1="945.94" x2="953.12" y1="483.53" y2="483.53" gradientTransform="matrix(-1 0 0 1 1607.24 0)" gradientUnits="userSpaceOnUse"><stop offset="0" stop-color="#00b995"/><stop offset=".25" stop-color="#00bd98"/><stop offset=".51" stop-color="#00c9a2"/><stop offset=".77" stop-color="#00deb3"/><stop offset="1" stop-color="#00f7c7"/></linearGradient><linearGradient id="C" x1="-1322.83" x2="-1312.98" y1="483.53" y2="483.53" gradientTransform="translate(1860.89)" xlink:href="#b"/><linearGradient id="D" x1="-1321.5" x2="-1314.31" y1="483.53" y2="483.53" gradientTransform="translate(1860.89)" xlink:href="#f"/><linearGradient id="E" x1="944.61" x2="954.46" y1="399.2" y2="399.2" gradientTransform="matrix(-1 0 0 1 1607.24 0)" xlink:href="#b"/><linearGradient id="F" x1="945.94" x2="953.12" y1="399.2" y2="399.2" xlink:href="#f"/><linearGradient id="G" x1="-1322.83" x2="-1312.98" y1="399.2" y2="399.2" gradientTransform="translate(1860.89)" xlink:href="#b"/><linearGradient id="H" x1="-1321.5" x2="-1314.31" y1="399.2" y2="399.2" gradientTransform="translate(1860.89)" xlink:href="#f"/><linearGradient id="I" x1="1733.03" x2="1760.97" y1="349.09" y2="341.95" gradientTransform="translate(-1169.87)" xlink:href="#c"/><linearGradient id="J" x1="421.27" x2="424.83" y1="-3901.65" y2="-3891.67" gradientTransform="rotate(68.06 -2616.573 -1712.595)" xlink:href="#d"/><linearGradient id="K" x1="2731.06" x2="2727.13" y1="-2934.38" y2="-2906.79" gradientTransform="rotate(35.9 -3219.724 -4662.512)" xlink:href="#b"/><linearGradient id="L" x1="1513.2" x2="1518.44" y1="267.92" y2="313.53" gradientTransform="translate(-924.04)" xlink:href="#b"/><linearGradient id="M" x1="4342.22" x2="4344.03" y1="265.66" y2="281.44" gradientTransform="translate(-3766.86)" xlink:href="#b"/><linearGradient id="O" x1="818.43" x2="800.81" y1="380.29" y2="383.41" xlink:href="#b"/><linearGradient id="P" x1="799.06" x2="781.44" y1="380.31" y2="383.43" xlink:href="#b"/><linearGradient id="g" x1="785.6" x2="793.07" y1="374.26" y2="371.88" gradientUnits="userSpaceOnUse"><stop offset=".01" stop-color="#bf0b3f"/><stop offset=".36" stop-color="#d30c45"/><stop offset="1" stop-color="#ff0f54"/></linearGradient><linearGradient id="Q" x1="794.01" x2="811.78" y1="369.89" y2="364.23" xlink:href="#g"/><linearGradient id="R" x1="1738.56" x2="1756.35" y1="121.89" y2="121.89" gradientTransform="matrix(-1 0 0 1 2271.7 0)" xlink:href="#e"/><linearGradient id="S" x1="1739.96" x2="1754.96" y1="121.89" y2="121.89" gradientTransform="matrix(-1 0 0 1 2271.7 0)" xlink:href="#c"/><linearGradient id="T" x1="1769.51" x2="1787.3" y1="121.89" y2="121.89" gradientTransform="matrix(-1 0 0 1 2271.7 0)" xlink:href="#e"/><linearGradient id="U" x1="1770.9" x2="1785.9" y1="121.89" y2="121.89" gradientTransform="matrix(-1 0 0 1 2271.7 0)" xlink:href="#c"/><linearGradient id="V" x1="1619.7" x2="1852.87" y1="128.68" y2="45.43" gradientTransform="matrix(-1 0 0 1 2271.7 0)" xlink:href="#e"/><linearGradient id="W" x1="1815.49" x2="1833.27" y1="121.89" y2="121.89" gradientTransform="matrix(-1 0 0 1 2271.7 0)" xlink:href="#e"/><linearGradient id="X" x1="1816.88" x2="1831.88" y1="121.89" y2="121.89" gradientTransform="matrix(-1 0 0 1 2271.7 0)" xlink:href="#c"/><radialGradient id="o" cx="5464.9" cy="236.37" r="2.65" gradientTransform="matrix(-.88 .47 .47 .88 5023.28 -2528.46)" gradientUnits="userSpaceOnUse"><stop offset="0" stop-color="#f63c4b"/><stop offset=".1" stop-color="#f63d4c" stop-opacity=".98"/><stop offset=".23" stop-color="#f73e4d" stop-opacity=".91"/><stop offset=".37" stop-color="#f84150" stop-opacity=".81"/><stop offset=".52" stop-color="#f94453" stop-opacity=".66"/><stop offset=".68" stop-color="#fb4958" stop-opacity=".47"/><stop offset=".84" stop-color="#fd4e5e" stop-opacity=".25"/><stop offset="1" stop-color="#ff5464" stop-opacity="0"/></radialGradient><radialGradient id="h" cx="-3840.13" cy="767.75" r="2.58" gradientTransform="matrix(1 .08 -.08 1 4622.18 -75.08)" gradientUnits="userSpaceOnUse"><stop offset="0" stop-color="#f63c4b"/><stop offset=".27" stop-color="#f74150"/><stop offset=".62" stop-color="#fa5160"/><stop offset=".99" stop-color="#ff6b79"/><stop offset="1" stop-color="#ff6b79"/></radialGradient><radialGradient id="N" cx="-2048.47" cy="503.47" r="2.34" gradientTransform="matrix(1 .08 -.08 1 2663.84 -75.08)" xlink:href="#h"/></defs><path fill="url(#a)" d="M197.29 354H69.41A12.39 12.39 0 0 1 57 341.55a12.39 12.39 0 0 1 12.39-12.39h127.9a12.39 12.39 0 0 1 12.39 12.39A12.4 12.4 0 0 1 197.29 354Z"/><circle cx="194.98" cy="158.7" r="66.21" fill="url(#i)"/><path fill="url(#j)" d="M801.07 515.85a37.62 37.62 0 1 1-37.62-37.62 37.61 37.61 0 0 1 37.62 37.62Z"/><circle cx="803.62" cy="150.85" r="52.46" fill="url(#k)" transform="rotate(-36.01 803.627 150.855)"/><path fill="url(#l)" d="M619.76 518.94H491.88a12.4 12.4 0 0 1-12.4-12.4 12.4 12.4 0 0 1 12.4-12.39h127.88a12.39 12.39 0 0 1 12.39 12.39 12.4 12.4 0 0 1-12.39 12.4Z"/><path fill="url(#m)" d="M626.24 117.77H498.36A12.39 12.39 0 0 1 486 105.38 12.39 12.39 0 0 1 498.36 93h127.88a12.38 12.38 0 0 1 12.39 12.39 12.39 12.39 0 0 1-12.39 12.38Z"/><path fill="url(#n)" d="M932.42 416H804.54a12.4 12.4 0 0 1-12.39-12.4 12.39 12.39 0 0 1 12.39-12.39h127.88a12.4 12.4 0 0 1 12.4 12.39 12.4 12.4 0 0 1-12.4 12.4Z"/><path fill="#333" d="M936 522H86.85a.5.5 0 0 1-.5-.5.51.51 0 0 1 .5-.5H936a.5.5 0 0 1 .5.5.5.5 0 0 1-.5.5Z"/><path fill="#ff0f54" d="M598.61 93a3.23 3.23 0 1 1-3.23-3.23 3.22 3.22 0 0 1 3.23 3.23ZM792.06 201.6a3.23 3.23 0 1 1-3.22-3.22 3.22 3.22 0 0 1 3.22 3.22Z"/><path fill="#00f7c7" d="M416.14 216.13A3.13 3.13 0 1 1 413 213a3.13 3.13 0 0 1 3.14 3.13ZM732 225.24a3.13 3.13 0 1 1-3.13-3.13 3.13 3.13 0 0 1 3.13 3.13ZM224.58 368.57a2.85 2.85 0 1 1-2.85-2.85 2.85 2.85 0 0 1 2.85 2.85ZM846.67 328.34a2.85 2.85 0 1 1-2.85-2.85 2.85 2.85 0 0 1 2.85 2.85Z"/><circle cx="300.92" cy="193" r="2.81" fill="#ff0f54"/><g opacity=".3"><path fill="#00b995" d="M390.18 494.76c19.76-4.94-10.63-55.22-14.89-73.82s11.87-61.62-10.14-68.07-20.4 25.21-20.4 25.21 4.1-66.61-17.94-67-14.09 32.82-14.09 32.82-33-85.34-65.52-61 44.31 65.33 44.31 65.33-44.3-26.79-44.9-4.67S307.44 374 307.44 374s-53.44-8.9-47.52 10.72 59.25 21.93 59.25 21.93-43.8-6.11-46.53 7.5 64.5 32 77.73 47 16.84 39.36 39.81 33.61Z"/><path fill="#00f7c7" d="M319.29 425.14a166.68 166.68 0 0 1 20.71 7.45 96.75 96.75 0 0 1 19.23 10.81 63 63 0 0 1 10.08 9.3c-1.38-2.6-2.8-5.16-4.17-7.75q-8-15.31-16.64-30.28a83 83 0 0 0-10.8-7.68l-3.81-2.23-3.89-2.07c-1.28-.73-2.63-1.34-3.95-2s-2.65-1.3-4-1.86a174 174 0 0 0-16.57-6.27c-5.62-1.83-11.32-3.49-17.09-4.79v-.14c5.82 1.13 11.57 2.61 17.26 4.27a176.22 176.22 0 0 1 16.81 5.9c1.39.53 2.74 1.16 4.1 1.76s2.73 1.18 4.05 1.88l4 2 3.84 2.31a69.83 69.83 0 0 1 8.92 6.87c-3.15-5.43-6.33-10.84-9.6-16.2l-7.41-11.79-3.6-5.41a82.73 82.73 0 0 0-9.64-8.3 128.38 128.38 0 0 0-15.59-9.46 144.32 144.32 0 0 0-16.94-6.93 141.91 141.91 0 0 0-17.69-4.85v-.13a141.47 141.47 0 0 1 17.88 4.32 144.39 144.39 0 0 1 17.2 6.59 93.7 93.7 0 0 1 15.94 9.35 72.07 72.07 0 0 1 6.26 5.58l-1.57-2.36c-2.54-3.89-5.29-7.63-7.93-11.45s-5.42-7.54-8.17-11.28a489.06 489.06 0 0 0-35.29-43.12l.2-.19a491.69 491.69 0 0 1 36.2 42.47c2.81 3.71 5.66 7.39 8.35 11.19s5.53 7.5 8.13 11.36l7.9 11.57.08.13c-1-2.46-1.86-5-2.64-7.51a116.76 116.76 0 0 1-3.22-16.75c-.71-5.64-1.13-11.3-1.35-17s-.16-11.34.17-17h.14c-.15 5.66 0 11.32.39 17s.91 11.27 1.74 16.85 2.1 11.08 3.47 16.53a114.11 114.11 0 0 0 3.66 11.52l5.17 7.95c7.53 11.9 14.92 23.93 21.67 36.3-.26-1.31-.5-2.62-.71-3.93a131.74 131.74 0 0 1-1.08-20.42c.08-6.81.45-13.61 1.06-20.38s1.44-13.52 2.54-20.23h.14c-.91 6.72-1.55 13.49-2 20.25s-.7 13.55-.64 20.33a192.28 192.28 0 0 0 1.41 20.26c.33 2.56.72 5.11 1.23 7.64 1.5 2.83 3 5.68 4.42 8.55 4.29 8.27 8.15 16.76 12 25.24s7.15 17.2 10.57 25.85l-.26.11c-2.06-4.18-4-8.39-6-12.58s-3.85-8.46-6-12.57-4.15-8.3-6.22-12.45c-.3-.62-.61-1.23-.92-1.84a68.62 68.62 0 0 0-12.3-10.91 119.5 119.5 0 0 0-18.87-10.92 164.42 164.42 0 0 0-20.46-7.79 180.8 180.8 0 0 0-21.27-5.35v-.14a181.54 181.54 0 0 1 21.37 4.82Z"/></g><g opacity=".3"><path fill="#00b995" d="M412.53 226.4c-13.41 1.08-21.34-9.76-21.42-9.87l.95-.68c.08.11 8.14 11.07 21.62 9.24-14-19.24-24.21-32-24.47-32.32l.91-.73c.25.31 9.17 11.48 21.81 28.68a29.49 29.49 0 0 0 2.38-9.15 13.69 13.69 0 0 1-8.22-10.51l1.16-.14c0 .07.91 6.65 7.16 9.42a47.58 47.58 0 0 0-3.19-19.48l1.08-.47c.07.17 7.23 17.18.43 31.41 4.2 5.74 8.79 12.1 13.6 18.94 4.87-11.38 2-23.7 2-23.83l1.14-.27c0 .13 3.06 13.29-2.36 25.22 4.28 6.1 8.71 12.56 13.19 19.26 4.05-8.64-.43-20-.48-20.13l1.09-.44c.21.51 4.93 12.51.14 21.69 6 9 12.08 18.47 17.92 28.05a45.79 45.79 0 0 0 3.93-9.51 22.19 22.19 0 0 0-6.21-12.29l.84-.82a24 24 0 0 1 6 10.47 34.45 34.45 0 0 0 .61-12.36l1.16-.16c1.79 12.58-4.54 23.9-5.68 25.81 10.55 17.39 20.28 35.17 27.43 51.63l-1.08.47c-8.8-20.27-21.53-42.56-34.88-63.64-1.84.31-3.58.53-5.21.66s-2.92.17-4.26.16l-.05.12a2.53 2.53 0 0 0-.23-.12c-16-.22-19.12-9.22-19.26-9.67l1.11-.36c0 .1 2.78 7.85 16.26 8.75-3-2.66-4.71-7.24-4.8-7.48l1.1-.4c0 .07 2.21 6 5.85 8a53 53 0 0 0 8.81-.7c-6.75-10.62-13.64-20.92-20.26-30.48a17.83 17.83 0 0 1-9.74 3.45c-4.34.35-10.13-.36-17.46-3.6l.47-1.08c12.91 5.7 20.86 3.24 24.36 1.35-16.74 2.22-19.65-8.62-19.68-8.73l1.14-.29c.11.44 2.92 10.6 20 7.6-5.2-7.5-10.22-14.53-14.84-20.88-.6.07-1.24.16-1.87.21Z"/><path fill="#00b995" d="M460.37 263.41a4.26 4.26 0 1 0 3.9-4.59 4.26 4.26 0 0 0-3.9 4.59ZM416.85 268.28a4.26 4.26 0 1 0 3.9-4.58 4.25 4.25 0 0 0-3.9 4.58ZM404 238.47a4.26 4.26 0 1 0 3.9-4.59 4.26 4.26 0 0 0-3.9 4.59ZM384.3 213.68a4.26 4.26 0 1 0 3.9-4.58 4.25 4.25 0 0 0-3.9 4.58ZM406.52 187.88a4.25 4.25 0 1 0 3.9-4.58 4.25 4.25 0 0 0-3.9 4.58ZM401.37 198.29a3.64 3.64 0 1 0 3.33-3.91 3.65 3.65 0 0 0-3.33 3.91ZM434.16 237.93a5.36 5.36 0 1 0 4.91-5.77 5.37 5.37 0 0 0-4.91 5.77ZM422.94 213.05a5.36 5.36 0 1 0 4.91-5.77 5.36 5.36 0 0 0-4.91 5.77ZM382.46 190.8a5.36 5.36 0 1 0 4.9-5.78 5.36 5.36 0 0 0-4.9 5.78ZM393.12 247a5.36 5.36 0 1 0 4.91-5.77 5.36 5.36 0 0 0-4.91 5.77ZM452.63 266.68a2.9 2.9 0 1 0 2.66-3.12 2.9 2.9 0 0 0-2.66 3.12ZM432.2 270a2.9 2.9 0 1 0 2.65-3.12 2.9 2.9 0 0 0-2.65 3.12Z"/></g><g opacity=".3"><path fill="#00b995" d="M762.31 263.74a187.08 187.08 0 0 1-51.75 2.92c-28.7-2.38-69.44-1.31-97.82 43.53s-33.7 88.3-33.7 88.3 71.29-7.27 92.76-22.69 52.38-39.59 64.9-70.07 25.61-41.99 25.61-41.99Z"/><path fill="#00f7c7" d="M654.27 364.25a138.11 138.11 0 0 0-18.31-.08 80.14 80.14 0 0 0-18.11 3 52.22 52.22 0 0 0-10.53 4.4c1.81-1.64 3.66-3.24 5.46-4.88q10.62-9.69 21.63-18.93a67.74 67.74 0 0 1 10.59-2.94l3.61-.66 3.64-.52c1.2-.2 2.43-.3 3.65-.42s2.44-.26 3.66-.31a142.1 142.1 0 0 1 14.74-.18c4.92.17 9.84.49 14.73 1.11v-.11c-4.87-.78-9.78-1.26-14.71-1.58a143.45 143.45 0 0 0-14.81-.16c-1.24 0-2.47.12-3.71.2s-2.47.15-3.7.32l-3.69.46-3.66.72a56.69 56.69 0 0 0-8.92 2.82c4-3.34 8-6.67 12.11-9.92l9.15-7.11 4.36-3.21a68.58 68.58 0 0 1 9.89-3.74 105.59 105.59 0 0 1 14.88-3 120.6 120.6 0 0 1 15.21-.6 119.06 119.06 0 0 1 15.21 1.25v-.11a119.47 119.47 0 0 0-30.53-1.46 77.84 77.84 0 0 0-15.12 2.77 59.46 59.46 0 0 0-6.48 2.58l1.89-1.39c3.09-2.32 6.31-4.46 9.46-6.69s6.39-4.36 9.6-6.5a407.76 407.76 0 0 1 39.86-23.66l-.1-.21a409.75 409.75 0 0 0-40.39 22.9c-3.25 2.1-6.53 4.17-9.71 6.37s-6.45 4.29-9.59 6.56l-9.46 6.75-.1.08a76.14 76.14 0 0 0 4.2-5.12 95.54 95.54 0 0 0 7.29-12.17c2.16-4.21 4.1-8.52 5.88-12.89s3.36-8.82 4.7-13.33h-.11c-1.49 4.47-3.24 8.84-5.12 13.15s-3.92 8.55-6.16 12.67-4.8 8.07-7.42 11.94a94.19 94.19 0 0 1-6.14 8l-6.3 4.75c-9.28 7.16-18.48 14.45-27.28 22.21q.87-1.44 1.68-2.88a110.42 110.42 0 0 0 6.66-15.65q2.8-8 5-16.23c1.43-5.47 2.72-11 3.77-16.54h-.12c-1.2 5.52-2.63 11-4.21 16.4s-3.3 10.8-5.28 16.07a157.35 157.35 0 0 1-6.81 15.43c-1 1.91-2 3.8-3.13 5.63-2 1.79-4 3.59-5.89 5.42-5.71 5.25-11.14 10.78-16.56 16.32s-10.48 11.42-15.62 17.2l.17.16c2.8-2.68 5.54-5.42 8.3-8.12s5.42-5.51 8.29-8.1 5.61-5.32 8.41-8c.4-.4.82-.79 1.24-1.18a57.61 57.61 0 0 1 12.72-5 99.57 99.57 0 0 1 17.87-3.22 138.26 138.26 0 0 1 18.21-.27 153.76 153.76 0 0 1 18.15 1.87v-.11a151.46 151.46 0 0 0-18.09-2.33Z"/></g><g opacity=".3"><path fill="#bf0b3f" d="M658.77 101.6a79.36 79.36 0 0 1-21 6.54c-12 2-28.7 6.62-35.75 28a100.63 100.63 0 0 0-4.75 39.8s28.57-10.34 35.81-18.9 17.47-21.69 19.47-35.52 6.22-19.92 6.22-19.92Z"/><path fill="#ff0f54" d="M624.69 154.09a57.59 57.59 0 0 0-7.54 1.85A34.07 34.07 0 0 0 610 159a21.79 21.79 0 0 0-3.87 2.89c.58-.86 1.17-1.71 1.74-2.57q3.38-5.07 7-10a28.15 28.15 0 0 1 4.07-2.3l1.41-.65 1.45-.58c.47-.21 1-.38 1.46-.55s1-.36 1.47-.51a59.78 59.78 0 0 1 6.05-1.59c2-.44 4.1-.82 6.17-1.07-2.08.18-4.15.49-6.21.87a60.93 60.93 0 0 0-6.11 1.45c-.51.14-1 .31-1.51.47s-1 .32-1.49.51l-1.47.57-1.43.68a24 24 0 0 0-3.38 2.08c1.31-1.79 2.62-3.57 4-5.33l3-3.87 1.46-1.77a28.24 28.24 0 0 1 3.69-2.56 44.87 44.87 0 0 1 5.82-2.75 52.54 52.54 0 0 1 12.58-2.87 49.89 49.89 0 0 0-6.43.86 51.07 51.07 0 0 0-6.28 1.69 32.65 32.65 0 0 0-5.93 2.7 23.93 23.93 0 0 0-2.4 1.73l.63-.77c1-1.27 2.14-2.48 3.21-3.73s2.17-2.45 3.27-3.66a172 172 0 0 1 14-13.84l-.06-.08A170.91 170.91 0 0 0 631.54 128c-1.13 1.2-2.26 2.38-3.34 3.62s-2.22 2.43-3.27 3.69l-3.2 3.75c.44-.83.84-1.68 1.2-2.54a40.18 40.18 0 0 0 1.74-5.76c.46-1.95.81-3.92 1.09-5.9s.47-4 .56-6c-.15 2-.42 4-.75 5.94s-.73 3.92-1.23 5.85-1.14 3.81-1.82 5.67a37.55 37.55 0 0 1-1.7 3.91l-2.1 2.6c-3.08 3.9-6.11 7.85-8.93 11.95q.21-.67.39-1.35a46.59 46.59 0 0 0 1.12-7.13c.23-2.39.34-4.79.38-7.19s0-4.8-.16-7.19h-.05c.08 2.4.05 4.79 0 7.18s-.25 4.79-.52 7.16a64.48 64.48 0 0 1-1.21 7c-.2.89-.43 1.77-.7 2.64-.63.94-1.26 1.88-1.87 2.84-1.8 2.74-3.47 5.58-5.13 8.41s-3.13 5.78-4.64 8.69h.08c.88-1.39 1.72-2.8 2.58-4.2s1.66-2.82 2.57-4.18 1.76-2.77 2.64-4.15c.12-.2.26-.41.39-.61a24.42 24.42 0 0 1 4.71-3.38 41.66 41.66 0 0 1 7-3.14 57.87 57.87 0 0 1 7.47-2 65.56 65.56 0 0 1 7.65-1.11 62.43 62.43 0 0 0-7.8 1.02Z"/></g><path fill="#bf0b3f" d="M651.71 238.05s49.92-22.34 36.29-36.19-36.29 36.19-36.29 36.19ZM607.8 321.14s54.55-3.93 46.47-21.6-46.47 21.6-46.47 21.6ZM645.66 253.2s11-53.57-8.18-50.58 8.18 50.58 8.18 50.58ZM631.48 281.89s53.41-11.8 42.85-28.11-42.85 28.11-42.85 28.11ZM620.05 302.8s16.77-52.06-2.64-51.18 2.64 51.18 2.64 51.18ZM660.54 208.41s31.77-38.84 14.9-44.59-14.9 44.59-14.9 44.59Z" opacity=".3"/><path fill="#bf0b3f" d="m597 334.53 1.18.91c51.16-66.09 63.78-130 63.9-130.64l-1.47-.28c-.09.63-12.61 64.21-63.61 130.01Z" opacity=".3"/><path fill="#bf0b3f" d="M646.83 417.93s-10-31.25 1.63-30.7-1.63 30.7-1.63 30.7ZM627.3 470.83s-20.09-25.94-9-29.41 9 29.41 9 29.41ZM642.48 426.7s19.52-26.38 25.88-16.61-25.88 16.61-25.88 16.61ZM635.35 444.53s-16.13-28.58-4.61-30.4 4.61 30.4 4.61 30.4ZM630.59 458s16.54-28.34 23.92-19.32S630.59 458 630.59 458ZM656.53 402.11s4.62-29.74 14-24.51-14 24.51-14 24.51Z" opacity=".3"/><path fill="#bf0b3f" d="m625.64 481-.89-.16c9-49.34 32.53-80.57 32.77-80.89l.71.55c-.23.32-23.6 31.4-32.59 80.5Z" opacity=".3"/><g opacity=".3"><path fill="#00b995" d="M601.46 117.23c-4.93-2.9-5.05-8.61-5.05-8.67h.5c0 .06.13 5.84 5.28 8.49-.2-10.12-.64-17-.65-17.23h.5c0 .17.39 6.24.6 15.32a12.57 12.57 0 0 0 3.06-2.61 5.87 5.87 0 0 1-.3-5.67l.44.23a5.49 5.49 0 0 0 .2 5 20.17 20.17 0 0 0 3.64-7.57l.49.1c0 .08-1.67 7.75-7.51 11.06.06 3 .11 6.36.12 9.92a18.35 18.35 0 0 0 6.51-7.82l.46.18a18.64 18.64 0 0 1-7 8.22c0 3.17 0 6.5-.1 9.93 3.52-2 4.73-7.08 4.74-7.13l.49.11c-.06.23-1.34 5.56-5.25 7.59-.1 4.61-.29 9.39-.59 14.15a19.94 19.94 0 0 0 3.69-2.35 9.53 9.53 0 0 0 .83-5.8l.49-.08a10.29 10.29 0 0 1-.44 5.12 14.92 14.92 0 0 0 3.22-4.16l.45.23c-2.45 4.82-7.42 7.22-8.28 7.61a190.26 190.26 0 0 1-3 24.68l-.49-.1a207.17 207.17 0 0 0 3.37-30.69c-.72-.34-1.38-.69-2-1s-1.06-.65-1.52-1l-.06-.1c-5.52-4-4.41-7.88-4.35-8.07l.48.15s-.95 3.41 3.52 7a8.77 8.77 0 0 1 .16-3.77l.48.13s-.7 2.63.09 4.2a22.4 22.4 0 0 0 3.24 1.9c.24-5.35.35-10.62.38-15.56A7.7 7.7 0 0 1 598 128a15.33 15.33 0 0 1-5.2-5.52l.42-.26c3.11 5.14 6.48 6.22 8.17 6.41-6.38-3.31-4.75-7.8-4.73-7.84l.47.18c-.07.18-1.58 4.4 5.12 7.53 0-3.89 0-7.56-.08-10.9a9.72 9.72 0 0 1-.71-.37Z"/><path fill="#00b995" d="M609.11 141.8a1.81 1.81 0 1 0 2.48-.65 1.81 1.81 0 0 0-2.48.65ZM592.75 132.88a1.81 1.81 0 1 0 2.48-.65 1.82 1.82 0 0 0-2.48.65ZM595.55 119.36a1.81 1.81 0 1 0 2.48-.65 1.82 1.82 0 0 0-2.48.65ZM594.73 105.91a1.81 1.81 0 1 0 2.48-.65 1.81 1.81 0 0 0-2.48.65ZM608.77 102.34a1.81 1.81 0 1 0 2.48-.65 1.81 1.81 0 0 0-2.48.65ZM604.44 104.71a1.54 1.54 0 1 0 2.11-.55 1.54 1.54 0 0 0-2.11.55ZM606.19 126.53a2.28 2.28 0 1 0 3.12-.82 2.29 2.29 0 0 0-3.12.82ZM608.35 115.12a2.28 2.28 0 1 0 3.12-.81 2.28 2.28 0 0 0-3.12.81ZM599.67 97.48a2.28 2.28 0 1 0 3.12-.81 2.28 2.28 0 0 0-3.12.81ZM589.68 119.67a2.28 2.28 0 1 0 3.12-.81 2.27 2.27 0 0 0-3.12.81ZM605.61 141.05a1.25 1.25 0 0 0 .44 1.69 1.23 1.23 0 1 0 1.25-2.13 1.25 1.25 0 0 0-1.69.44ZM597.69 137.21a1.23 1.23 0 0 0 2.13 1.25 1.23 1.23 0 0 0-2.13-1.25Z"/></g><path fill="#bf0b3f" d="M334.1 253.18s8.83-63.63-13.44-58.67 13.44 58.67 13.44 58.67ZM389.51 348.66s30.06-56.78 7.43-59.74-7.43 59.74-7.43 59.74ZM345.43 268.64s-46.5-44.33-55.48-23.35 55.48 23.35 55.48 23.35ZM365.16 300.63s21.51-60.54-1.31-60.18 1.31 60.18 1.31 60.18ZM378.88 325s-41.42-49.12-52.62-29.24S378.88 325 378.88 325ZM310.08 225.93s-18.9-55.82-35.14-42.6 35.14 42.6 35.14 42.6Z" opacity=".3"/><path fill="#bf0b3f" d="m396.14 367.73 1.65-.61c-34-92.12-89.77-144.49-90.33-145l-1.2 1.28c.56.52 56.06 52.6 89.88 144.33Z" opacity=".3"/><path fill="#00b995" d="m785.92 494.57 2.76 24.15c0 1 4.17 1.9 9.31 1.9s9.31-.85 9.31-1.9l2.76-24.15Z"/><path fill="#00b995" d="M810.06 494.57c0 1.05-5.4 1.9-12.07 1.9s-12.07-.85-12.07-1.9 5.4-1.89 12.07-1.89 12.07.84 12.07 1.89Z"/><path fill="#00f7c7" d="M798 497.09c-2.12 0-12.7-.12-12.7-2.52s10.58-2.52 12.7-2.52 12.7.13 12.7 2.52-10.59 2.52-12.7 2.52Zm-11.3-2.52c1 .57 5.19 1.28 11.3 1.28s10.29-.71 11.3-1.28c-1-.57-5.19-1.27-11.3-1.27s-10.29.7-11.31 1.27Z"/><path fill="#ff0f54" d="M810.42 484.78a10.43 10.43 0 0 0-5 1.36 36.08 36.08 0 0 0 1.58-5.84 5.58 5.58 0 0 0 5.21 1.63 3.59 3.59 0 0 0 2.71-4.36c-.57-2.09-2.82-2.52-4.69-2a6.4 6.4 0 0 0-2.69 1.51c.22-1.63.37-3.27.49-4.9 2.15-.79 4.94-2.23 5.74-4.48a4.13 4.13 0 0 0-.3-3.08c-.32-.76-.89-2.19-1.84-2.37-1.67-.31-3.84 2.63-4.52 3.85-.87 1.54-1.46 3.81-.26 5.27-.13 2-.31 4.07-.61 6.09a4.27 4.27 0 0 0-3-2.79 2.56 2.56 0 0 0-3.14 2.47 4.92 4.92 0 0 0 3 3.84 2.82 2.82 0 0 0 2.56-.35 32.48 32.48 0 0 1-2.18 6.73c-.71-1.33-1.5-2.83-2.92-3.36a2.41 2.41 0 0 0-3.23 1.52 3.19 3.19 0 0 0 1.53 3.62 4.49 4.49 0 0 0 3.42.54 21.72 21.72 0 0 1-3.72 4.65c-.59.55.3 1.44.89.88a22.51 22.51 0 0 0 4.26-5.56c1.23 2.34 2.92 2.53 5.54 2.18 2.11-.27 5.35-1.3 5.78-3.82s-2.76-3.26-4.61-3.23Z"/><path fill="#00f7c7" d="M804.23 458.66c1.11-1 2-3 .88-4.25-.93-1.05-3.08-1-4.14-.19a11 11 0 0 0-3.32 5 .52.52 0 0 0 0 .37.64.64 0 0 0 0 .41c-.26.64-.5 1.29-.71 1.95a8.91 8.91 0 0 0-1.26-4c-.76-1.2-2.52-3.24-4.1-2.2-1.42.94-1.15 3.19-.59 4.52.87 2.09 4.92 4.79 5.14 4.83a59.83 59.83 0 0 0-1 8.73v2.39c0 .21-.05.41-.07.62a.54.54 0 0 0 .09.34v.24a6.14 6.14 0 0 0-1.32-1.47c-1-.82-2.79-1.56-3.73-.22a3.57 3.57 0 0 0 .35 4.22c1.29 1.42 3.23 1.54 5 1.46a104.37 104.37 0 0 0 3.1 13.57.63.63 0 0 0 1.21-.33c-.75-2.76-1.52-5.48-2.15-8.22a6.66 6.66 0 0 0 3.66-2.06 3.64 3.64 0 0 0 .88-3.92 2 2 0 0 0-3.17-.83 6.37 6.37 0 0 0-2 3.48 41.84 41.84 0 0 1-.65-6.64 10.13 10.13 0 0 1 .19-1.21 3.63 3.63 0 0 0 2.13-1.75c.36-.7.52-1.79-.48-2a1.84 1.84 0 0 0-1.72.87 37.15 37.15 0 0 1 2.34-11.94 9 9 0 0 0 5.44-1.77Z"/><path fill="#bf0b3f" d="M796.61 494.32a64.82 64.82 0 0 0-5.31-9.09 9.23 9.23 0 0 0 3.86-1.83 2.34 2.34 0 0 0-.16-3.4c-2.5-2.35-4.31.53-5.34 2.9-.49-.65-1-1.32-1.51-2a.65.65 0 0 0-.4-.49c-.46-.55-.9-1.12-1.37-1.66 2.56-1.18 4.1-6.43 1.42-8.22a2.41 2.41 0 0 0-3.4 1 10.18 10.18 0 0 0-.93 4.13c-.3-.31-.6-.62-.91-.91a.47.47 0 0 0-.26-.15 10.16 10.16 0 0 0-5-6.58c-1.88-1-5.69-2.17-6.84.42-1 2.29-.45 5.57 1.79 6.86a12.83 12.83 0 0 0 9.74.74c.44.43.86.87 1.28 1.3-.06.43.28.61.62.58.34.36.67.73 1 1.1a13 13 0 0 0-5.08-.19c-1.75.22-4.68.58-4.61 2.94.07 2 2.27 3 4 3 2.7.09 5.85-1.38 8.12-2.92.58.72 1.13 1.47 1.68 2.21a3.62 3.62 0 0 0-3 1 2.07 2.07 0 0 0 .16 3 2.39 2.39 0 0 0 3.06 0 3 3 0 0 0 1.13-2.05 64.43 64.43 0 0 1 5.1 8.84c.43.84 1.55.2 1.16-.53Z"/><rect width="186.09" height="376.41" x="446.83" y="130.15" fill="#1d1e1c" rx="23.69" transform="rotate(180 539.875 318.355)"/><path fill="#fff" d="M476 140.33h127.73a22.15 22.15 0 0 1 22.15 22.15v311.75a22.15 22.15 0 0 1-22.15 22.15H476a22.16 22.16 0 0 1-22.16-22.16V162.48A22.15 22.15 0 0 1 476 140.33Z" transform="rotate(180 539.875 318.355)"/><path fill="#1d1e1c" d="M559.29 146.35a2 2 0 1 0 2-2 2 2 0 0 0-2 2ZM518.44 148.36h33.77a2 2 0 0 0 2-2 2 2 0 0 0-2-2h-33.77a2 2 0 0 0-2 2 2 2 0 0 0 2 2Z"/><path fill="#fedde5" d="M475.71 186.74h128.32v252.32H475.71z" transform="rotate(180 539.875 312.895)"/><path fill="#00f7c7" d="M475.71 165.9h128.32v11.25H475.71z" transform="rotate(180 539.875 171.53)"/><path fill="#413c3c" d="M475.71 448.64h128.32v3.44H475.71z" transform="rotate(180 539.875 450.36)"/><path fill="#413c3c" d="M475.71 460.46h128.32v3.44H475.71z" transform="rotate(180 539.875 462.175)"/><path fill="#413c3c" d="M475.71 472.27h128.32v3.44H475.71z" transform="rotate(180 539.875 473.995)"/><path fill="#f1cdd4" d="M484.36 320.81h111.02v90.27H484.36zM484.36 267.76h111.02v45.14H484.36z"/><path fill="#bf0b3f" d="M484.36 199.02h111.02v57.46H484.36z"/><path fill="#fff" d="M514.85 233.44v-12.57h2.56v10.43h6.36v2.14ZM525.07 227.18a8.18 8.18 0 0 1 .58-3.25 6.15 6.15 0 0 1 1.18-1.74 5.07 5.07 0 0 1 1.64-1.14 7 7 0 0 1 2.73-.5 5.94 5.94 0 0 1 4.48 1.74 7.78 7.78 0 0 1 0 9.63 5.9 5.9 0 0 1-4.46 1.73 6 6 0 0 1-4.5-1.72 6.55 6.55 0 0 1-1.65-4.75Zm2.64-.08a4.76 4.76 0 0 0 1 3.26 3.43 3.43 0 0 0 5 0 4.88 4.88 0 0 0 1-3.31 4.76 4.76 0 0 0-1-3.25 3.54 3.54 0 0 0-5.08 0 4.8 4.8 0 0 0-.92 3.3ZM545.25 228.78v-2.13h5.52v5a6.86 6.86 0 0 1-2.33 1.37 8.39 8.39 0 0 1-3.09.59 6.91 6.91 0 0 1-3.47-.83 5.38 5.38 0 0 1-2.22-2.38 7.81 7.81 0 0 1-.74-3.38 7.35 7.35 0 0 1 .83-3.52 5.6 5.6 0 0 1 2.43-2.36 6.54 6.54 0 0 1 3-.63 6.08 6.08 0 0 1 3.69 1 4.46 4.46 0 0 1 1.7 2.74l-2.54.47a2.69 2.69 0 0 0-1-1.47 3.07 3.07 0 0 0-1.85-.54 3.47 3.47 0 0 0-2.67 1.06 4.48 4.48 0 0 0-1 3.16 5 5 0 0 0 1 3.38 3.35 3.35 0 0 0 2.62 1.13 4.45 4.45 0 0 0 1.62-.32 5.49 5.49 0 0 0 1.38-.76v-1.61ZM552.61 227.18a8 8 0 0 1 .58-3.25 6.15 6.15 0 0 1 1.18-1.74 5 5 0 0 1 1.63-1.14 7 7 0 0 1 2.74-.5 6 6 0 0 1 4.48 1.74 7.76 7.76 0 0 1 0 9.63 5.88 5.88 0 0 1-4.46 1.73 6 6 0 0 1-4.49-1.72 6.51 6.51 0 0 1-1.66-4.75Zm2.63-.08a4.76 4.76 0 0 0 1 3.26 3.41 3.41 0 0 0 5 0 6.06 6.06 0 0 0 0-6.56 3.55 3.55 0 0 0-5.09 0 4.85 4.85 0 0 0-.91 3.3Z"/><path fill="#fff" d="M539.87 245.58c-11.91 0-23.12-1.87-31.56-5.26-8.64-3.47-13.4-8.16-13.4-13.22s4.76-9.75 13.4-13.22c8.44-3.38 19.65-5.25 31.56-5.25s23.12 1.87 31.56 5.25c8.65 3.47 13.41 8.17 13.41 13.22s-4.76 9.75-13.41 13.22c-8.43 3.39-19.65 5.26-31.56 5.26Zm0-35.53c-11.73 0-22.75 1.83-31 5.15-8.07 3.24-12.52 7.47-12.52 11.9s4.45 8.67 12.52 11.91c8.28 3.32 19.3 5.15 31 5.15s22.76-1.83 31-5.15c8.07-3.24 12.51-7.47 12.51-11.91s-4.44-8.66-12.51-11.9c-8.24-3.32-19.26-5.15-31-5.15Z"/><path fill="#ff6b79" d="M346.19 249.72a4.56 4.56 0 0 1-.46-1.8 11.27 11.27 0 0 0-.42-3.11.69.69 0 0 1 1.16-.65 3.39 3.39 0 0 1 1 2.62 6.94 6.94 0 0 1 1.76-1.62 2.14 2.14 0 0 1 2.31-.56.92.92 0 0 1 .58.78 1.16 1.16 0 0 1 1 .46.84.84 0 0 1 .08.93.79.79 0 0 1 .51.6 1.48 1.48 0 0 1-.18 1 .91.91 0 0 1 .23.69 1.79 1.79 0 0 1-.77 1.31 13.62 13.62 0 0 1-3.41 1.8c-4.32 6.54-5.79 2.11-3.39-2.45ZM273.94 376.96l.99 5.68h2.69l1.29-6.29-4.97.61zM307.38 376.96l-1 5.68h-2.69l-1.29-6.29 4.98.61z"/><path fill="#413c3c" d="M294.13 294.51s3.86 25.86 5.05 40.94c.06.62.1 1.23.14 1.81.17 2.46.35 5.12.56 7.9 1 14.72 2.35 33.1 2.35 33.1l5.49-.39s6.75-29 8.4-39.26a348.75 348.75 0 0 0 4.19-46.89l-5.34.56-1.32.14-4.38.46-1.4.15-4.14.43-1 .11Z"/><path fill="#1d1e1c" d="M306.71 380.8s11.7 0 14 6h-14l-1.53-1.39-1.25 1.39h-2.3s-1.56-4.2 1.76-5.8a2.75 2.75 0 0 0 3.32-.2Z"/><path fill="url(#c)" d="M310.79 290s-.45 12.21-2.44 32.92c-2.08 21.56-6.74 46.82-6.74 46.82s-1.69-26.43-2.73-37.87c-.87-9.52-4.74-37.39-4.74-37.39Z"/><path fill="#413c3c" d="m273.88 378.36 5 .27 3.14-13.22 5.77-20.07 1.93-6.74 12.64-44-7.48-.78-.65-.07-18-1.89s-3.05 17.83-4.75 42.8c-.94 14.02 2.4 43.7 2.4 43.7Z"/><path fill="#1d1e1c" d="M274.61 380.8s-11.7 0-14 6h13.92l1.88-1.5 1.36 1.5h1.93s1.56-4.2-1.75-5.8a2.76 2.76 0 0 1-3.34-.2Z"/><path fill="#00f7c7" d="M340.19 280.72c8.37-2.15 11.45-22.34 9.36-28.58l-3.4-2.65s-1.22 3.23-3 6.93c-2.06 4.16-4.88 8.9-7.56 10.23-1.74.86-3.75-.77-6-3.16-4.34-4.56-16.33-23.52-24.39-19.55-17.2 8.44 22.59 39.96 34.99 36.78Z"/><path fill="url(#b)" d="M335.6 269.77c6.31-1.25 7.49-13 7.5-13.34-2.06 4.16-4.88 8.9-7.56 10.23-1.74.86-3.75-.77-6-3.16-9.23-13.79-19.39-19.5-19.39-19.5l3.29 13.12s14.69 14.13 22.16 12.65Z"/><path fill="#00f7c7" d="M322 292.63s-16.32 8.2-49.1 2.35c0 0 0-57.57 30.31-53.41 22.15 3.04 8.3 30.26 18.79 51.06Z"/><path fill="#ff5464" d="M306.16 242.17a9.31 9.31 0 0 1-1.26 5.11 22.11 22.11 0 0 0-6.72-5.82 12.11 12.11 0 0 0 .1-6.71l6.45 1.57a6.81 6.81 0 0 0 1.43 5.85Z"/><path fill="#ff6b79" d="M295.35 222.85c-2.74 2-2.74 6.65 0 10.5s7.18 5.37 9.93 3.41 2.74-6.65 0-10.5-7.19-5.37-9.93-3.41Z"/><path fill="#ff6b79" d="M303.63 226.7a29 29 0 0 1 4.42 2.89.45.45 0 0 1 0 .67 13.18 13.18 0 0 1-2.56 1.76c-.9.3-1.86-5.32-1.86-5.32Z"/><path fill="url(#o)" d="M298.69 233.36a2.65 2.65 0 1 0 1.1-3.58 2.65 2.65 0 0 0-1.1 3.58Z"/><path fill="#ff3d53" d="M302.21 223.37a12 12 0 0 1 1.94 1.53 5.54 5.54 0 0 1-4.36 1c-3.88-.7-6 2.84-6 2.84l-.71-2.73 7.26-5.23Z"/><path fill="#1d1e1c" d="M275.71 245.57c.62.15 1.3 0 1.88.12 2.43.61 2.65 1.95 4.1 3.18a6.43 6.43 0 0 0 3.27 1.47c2.84.4 5.27-1 5-4a10 10 0 0 0-1.63-4.26c-.49-.76-1.4-1.4-1.82-2.16-.87-1.53.08-2.59 1-3.9a31 31 0 0 0 2.4-3.78 9.55 9.55 0 0 0 2.37 3.61c1 .7 2.07 2.36 4.21 1.38 3.43-1.55-1.69-5.23-1.58-7.38a2.17 2.17 0 0 0 1.21-2.31c-.18-1.76 1.9-2.51 3.7-2.36s3.46 0 4.7-1.63c1-1.26-5.44-4.75-7.26-4.23-4.83 1.39-6.89 4-7.8 5.94-2.4-1.51-5.36-2.27-7.84-.39a4.77 4.77 0 0 0-1.85 2.72c-.4 1.73.59 2.21-1.43 3.88a22.65 22.65 0 0 1-2.57 1.25c-4.52 2.67-6.83 11.2-.06 12.85Z"/><path fill="#ff6b79" d="M296.24 231.14s-1.69-.76-2.15.62 2.25 4 3.32 2.28-1.17-2.9-1.17-2.9Z"/><path fill="url(#p)" d="M272.91 295s0-22.31 6.44-35.72l15.26-12.67s10.19 7.24-10.82 27.83c-4.26 4.17 19.88 14 19.88 14Z"/><path fill="#1d1e1c" d="M296.16 219.68s6.4-2.82 10 4c0 0-9.14 6.65-12.36 6.51l-2.7-4.08Z"/><path fill="#fff" d="M298.67 220a16.51 16.51 0 0 1 3.18.9 6.26 6.26 0 0 1 2.12 2c.25.36-.25.83-.51.47a5.28 5.28 0 0 0-2.1-2 17.71 17.71 0 0 0-2.9-.78c-.46.01-.22-.65.21-.59ZM300.53 222.08a4.13 4.13 0 0 1 1.85 1.78c.22.39-.4.71-.61.32a3.57 3.57 0 0 0-1.61-1.51c-.4-.2-.03-.79.37-.59Z"/><path fill="#ff0f54" d="M289.31 232.31a30 30 0 0 1-.39-7.08.7.7 0 0 1 1.39.07 27.46 27.46 0 0 0 .36 6.71c.15.88-1.2 1.18-1.36.3Z"/><path fill="#fff" d="M298.18 241.46s5.17 2.68 6.72 5.82l-2.5 3s-2.71-6.79-5.29-8.71a1.18 1.18 0 0 1 1.07-.11ZM306.16 242.17s-.2 3.82-1.26 5.11l2.57 3s.51-5.23-.83-7.93ZM304.58 254.75a1 1 0 1 1 1 1 1 1 0 0 1-1-1ZM305.13 261.86a1 1 0 1 1 2.08 0 1 1 0 1 1-2.08 0ZM305.13 274.43a1 1 0 1 1 1 1 1 1 0 0 1-1-1ZM305.13 267.73a1 1 0 1 1 1 1 1 1 0 0 1-1-1ZM305.13 281.37a1 1 0 1 1 2.08 0 1 1 0 1 1-2.08 0ZM345.78 248.94l-.63 1.76 5.86 3.66.24-2.32-5.47-3.1z"/><path fill="#ff6b79" d="M292.79 290.8c.39 1 1.32.79 2.26 1.23 1.15.55 4.5 4.5 5.85 4 1.86-.62-2.44-2.72-1.33-3.09.39-.14 4.31 3.91 4.57 2.19.11-.75-2.86-3.77-1.66-3.59 1.16.75 3.72 3.66 4.47 2.7.35-.45-1.16-2.59-1.83-3.14-2.33-1.91-1.32-2.34 1-.65 1.21.87 2.11.47 1.3-.85-1.68-2.72-6.39-3.28-9.43-3.29-1.27.04-6.06 2.2-5.2 4.49Z"/><path fill="#ff6b79" d="M295.57 287.51c-.53.61.28 1.36.88 1a4.17 4.17 0 0 0 2.29-1c.38-.35.66-.79 1.05-1.11a4.37 4.37 0 0 1 2.06-.76c.45-.1.89-.66.5-1.1-1.76-1.96-5.66 1.68-6.78 2.97Z"/><path fill="#00f7c7" d="M259.23 275.4c1.51 8.18 26.82 14.93 35 16.52L295 287s-5.55-3.87-9.41-6c-4.34-2.43-9.25-5.65-10.43-8.35-.77-1.75 1.21-3.45 4.06-5.33 5.43-3.57 18.24-11.45 16.78-17.6-4.37-18.26-39 13.57-36.77 25.68Z"/><path fill="#fff" d="m294.66 285.68-1.97 6.24 2.23 1.81 1.93-7.36-2.19-.69z"/><path fill="#413c3c" d="m354.27 255.92-5.55-18-4.72 1.46 5.55 18c.33 1.1 1.18 1.81 1.91 1.59l2.15-.65c.67-.24.99-1.32.66-2.4ZM342.75 238.33l3.73-1.13-3-9.87-3.74 1.12a5.16 5.16 0 0 0-3.45 6.43 5.17 5.17 0 0 0 6.46 3.45Z"/><path fill="#00b995" d="m344.59 241.53 30.39-.15-9.25-34.08-26.54 17.7a4.15 4.15 0 0 0-1.63 4.82l3.07 8.89a4.16 4.16 0 0 0 3.96 2.82Z"/><path fill="#00f7c7" d="M361.92 227.16c2.73 10.05 8.71 16.93 13.36 15.37s6.22-11 3.49-21-8.7-16.92-13.36-15.36-6.21 10.95-3.49 20.99Z"/><path fill="#413c3c" d="M374.92 241.2c-2.69.9-6.05-2.06-8.68-7.16a30.82 30.82 0 0 1-1.72-4 33.59 33.59 0 0 1-1.1-3.43 40.69 40.69 0 0 1-1.15-5.91c-.07-.66-.13-1.32-.17-2-.34-5.86 1-10.4 3.66-11.3 3.83-1.28 9 5.23 11.52 14.54s1.47 17.99-2.36 19.26Z"/><path fill="#1d1e1c" d="M364.52 230.08a33.59 33.59 0 0 1-1.1-3.43 40.69 40.69 0 0 1-1.15-5.91 3.8 3.8 0 0 1 1-.28 4.73 4.73 0 0 1 5.46 3.9 5.25 5.25 0 0 1-4.21 5.72Z"/><path fill="#ff6b79" d="M354.23 249.17v-.15a1 1 0 0 0-.31-.72 1.14 1.14 0 0 0 0-.83 1.26 1.26 0 0 0-.53-.6v-.09c.27-.46.23-.9-.5-1.14a2.51 2.51 0 0 1-.48-.15 1 1 0 0 0-.18-1c-1-1.47-2.75.68-3.35 1.4a.65.65 0 0 0 .05.89.62.62 0 0 0 .64.32 3.53 3.53 0 0 0 .46-.1 1 1 0 0 0-.21.86.79.79 0 0 0 .73.65 1 1 0 0 0 0 .88.79.79 0 0 0 .9.59c-.26.56.36 1.06.89.91a3.32 3.32 0 0 0 1.83-1.09 1.13 1.13 0 0 0 .06-.63ZM707.18 416c-6.49 7.75-21 6.51-15.37.76 1.36-1.4 17-29.51 23.38-28.46 18.93 3.12 3.55 13.91-8.01 27.7Z"/><path fill="url(#d)" d="M698.72 413.64c-5.36 1.86-5.59 6.72-7.86 4.35 5-6.61 10.89-16.82 13.17-19.59 1.68-2.52 4.55-6.09 4.55-6.09l4.66 7.31s-7.47 11.58-14.52 14.02Z"/><path fill="#ff6b79" d="m720.84 511.34.96 5.54h2.63l1.25-6.13-4.84.59z"/><path fill="#413c3c" d="M708.24 428.37a341.59 341.59 0 0 0 4.07 45.63 343.27 343.27 0 0 0 8.9 37.7h4.71s1.73-24 2.76-39c1-14.33 5.05-41.7 5.05-41.7Z"/><path fill="#fff" d="M719.8 513a1.14 1.14 0 0 1-.62-1.55 2.85 2.85 0 0 1-.11-1.13c.11-.35 7.49-1 7.89 0s-.31 1.31-.31 1.31.89.71 0 .95-4.39 1.11-6.85.42Z"/><path fill="url(#q)" d="M717.51 426.65s.43 11.9 2.38 32.07c2 21 6.56 45.61 6.56 45.61s1.65-25.75 2.66-36.89c.85-9.27 4.62-36.42 4.62-36.42Z"/><path fill="#1d1e1c" d="M721.49 515.09s-11.4 0-13.63 5.81h18.6s1.52-4.08-1.71-5.64a2.68 2.68 0 0 1-3.26-.17Z"/><path fill="#ff6b79" d="m760.04 500.32 4.96 2.95 1.76-2.05-3.92-5.08-2.8 4.18z"/><path fill="#413c3c" d="M727.17 427.19s-2.35 36.26 4.56 46.93c8.32 12.84 30 26.63 30 26.63l1.89-3.92s-11.4-18.45-14.89-31.34c-2.33-8.63 4.12-34 4.11-36.6s-25.67-1.7-25.67-1.7Z"/><path fill="#1d1e1c" d="M764.13 502.73s-7.37 9.54-4 15l11.71-15.15s-2.36-3.8-5.65-2.15c-.05 0 .22 1.57-2.06 2.3Z"/><path fill="#fff" d="M761.65 502.21a1.16 1.16 0 0 1-1.53-.75 2.91 2.91 0 0 1-.86-.79c-.16-.35 5.07-5.91 6.07-5.41s.65 1.22.65 1.22 1.18-.07.62.76-2.6 3.83-4.95 4.97Z"/><path fill="#00f7c7" d="m721.21 381.17 2.37 34.47s-15-7.35-23.7-15.59c0 0 7.53-13.84 21.33-18.88Z"/><path fill="url(#r)" d="m709.83 407.71 5 3.17 6.41-29.71a21.93 21.93 0 0 0-5.58 3.18c-3.38 6.32-7.66 12.05-5.83 23.36Z"/><path fill="#00f7c7" d="M707.32 429s16.37 8.19 49.26 2.34c0 0 2.89-54.53-25.71-53.32-17.45.73-19.01 16.52-23.55 50.98Z"/><path fill="url(#s)" d="M756.58 431.33s1.67-30.49-9.11-44.78l-7.41-4.39s-15.81 18.58 2.42 31.92c9.14 6.69 10.64 17.83 10.64 17.83Z"/><path fill="#ff5464" d="M727.1 378.45s2 3.62 8.21-.15a11.78 11.78 0 0 1-.27-6.73l-6.29 1.53s.61 2.36-1.65 5.35Z"/><path fill="#ff6b79" d="M733 359.23c3.21.71 5 4.92 4 9.41s-4.39 7.55-7.59 6.85-5-4.92-4-9.41 4.4-7.56 7.59-6.85Z"/><path fill="#ff6b79" d="M727.06 365.84a28.28 28.28 0 0 0-2.85 4.28.42.42 0 0 0 .27.58 12.14 12.14 0 0 0 3 .6c.87-.06-.42-5.46-.42-5.46Z"/><path fill="url(#h)" d="M734 369.93a2.58 2.58 0 1 1-2.36-2.79 2.59 2.59 0 0 1 2.36 2.79Z"/><path fill="#ff3d53" d="M727.07 362.31a11 11 0 0 0-1.15 2.11 5.37 5.37 0 0 0 4.27-.79c3.21-2.11 6.47.25 6.47.25l-.4-2.71-8.51-1.92Z"/><path fill="#413c3c" d="M737.44 358.27a1.72 1.72 0 0 1 1.08-.24c.86.07.86-1.29 0-1.35a2.89 2.89 0 0 0-1.52.32 3.13 3.13 0 0 0-1-1.72c-.67-.54-1.63.41-1 1a1.59 1.59 0 0 1 .39.43 5.87 5.87 0 0 0-1.89-.72c-1.81-.34-7.6.19-9.85 1.87-2.47 1.85-.88 4.56.45 5.32a6.51 6.51 0 0 0 5.81-.13c1.55-.82 3.7-.94 4.22.71a2.1 2.1 0 0 0 2 1.61c.93 1.88.15 3.81-.44 6.78 2.29.05 3.87-4.43 4.36-7.24a7.92 7.92 0 0 0-2.61-6.64Z"/><path fill="#ff6b79" d="M735.38 367s1.23-1.32 2.16-.26-.5 4.42-2.1 3.3-.06-3.04-.06-3.04Z"/><path fill="#fff" d="M724.73 358a1.67 1.67 0 0 0-1.28 1.15 2.63 2.63 0 0 0 .29 2.05.34.34 0 0 0 .58-.34c-.48-.84-.42-1.89.59-2.21.41-.15.24-.8-.18-.65ZM735.8 363.45c-.53-.13-.66-.87-1-1.26a2.6 2.6 0 0 0-1-.75c-.39-.19-.73.4-.34.58a2.44 2.44 0 0 1 1.18 1.27 1.41 1.41 0 0 0 .93.82.34.34 0 0 0 .23-.66Z"/><path fill="#413c3c" d="m706.22 424.85 16.97 3.51-16.24 2.05-.73-5.56z"/><path fill="url(#t)" d="m723.19 428.36.08 2.43-16.34 2.49.02-2.87 16.24-2.05z"/><path fill="#1d1e1c" d="m671.9 428.3 35.05 2.11-.02 2.87-35.03-2.34v-2.64z"/><path fill="url(#u)" d="M707.44 408.08a1.4 1.4 0 0 0-1.3-1.21l-32.22-1.95a1.35 1.35 0 0 0-.72.18l-1.82.85.91 1.36.21-.08 1.18 20.22 33.27 3 1.82-.23Z"/><path fill="#413c3c" d="m671.9 428.29 35.1 2.12-1.29-21.49a1.39 1.39 0 0 0-1.29-1.21l-32.22-1.95a1.39 1.39 0 0 0-1.46 1.57Z"/><path fill="#ff6b79" d="M690.77 433.17a.25.25 0 0 1-.12-.19 1.38 1.38 0 0 1-.88.55c-.46 0-.72-.37-.92-.65a1.89 1.89 0 0 1-1.78 1.05c-.7-.12-.86-.68-.82-1.33a4.73 4.73 0 0 1-.58.6c-.83.66-1.71-.07-2-.78a.27.27 0 0 1 .05-.29.22.22 0 0 1 0-.08 8.26 8.26 0 0 1 .79-2 3.55 3.55 0 0 1 1-1.4c.88-.52 1.3.46 1.46 1.14.23-.68.64-1.28 1.56-1a1.61 1.61 0 0 1 1.07 1.16 2.2 2.2 0 0 1 .69-.79c.76-.49 1.32.33 1.47.89a2.17 2.17 0 0 1 0 .8.56.56 0 0 1 .18-.07c.56-.13.93.53 1 .91a1.49 1.49 0 0 1-2.17 1.48ZM802.48 391.94l-.27.09a1.62 1.62 0 0 0 0-.23.91.91 0 0 0-.36-.75c-.8-.52-1.59-.17-2.37.13l-.3.11c-1 .24-2.15.74-3 .94-.36.08-1.36.43-1.61.28.05 0 1.75-.72 2-.83a.73.73 0 0 0 .2-1.31c-1.3-.76-3.06.29-4.21 1a4.14 4.14 0 0 0-2.16 3.71.71.71 0 0 0 .47.68 4.13 4.13 0 0 0 .39 1.2.66.66 0 0 0 .44.9l.39.1c.17.11.31.15.38.1 2.93.75 8.65.94 9.51-.95.16-.35-.15-.84-.13-.91.63-.38 1.13-.48 1.24-1.28a1.28 1.28 0 0 0-.15-.88 1.77 1.77 0 0 0 .42-1.24c.02-.48-.43-1.03-.88-.86Z"/><path fill="#ff6b79" d="M767.5 412.37c10 3.54 19.37-7.6 26.15-15.35l-3-2.69s-11.88 9.49-17.32 7.6c-3.89-1.35-17.61-16.91-24-16-19.02 2.66 6.28 22.24 18.17 26.44Z"/><path fill="url(#v)" d="M771.87 405c4.61.94 10.76-5.08 10.85-5.46-3.82 1.83-7.56 3.36-10.49 1.77-1.44-.78-10.67-9.2-10.67-9.2l-7.56 2.27s10.56 9.16 17.87 10.62Z"/><path fill="#00f7c7" d="M740.86 380.56s-4.7 6.54-1 15.77c3 7.53 14 11.61 14 11.61s5.43-12.47 9.76-17.76c-.02 0-7.62-9.1-22.76-9.62Z"/><path fill="none" d="M439.69 271.54h8.36v8.35h-8.36zM370.99 271.54h8.36v8.35h-8.36zM382.44 271.54h8.36v8.35h-8.36zM359.54 271.54h8.36v8.35h-8.36zM451.14 271.54h8.36v8.35h-8.36zM462.59 271.54h8.36v8.35h-8.36zM485.49 271.54h8.36v8.35h-8.36zM496.94 271.54h8.35v8.35h-8.35zM474.04 271.54h8.36v8.35h-8.36zM405.34 271.54h8.36v8.35h-8.36zM416.79 271.54h8.36v8.35h-8.36zM428.24 271.54h8.36v8.35h-8.36zM393.89 271.54h8.36v8.35h-8.36z"/><path fill="#413c3c" d="M356.67 269.05V521h77.79v-75.17a36.79 36.79 0 0 1 25-34.86A36.8 36.8 0 0 1 508 378V269.05Zm11.23 10.84h-8.36v-8.35h8.36Zm11.45 0H371v-8.35h8.36Zm11.45 0h-8.36v-8.35h8.36Zm11.45 0h-8.36v-8.35h8.36Zm11.45 0h-8.36v-8.35h8.36Zm11.45 0h-8.36v-8.35h8.36Zm11.45 0h-8.36v-8.35h8.36Zm11.44 0h-8.35v-8.35H448Zm11.46 0h-8.36v-8.35h8.36Zm11.45 0h-8.36v-8.35H471Zm11.44 0H474v-8.35h8.35Zm11.46 0h-8.36v-8.35h8.36Zm11.44 0h-8.35v-8.35h8.35Z"/><path fill="#fff" d="M361.76 265.14h3.93v11.79h-3.93zM373.21 265.14h3.93v11.79h-3.93zM384.66 265.14h3.93v11.79h-3.93zM396.1 265.14h3.93v11.79h-3.93zM407.55 265.14h3.93v11.79h-3.93zM419 265.14h3.93v11.79H419zM430.45 265.14h3.93v11.79h-3.93zM441.9 265.14h3.93v11.79h-3.93zM453.35 265.14h3.93v11.79h-3.93zM464.8 265.14h3.93v11.79h-3.93zM476.25 265.14h3.93v11.79h-3.93zM487.7 265.14h3.93v11.79h-3.93zM499.15 265.14h3.93v11.79h-3.93zM413 337.49v-10.73h2.18v8.91h5.43v1.82ZM421.75 332.15a6.92 6.92 0 0 1 .49-2.78 5.12 5.12 0 0 1 1-1.48 4.07 4.07 0 0 1 1.4-1 5.84 5.84 0 0 1 2.33-.43 5.05 5.05 0 0 1 3.83 1.54 6.62 6.62 0 0 1 0 8.23 5.67 5.67 0 0 1-7.64 0 5.57 5.57 0 0 1-1.41-4.08Zm2.25-.07a4.07 4.07 0 0 0 .84 2.78 2.79 2.79 0 0 0 2.16.95 2.71 2.71 0 0 0 2.14-.94 4.13 4.13 0 0 0 .84-2.82 4.05 4.05 0 0 0-.82-2.78 2.74 2.74 0 0 0-2.16-.91 2.8 2.8 0 0 0-2.18.92 4.11 4.11 0 0 0-.82 2.8ZM439 333.51v-1.82h4.7V336a6 6 0 0 1-2 1.17 7.2 7.2 0 0 1-2.64.51 5.87 5.87 0 0 1-3-.72 4.5 4.5 0 0 1-1.9-2 6.66 6.66 0 0 1-.63-2.88 6.17 6.17 0 0 1 .71-3 4.79 4.79 0 0 1 2.07-2 5.58 5.58 0 0 1 2.59-.54 5.22 5.22 0 0 1 3.15.84 3.84 3.84 0 0 1 1.45 2.34l-2.17.41a2.22 2.22 0 0 0-.85-1.26 2.61 2.61 0 0 0-1.58-.46 3 3 0 0 0-2.28.9 3.87 3.87 0 0 0-.84 2.7 4.26 4.26 0 0 0 .85 2.89 2.87 2.87 0 0 0 2.25 1 3.71 3.71 0 0 0 1.37-.27 5 5 0 0 0 1.19-.65v-1.38ZM445.26 332.15a6.92 6.92 0 0 1 .49-2.78 5.12 5.12 0 0 1 1-1.48 4.07 4.07 0 0 1 1.4-1 5.84 5.84 0 0 1 2.33-.43 5.05 5.05 0 0 1 3.82 1.48 6.64 6.64 0 0 1 0 8.23 5.68 5.68 0 0 1-7.65 0 5.57 5.57 0 0 1-1.39-4.02Zm2.25-.07a4 4 0 0 0 .85 2.78 2.76 2.76 0 0 0 2.15.95 2.71 2.71 0 0 0 2.14-.94 5.16 5.16 0 0 0 0-5.6 2.77 2.77 0 0 0-2.17-.91 2.8 2.8 0 0 0-2.18.92 4.11 4.11 0 0 0-.79 2.8Z"/><path fill="#fff" d="M434.38 347.86c-10.17 0-19.74-1.6-26.95-4.49-7.38-3-11.44-7-11.44-11.29s4.06-8.32 11.44-11.29c7.21-2.89 16.78-4.48 26.95-4.48s19.74 1.59 26.95 4.48c7.38 3 11.45 7 11.45 11.29s-4.07 8.33-11.45 11.29c-7.21 2.89-16.78 4.49-26.95 4.49Zm0-30.34c-10 0-19.43 1.56-26.5 4.4-6.89 2.76-10.68 6.37-10.68 10.16s3.79 7.4 10.68 10.17c7.07 2.84 16.48 4.4 26.5 4.4s19.43-1.56 26.5-4.4c6.89-2.77 10.69-6.38 10.69-10.17s-3.8-7.4-10.69-10.16c-7.07-2.84-16.48-4.4-26.5-4.4Z"/><path fill="#ff0f54" d="M389.36 354.46a4.89 4.89 0 1 1-4.89-4.89 4.89 4.89 0 0 1 4.89 4.89Z"/><path fill="#00f7c7" d="M395.2 349.57a2.92 2.92 0 1 1-2.92-2.92 2.91 2.91 0 0 1 2.92 2.92ZM486.92 309.42a3.93 3.93 0 1 1 3.93 3.93 3.92 3.92 0 0 1-3.93-3.93Z"/><path fill="#ff0f54" d="M482.24 303.16a2.34 2.34 0 1 1 2.34 2.34 2.34 2.34 0 0 1-2.34-2.34Z"/><circle cx="379.85" cy="487.1" r="9.51" fill="#ff0f54"/><circle cx="391.33" cy="501.82" r="4.75" fill="#00f7c7"/><g opacity=".5"><path fill="#fff" d="M343.55 393.72h116.79v.36H343.55z" transform="rotate(-45 401.948 393.898)"/><path fill="#fff" d="M355.95 406.12h116.79v.36H355.95z" transform="rotate(-45.01 414.356 406.308)"/><path fill="#fff" d="M368.35 418.52h116.79v.36H368.35z" transform="rotate(-45 426.744 418.707)"/><path fill="#fff" d="M380.76 430.92h116.79v.36H380.76z" transform="rotate(-45 439.135 431.094)"/></g><g opacity=".5"><path fill="#fff" d="M438.97 335.51h.36V452.3h-.36z" transform="rotate(-45 439.152 393.907)"/><path fill="#fff" d="M426.57 347.91h.36V464.7h-.36z" transform="rotate(-45 426.747 406.306)"/><path fill="#fff" d="M414.17 360.31h.36V477.1h-.36z" transform="rotate(-44.99 414.334 418.7)"/><path fill="#fff" d="M401.76 372.71h.36V489.5h-.36z" transform="rotate(-45 401.95 431.107)"/></g><path fill="#00f7c7" d="M508 445.83V521h-73.54v-75.17a36.77 36.77 0 1 1 73.54 0Z"/><path fill="#ff0f54" d="M508 378v67.84A36.81 36.81 0 0 0 459.49 411 36.8 36.8 0 0 1 508 378Z"/><path fill="#413c3c" d="M245.54 501.25a8 8 0 0 0 4.81-1.56c4.83-3.53 4.74-11.31 3.63-14.69s-5.19-7.58-13-15.63c-13.82-14.27-41.95-36-22.72-53.25 4.4-3.93 10-2.36 12.76-1.49 9.27 2.91 15.91 14.64 18.14 19.41a3.88 3.88 0 0 0 7-3.29c-.4-.85-9.89-20.79-25.3-23.59-7.45-1.36-11.8-.13-16.54 2.13-8.29 3.95-10.88 15.16-10.06 21 .66 4.65 2.8 9.77 6.57 15.66 6.49 10.15 16.5 20.49 24.54 28.79 4.7 4.85 10.54 10.88 11.19 12.68s.09 5.29-.84 6c-.17.12-1.49.19-4.34-1.88a3.88 3.88 0 1 0-4.57 6.27c3.56 2.55 6.43 3.44 8.73 3.44ZM245.2 396.66c0 4.67 24.12 8.46 53.85 8.46s53.85-3.79 53.85-8.46-24.11-8.45-53.85-8.45-53.85 3.79-53.85 8.45Z"/><path fill="#fff" d="M247 403.73c0 4.67 23.33 8.46 52.1 8.46s52.11-3.79 52.11-8.46-23.33-8.46-52.11-8.46-52.1 3.79-52.1 8.46Z"/><path fill="#413c3c" d="m352.9 396.66-7.06 114.91c0 4.67-23.84 10-46.79 10s-46.79-5.34-46.79-10l-7.06-114.91 14 5.69c7.13 1.89 73.85 1.89 81 0Z"/><path fill="#1d1e1c" d="M299.05 407.89c9.46 0 56.62-.54 56.62-11.23s-47.16-11.22-56.62-11.22-56.61.54-56.61 11.22 47.16 11.23 56.61 11.23Zm50.4-11.23c-4.52 2.53-23.16 5.69-50.4 5.69s-45.88-3.16-50.39-5.69c4.51-2.53 23.15-5.69 50.39-5.69s45.88 3.16 50.4 5.69Z"/><path fill="#fff" d="M274.14 465.12v-11.9h2.43v9.88h6v2ZM283.83 459.2a7.54 7.54 0 0 1 .55-3.08 5.54 5.54 0 0 1 1.12-1.65 4.58 4.58 0 0 1 1.55-1.08 6.49 6.49 0 0 1 2.58-.47 5.63 5.63 0 0 1 4.25 1.64 7.37 7.37 0 0 1 0 9.13 5.6 5.6 0 0 1-4.22 1.64 5.67 5.67 0 0 1-4.26-1.63 6.22 6.22 0 0 1-1.57-4.5Zm2.5-.09a4.52 4.52 0 0 0 .94 3.1 3.23 3.23 0 0 0 4.77 0 5.7 5.7 0 0 0 0-6.21 3.07 3.07 0 0 0-2.4-1 3.1 3.1 0 0 0-2.42 1 4.55 4.55 0 0 0-.89 3.11ZM303 460.71v-2h5.22v4.78a6.68 6.68 0 0 1-2.21 1.3 8.05 8.05 0 0 1-2.92.56 6.57 6.57 0 0 1-3.29-.79 5.05 5.05 0 0 1-2.1-2.26 7.31 7.31 0 0 1-.7-3.2 6.94 6.94 0 0 1 .78-3.33 5.35 5.35 0 0 1 2.3-2.24 6.34 6.34 0 0 1 2.88-.59 5.77 5.77 0 0 1 3.49.93 4.25 4.25 0 0 1 1.62 2.59l-2.41.46a2.54 2.54 0 0 0-1-1.4 2.85 2.85 0 0 0-1.74-.51 3.3 3.3 0 0 0-2.53 1 4.29 4.29 0 0 0-.94 3 4.72 4.72 0 0 0 .95 3.21 3.2 3.2 0 0 0 2.49 1.07 4.16 4.16 0 0 0 1.53-.3 5 5 0 0 0 1.31-.73v-1.52ZM309.92 459.2a7.72 7.72 0 0 1 .54-3.08 5.94 5.94 0 0 1 1.12-1.65 4.68 4.68 0 0 1 1.55-1.08 6.54 6.54 0 0 1 2.59-.47 5.64 5.64 0 0 1 4.25 1.64 7.37 7.37 0 0 1 0 9.13 6.32 6.32 0 0 1-8.48 0 6.18 6.18 0 0 1-1.57-4.49Zm2.49-.09a4.58 4.58 0 0 0 .94 3.1 3.09 3.09 0 0 0 2.4 1.05 3 3 0 0 0 2.37-1.05 5.73 5.73 0 0 0 0-6.21 3.37 3.37 0 0 0-4.82 0 4.56 4.56 0 0 0-.89 3.11Z"/><path fill="#fff" d="M297.85 476.63c-10.1 0-19.6-1.77-26.76-5-7.33-3.29-11.37-7.74-11.37-12.53s4-9.23 11.37-12.52c7.16-3.21 16.66-5 26.76-5s19.61 1.77 26.76 5c7.39 3.31 11.39 7.75 11.39 12.54s-4 9.24-11.37 12.53c-7.17 3.21-16.63 4.98-26.78 4.98Zm0-33.67c-10 0-19.3 1.73-26.31 4.88-6.85 3.07-10.62 7.08-10.62 11.28s3.77 8.21 10.62 11.28c7 3.15 16.36 4.88 26.31 4.88s19.3-1.73 26.32-4.88c6.84-3.07 10.61-7.07 10.61-11.28s-3.77-8.21-10.61-11.28c-7.02-3.15-16.37-4.84-26.32-4.84Z"/><path fill="#ff0f54" d="M326.42 492a5.9 5.9 0 1 0 5.9-5.9 5.91 5.91 0 0 0-5.9 5.9Z"/><path fill="#00f7c7" d="M319.38 486.09a3.52 3.52 0 1 0 3.52-3.51 3.52 3.52 0 0 0-3.52 3.51ZM260.8 424.36a4.06 4.06 0 1 0-4.06 4.05 4.06 4.06 0 0 0 4.06-4.05Z"/><path fill="#ff0f54" d="M265.63 428.41a2.42 2.42 0 1 0-2.42 2.41 2.42 2.42 0 0 0 2.42-2.41Z"/><g opacity=".5"><path fill="#fff" d="M317.41 441.72c11.68-8.91 25.26-30.49 25.4-30.71l-.22-.13c-.13.21-13.69 21.75-25.33 30.64ZM325.24 445.13c11.68-8.91 23.59-27.79 23.71-28l-.22-.13c-.12.18-12 19-23.65 27.91ZM332.69 450.1c10-8.3 16.8-20.41 16.87-20.53l-.23-.12c-.06.12-6.85 12.18-16.8 20.45Z"/><path fill="#fff" d="m349.37 439.59.15-.21c-11.63-8.88-20.19-26-20.28-26.16l-.23.11c.08.17 8.68 17.34 20.36 26.26ZM346.59 447.46l.15-.2c-11.64-8.89-23.53-27.73-23.64-27.92l-.22.14c.12.19 12.03 19.07 23.71 27.98ZM337.81 451.29l.16-.2c-10-8.27-18.45-22.4-18.53-22.55l-.23.14c.09.14 8.61 14.32 18.6 22.61Z"/></g><g opacity=".5"><path fill="#fff" d="M288.5 482.4c-11.68 8.91-25.26 30.49-25.4 30.71l.22.13c.13-.21 13.69-21.75 25.33-30.64ZM280.67 479c-11.67 8.9-23.59 27.78-23.67 28l.22.13c.12-.18 12-19 23.65-27.91ZM273.22 474c-10 8.3-16.8 20.4-16.87 20.53l.23.12c.06-.12 6.85-12.18 16.8-20.45Z"/><path fill="#fff" d="m256.54 484.53-.15.21c11.63 8.88 20.19 26 20.28 26.16l.23-.11c-.08-.17-8.68-17.34-20.36-26.26ZM259.32 476.66l-.15.2c11.64 8.89 23.53 27.73 23.64 27.92l.22-.14c-.12-.19-12.03-19.07-23.71-27.98ZM268.1 472.83l-.16.2c9.95 8.27 18.45 22.4 18.53 22.55l.23-.14c-.09-.14-8.61-14.31-18.6-22.61Z"/></g><path fill="#1d1e1c" d="M236.06 413.06a27.36 27.36 0 0 0-5.2-2.26 25.65 25.65 0 0 0-5.6-1.14 18.32 18.32 0 0 0-5.8.38 13.39 13.39 0 0 0-2.78 1c-.46.2-.88.47-1.31.71l-.62.42-.3.21-.29.24a17.89 17.89 0 0 0-3.81 4.44 19.68 19.68 0 0 0-1.34 2.58 16.72 16.72 0 0 0-.94 2.74 21.22 21.22 0 0 0-.54 2.84 22.8 22.8 0 0 0-.12 2.86 18.48 18.48 0 0 0 1 5.59 23.67 23.67 0 0 1-.2-5.57 22.7 22.7 0 0 1 1.06-5.38 20.13 20.13 0 0 1 2.36-4.87 21.53 21.53 0 0 1 1.64-2.16l.45-.5.23-.25.24-.23.47-.46.51-.42.25-.21.27-.2.54-.38c.39-.21.75-.46 1.16-.64a13.21 13.21 0 0 1 2.48-.94 18.46 18.46 0 0 1 5.36-.59 25.45 25.45 0 0 1 2.75.21 25.93 25.93 0 0 1 2.73.46 38.28 38.28 0 0 1 5.35 1.52Z"/><path fill="#413c3c" d="m727.64 245.28-12.12-94.59h-8.05l-11.74 94.59-1.21-.15 11.87-95.65h10.21l12.24 95.65-1.2.15z"/><path fill="#1d1e1c" d="M747.59 149.09h-24v-20.17h-2.28v20.17h-16.38v-14.92h-2.28v14.92h-3.29c-6.94 0-12.13-2.27-15.41-6.76a16.18 16.18 0 0 1-2.92-6.86 1.15 1.15 0 1 0-2.29.27 18.33 18.33 0 0 0 3.26 7.86c2.57 3.55 7.67 7.79 17.34 7.79h48.23a1.15 1.15 0 0 0 0-2.3ZM770.89 104.41l-16-20a3.44 3.44 0 0 1 .54-4.84 3.45 3.45 0 0 1 4.84.55l16 20a3.45 3.45 0 0 1-.55 4.84 3.44 3.44 0 0 1-4.83-.55Z"/><path fill="#1d1e1c" d="m767.87 89.52-2.37 10.35-58.59 14.97V89.52h-1.05v29.95l58.59-14.98 3.42-14.97z"/><path fill="#413c3c" d="m765.5 99.87 2.37-10.35h-62.42l1.46 25.32 58.59-14.97z"/><path fill="#bf0b3f" d="M715.1 134.81c.65-.28 1.3-.6 1.92-.94-.52.12-1 .22-1.57.3Z"/><path fill="#413c3c" d="M711.37 90.2a40.25 40.25 0 0 1 4.08 44c.53-.08 1-.18 1.57-.3 8.91-2.75 28.11-10.13 28.1-20.45-.03-23.26-23.44-20.72-33.75-23.25Z"/><path fill="#bf0b3f" d="M711.79 134.45a23.62 23.62 0 0 1-11.31-44.35 23.62 23.62 0 1 0 14.62 44.71l.35-.64a23.37 23.37 0 0 1-3.66.28Z"/><path fill="#ff0f54" d="M688.17 110.47a23.61 23.61 0 0 0 27.28 23.7 40.29 40.29 0 0 0-1.19-39.86 10 10 0 0 0-8.49-4.79h-.06a23.68 23.68 0 0 0-5.23.58 23.61 23.61 0 0 0-12.31 20.37Z"/><rect width="8" height="15.74" x="726.62" y="99.36" fill="#1d1e1c" rx="3.89"/><rect width="7.2" height="14.72" x="727.02" y="99.87" fill="#ff0f54" rx="3.48"/><path fill="#1d1e1c" d="M714 81.92h10.16a1.63 1.63 0 0 1 1.63 1.63v6h-13.41v-6a1.63 1.63 0 0 1 1.62-1.63ZM712.38 73.37h13.43v3.43h-13.43z"/><path fill="#413c3c" d="M717.44 76.8h3.1v5.12h-3.1zM754.31 73.37h-70.65a1.54 1.54 0 0 1-1.55-1.55 1.55 1.55 0 0 1 1.55-1.55h70.65a1.55 1.55 0 0 1 1.55 1.55 1.54 1.54 0 0 1-1.55 1.55Z"/><path fill="#1d1e1c" d="m759.12 259.13-78.85 22.43a8.6 8.6 0 0 1-10.63-5.92l-11.32-39.8a8.6 8.6 0 0 1 5.92-10.63l78.85-22.44a8.6 8.6 0 0 1 10.63 5.92l11.33 39.8a8.61 8.61 0 0 1-5.93 10.64Z"/><path fill="#fff" d="m693.75 253-2.75-9.77 2-.57 2.3 8.11 5-1.41.47 1.66ZM700.31 245.87a6.36 6.36 0 0 1-.27-2.65 4.84 4.84 0 0 1 .53-1.61 4.11 4.11 0 0 1 1-1.25 5.73 5.73 0 0 1 2-1 4.76 4.76 0 0 1 3.87.36 6.28 6.28 0 0 1 2.14 7.48 5.38 5.38 0 0 1-7 2 5.28 5.28 0 0 1-2.27-3.33Zm2-.65a3.8 3.8 0 0 0 1.49 2.32 2.63 2.63 0 0 0 2.21.3 2.6 2.6 0 0 0 1.7-1.41 4.87 4.87 0 0 0-1.43-5.1 2.85 2.85 0 0 0-3.94 1.14 3.77 3.77 0 0 0 0 2.75ZM716.34 242.65l-.47-1.66 4.28-1.21 1.11 3.92a5.57 5.57 0 0 1-1.5 1.57 6.77 6.77 0 0 1-2.27 1.15 5.69 5.69 0 0 1-2.88.12 4.27 4.27 0 0 1-2.25-1.37 6.13 6.13 0 0 1-1.32-2.45 5.85 5.85 0 0 1-.14-2.92 4.54 4.54 0 0 1 1.37-2.37 5.38 5.38 0 0 1 2.21-1.16 4.87 4.87 0 0 1 3.09 0 3.59 3.59 0 0 1 1.93 1.73l-1.87.93a2.21 2.21 0 0 0-1.11-.92 2.48 2.48 0 0 0-1.55 0 2.83 2.83 0 0 0-1.84 1.41 3.64 3.64 0 0 0-.07 2.67 4 4 0 0 0 1.53 2.41 2.72 2.72 0 0 0 2.29.3 3.5 3.5 0 0 0 1.18-.61 4.57 4.57 0 0 0 .91-.9l-.36-1.25ZM721.7 239.78a6.35 6.35 0 0 1-.27-2.65 4.92 4.92 0 0 1 .53-1.61 3.94 3.94 0 0 1 1-1.25 5.73 5.73 0 0 1 2-1 4.84 4.84 0 0 1 3.87.36 6.26 6.26 0 0 1 2.13 7.48 4.74 4.74 0 0 1-3.08 2.33 4.79 4.79 0 0 1-3.87-.35 5.22 5.22 0 0 1-2.31-3.31Zm2-.64a3.85 3.85 0 0 0 1.5 2.31 2.77 2.77 0 0 0 3.91-1.11 4.87 4.87 0 0 0-1.43-5.09 2.61 2.61 0 0 0-2.21-.28 2.66 2.66 0 0 0-1.74 1.41 3.9 3.9 0 0 0-.01 2.76Z"/><path fill="#fff" d="M715.87 256.89c-9.25 2.63-18.37 3.66-25.68 2.89-7.48-.78-12.21-3.38-13.33-7.3s1.54-8.63 7.49-13.23 14.1-8.43 23.35-11.06 18.37-3.66 25.68-2.9c7.48.79 12.22 3.38 13.34 7.31s-1.55 8.63-7.5 13.23-14.1 8.43-23.35 11.06Zm-7.87-27.6c-9.12 2.59-17.27 6.45-23 10.86-5.55 4.3-8.07 8.57-7.09 12s5.37 5.75 12.35 6.49c7.17.75 16.13-.27 25.25-2.86s17.27-6.45 23-10.86 8.08-8.57 7.1-12-5.37-5.74-12.36-6.48c-7.15-.76-16.12.26-25.25 2.85Z"/><circle cx="634.48" cy="505.4" r="15.56" fill="url(#w)"/><path fill="url(#e)" d="M622.06 505.4a12.43 12.43 0 1 0 12.42-12.4 12.43 12.43 0 0 0-12.42 12.4Z"/><circle cx="566.34" cy="505.4" r="15.56" fill="url(#x)"/><path fill="url(#y)" d="M553.92 505.4a12.43 12.43 0 1 0 12.42-12.4 12.43 12.43 0 0 0-12.42 12.4Z"/><path fill="url(#z)" d="m656.89 488.27 4.54-9.48-81.1-38.79 81-35.76-4.33-9.64-91.38 40.4a5.26 5.26 0 0 0-.14 9.55Z"/><path fill="url(#A)" d="m543.94 488.27 91.41-43.74a5.25 5.25 0 0 0-.15-9.55l-91.41-40.38-4.25 9.62 81 35.76-81.1 38.81Z"/><path fill="#00b995" d="M543 405.72h114.83a6.32 6.32 0 0 0 6.31-6.31 6.31 6.31 0 0 0-6.31-6.31H543a6.31 6.31 0 0 0-6.31 6.31 6.32 6.32 0 0 0 6.31 6.31ZM543 489.84h114.83a6.32 6.32 0 0 0 6.31-6.31 6.31 6.31 0 0 0-6.31-6.31H543a6.31 6.31 0 0 0-6.31 6.31 6.32 6.32 0 0 0 6.31 6.31Z"/><path fill="url(#B)" d="M652.78 483.53a4.93 4.93 0 1 0 4.93-4.93 4.92 4.92 0 0 0-4.93 4.93Z"/><path fill="url(#f)" d="M654.11 483.53a3.6 3.6 0 1 0 3.6-3.59 3.6 3.6 0 0 0-3.6 3.59Z"/><path fill="url(#C)" d="M547.92 483.53a4.93 4.93 0 1 1-4.92-4.93 4.93 4.93 0 0 1 4.92 4.93Z"/><path fill="url(#D)" d="M546.58 483.53a3.59 3.59 0 1 1-3.59-3.59 3.59 3.59 0 0 1 3.59 3.59Z"/><path fill="url(#E)" d="M652.78 399.2a4.93 4.93 0 1 0 4.93-4.93 4.92 4.92 0 0 0-4.93 4.93Z"/><path fill="url(#F)" d="M654.11 399.2a3.6 3.6 0 1 0 3.6-3.6 3.6 3.6 0 0 0-3.6 3.6Z"/><path fill="url(#G)" d="M547.92 399.2a4.93 4.93 0 1 1-4.93-4.93 4.93 4.93 0 0 1 4.93 4.93Z"/><path fill="url(#H)" d="M546.58 399.2a3.59 3.59 0 1 1-3.59-3.6 3.59 3.59 0 0 1 3.59 3.6Z"/><path fill="#1d1e1c" d="M569.33 387.74s-10.49 0-12.54 5.36h17.12s1.4-3.76-1.57-5.2a2.47 2.47 0 0 1-3.01-.16Z"/><path fill="#fff" d="M567.66 388.17a1 1 0 0 1-.43-1.47 2.72 2.72 0 0 1 0-1c.14-.32 7-.2 7.23.76s-.42 1.16-.42 1.16.75.74-.13.87-4.07.57-6.25-.32Z"/><path fill="#ff6b79" d="M535.2 269.16c.28-1.69.45-4.83-1.33-5-.46-.05-.62.49-.48.83a3.33 3.33 0 0 1 .45 1.66c-1.44-1.74-3.5-3.58-5.56-3.45-1.22.08 1.36 6.26 1.46 6.57.26.88 1.79 2 2.67 2.47.71.39 1 1.1 1.82.88 1.31-.35 1.3-2.45.97-3.96Z"/><path fill="#413c3c" d="M557.31 307.92a313.18 313.18 0 0 0 3.75 42c2.64 16.33 7.76 36.22 7.76 36.22l4.17.18s2.19-23.76 3.13-37.61c.9-13.18 4.65-38.38 4.65-38.38Z"/><path fill="url(#I)" d="M575.65 314.39s-6.78 12.46-8 26.15c-1.71 19.35 6.24 37.3 6.24 37.3s1.52-23.7 2.45-33.95c.78-8.54 3.1-28.48 3.1-28.48Z"/><path fill="#413c3c" d="M577 306.42s-2.91 31 4.2 43.19 28.16 25.13 28.16 25.13l2.93-2.28s-12.27-18.92-15.48-30.79c-2.14-7.94 6-24 3.78-33.69-.49-2.3-23.59-1.56-23.59-1.56Z"/><path fill="#1d1e1c" d="M611.06 376s-6.79 8.78-3.74 13.81l10.79-13.95s-2.17-3.5-5.21-2c0-.02.25 1.37-1.84 2.14Z"/><path fill="#fff" d="M609.91 377.31a1.07 1.07 0 0 1-1.41-.69 2.77 2.77 0 0 1-.79-.73c-.14-.32 4.67-5.44 5.59-5s.6 1.12.6 1.12 1.08-.06.56.7-2.36 3.55-4.55 4.6Z"/><path fill="#ff6b79" d="M547.4 296.31c-13.52 0-14.51-12.75-16.27-26.84l3.51-.55s8 18.45 11.52 17.64c5.79-1.35 13-16 18.88-15.1 17.47 2.62-3.43 24.85-17.64 24.85Z"/><path fill="url(#J)" d="M555.53 294.36c-5.26 2.48-16.17 5.09-14.36-13.15.61 1.77 2.25 5.77 5 5.35 1.78-.27 11.14-7.62 12.42-6 .25-2.8 7.08 9.03-3.06 13.8Z"/><path fill="#00f7c7" d="M575.09 264.15s7.23 18.42-3.09 21.85l-11.51 6.84s-6.4-8.37-5.9-14.39c6.93-6.96 12.75-15.98 20.5-14.3Z"/><path fill="url(#K)" d="M554.59 278.42a21.4 21.4 0 0 0 2.61 8.06c7 1.44 19.52-18 19.52-18s-3.16-4.62-6.09-4c-4.79.95-9.75 7.74-16.04 13.94Z"/><path fill="#00f7c7" d="M560.24 310.14s9.57-1.29 39.28 1.57c0 0 5.84-50.72-20.48-49.61-16.04.68-18.25 20.36-18.8 48.04Z"/><path fill="url(#L)" d="M600.39 311.57s2.23-35.21-9.13-45.06l-8.14 19.6s13.18 3.67 14.42 9.23c2.27 10.18 2 16.37 2 16.37Z"/><path fill="#ff5464" d="M575.57 262.51s1.87 3.32 7.55-.14a10.85 10.85 0 0 1-.25-6.19l-5.78 1.41s.56 2.16-1.52 4.92Z"/><path fill="#413c3c" d="M583.49 262.77a28.71 28.71 0 0 0-4.14 16.2s-6.55.47-9.41-.46c0 0 1.14-9.09 3.64-15.47 0 0-2.23.48-2.88 1.35 0 0-4 7.7-5.28 14.85S560.5 287 560.5 287s-3.36 17.26-4.13 23a74.84 74.84 0 0 0 44.69 1.74s0-15-1.31-19.92c0 0-7.69-1.15-11.73-5.61s-5.21-12-2.08-23a2.25 2.25 0 0 0-2.45-.44Z"/><path fill="#1d1e1c" d="M568.73 286.11s7.48 2.09 12.59 0c0 0 .36 8.5 0 9.88s-6.8 3.46-8.45 3.46-5.61-3.46-5.61-3.46-.2-5.81 1.47-9.88Z"/><path fill="url(#M)" d="M582.58 264.43s-10.68 5.82-12.93 15.69l7.9.85 3-11.77Z"/><path fill="#ff6b79" d="M576.31 306.6c-12.18 5.89-21.74.17-33.35-9.1l-.62-4.89s27.13 5 29.92 2.78c4.63-3.74 3.36-21.14 9-22.91 16.91-5.24 7.83 27.93-4.95 34.12Z"/><path fill="#00f7c7" d="M587.72 264.49c11.94 3.35 4.65 24.45 4.65 24.45s-12.12-1.18-17-5.36c-.01 0-.23-22.58 12.35-19.09Z"/><path fill="#1d1e1c" d="M545.58 309.24a2.88 2.88 0 0 1-1.86 3.63l-22-67.75 2.75-.89Z"/><path fill="#fff" d="m528 257.52-1.31.43c-.56.18-1.26-.42-1.55-1.34l-5.22-16.21c-.3-.92-.09-1.81.47-2l1.32-.43c.56-.18 1.25.42 1.55 1.34l5.22 16.21c.25.93.04 1.82-.48 2ZM525.52 220.18l-19 6.16 2.66 8.21 19-6.16c.82-.26.89-2.32.15-4.59s-1.99-3.89-2.81-3.62Z"/><path fill="#413c3c" d="M509.34 230c.73 2.26.66 4.32-.16 4.58s-2.08-1.35-2.82-3.62-.66-4.32.16-4.59 2.08 1.33 2.82 3.63Z"/><path fill="#1d1e1c" d="m521.7 238-1.38.45-.75-2.17a.55.55 0 0 0-.69-.35l-12.14 4a1.18 1.18 0 0 1-1.49-.76l-2.25-6.61a1.18 1.18 0 0 1 .76-1.49l3.85-1.34a1.13 1.13 0 0 1 .45 1.37l-3.06 1.09a.56.56 0 0 0-.35.69l1.75 5.08a.55.55 0 0 0 .69.35l12.15-4a1.18 1.18 0 0 1 1.49.76Z"/><path fill="#ff6b79" d="M541 291.86c-2.08-.63-2.86-1.6-4.19-1a1.82 1.82 0 0 0-1.57 1.21 1.17 1.17 0 0 0 .33 1.17 1.25 1.25 0 0 0-.22 1 1.49 1.49 0 0 0 .82 1 .91.91 0 0 0-.07.68 1.2 1.2 0 0 0 .83.86 1.09 1.09 0 0 0 .07.52c.41 1.06 2 1.14 3 1.18 1.16.05 3.13.16 3.93-.92a2.23 2.23 0 0 0 .19-.32 1.39 1.39 0 0 0 .23-.25c1.27-1.7-2.28-4.79-3.35-5.13Z"/><path fill="#ff6b79" d="M542.76 293.49c.29.66-.6 1.1-1 .65a3.76 3.76 0 0 1-1.71-1.47c-.23-.4-.35-.85-.6-1.23a4.1 4.1 0 0 0-1.57-1.19c-.36-.2-.59-.8-.14-1.07 2-1.18 4.39 2.91 5.02 4.31ZM530.31 271.22c.26-.25.63-.85.34-1.23a.38.38 0 0 0-.12-.1 2.18 2.18 0 0 0 .6-.42c.37-.39.8-1.22.16-1.57a1.51 1.51 0 0 0-.85-.16 1.7 1.7 0 0 0 .51-1.39c-.07-.87-.68-.9-1.28-.75.46-.46 1.06-1.25.36-1.69a2.68 2.68 0 0 0-1.43-.14 6.92 6.92 0 0 0-1.8.35h-.06a.23.23 0 0 0-.24.1c-.45.57-.69 1.61.11 1.93a2.37 2.37 0 0 0 .66.17c-.51.28-.88.68-.73 1.28s.79.85 1.43.88a1.22 1.22 0 0 0-.17 1 1 1 0 0 0 .73.43.25.25 0 0 0-.1.18 1.14 1.14 0 0 0 1.88 1.13ZM582 246.29c2.9.64 4.52 4.45 3.62 8.52s-4 6.83-6.87 6.19-4.52-4.45-3.62-8.51 3.93-6.84 6.87-6.2Z"/><path fill="#ff6b79" d="M576.57 252.27a25.21 25.21 0 0 0-2.58 3.87.39.39 0 0 0 .25.54 11.56 11.56 0 0 0 2.69.54c.81-.06-.36-4.95-.36-4.95Z"/><path fill="url(#N)" d="M582.88 256a2.34 2.34 0 1 1-2.13-2.52 2.34 2.34 0 0 1 2.13 2.52Z"/><path fill="#ff3d53" d="M576.58 249.08a10.12 10.12 0 0 0-1.05 1.91 4.87 4.87 0 0 0 3.87-.71c2.91-1.91 5.86.22 5.86.22l-.37-2.46-7.69-1.73Z"/><path fill="#1d1e1c" d="M584.73 251.81a1.92 1.92 0 0 1-1.78-1.46c-.46-1.49-2.41-1.38-3.81-.64a5.86 5.86 0 0 1-5.26.12c-1.2-.69-2.64-3.14-.4-4.81 2-1.53 7.27-2 8.91-1.7 3 .56 6.49 4.46 5.88 8.07-.44 2.55-1.87 6.61-3.95 6.56.54-2.69 1.24-4.44.41-6.14Z"/><path fill="#ff6b79" d="M584.1 253.32s1.11-1.19 2-.24-.46 4-1.9 3-.1-2.76-.1-2.76Z"/><path fill="#fff" d="M574.46 245.17a1.52 1.52 0 0 0-1.16 1 2.42 2.42 0 0 0 .26 1.86.31.31 0 0 0 .53-.31c-.43-.76-.38-1.71.53-2a.3.3 0 0 0-.16-.55ZM585.5 246.18a6.16 6.16 0 0 0-4.89-2.22.31.31 0 0 0 0 .61 5.57 5.57 0 0 1 4.36 1.92c.23.31.77.01.53-.31Z"/><path fill="#bf0b3f" d="M619.81 364.36c0 1.22 6.29 2.21 14 2.21s14-1 14-2.21-6.28-2.2-14-2.2-14 .98-14 2.2Z"/><path fill="#bf0b3f" d="M619.81 364.36c0 1.22 6.29 2.21 14 2.21s14-1 14-2.21-6.28-2.2-14-2.2-14 .98-14 2.2Z"/><path fill="#fff" d="M620.27 366.2c0 1.22 6.08 2.21 13.58 2.21s13.58-1 13.58-2.21-6.08-2.2-13.58-2.2-13.58 1-13.58 2.2Z"/><path fill="#bf0b3f" d="m647.88 364.36-1.5 28.07c0 1.22-6.55 2.21-12.53 2.21s-12.54-1-12.54-2.21l-1.5-28.07 3.65 1.48c1.86.5 19.25.5 21.11 0Z"/><path fill="#ff0f54" d="M633.85 367.29c2.46 0 14.76-.14 14.76-2.93s-12.3-2.93-14.76-2.93-14.76.15-14.76 2.93 12.29 2.93 14.76 2.93Zm13.15-2.93c-1.17.66-6 1.48-13.13 1.48s-12-.82-13.14-1.48c1.18-.66 6-1.48 13.14-1.48s11.94.82 13.13 1.48Z"/><path fill="#fff" d="M640.81 365.53a3.87 3.87 0 0 1 .9 0 1.3 1.3 0 0 1 .8.39 1.46 1.46 0 0 1 .3 1.17c0 .41-.18.81-.26 1.22a4.14 4.14 0 0 0 .25 2.33c.13.3.29.58.41.89a6.28 6.28 0 0 1 .28 2 68.41 68.41 0 0 1 0 8.1c-.12 1.43-.55 3.14-1.93 3.52a2.35 2.35 0 0 1-2.21-.71 4.62 4.62 0 0 1-1.08-2.15 9.47 9.47 0 0 1 0-4.49c.53-2.12 1.8-4.06 1.92-6.24a2.81 2.81 0 0 0-.14-1.22c-.34-.9-1.26-1.43-1.75-2.26a2.11 2.11 0 0 1 .12-2.37 1.72 1.72 0 0 1 2.39-.18Z"/><path fill="#ff0f54" d="M622.52 376.9h23a.42.42 0 0 0 .41-.33l2.61-11.82-.83-.18-2.53 11.48h-22.32l-2.63-11.78-.83.18 2.7 12.12a.43.43 0 0 0 .42.33Z"/><path fill="#00f7c7" d="m807.37 398.94-9.68-5.59v-11.11l9.68 5.59v11.11z"/><path fill="#00b995" d="m817.06 393.35-9.69 5.59v-11.11l9.69-5.59v11.11z"/><path fill="url(#O)" d="m807.37 387.83-9.68-5.59 9.62-5.56 9.69 5.59-9.63 5.56z"/><path fill="#00f7c7" d="m788 398.96-9.68-5.59v-11.11l9.68 5.59v11.11z"/><path fill="#00b995" d="m797.69 393.37-9.69 5.59v-11.11l9.69-5.59v11.11z"/><path fill="url(#P)" d="m788 387.85-9.68-5.59 9.62-5.56 9.69 5.59-9.63 5.56z"/><path fill="#ff0f54" d="m788.47 380.36-4.08-2.35v-4.67l4.08 2.35v4.67z"/><path fill="#bf0b3f" d="m792.54 378.01-4.07 2.35v-4.67l4.07-2.35v4.67z"/><path fill="url(#g)" d="m788.47 375.69-4.08-2.35 4.05-2.34 4.07 2.36-4.04 2.33z"/><path fill="#ff0f54" d="m800.82 384.42-9.69-5.6v-11.11l9.69 5.59v11.12z"/><path fill="#bf0b3f" d="m810.51 378.82-9.69 5.6V373.3l9.69-5.59v11.11z"/><path fill="url(#Q)" d="m800.82 373.3-9.69-5.59 9.63-5.56 9.69 5.6-9.63 5.55z"/><path fill="#00f7c7" d="M510.09 96.97h20.71v9.6h-20.71z" transform="rotate(180 520.445 101.77)"/><path fill="#00b995" d="M465.01 103.23h83.16v19.54h-83.16z" transform="rotate(180 506.585 113)"/><path fill="url(#R)" d="M515.35 121.89a8.9 8.9 0 1 0 8.9-8.89 8.89 8.89 0 0 0-8.9 8.89Z"/><path fill="url(#S)" d="M524.25 129.39a7.5 7.5 0 1 0-7.51-7.5 7.51 7.51 0 0 0 7.51 7.5Z"/><circle cx="524.25" cy="121.89" r="3.8" fill="#fff"/><circle cx="493.3" cy="121.89" r="8.89" fill="url(#T)"/><circle cx="493.3" cy="121.89" r="7.5" fill="url(#U)"/><path fill="#fff" d="M493.3 125.69a3.8 3.8 0 1 0-3.8-3.8 3.8 3.8 0 0 0 3.8 3.8Z"/><path fill="#00b995" d="M470.77 91.21h18.54v14.28h-18.54z" transform="rotate(180 480.035 98.345)"/><path fill="url(#V)" d="m422.71 44.27 76 25.24 17.87 5.17 3.84-8.27h30.72v33.31h-53.82l-.56-18.87-74.62-35.17a.76.76 0 0 1 .57-1.41Z"/><path fill="#fff" d="M523.62 79.64h10.52v17.33h-10.52z" transform="rotate(180 528.88 88.305)"/><path fill="#fff" d="M536.94 72.51h10.52v24.46h-10.52z" transform="rotate(180 542.2 84.735)"/><path fill="#fff" d="M502.79 88a3.24 3.24 0 1 0 3.21-3.26 3.24 3.24 0 0 0-3.21 3.26Z"/><path fill="#00b995" d="M427.38 122.77h36.85V73.12h-21.38l-15.03 22.82-.44 26.83z"/><path fill="#413c3c" d="M394.65 62.92h40.28v1.16h-40.28z" transform="rotate(-67.64 414.817 63.483)"/><path fill="#fff" d="M431.28 97.94h28.94V79.91h-19.26l-9.68 18.03z"/><path fill="#413c3c" d="M393.43 114.34a3.86 3.86 0 1 0 4.81-2.59 3.85 3.85 0 0 0-4.81 2.59Z"/><path d="M394.4 114.63a2.85 2.85 0 1 0 3.54-1.9 2.85 2.85 0 0 0-3.54 1.9Z"/><path d="M397.66 113.66a2.51 2.51 0 0 0 3.14-1.66l8.76-29.19a2.52 2.52 0 0 0-1.69-3.14 2.53 2.53 0 0 0-3.14 1.69L396 110.52a2.52 2.52 0 0 0 1.66 3.14ZM398.23 115.78a9.2 9.2 0 0 0-2.84 1.49 6.38 6.38 0 0 0-1.23 1.21 4.07 4.07 0 0 0-.51.85 2.57 2.57 0 0 0-.18.62v.32a2.71 2.71 0 0 0 0 .29 5.11 5.11 0 0 0 .5 1.82 12.92 12.92 0 0 0 .75 1.39 9.79 9.79 0 0 1 1.21 2.46 2.81 2.81 0 0 1 .08.55 1.44 1.44 0 0 1-.06.47 1.21 1.21 0 0 1-.53.71 2 2 0 0 1-1.08.22 4.82 4.82 0 0 1-1.32-.26 5.76 5.76 0 0 1-1.26-.58 3.63 3.63 0 0 1-.53-.39 1.28 1.28 0 0 1-.29-.47 1.33 1.33 0 0 1 .28-1.16 2.36 2.36 0 0 1 1.13-.82l-.06-.23a2.78 2.78 0 0 0-1.44.72 2.37 2.37 0 0 0-.49.71 1.76 1.76 0 0 0-.14.92 1.87 1.87 0 0 0 .37.88 4.34 4.34 0 0 0 .6.61 7 7 0 0 0 1.39.89 6.09 6.09 0 0 0 1.61.53 3.39 3.39 0 0 0 1.89-.17 2.63 2.63 0 0 0 .88-.61 2.76 2.76 0 0 0 .58-.87 3.6 3.6 0 0 0 .23-2 13.81 13.81 0 0 0-1-3.18c-.2-.47-.4-.92-.59-1.34a7.56 7.56 0 0 1-.4-1.06.45.45 0 0 0 0-.08.18.18 0 0 1 0-.06v-.07a2 2 0 0 1 .17-.51 7.45 7.45 0 0 1 .67-1.16c.53-.79 1.16-1.59 1.78-2.44Z"/><path fill="#413c3c" d="M405.3 81.58a1.9 1.9 0 1 0 2.37-1.28 1.91 1.91 0 0 0-2.37 1.28ZM396.63 110.49a1.9 1.9 0 1 0 2.37-1.28 1.9 1.9 0 0 0-2.37 1.28Z"/><circle cx="447.32" cy="121.89" r="8.89" fill="url(#W)"/><circle cx="447.32" cy="121.89" r="7.5" fill="url(#X)"/><circle cx="447.32" cy="121.89" r="3.8" fill="#fff"/><path fill="#413c3c" d="m422.85 142.42-7.92-15.78A3.29 3.29 0 0 0 413 125l-6.95-2.3a3.3 3.3 0 0 0-3.6 1.07 6.55 6.55 0 0 1-11.72-3.88 3.3 3.3 0 0 0-2.25-3l-6.95-2.3a3.27 3.27 0 0 0-2.51.18l-15.77 7.92a3.28 3.28 0 0 0-1.47 4.41l2.37 4.71a3.29 3.29 0 0 0 4.41 1.46l3.66-1.84-11.5 34.68a3.28 3.28 0 0 0 2.08 4.15l16 5.3 16 5.3a3.28 3.28 0 0 0 4.15-2.09l11.5-34.68 1.84 3.67a3.29 3.29 0 0 0 4.41 1.46l4.71-2.36a3.28 3.28 0 0 0 1.44-4.44Z"/><path fill="#fff" d="m381.85 142.76.94-3.5.71.19-.77 2.91 1.77.47-.16.6ZM385.17 141.78a2.51 2.51 0 0 1 .4-.87 1.91 1.91 0 0 1 .46-.39 1.49 1.49 0 0 1 .54-.2 2.22 2.22 0 0 1 .8.06 1.7 1.7 0 0 1 1.12.82 1.87 1.87 0 0 1 .11 1.47 1.9 1.9 0 0 1-.82 1.22 1.69 1.69 0 0 1-1.37.15 1.74 1.74 0 0 1-1.13-.81 1.92 1.92 0 0 1-.11-1.45Zm.74.17a1.39 1.39 0 0 0 0 1 1 1 0 0 0 .62.5.9.9 0 0 0 .78-.12 1.76 1.76 0 0 0 .5-1.83 1 1 0 0 0-1.42-.37 1.35 1.35 0 0 0-.48.87ZM390.68 143.72l.16-.59 1.54.41L392 145a2 2 0 0 1-.75.2 2.26 2.26 0 0 1-.9-.06 2 2 0 0 1-.91-.49 1.57 1.57 0 0 1-.44-.83 2.26 2.26 0 0 1 0-1 2.06 2.06 0 0 1 .5-.92 1.59 1.59 0 0 1 .85-.47 2 2 0 0 1 .89 0 1.79 1.79 0 0 1 1 .56 1.32 1.32 0 0 1 .27.88l-.75-.05a.77.77 0 0 0-.17-.49 1 1 0 0 0-.47-.29 1 1 0 0 0-.82.1 1.27 1.27 0 0 0-.51.81 1.4 1.4 0 0 0 0 1 1 1 0 0 0 .65.51 1.27 1.27 0 0 0 .48 0 1.89 1.89 0 0 0 .44-.11l.12-.45ZM392.85 143.82a2.46 2.46 0 0 1 .4-.86 2 2 0 0 1 .46-.4 1.46 1.46 0 0 1 .54-.19 1.85 1.85 0 0 1 .8.06 1.7 1.7 0 0 1 1.12.82 1.87 1.87 0 0 1 .11 1.47 1.9 1.9 0 0 1-.82 1.22 1.93 1.93 0 0 1-2.5-.67 1.91 1.91 0 0 1-.11-1.45Zm.74.18a1.39 1.39 0 0 0 0 1 1 1 0 0 0 .62.5 1 1 0 0 0 .78-.12 1.76 1.76 0 0 0 .5-1.83 1 1 0 0 0-.63-.49.9.9 0 0 0-.79.12 1.35 1.35 0 0 0-.48.82Z"/><path fill="#fff" d="M387.93 148a25.4 25.4 0 0 1-8.41-3.81c-2.15-1.61-3.13-3.28-2.76-4.69s2.06-2.36 4.73-2.69a28.11 28.11 0 0 1 17.6 4.69c2.15 1.61 3.13 3.28 2.76 4.69s-2.05 2.36-4.72 2.69a25.37 25.37 0 0 1-9.2-.88Zm2.64-9.91a24.94 24.94 0 0 0-9-.87c-2.49.3-4 1.15-4.37 2.39s.59 2.75 2.61 4.25a27.74 27.74 0 0 0 17.31 4.61c2.49-.3 4-1.15 4.37-2.39s-.59-2.74-2.6-4.25a24.91 24.91 0 0 0-8.32-3.73Z"/><path fill="#ff0f54" d="M375.46 149.15a1.66 1.66 0 1 1-1.17-2 1.65 1.65 0 0 1 1.17 2Z"/><path fill="#00f7c7" d="M377.79 148.06a1 1 0 1 1-.7-1.21 1 1 0 0 1 .7 1.21ZM404.51 139.55a1.33 1.33 0 1 1 1.84-.38 1.34 1.34 0 0 1-1.84.38Z"/><path fill="#ff0f54" d="M401.87 139.7a.79.79 0 1 1 1.1-.22.8.8 0 0 1-1.1.22Z"/></svg>