
<svg xmlns="http://www.w3.org/2000/svg" data-name="Layer 1" viewBox="0 0 2500 2700"><path fill="#fff" d="M443.63045,1581.37105a452.73745,452.73745,0,0,1-18.4153,51.777Q433.88905,1607.05945,443.63045,1581.37105Z"/><path fill="#fff" d="M2047.15035,1635.51285c-697.0343,257.4623-1411.0163,65.7001-1621.9503-2.3577,82.9641-195.061-6.2536-361.5313,85.1819-475.1145,156.2782-194.132,493.5425-242.0256,725.3705-242.0256,243.2223,0,609.3176,32.0205,767.5948,242.0256C2084.69145,1265.96975,2003.63115,1503.41515,2047.15035,1635.51285Z"/><path fill="#fff" d="M2108.61435,2005.19065c0,280.7709-112.6286,430.4529-291.5357,508.8749-154.3529,67.6573-358.0363,46.7061-581.2919,46.7061-214.0477,0-410.1248,22.1523-561.9422-38.6104-190.0719-76.0197-310.8406-226.2358-310.8406-516.9706,0-105.4226,15.8799-212.5356,45.1937-316.4456q7.87335-27.957,17.0367-55.6026a452.72227,452.72227,0,0,0,18.4154-51.7773c14.3234-49.4195,19.083-96.704,20.5064-141.542,3.6919-111.8277-13.2113-207.9537,46.2612-281.7939,154.3529-191.7622,485.2998-240.8261,716.7844-241.9826,2.8915-.0443,5.7381-.0443,8.585-.0443,2.847,0,5.7384,0,8.6296.0443,243.1835.7118,602.5544,34.4293,758.9533,241.9826,35.7192,47.3735,40.1229,119.7012,37.4983,197.1446-3.3361,98.9282-18.1042,206.2189,6.3167,280.3262a1244.52491,1244.52491,0,0,1,33.228,120.5909C2098.82825,1838.60515,2108.61435,1922.45375,2108.61435,2005.19065Z"/><path fill="#371a45" d="M2108.61435,2005.19065c0,280.7709-112.6286,430.4529-291.5357,508.8749-154.3529,67.6573-358.0363,46.7061-581.2919,46.7061-214.0477,0-410.1248,22.1523-561.9422-38.6104-190.0719-76.0197-310.8406-226.2358-310.8406-516.9706,0-105.4226,15.8799-212.5356,45.1937-316.4456,54.2411,336.3712,355.0753,605.9229,821.4968,605.9229,355.9864,0,715.2212-221.6242,850.7182-538.577C2098.82825,1838.60515,2108.61435,1922.45375,2108.61435,2005.19065Z" opacity=".3"/><path fill="#371a45" d="M441.58935,1640.10675l-33.2592-12.5744c5.8422-17.5659,12.1215-35.2198,18.6645-52.4695l33.7329,11.2317A471.80393,471.80393,0,0,1,441.58935,1640.10675Z"/><path fill="#413757" d="M2047.15035,1635.51285c-697.0343,257.4623-1411.0163,65.7001-1621.9503-2.3577,82.9641-195.061-6.2536-361.5313,85.1819-475.1145,156.2782-194.132,493.5425-242.0256,725.3705-242.0256,243.2223,0,609.3176,32.0205,767.5948,242.0256C2084.69145,1265.96975,2003.63115,1503.41515,2047.15035,1635.51285Z"/><path fill="#371a45" d="M462.45365,1347.40415c-.3198,0-.6421-.0085-.9692-.0256a17.79455,17.79455,0,0,1-16.814-18.7207c1.5845-29.4983,10.0024-129.7852,51.8677-181.781,178.684-221.991,570.4248-247.8174,730.5566-248.617,5.5859-.0879,11.6138-.0903,17.5806.0025,389.0942,1.1376,649.2065,84.9353,772.8857,249.0649,27.2339,36.1218,41.7017,87.6562,45.5322,162.1753a17.792,17.792,0,1,1-35.5371,1.8262c-3.4497-67.0899-15.6567-112.3963-38.4131-142.5818-116.621-154.7657-367.207-233.7964-744.7973-234.9011-3.125-.0489-6.0498-.0672-8.8526-.0452-2.6635,0-5.3271,0-8.0322.0427-155.2295.7764-534.0967,25.2588-703.2031,235.3491-27.9883,34.7608-41.2232,108.6548-44.0503,161.3721A17.79657,17.79657,0,0,1,462.45365,1347.40415Z"/><path fill="#371a45" d="M977.79055,2582.48475c-113.8257.0012-219.9951-7.5452-310.5762-43.7989-216.687-86.665-322.0239-261.1718-322.0239-533.49,0-124.3933,21.2427-251.455,63.1372-377.6538q.2271-.68835.5127-1.3537a436.99309,436.99309,0,0,0,17.6929-49.74,17.79184,17.79184,0,1,1,34.1943,9.8462,471.81232,471.81232,0,0,1-18.8501,53.1384c-40.5469,122.3547-61.1011,245.4077-61.1011,365.7629,0,259.6631,95.2173,418.6854,299.6558,500.4505,115.6567,46.2891,263.02,42.937,419.0332,39.3848,44.1846-1.0059,89.8731-2.0459,136.3013-2.0459,43.8232,0,87.0434.8068,128.8379,1.5869,174.2358,3.2556,324.7192,6.0632,445.3125-46.7969,191.6308-83.999,280.8838-240.52,280.8838-492.5794,0-109.4702-5.5616-238.2531-46.8018-363.4106a17.79331,17.79331,0,1,1,33.7988-11.1377c42.815,129.9378,48.5889,262.2534,48.5889,374.5483,0,264.2554-98.8452,436.0413-302.1826,525.1722-127.7442,55.9924-289.2578,52.9834-460.2637,49.7839-41.6308-.7776-84.6826-1.5808-128.1738-1.5808-46.023,0-91.5064,1.0351-135.4907,2.0361C1058.73785,2581.55335,1017.78565,2582.48475,977.79055,2582.48475Z"/><path fill="#371a45" d="M2032.56215,1315.20065c-163.4979,248.4783-421.6187,429.5978-791.1315,429.5978-394.4225,0-654.9332-219.6706-752.9496-375.3579,3.6919-111.828-31.8923-133.1168,27.5803-206.9572,154.3528-191.7622,485.2997-240.8258,716.7843-241.9824,2.8915-.0445,5.7381-.0445,8.585-.0445,2.847,0,5.7381,0,8.6296.0445,243.1835.7116,602.5544,34.4291,758.9533,241.9824C2044.73275,1209.85685,2035.18665,1237.75745,2032.56215,1315.20065Z" opacity=".4"/><ellipse cx="2032.562" cy="2189.037" fill="#413757" rx="326.906" ry="350.917"/><path fill="#371a45" d="M2032.56105,2557.746c-190.0659,0-344.6973-165.4028-344.6973-368.7097s154.6314-368.7097,344.6973-368.7097c190.0684,0,344.6997,165.4028,344.6997,368.7097S2222.62945,2557.746,2032.56105,2557.746Zm0-701.8335c-170.4443,0-309.1113,149.4385-309.1113,333.1238s138.667,333.1238,309.1113,333.1238c170.4468,0,309.1138-149.4385,309.1138-333.1238S2203.00785,1855.91245,2032.56105,1855.91245Z"/><ellipse cx="2032.562" cy="2189.037" fill="#fff" rx="242.791" ry="260.623"/><ellipse cx="467.438" cy="2213.794" fill="#413757" rx="326.906" ry="350.916"/><path fill="#371a45" d="M467.439,2582.503c-190.0683,0-344.6997-165.4016-344.6997-368.7085s154.6314-368.7097,344.6997-368.7097c190.0684,0,344.6998,165.4028,344.6998,368.7097S657.50735,2582.503,467.439,2582.503Zm0-701.8323c-170.4467,0-309.1137,149.4385-309.1137,333.1238,0,183.6841,138.667,333.1225,309.1137,333.1225,170.4468,0,309.1138-149.4384,309.1138-333.1225C776.55275,2030.10925,637.88575,1880.67075,467.439,1880.67075Z"/><ellipse cx="467.438" cy="2213.794" fill="#fff" rx="242.791" ry="260.623"/><path fill="#371a45" d="M467.43825,2334.71035c-143.0084,0-264.4873-98.6133-308.8528-235.9168a373.54644,373.54644,0,0,0-18.0536,115c0,193.8062,146.3611,350.9168,326.9064,350.9168,180.5457,0,326.9065-157.1106,326.9065-350.9168a373.54633,373.54633,0,0,0-18.0533-115C731.92595,2236.09705,610.44705,2334.71035,467.43825,2334.71035Z" opacity=".3"/><path fill="#371a45" d="M2032.43825,2309.71035c-143.0084,0-264.4873-98.6133-308.8528-235.9168a373.54644,373.54644,0,0,0-18.0536,115c0,193.8062,146.3611,350.9168,326.9064,350.9168,180.5457,0,326.9065-157.1106,326.9065-350.9168a373.54633,373.54633,0,0,0-18.0533-115C2296.926,2211.09705,2175.44705,2309.71035,2032.43825,2309.71035Z" opacity=".3"/><path fill="#413757" d="M2095.56425,375.42165c0,.8449,0,1.6901-.0443,2.491-1.2901,131.489-107.5134,237.6677-238.2905,237.6677-131.6672,0-238.3797-107.5134-238.3797-240.1587a238.36948,238.36948,0,0,1,4.2259-45.0161c20.8621-111.1162,117.7885-195.0984,234.1538-195.0984C1988.85175,135.30715,2095.56425,242.82025,2095.56425,375.42165Z"/><ellipse cx="1857.222" cy="379.876" fill="#feffff" rx="96.055" ry="96.772"/><path fill="#371a45" d="M2095.52,377.91265c-1.2901,131.489-107.5134,237.6677-238.2905,237.6677-131.6672,0-238.3797-107.5134-238.3797-240.1587a238.36948,238.36948,0,0,1,4.2259-45.0161l4.4482-2.3129c6.6723,0,157.9114-22.2411,295.8059,182.3765C1923.32975,510.46915,2046.98985,512.73785,2095.52,377.91265Z" opacity=".4"/><path fill="#fff" d="M2095.60875,373.064a247.18954,247.18954,0,0,1-1.9127,30.5592c-13.2556-104.4439-93.101-201.4593-195.2319-222.5437-1.023,11.4761-22.1075,20.5949-47.9961,20.5949-23.4864,0-43.0586-7.5617-47.1954-17.5702-95.9925,26.1997-169.8326,119.4343-182.5102,219.519a247.24793,247.24793,0,0,1-1.9127-30.5592c0-132.6456,106.757-240.1587,238.3797-240.1587C1988.85175,132.90525,2095.60875,240.41835,2095.60875,373.064Z" opacity=".6"/><path fill="#371a45" d="M1857.22175,633.35875c-141.2427,0-256.1524-115.7068-256.1524-257.9309s114.9097-257.9309,256.1524-257.9309c141.2426,0,256.1523,115.7068,256.1523,257.9309S1998.46435,633.35875,1857.22175,633.35875Zm0-480.2759c-121.6211,0-220.5664,99.7437-220.5664,222.345s98.9453,222.345,220.5664,222.345,220.5664-99.7437,220.5664-222.345S1978.84285,153.08285,1857.22175,153.08285Z"/><ellipse cx="636.966" cy="375.428" fill="#413757" rx="238.359" ry="240.138"/><path fill="#fff" d="M398.58665,373.064a247.18954,247.18954,0,0,0,1.9127,30.5592c13.2556-104.4439,93.101-201.4593,195.232-222.5437,1.023,11.4761,22.1074,20.5949,47.996,20.5949,23.4864,0,43.0586-7.5617,47.1954-17.5702,95.9925,26.1997,169.8326,119.4343,182.5102,219.519a247.24793,247.24793,0,0,0,1.9127-30.5592c0-132.6456-106.757-240.1587-238.3796-240.1587C505.34365,132.90525,398.58665,240.41835,398.58665,373.064Z" opacity=".6"/><path fill="#371a45" d="M636.96535,633.35875c-141.2427,0-256.1523-115.7068-256.1523-257.9309S495.72265,117.497,636.96535,117.497s256.1524,115.7068,256.1524,257.9309S778.20805,633.35875,636.96535,633.35875Zm0-480.2759c-121.6211,0-220.5664,99.7437-220.5664,222.345s98.9453,222.345,220.5664,222.345,220.5664-99.7437,220.5664-222.345S758.58645,153.08285,636.96535,153.08285Z"/><ellipse cx="636.966" cy="379.876" fill="#feffff" rx="96.055" ry="96.772"/><path fill="#371a45" d="M398.63105,383.07885c1.2902,131.4891,107.5134,237.6678,238.2906,237.6678,131.6671,0,238.3796-107.5134,238.3796-240.1587a238.37132,238.37132,0,0,0-4.2259-45.0162l-4.4482-2.3128c-6.6723,0-157.9114-22.2411-295.8058,182.3765C570.82135,515.63545,447.16115,517.90405,398.63105,383.07885Z" opacity=".4"/><path fill="#fff" d="M2031.67985,1074.62175c23.8002,287.6048-438.7583,595.8976-805.3068,595.8976-346.145,0-842.0687-290.5063-788.6114-612.4534,24.252-146.0575,81.3399-250.0663,81.3399-250.0663s41.7432-201.6828,96.6546-279.4691c139.7298-197.9378,362.1307-313.0685,611.9068-313.0685,257.8254,0,492.0026,103.2559,633.2523,309.5109,52.1936,76.214,85.3824,295.2806,85.3824,295.2806S2020.78705,942.99065,2031.67985,1074.62175Z"/><path fill="#371a45" d="M2038.67175,1074.63525c0,343.313-495.6639,595.8821-805.3036,595.8821-346.1596,0-795.2954-237.7122-795.6065-595.8821-.1781-165.829,67.4793-254.3928,67.4793-254.3928s8.229-25.0434,21.0399-61.2519c-15.0858,78.0007-85.6067,231.449-39.7225,377.382,66.8161,212.5059,311.967,417.2015,766.2494,417.2015,398.5559,0,581.3458-180.1918,670.522-338.8201,75.6195-134.5134,55.8274-249.8204,49.1081-383.8359C1989.65235,863.479,2038.67175,966.01005,2038.67175,1074.63525Z" opacity=".3"/><path fill="#371a45" d="M1233.36915,1688.31c-180.6933,0-381.5918-62.2937-537.3974-166.637-177.837-119.0942-275.857-277.8503-276.0035-447.0215-.1684-156.3269,57.7295-246.2768,69.2505-262.6208,2.4634-7.4109,9.9268-29.6863,20.2906-58.9746,26.8798-76.0096,65.6738-178.2178,97.8295-233.4766,117.3365-201.5698,351.8482-321.908,627.3194-321.908,133.8232,0,257.6269,26.6236,367.9712,79.1309,115.039,54.74,209.2309,134.8535,279.956,238.1128,56.9068,83.1164,95.6324,272.1655,100.9326,299.0637,1.0865,1.9397,2.6905,4.8731,4.69,8.6987,15.9814,30.2283,68.2568,137.9615,68.2568,251.958,0,160.8606-104.6289,317.6868-294.6094,441.587C1599.09425,1622.37,1396.58935,1688.31,1233.36915,1688.31Zm1.2891-1455.0525c-262.6587,0-485.6738,113.728-596.565,304.2224-32.3877,55.6592-73.4448,166.3916-95.0366,227.4438-12.5879,35.5762-20.8301,60.6238-20.9106,60.8728l-.94,2.8577-1.8261,2.3901c-.6104.8081-63.9942,86.5589-63.8257,243.5718.1367,156.9385,92.5512,305.2039,260.2197,417.4902,150.1782,100.5738,343.6719,160.6177,517.5952,160.6177,154.3213,0,354.1333-65.2795,509.0454-166.3086,103.9991-67.8235,278.4644-211.5088,278.4644-411.7798,0-105.8044-49.1162-206.9274-64.1699-235.4003-3.2837-6.283-5.3174-9.7742-5.4395-9.9817l-1.5527-2.6453-.5811-3.0237c-.3955-2.0605-40.0659-206.9983-95.9106-288.562C1721.87255,343.24765,1496.41365,233.25745,1234.65825,233.25745Z"/><path fill="#413757" d="M1516.87855,678.94825c82.8828-5.1801,212.27,23.8848,282.2361,206.3407,60.9762,159.0124-14.2304,260.8904-141.1181,268.0056-126.8876,7.1152-132.3654-101.7831-183.8092-182.6233-49.8063-78.2671-115.9946-81.5655-116.2148-149.4191C1357.82635,776.18925,1403.03545,686.06345,1516.87855,678.94825Z"/><path fill="#fff" d="M1551.51225,976.03055c-.7076-17.3413,6.3484-30.9876,16.2715-41.8292a69.42365,69.42365,0,0,1,39.6428-20.5658c3.8922-.4389,7.7295-1.1261,11.7067-.8966,3.9491.299,7.8856.252,11.7448.9875,7.696,1.7749,15.2434,3.9148,21.76,8.1989,6.7668,3.6724,12.2545,9.2102,16.9646,15.0958a41.05661,41.05661,0,0,1,5.7395,10.1007c.7616,1.8616,1.5062,3.6609,2.1651,5.5139a53.56391,53.56391,0,0,1,1.5141,6.0047l.2175,1.4111a1.47315,1.47315,0,0,1-2.1285,1.535c-10.0915-5.1745-20.288-10.1178-31.2368-12.2345-5.382-1.4581-10.9118-1.7706-16.41-2.3016-5.5097.1568-11.0592.0671-16.4785,1.2512a98.35022,98.35022,0,0,0-31.4005,10.647,120.7191,120.7191,0,0,0-14.3115,8.8464,100.136,100.136,0,0,0-13.1306,10.5621,1.52543,1.52543,0,0,1-2.5777-1.0382Z"/><path fill="#413757" d="M947.76005,678.94825c-82.8827-5.1801-212.2699,23.8848-282.236,206.3407-60.9763,159.0124,14.2304,260.8904,141.118,268.0056,126.8877,7.1152,132.3655-101.7831,183.8092-182.6233,49.8064-78.2671,115.9947-81.5655,116.2149-149.4191C1106.81235,776.18925,1061.60325,686.06345,947.76005,678.94825Z"/><path fill="#fff" d="M793.60135,939.77075c4.9566-16.6327,16.0582-27.251,28.9621-34.2877a69.42663,69.42663,0,0,1,44.1708-6.5918c3.8239.8484,7.6766,1.4429,11.3641,2.9504,3.6385,1.5638,7.3774,2.7967,10.7892,4.7443,6.7038,4.176,13.1487,8.6487,17.923,14.8151,5.2092,5.6695,8.6035,12.688,11.1494,19.7833a41.05167,41.05167,0,0,1,2.152,11.416c.1166,2.0081.237,3.952.2592,5.9186a53.56475,53.56475,0,0,1-.5159,6.1706l-.252,1.4051a1.47372,1.47372,0,0,1-2.5116.7623c-7.8667-8.1689-15.9079-16.1536-25.5779-21.7072-4.6177-3.1256-9.747-5.2154-14.7755-7.5012-5.2626-1.6388-10.483-3.5241-15.9931-4.1626a98.35552,98.35552,0,0,0-33.1562-.1165,120.80053,120.80053,0,0,0-16.4075,3.7249,100.138,100.138,0,0,0-15.8472,5.7312,1.52527,1.52527,0,0,1-2.1014-1.8182Z"/><path fill="#371a45" d="M1250.547,1272.121a17.80143,17.80143,0,0,1-17.2583-13.5242c-4.9976-20.2038-20.7154-92.4853-13.1153-174.331a17.79355,17.79355,0,0,1,35.4346,3.291c-7.2681,78.2495,8.9087,149.0881,12.2266,162.4939a17.80963,17.80963,0,0,1-17.2876,22.0703Z"/><path fill="#371a45" d="M1134.23815,1016.55505c20.9514-42.6911,185.7867-39.1335,207.1323,2.3718s-71.304,79.453-104.4322,79.453C1203.81,1098.37985,1113.795,1058.21085,1134.23815,1016.55505Z"/><ellipse cx="1244.026" cy="1028.219" fill="#fff" rx="41.505" ry="14.035"/><path fill="#371a45" d="M1132.99,1233.49515c20.3367,2.4097,40.4069,4.8865,59.9794,6.0657,19.5945,1.2219,38.8998,1.5673,57.8772-.2167a230.1489,230.1489,0,0,0,55.6492-11.947c18.1958-6.175,35.4781-15.3339,53.1702-25.9803l.1822-.1098a6.04022,6.04022,0,0,1,8.065,8.6358,135.60017,135.60017,0,0,1-21.8454,24.7016,143.01767,143.01767,0,0,1-27.3085,19.48c-19.668,11.0852-41.8477,17.7862-64.1635,20.3918a191.30538,191.30538,0,0,1-66.3936-3.6505,188.59564,188.59564,0,0,1-31.2831-10.2142c-10.0678-4.4806-19.691-9.3439-28.7644-16.3245a6.09385,6.09385,0,0,1,4.422-10.882Z"/><path fill="#371a45" d="M1349.874,1143.74175c4.4585,11.1413,7.7785,21.9079,11.5096,31.8792a301.48592,301.48592,0,0,0,11.8757,28.6402,57.76626,57.76626,0,0,0,3.4687,6.7779c1.3203,2.1595,2.3355,4.5453,3.7187,6.6913,2.8447,4.2255,5.3689,8.8074,8.6564,12.9346,2.9155,4.4726,6.4971,8.4656,9.9379,12.9327,3.4485,4.4794,7.5757,8.3795,11.2447,13.4937l.5136.7153a6.09094,6.09094,0,0,1-6.0846,9.5349,92.14333,92.14333,0,0,1-9.5222-2.4066,47.49787,47.49787,0,0,1-9.3077-3.4161c-5.9188-2.9206-11.9895-5.9845-17.1644-10.3345a65.47566,65.47566,0,0,1-7.8016-6.5295c-2.3625-2.4366-4.7455-4.8926-7.0668-7.4189-4.1602-5.3723-8.4519-10.8508-11.4875-16.9818a93.34875,93.34875,0,0,1-11.5531-38.6883c-.1009-3.3625-.1958-6.7023-.0731-10.0324a91.414,91.414,0,0,1,1.1161-9.9487,61.99542,61.99542,0,0,1,6.4493-19.3408,6.20279,6.20279,0,0,1,11.2204.6231Z"/><path fill="#ff4a4a" d="M2029.41345,777.96975c-9.3673-3.8442-471.2921-190.3794-648.839,13.266,0,0-139.7524-81.8155-284.8653,0,0,0-126.649-205.7572-648.9471-13.2118v108.1852s47.4864,5.252,71.2026,31.6214c23.7162,26.4236-2.6531,329.7531,348.2169,313.942,350.8703-15.8649,261.1494-371.987,261.1494-371.987s92.3199-63.2974,216.3696,0c0,0-68.6578,372.5829,311.235,372.5829,0,0,249.6158-2.166,287.5726-285.5154,3.5194-26.3152,13.1576-71.2568,87.0679-60.6439V778.024C2029.52185,778.024,2029.46765,777.96975,2029.41345,777.96975Zm-943.3422,186.1019v.1084c-6.8226,66.2754-46.0247,217.5069-262.5573,217.5069-170.7241,0-233.6966-114.1409-249.1283-216.2074l-.1626-1.4618c-10.396-70.8238,2.0576-135.4749,17.1644-151.6647,0,0,32.9212-65.9505,237.758-65.9505,271.7077,0,258.171,187.2929,258.171,187.2929A214.74973,214.74973,0,0,1,1086.07125,964.07165Zm560.9588,217.5614c-266.2388,0-263.8022-230.1773-263.8022-247.9376,0-22.1457-6.3896-187.2929,258.1711-187.2929,204.8364,0,237.7576,65.8963,237.7576,65.8963C1916.08465,851.88005,1937.25575,1181.63305,1647.03005,1181.63305Z"/><path fill="#fff" d="M823.26915,1190.806c-176.9501,0-242.2191-118.3033-258.2135-224.092,2.1326,20.4844,30.0809,238.9643,245.7547,238.9643,226.1685,0,284.5347-134.6348,284.5909-240.3112C1088.33,1034.05945,1047.69825,1190.806,823.26915,1190.806Z" opacity=".6"/><path fill="#fff" d="M1373.68505,965.36705c.0561,105.6764,58.4224,240.3112,284.5909,240.3112,215.6738,0,243.6221-218.4799,245.7547-238.9643-15.9944,105.7887-81.2634,224.092-258.2135,224.092C1421.38805,1190.806,1380.75635,1034.05945,1373.68505,965.36705Z" opacity=".6"/><ellipse cx="1981.385" cy="823.309" fill="#fff" rx="14.942" ry="28.427"/><ellipse cx="507.732" cy="823.309" fill="#fff" rx="14.942" ry="28.427"/><path fill="#fff" d="M2029.41345,777.96975c-537.8385-157.9456-647.7018,37.4426-647.7018,37.4426-152.8558-77.5919-290.3613,0-290.3613,0-212.2548-209.3307-644.5883-20.5489-644.5883-20.5489V778.024c522.2981-192.5454,648.9471,13.2118,648.9471,13.2118,145.1129-81.8155,284.8653,0,284.8653,0C1558.12135,587.59035,2020.04615,774.12555,2029.41345,777.96975Z" opacity=".6"/><path fill="none" stroke="#371a45" stroke-linejoin="round" stroke-width="22.241" d="M2029.41345,777.96975c-9.3673-3.8442-471.2921-190.3794-648.839,13.266,0,0-139.7524-81.8155-284.8653,0,0,0-126.649-205.7572-648.9471-13.2118v108.1852s47.4864,5.252,71.2026,31.6214c23.7162,26.4236-2.6531,329.7531,348.2169,313.942,350.8703-15.8649,261.1494-371.987,261.1494-371.987s92.3199-63.2974,216.3696,0c0,0-68.6578,372.5829,311.235,372.5829,0,0,249.6158-2.166,287.5726-285.5154,3.5194-26.3152,13.1576-71.2568,87.0679-60.6439V778.024C2029.52185,778.024,2029.46765,777.96975,2029.41345,777.96975ZM823.514,1181.687c-290.1715,0-269.0545-329.7527-232.1265-369.3339,0,0,32.9212-65.9505,237.758-65.9505,271.7077,0,258.171,187.2929,258.171,187.2929S1100.85315,1181.687,823.514,1181.687Zm823.5161-.0539c-266.2388,0-263.8022-230.1773-263.8022-247.9376,0-22.1457-6.3896-187.2929,258.1711-187.2929,204.8364,0,237.7576,65.8963,237.7576,65.8963C1916.08465,851.88005,1937.25575,1181.63305,1647.03005,1181.63305Z"/><path fill="#fff" d="M1751.30435,1311.61385v776.4952l-521.6099,68.6644-519.465-68.6644,14.9-776.4952s263.1895-7.0363,508.0396,151.2391C1233.16905,1462.853,1534.65225,1265.29065,1751.30435,1311.61385Z"/><path fill="#371a45" d="M1229.69485,2174.56605a17.75651,17.75651,0,0,1-2.3315-.1538l-519.4654-68.6646a17.79461,17.79461,0,0,1-15.459-17.981l14.8999-776.4941a17.79586,17.79586,0,0,1,17.3145-17.4451c10.8203-.2929,264.7876-5.2087,508.5205,147.9309,54.8242-34.2297,320.0513-190.6896,521.8506-147.5439a17.79248,17.79248,0,0,1,14.0723,17.3999v776.4941a17.79321,17.79321,0,0,1-15.4712,17.6404l-521.6089,68.6646A17.81607,17.81607,0,0,1,1229.69485,2174.56605Zm-501.3696-102.013,501.3745,66.2732,503.811-66.322v-746.1194c-205.8276-33.1067-487.7051,149.4629-490.5932,151.3526a17.79478,17.79478,0,0,1-19.4068.0585c-202.041-130.603-419.5019-146.4245-480.9302-148.208Z"/><path fill="#abc242" d="M1185.93075,1450.33105c15.3518,2.0918,27.9124,19.8168,27.9124,39.389v674.7932c0,19.5722-.1201,35.5657-.2668,35.5412-.1468-.0245-14.3188-1.9561-31.4934-4.2925s-47.0935-6.4096-66.4865-9.0516l-426.4338-58.0947c-19.393-2.642-35.26-20.8171-35.26-40.3892v-674.7931c0-19.5721,9.478-34.2946,21.0622-32.7166,11.5843,1.578,36.9292,5.0308,56.3222,7.6729l391.4712,53.3343C1142.15125,1444.36605,1170.57885,1448.23925,1185.93075,1450.33105Z"/><path fill="#abc242" d="M1770.24785,1382.71245c19.3884-2.6756,35.2516,11.1488,35.2516,30.7209v674.7931c0,19.5721-15.8631,37.7756-35.2513,40.4522l-426.9851,58.9472c-19.3883,2.6766-47.6718,6.578-62.8524,8.6698s-27.6011-12.2102-27.6011-31.7824V1489.72c0-19.5722,12.4004-37.2972,27.5565-39.389s29.7084-4.1035,32.3385-4.4704c2.63-.367,20.6451-2.8564,40.0334-5.532Z"/><path fill="#5eb545" d="M1272.91525,1446.52785a35.663,35.663,0,0,1,35.5632,35.5856l-.3998,632.9803c-.0123,19.5721-.0325,44.9936-.0447,56.4922-.0122,11.4985-.0223,22.668-.0223,24.8209,0,2.153-16.0134,3.8615-35.5854,3.7968l-22.9976-.0761c-19.572-.0647-35.7056-.1176-35.8523-.1176-.1468,0-14.3188-.0401-31.4934-.089s-31.2265-16.1024-31.2265-35.6745v-682.133a35.69019,35.69019,0,0,1,35.5856-35.5856Z"/><path fill="#fff" d="M1272.931,1446.52785a35.66292,35.66292,0,0,1,35.5632,35.5856l-.3997,633.0248c-.0124,19.5722-.0325,44.9936-.0448,56.4922-.0122,11.4986-.0222,22.668-.0222,24.8209,0,2.153-5.6047,3.8945-12.455,3.87-6.8502-.0245-15.3976-3.6476-18.9942-8.0513-3.5967-4.4037-6.5057-24.0202-6.4645-43.5923l1.3329-632.9802a35.59957,35.59957,0,0,0-35.5107-35.5856h-49.4781c-19.5722,0-35.5857-7.5564-35.5857-16.792,0-9.2357,16.0135-16.7921,35.5857-16.7921Z" opacity=".6"/><path fill="#371a45" d="M1273.29335,2169.38535c19.2418.0611,34.9751,6.1162,34.9628,13.4558-.0122,7.3395-.0222,15.1061-.0222,17.259,0,2.153-16.0135,3.8615-35.5855,3.7968l-22.9976-.076c-19.572-.0648-35.7055-.1177-35.8523-.1177s-14.3188-.04-31.4933-.0889-31.2263-16.1025-31.2263-35.6746v-682.133c0-19.5721,7.6601-35.5856,17.0224-35.5856s17.1304,16.0132,17.2623,35.5848l4.3661,647.7055c.132,19.5717,10.996,35.6249,24.1423,35.6738s24.0225.0889,24.1693.0889S1254.05155,2169.32415,1273.29335,2169.38535Z" opacity=".4"/><polygon fill="#fff" points="1805.499 1377.848 1805.499 1424.376 1354.095 1489.542 1317.486 2135.333 1317.486 1445.193 1805.499 1377.848" opacity=".6"/><polygon fill="#fff" points="664.912 1377.848 664.912 1424.376 1116.316 1489.542 1152.925 2135.333 1152.925 1445.193 664.912 1377.848" opacity=".6"/><polygon fill="#371a45" points="1813.689 2084.864 1813.689 2123.697 1316.201 2192.377 1316.201 2200.206 1222.032 2199.895 1222.032 2199.984 1221.499 2199.895 1159.046 2199.717 1159.046 2191.399 662.092 2123.697 662.092 1377.732 704.216 1383.47 704.216 2087.266 1159.046 2150.208 1205.574 2156.658 1270.073 2156.658 1316.245 2150.564 1813.689 2084.864" opacity=".4"/><path fill="#371a45" d="M1213.60845,2217.84725a17.89,17.89,0,0,1-2.9566-.2417c-.4687-.061-14.2993-1.9458-30.9668-4.2126l-492.9248-67.1472c-28.4008-3.8697-50.6494-29.3555-50.6494-58.0188v-674.7937a48.07186,48.07186,0,0,1,55.4541-48.4107l468.855,63.8757a17.79233,17.79233,0,1,1-4.8047,35.2588l-468.855-63.8757a12.54718,12.54718,0,0,0-15.0634,13.1519V2088.227c0,10.6811,9.2846,21.3171,19.8681,22.76l492.9151,67.1447c20.3857,2.7735,27.6562,3.7647,30.3418,4.1346a17.81047,17.81047,0,0,1,10.5175,31.3708A18.28025,18.28025,0,0,1,1213.60845,2217.84725Z"/><path fill="#371a45" d="M1307.99075,2210.28745a17.79439,17.79439,0,0,1-2.4121-35.4211l462.2363-63.8135c10.5982-1.4624,19.8926-12.1289,19.8926-22.8259v-674.7937a12.48685,12.48685,0,0,0-15.0269-13.0945l-462.3242,63.8147a17.79286,17.79286,0,1,1-4.8657-35.2515l462.3242-63.8147a48.008,48.008,0,0,1,55.4785,48.346V2088.227c0,28.6499-22.2314,54.1601-50.6128,58.0773l-462.2338,63.8135A18.02471,18.02471,0,0,1,1307.99075,2210.28745Z"/><path fill="#371a45" d="M1272.55615,2218.00225h-.1733l-85.979-.2746a53.59125,53.59125,0,0,1-53.3228-53.4924v-682.107a53.43887,53.43887,0,0,1,53.3789-53.3789h86.4673a53.45588,53.45588,0,0,1,53.357,53.3899l-.4444,682.6087a53.37625,53.37625,0,0,1-53.2837,53.2543Zm-86.0962-753.6669a17.81259,17.81259,0,0,0-17.7929,17.7929v682.107a17.94029,17.94029,0,0,0,17.8515,17.9064l85.9766.2747h.0561a17.78861,17.78861,0,0,0,17.7027-17.6904l.4443-682.6099a17.87,17.87,0,0,0-17.771-17.7807Z"/><path fill="#413757" d="M1975.34235,2015.03715c-169.8768,52.9783-291.046-98.6613-291.046-244.4734,0-145.7679,95.3266-250.7291,211.2009-264.0013,51.4024-5.8877,96.3564-5.1726,130.7152,26.3355,1.9124-83.2261,15.2302-217.6973,15.2302-217.6973,124.3723,64.5878,157.7784,350.0738,158.6233,359.1929v.2223C2236.14135,1857.037,2086.05885,1989.28205,1975.34235,2015.03715Z"/><path fill="#371a45" d="M1975.34265,2014.32005c-150.2161,46.8398-262.311-66.2784-286.2424-193.8973a272.79368,272.79368,0,0,1-4.8038-50.5763,309.99632,309.99632,0,0,1,8.9406-74.9077c30.8706,119.7011,139.2292,219.7858,282.1056,175.2592,84.2936-19.6165,191.3618-100.8853,221.7431-219.0742,1.9572,12.9889,2.8469,21.1289,2.9802,22.5524v.2226C2236.14115,1856.31955,2086.05865,1988.56505,1975.34265,2014.32005Z" opacity=".4"/><path fill="#fff" d="M2105.17525,1663.39705c-2.402-3.0692-72.6132-138.8295-210.9785-113.7875-142.9366,25.8693-185.7127,158.4032-206.1746,282.5083a272.7855,272.7855,0,0,1-4.8039-50.5764c0-145.7676,95.3251-250.7009,211.2008-264.001,51.4213-5.8717,96.3481-5.1598,130.733,26.3333,0-.7116.0445-1.3789.0445-2.0905C2051.88575,1568.07205,2082.445,1607.39425,2105.17525,1663.39705Z" opacity=".6"/><path fill="#371a45" d="M2130.193,1660.268a17.79316,17.79316,0,0,1-16.3599-10.7874c-21.333-49.7632-73.7451-90.3369-74.2725-90.741a17.79251,17.79251,0,0,1,21.6138-28.269c2.4487,1.8713,60.2954,46.5064,85.3638,104.989a17.80325,17.80325,0,0,1-16.3452,24.8084Z"/><path fill="#371a45" d="M1906.88475,2043.78115c-56.0986.0036-99.3408-21.427-128.6596-42.9957-67.8687-49.9255-111.7212-140.2929-111.7212-230.2221,0-148.1519,95.4541-266.6138,226.9702-281.6785,61.3355-7.0264,124.1431,9.7022,160.0293,42.6111a17.79354,17.79354,0,0,1-24.0527,26.228c-28.1739-25.8398-81.1963-39.2871-131.9287-33.4851-113.2398,12.9712-195.4322,116.5662-195.4322,246.3245,0,78.9953,38.1616,158.1103,97.2217,201.5576,34.4824,25.365,92.0898,50.4565,170.7324,25.9302q.62625-.1959,1.2671-.3443c107.2608-24.9511,244.2261-153.1347,211.3013-319.6386a17.52939,17.52939,0,0,1-.3223-2.6673c-1.914-20.4309-32.522-320.5212-178.6816-348.5364a17.79249,17.79249,0,1,1,6.6992-34.9487c170.9009,32.7576,204.1577,344.3433,207.4341,380.3699,21.2988,109.7522-21.3941,192.3376-61.0498,242.345-45.7178,57.6562-113.3594,102.6611-176.6773,117.5866C1953.65235,2040.373,1929.23835,2043.77985,1906.88475,2043.78115Z"/><path fill="#371a45" d="M2123.52545,1668.58575a17.79419,17.79419,0,0,1-16.0132-10.0134c-30.8521-63.4302-76.5088-99.5654-76.9653-99.9231a17.79265,17.79265,0,0,1,21.8359-28.0981c2.1265,1.6491,52.478,41.217,87.1313,112.4548a17.801,17.801,0,0,1-15.9887,25.5798Z"/><path fill="#413757" d="M525.16125,2015.03715c169.8768,52.9783,291.0459-98.6613,291.0459-244.4734,0-145.7679-95.3266-250.7291-211.2008-264.0013-51.4025-5.8877-96.3565-5.1726-130.7153,26.3355-1.9124-83.2261,23.0569-217.3206,23.0569-217.3206-167.9199,28.842-196.0654,349.6971-196.9103,358.8162v.2223C264.36215,1857.037,414.44465,1989.28205,525.16125,2015.03715Z"/><path fill="#371a45" d="M525.16085,2014.32005c150.2161,46.8398,262.311-66.2784,286.2424-193.8973a272.7938,272.7938,0,0,0,4.8039-50.5763,309.99627,309.99627,0,0,0-8.9407-74.9077c-30.8706,119.7011-139.2292,219.7858-282.1056,175.2592-84.2936-19.6165-191.3617-100.8853-221.7431-219.0742-1.9572,12.9889-2.8469,21.1289-2.9802,22.5524v.2226C264.36235,1856.31955,414.44485,1988.56505,525.16085,2014.32005Z" opacity=".4"/><path fill="#fff" d="M395.32835,1663.39705c2.4019-3.0692,72.6131-138.8295,210.9785-113.7875,142.9365,25.8693,185.7127,158.4032,206.1746,282.5083a272.79393,272.79393,0,0,0,4.8038-50.5764c0-145.7676-95.325-250.7009-211.2008-264.001-51.4213-5.8717-96.3481-5.1598-130.7329,26.3333,0-.7116-.0445-1.3789-.0445-2.0905C448.61775,1568.07205,418.05855,1607.39425,395.32835,1663.39705Z" opacity=".6"/><path fill="#371a45" d="M370.31255,1660.268a17.80133,17.80133,0,0,1-16.3452-24.8084c25.0683-58.4826,82.915-103.1177,85.3637-104.989a17.79249,17.79249,0,0,1,21.6089,28.2727c-.7715.5945-52.9834,41.0925-74.2676,90.7373A17.7971,17.7971,0,0,1,370.31255,1660.268Z"/><path fill="#371a45" d="M593.61815,2043.78115c-22.3584,0-46.7627-3.407-73.1323-11.565-63.3154-14.9243-130.9546-59.9292-176.6748-117.5854-39.6533-50.0074-82.3486-132.5953-61.0473-242.3462,3.4863-38.003,37.0727-347.7161,207.4316-380.3687a17.79249,17.79249,0,1,1,6.6992,34.9487c-147.9932,28.3667-177.5171,335.6763-178.7012,348.7439h0a18.79868,18.79868,0,0,1-.3027,2.4598c-32.9248,166.5026,104.0405,294.6862,211.3013,319.6386q.6408.14835,1.2671.3443c78.6328,24.5276,136.2524-.5652,170.7348-25.9302,59.0576-43.446,97.2193-122.5623,97.2193-201.5576,0-129.7595-82.19-233.3533-195.4297-246.3245-50.7544-5.8093-103.7573,7.6453-131.9312,33.4851a17.79354,17.79354,0,0,1-24.0527-26.228c35.8911-32.9102,98.7158-49.6289,160.0317-42.6111,131.5137,15.0635,226.9678,133.5266,226.9678,281.6785,0,89.9292-43.8525,180.2966-111.7187,230.2221C692.96385,2022.35165,649.70955,2043.78115,593.61815,2043.78115Z"/><path fill="#371a45" d="M376.98005,1668.58575a17.79882,17.79882,0,0,1-15.9888-25.5786c34.6509-71.239,85.0024-110.8069,87.1289-112.456a17.7928,17.7928,0,0,1,21.8286,28.1042c-.8398.6604-46.2378,36.7578-76.9556,99.9158A17.7953,17.7953,0,0,1,376.98005,1668.58575Z"/></svg>