
<svg xmlns="http://www.w3.org/2000/svg" enable-background="new 0 0 1364 960" viewBox="0 0 1364 960"><path fill="#e9e3ff" d="M1150.75,207.32l-3.14-1.12c0.56-4.4,0.44-8.79-0.3-13.02l3.54-1.68c5.28-2.51,7.54-8.82,5.03-14.11
			c-2.51-5.28-8.82-7.54-14.11-5.03l-3.02,1.43c-2.64-3.42-5.8-6.46-9.42-8.99c0,0,0,0,0,0l1.32-3.69
			c1.97-5.51-0.91-11.57-6.42-13.53c-5.51-1.97-11.57,0.91-13.53,6.42l-1.12,3.14c-4.4-0.56-8.79-0.44-13.02,0.3l-1.68-3.54
			c-2.51-5.28-8.82-7.54-14.11-5.03c-5.28,2.51-7.54,8.82-5.03,14.11l1.43,3.02c-3.42,2.64-6.46,5.8-9,9.42c0,0,0,0,0,0l-3.68-1.31
			c-5.51-1.97-11.57,0.91-13.53,6.42c-1.97,5.51,0.91,11.57,6.42,13.53l3.14,1.12c-0.56,4.4-0.44,8.79,0.3,13.03l-3.53,1.68
			c-5.28,2.51-7.54,8.82-5.03,14.11c2.51,5.28,8.82,7.54,14.11,5.03l3.01-1.43c0,0,0,0,0,0c2.65,3.41,5.81,6.45,9.43,9l-1.31,3.68
			c-1.97,5.51,0.91,11.57,6.42,13.53c5.51,1.97,11.57-0.91,13.53-6.42l1.12-3.14c4.4,0.56,8.79,0.44,13.03-0.3l1.68,3.53
			c2.51,5.28,8.82,7.54,14.11,5.03c5.28-2.51,7.54-8.82,5.03-14.11l-1.43-3.01c0,0,0,0,0,0c3.41-2.65,6.46-5.81,9-9.43l3.68,1.31
			c5.51,1.97,11.57-0.91,13.53-6.42S1156.26,209.29,1150.75,207.32z M1133.75,211.28c-5.85,16.4-23.89,24.95-40.29,19.1
			c-16.4-5.85-24.95-23.89-19.1-40.29c5.85-16.41,23.9-24.95,40.29-19.1C1131.04,176.84,1139.6,194.88,1133.75,211.28z"/><path fill="#e9e3ff" d="M1110.75,181.91c-10.37-3.7-21.77,1.72-25.47,12.08c-3.7,10.37,1.71,21.77,12.07,25.47
			c10.37,3.7,21.78-1.7,25.47-12.07C1126.53,197.02,1121.12,185.61,1110.75,181.91z"/><path fill="#e9e3ff" d="M290.84,308.21l-3.14-1.12c0.56-4.4,0.44-8.79-0.3-13.02l3.54-1.68c5.28-2.51,7.54-8.82,5.03-14.11
			c-2.51-5.28-8.82-7.54-14.11-5.03l-3.02,1.43c-2.64-3.42-5.8-6.46-9.42-8.99c0,0,0,0,0,0l1.32-3.69
			c1.97-5.51-0.91-11.57-6.42-13.53c-5.51-1.97-11.57,0.91-13.53,6.42l-1.12,3.14c-4.4-0.56-8.79-0.44-13.02,0.3l-1.68-3.54
			c-2.51-5.28-8.82-7.54-14.11-5.03c-5.28,2.51-7.54,8.82-5.03,14.11l1.43,3.02c-3.42,2.64-6.46,5.8-9,9.42c0,0,0,0,0,0l-3.68-1.31
			c-5.51-1.97-11.57,0.91-13.53,6.42c-1.97,5.51,0.91,11.57,6.42,13.53l3.14,1.12c-0.56,4.4-0.44,8.79,0.3,13.03l-3.53,1.68
			c-5.28,2.51-7.54,8.82-5.03,14.11c2.51,5.28,8.82,7.54,14.11,5.03l3.01-1.43c0,0,0,0,0,0c2.65,3.41,5.81,6.45,9.43,9l-1.31,3.68
			c-1.97,5.51,0.91,11.57,6.42,13.53c5.51,1.97,11.57-0.91,13.53-6.42l1.12-3.14c4.4,0.56,8.79,0.44,13.03-0.3l1.68,3.53
			c2.51,5.28,8.82,7.54,14.11,5.03c5.28-2.51,7.54-8.82,5.03-14.11l-1.43-3.01c0,0,0,0,0,0c3.41-2.65,6.46-5.81,9-9.43l3.68,1.31
			c5.51,1.97,11.57-0.91,13.53-6.42C299.22,316.24,296.35,310.18,290.84,308.21z M273.84,312.17c-5.85,16.4-23.89,24.95-40.29,19.1
			s-24.95-23.89-19.1-40.29c5.85-16.41,23.89-24.95,40.29-19.1C271.14,277.73,279.7,295.77,273.84,312.17z"/><path fill="#e9e3ff" d="M250.85,282.8c-10.37-3.7-21.77,1.72-25.47,12.08c-3.7,10.37,1.71,21.77,12.07,25.47
			c10.37,3.7,21.78-1.7,25.47-12.07C266.62,297.91,261.21,286.5,250.85,282.8z"/><path fill="#e9e3ff" d="M569.82,181.76l-5.03-1.79c0.89-7.03,0.7-14.06-0.49-20.84l5.66-2.68c8.46-4.01,12.06-14.11,8.05-22.57
			c-4.01-8.46-14.11-12.06-22.57-8.05l-4.83,2.29c-4.23-5.48-9.28-10.34-15.07-14.39c0,0,0,0-0.01,0l2.1-5.9
			c3.14-8.81-1.45-18.51-10.27-21.65c-8.81-3.14-18.51,1.45-21.65,10.27l-1.8,5.03c-7.03-0.89-14.06-0.7-20.84,0.49l-2.68-5.66
			c-4.01-8.46-14.11-12.06-22.57-8.05c-8.46,4.01-12.06,14.11-8.05,22.57l2.29,4.83c-5.48,4.23-10.34,9.28-14.4,15.07c0,0,0,0,0,0
			l-5.9-2.1c-8.82-3.14-18.51,1.45-21.65,10.27c-3.14,8.81,1.45,18.51,10.27,21.65l5.03,1.79c-0.89,7.04-0.7,14.06,0.48,20.84
			l-5.66,2.68c-8.46,4.01-12.06,14.11-8.05,22.57c4.01,8.46,14.11,12.06,22.57,8.05l4.82-2.28c0,0,0,0,0,0
			c4.24,5.46,9.3,10.33,15.08,14.4l-2.1,5.88c-3.14,8.82,1.45,18.51,10.27,21.65c8.81,3.14,18.51-1.45,21.65-10.27l1.79-5.03
			c7.04,0.89,14.06,0.7,20.85-0.49l2.68,5.66c4.01,8.46,14.12,12.06,22.57,8.05c8.46-4.01,12.06-14.12,8.05-22.57l-2.28-4.82
			c0,0,0,0,0,0c5.46-4.24,10.33-9.3,14.4-15.08l5.89,2.1c8.81,3.14,18.51-1.45,21.65-10.27C583.23,194.6,578.63,184.9,569.82,181.76
			z M542.62,188.1c-9.36,26.24-38.24,39.93-64.48,30.57c-26.24-9.36-39.93-38.24-30.57-64.48c9.37-26.25,38.24-39.93,64.48-30.57
			C538.29,132.98,551.98,161.84,542.62,188.1z"/><path fill="#e9e3ff" d="M505.81,141.09c-16.59-5.92-34.84,2.75-40.76,19.34c-5.92,16.59,2.73,34.83,19.32,40.75
			c16.59,5.92,34.85-2.73,40.76-19.32C531.06,165.28,522.4,147.01,505.81,141.09z"/><path fill="#988bd6" d="M201.34,564.04c-0.47,0-0.93-0.2-1.24-0.59c-2.74-3.39-5.38-6.81-7.85-10.16c-0.52-0.71-0.37-1.71,0.34-2.23
			c0.71-0.52,1.71-0.37,2.23,0.34c2.45,3.32,5.06,6.7,7.76,10.05c0.55,0.69,0.45,1.69-0.24,2.24
			C202.05,563.93,201.69,564.04,201.34,564.04z M186.21,543.47c-0.52,0-1.02-0.25-1.33-0.71c-2.42-3.65-4.7-7.32-6.8-10.92
			c-0.44-0.76-0.19-1.74,0.58-2.18c0.76-0.44,1.74-0.19,2.18,0.58c2.06,3.54,4.32,7.17,6.7,10.76c0.49,0.74,0.28,1.73-0.45,2.21
			C186.82,543.39,186.51,543.47,186.21,543.47z M173.39,521.4c-0.59,0-1.15-0.33-1.43-0.89c-1.95-3.93-3.73-7.89-5.29-11.76
			c-0.33-0.82,0.07-1.75,0.88-2.08c0.82-0.33,1.75,0.07,2.08,0.88c1.53,3.79,3.27,7.67,5.19,11.53c0.39,0.79,0.07,1.75-0.72,2.14
			C173.88,521.34,173.63,521.4,173.39,521.4z M1064.12,516.08c-3.66,0-7.34-0.02-11.03-0.06c-0.88-0.01-1.59-0.73-1.58-1.61
			c0.01-0.88,0.69-1.58,1.62-1.58c3.68,0.04,7.34,0.06,10.99,0.06l1.77,0c0,0,0,0,0,0c0.88,0,1.59,0.71,1.6,1.59
			c0,0.88-0.71,1.6-1.59,1.6L1064.12,516.08z M1078.67,515.97c-0.87,0-1.58-0.7-1.6-1.57c-0.01-0.88,0.69-1.61,1.57-1.62
			c4.25-0.07,8.54-0.17,12.75-0.29c0.9-0.02,1.62,0.67,1.64,1.55c0.03,0.88-0.67,1.62-1.55,1.64c-4.22,0.13-8.53,0.23-12.8,0.3
			C1078.68,515.97,1078.68,515.97,1078.67,515.97z M1040.34,515.79c-0.01,0-0.03,0-0.04,0c-4.21-0.1-8.52-0.23-12.79-0.38
			c-0.88-0.03-1.57-0.77-1.54-1.65c0.03-0.88,0.78-1.57,1.65-1.54c4.26,0.15,8.55,0.28,12.75,0.38c0.88,0.02,1.58,0.75,1.56,1.63
			C1041.91,515.1,1041.2,515.79,1040.34,515.79z M1104.21,515.19c-0.85,0-1.56-0.67-1.59-1.52c-0.04-0.88,0.64-1.63,1.52-1.67
			c4.28-0.2,8.56-0.43,12.73-0.69c0.9-0.05,1.64,0.61,1.69,1.49c0.06,0.88-0.61,1.64-1.49,1.69c-4.19,0.26-8.49,0.49-12.79,0.69
			C1104.26,515.19,1104.23,515.19,1104.21,515.19z M1014.8,514.88c-0.02,0-0.05,0-0.08,0c-4.24-0.2-8.5-0.43-12.77-0.68
			c-0.88-0.05-1.55-0.81-1.5-1.69c0.05-0.88,0.81-1.55,1.69-1.5c4.26,0.25,8.51,0.47,12.74,0.67c0.88,0.04,1.56,0.79,1.52,1.67
			C1016.36,514.21,1015.65,514.88,1014.8,514.88z M1129.71,513.59c-0.82,0-1.52-0.63-1.59-1.47c-0.07-0.88,0.59-1.65,1.46-1.72
			c4.27-0.34,8.54-0.72,12.7-1.13c0.89-0.09,1.66,0.56,1.75,1.43c0.09,0.88-0.56,1.66-1.43,1.75c-4.17,0.41-8.47,0.79-12.76,1.13
			C1129.8,513.59,1129.76,513.59,1129.71,513.59z M989.3,513.39c-0.04,0-0.07,0-0.11,0c-4.24-0.29-8.49-0.61-12.76-0.94
			c-0.88-0.07-1.54-0.84-1.47-1.72c0.07-0.88,0.85-1.53,1.72-1.47c4.25,0.34,8.5,0.65,12.73,0.94c0.88,0.06,1.54,0.82,1.48,1.7
			C990.83,512.75,990.13,513.39,989.3,513.39z M963.82,511.39c-0.05,0-0.09,0-0.14-0.01c-4.24-0.37-8.48-0.77-12.74-1.18
			c-0.88-0.09-1.52-0.87-1.43-1.74c0.09-0.88,0.86-1.51,1.74-1.43c4.24,0.41,8.48,0.81,12.71,1.18c0.88,0.08,1.53,0.85,1.45,1.73
			C965.34,510.76,964.64,511.39,963.82,511.39z M1155.15,511.09c-0.8,0-1.49-0.6-1.58-1.41c-0.1-0.88,0.52-1.67,1.4-1.77
			c4.25-0.5,8.5-1.05,12.64-1.62c0.86-0.13,1.68,0.49,1.8,1.36c0.12,0.87-0.49,1.68-1.36,1.8c-4.16,0.58-8.44,1.13-12.71,1.63
			C1155.27,511.09,1155.21,511.09,1155.15,511.09z M938.39,508.91c-0.06,0-0.11,0-0.17-0.01c-4.23-0.45-8.47-0.92-12.71-1.41
			c-0.88-0.1-1.51-0.89-1.4-1.77c0.1-0.88,0.9-1.5,1.77-1.4c4.24,0.49,8.47,0.95,12.69,1.4c0.88,0.09,1.51,0.88,1.42,1.76
			C939.89,508.3,939.19,508.91,938.39,508.91z M1180.46,507.57c-0.77,0-1.45-0.56-1.57-1.34c-0.14-0.87,0.45-1.69,1.32-1.83
			l1.15-0.19c3.46-1.28,6.92-2.72,10.3-4.29c0.8-0.37,1.75-0.03,2.12,0.77c0.37,0.8,0.03,1.75-0.77,2.12
			c-3.5,1.63-7.09,3.13-10.68,4.45c-0.09,0.03-0.19,0.06-0.29,0.08l-1.31,0.21C1180.63,507.57,1180.54,507.57,1180.46,507.57z
			 M913,506c-0.07,0-0.13,0-0.2-0.01c-4.22-0.52-8.45-1.06-12.69-1.61c-0.87-0.11-1.49-0.92-1.38-1.79
			c0.11-0.87,0.93-1.49,1.79-1.38c4.23,0.55,8.45,1.09,12.66,1.61c0.88,0.11,1.5,0.9,1.39,1.78C914.49,505.41,913.8,506,913,506z
			 M887.66,502.69c-0.07,0-0.15,0-0.22-0.02c-4.21-0.58-8.43-1.18-12.66-1.8c-0.87-0.13-1.48-0.94-1.35-1.81
			c0.13-0.87,0.95-1.48,1.81-1.35c4.22,0.61,8.43,1.21,12.64,1.79c0.87,0.12,1.48,0.93,1.36,1.8
			C889.13,502.11,888.45,502.69,887.66,502.69z M862.38,499.01c-0.08,0-0.16-0.01-0.24-0.02c-4.21-0.64-8.42-1.3-12.63-1.97
			c-0.87-0.14-1.46-0.96-1.33-1.83c0.14-0.87,0.95-1.46,1.83-1.33c4.21,0.67,8.41,1.33,12.61,1.97c0.87,0.13,1.47,0.95,1.34,1.82
			C863.83,498.44,863.15,499.01,862.38,499.01z M163.91,497.71c-0.69,0-1.32-0.45-1.53-1.14c-1.27-4.21-2.31-8.44-3.09-12.56
			c-0.16-0.87,0.4-1.7,1.27-1.87c0.86-0.17,1.7,0.4,1.87,1.27c0.76,4.01,1.77,8.13,3.01,12.23c0.25,0.84-0.22,1.74-1.07,1.99
			C164.21,497.69,164.06,497.71,163.91,497.71z M1203.66,497.06c-0.55,0-1.09-0.29-1.38-0.8c-0.44-0.76-0.18-1.74,0.58-2.18
			c3.63-2.1,7.21-4.39,10.64-6.81c0.72-0.51,1.72-0.34,2.22,0.39c0.51,0.72,0.33,1.72-0.39,2.23c-3.5,2.47-7.16,4.81-10.88,6.96
			C1204.2,496.99,1203.93,497.06,1203.66,497.06z M837.1,494.98c-0.09,0-0.17-0.01-0.26-0.02c-4.21-0.7-8.43-1.41-12.64-2.14
			c-0.87-0.15-1.45-0.98-1.3-1.84c0.15-0.87,0.98-1.45,1.85-1.3c4.21,0.72,8.42,1.44,12.62,2.13c0.87,0.14,1.46,0.97,1.31,1.84
			C838.55,494.43,837.87,494.98,837.1,494.98z M811.85,490.63c-0.09,0-0.19-0.01-0.28-0.03c-4.2-0.75-8.4-1.51-12.61-2.28
			c-0.87-0.16-1.44-0.99-1.28-1.86c0.16-0.87,1-1.44,1.86-1.28c4.2,0.77,8.39,1.53,12.59,2.28c0.87,0.15,1.45,0.98,1.29,1.85
			C813.28,490.09,812.61,490.63,811.85,490.63z M786.68,486c-0.1,0-0.2-0.01-0.3-0.03c-4.19-0.79-8.38-1.6-12.57-2.42
			c-0.87-0.17-1.43-1.01-1.26-1.87c0.17-0.87,1.01-1.43,1.87-1.26c4.18,0.82,8.37,1.62,12.55,2.42c0.87,0.16,1.44,1,1.27,1.87
			C788.1,485.47,787.43,486,786.68,486z M1224.52,482.36c-0.45,0-0.9-0.19-1.22-0.56c-0.57-0.67-0.49-1.68,0.18-2.25
			c3.22-2.74,6.33-5.64,9.23-8.61c0.61-0.63,1.62-0.65,2.26-0.03c0.63,0.62,0.64,1.63,0.03,2.26c-2.97,3.05-6.15,6.02-9.45,8.82
			C1225.25,482.23,1224.88,482.36,1224.52,482.36z M761.57,481.1c-0.1,0-0.21-0.01-0.32-0.03c-4.18-0.84-8.36-1.69-12.53-2.55
			c-0.86-0.18-1.42-1.02-1.24-1.89c0.18-0.86,1.03-1.42,1.89-1.24c4.17,0.86,8.34,1.71,12.52,2.54c0.86,0.17,1.43,1.02,1.25,1.88
			C762.98,480.57,762.32,481.1,761.57,481.1z M736.54,475.95c-0.11,0-0.22-0.01-0.33-0.03c-4.17-0.88-8.33-1.77-12.5-2.66
			c-0.86-0.19-1.41-1.03-1.22-1.9c0.19-0.86,1.04-1.41,1.9-1.22c4.16,0.9,8.32,1.78,12.48,2.66c0.86,0.18,1.41,1.03,1.23,1.89
			C737.94,475.43,737.28,475.95,736.54,475.95z M159.22,472.66c-0.83,0-1.54-0.65-1.59-1.49c-0.14-2.17-0.22-4.35-0.22-6.48
			c0-2.17,0.08-4.35,0.23-6.49c0.06-0.88,0.83-1.54,1.7-1.48c0.88,0.06,1.54,0.82,1.48,1.7c-0.14,2.06-0.22,4.17-0.22,6.27
			c0,2.06,0.07,4.16,0.21,6.27c0.06,0.88-0.61,1.64-1.49,1.7C159.29,472.66,159.26,472.66,159.22,472.66z M711.58,470.57
			c-0.11,0-0.23-0.01-0.34-0.04c-4.16-0.92-8.31-1.84-12.46-2.77c-0.86-0.19-1.4-1.05-1.21-1.91s1.04-1.4,1.91-1.21
			c4.14,0.93,8.29,1.85,12.45,2.77c0.86,0.19,1.41,1.04,1.22,1.9C712.97,470.06,712.31,470.57,711.58,470.57z M686.68,464.98
			c-0.12,0-0.24-0.01-0.36-0.04c-4.15-0.95-8.29-1.91-12.43-2.87c-0.86-0.2-1.39-1.06-1.19-1.92c0.2-0.86,1.05-1.4,1.92-1.19
			c4.13,0.96,8.27,1.92,12.41,2.87c0.86,0.2,1.4,1.05,1.2,1.91C688.07,464.48,687.41,464.98,686.68,464.98z M1242.31,464.06
			c-0.35,0-0.7-0.11-0.99-0.35c-0.69-0.55-0.8-1.55-0.26-2.24c2.64-3.32,5.1-6.78,7.31-10.27c0.47-0.74,1.46-0.97,2.2-0.5
			c0.75,0.47,0.97,1.46,0.5,2.2c-2.27,3.59-4.79,7.14-7.51,10.55C1243.25,463.85,1242.78,464.06,1242.31,464.06z M661.86,459.2
			c-0.12,0-0.25-0.01-0.37-0.04c-4.14-0.98-8.27-1.97-12.39-2.96c-0.86-0.21-1.38-1.07-1.18-1.93c0.21-0.86,1.07-1.39,1.93-1.18
			c4.12,0.99,8.25,1.98,12.38,2.96c0.86,0.2,1.39,1.06,1.19,1.92C663.24,458.7,662.58,459.2,661.86,459.2z M637.06,453.22
			c-0.13,0-0.25-0.02-0.38-0.05c-4.15-1.02-8.29-2.04-12.41-3.06c-0.86-0.21-1.38-1.08-1.17-1.93c0.21-0.86,1.08-1.38,1.93-1.16
			c4.12,1.02,8.26,2.04,12.4,3.06c0.86,0.21,1.38,1.07,1.17,1.93C638.43,452.73,637.78,453.22,637.06,453.22z M161.05,447.28
			c-0.11,0-0.23-0.01-0.35-0.04c-0.86-0.19-1.4-1.04-1.21-1.9c0.94-4.23,2.2-8.42,3.77-12.44c0.32-0.82,1.25-1.23,2.07-0.91
			c0.82,0.32,1.23,1.24,0.91,2.07c-1.51,3.87-2.72,7.9-3.62,11.97C162.44,446.77,161.78,447.28,161.05,447.28z M612.26,447.06
			c-0.13,0-0.26-0.02-0.39-0.05c-4.14-1.04-8.27-2.09-12.39-3.14c-0.85-0.22-1.37-1.09-1.15-1.94c0.22-0.86,1.08-1.37,1.94-1.15
			c4.11,1.05,8.24,2.1,12.38,3.14c0.86,0.22,1.37,1.08,1.16,1.94C613.62,446.57,612.97,447.06,612.26,447.06z M1255.9,442.47
			c-0.23,0-0.46-0.05-0.69-0.16c-0.8-0.38-1.13-1.33-0.75-2.13c1.82-3.82,3.39-7.75,4.66-11.66c0.27-0.84,1.17-1.3,2.01-1.02
			c0.84,0.27,1.3,1.17,1.03,2.01c-1.32,4.04-2.94,8.1-4.82,12.04C1257.06,442.14,1256.49,442.47,1255.9,442.47z M587.5,440.73
			c-0.13,0-0.27-0.02-0.4-0.05c-4.14-1.07-8.26-2.14-12.37-3.22c-0.85-0.22-1.36-1.1-1.14-1.95s1.1-1.36,1.95-1.14
			c4.11,1.07,8.23,2.15,12.36,3.22c0.85,0.22,1.37,1.09,1.15,1.95C588.86,440.26,588.21,440.73,587.5,440.73z M562.78,434.26
			c-0.14,0-0.27-0.02-0.41-0.05c-4.13-1.09-8.25-2.19-12.35-3.29c-0.85-0.23-1.36-1.1-1.13-1.96c0.23-0.85,1.11-1.36,1.96-1.13
			c4.1,1.1,8.21,2.19,12.34,3.29c0.85,0.23,1.36,1.1,1.14,1.95C564.13,433.79,563.48,434.26,562.78,434.26z M538.09,427.66
			c-0.14,0-0.28-0.02-0.42-0.06c-4.13-1.12-8.24-2.23-12.33-3.35c-0.85-0.23-1.35-1.11-1.12-1.96c0.23-0.85,1.11-1.35,1.96-1.12
			c4.09,1.12,8.2,2.23,12.33,3.35c0.85,0.23,1.35,1.11,1.12,1.96C539.44,427.19,538.79,427.66,538.09,427.66z M170.25,423.58
			c-0.27,0-0.54-0.07-0.79-0.21c-0.77-0.44-1.03-1.42-0.59-2.18c2.12-3.7,4.56-7.31,7.26-10.76c0.54-0.7,1.55-0.82,2.24-0.27
			c0.69,0.54,0.82,1.55,0.27,2.24c-2.6,3.32-4.95,6.82-7,10.38C171.34,423.29,170.8,423.58,170.25,423.58z M513.43,420.93
			c-0.14,0-0.28-0.02-0.43-0.06c-4.13-1.14-8.23-2.27-12.32-3.41c-0.85-0.24-1.35-1.12-1.11-1.97c0.24-0.85,1.12-1.35,1.97-1.11
			c4.08,1.13,8.19,2.27,12.31,3.4c0.85,0.23,1.35,1.11,1.12,1.96C514.78,420.46,514.13,420.93,513.43,420.93z M1263.73,418.25
			c-0.09,0-0.19-0.01-0.28-0.02c-0.87-0.15-1.45-0.98-1.3-1.85c0.73-4.12,1.15-8.32,1.27-12.46c0.02-0.87,0.73-1.55,1.59-1.55
			c0.01,0,0.03,0,0.04,0c0.88,0.02,1.58,0.76,1.55,1.64c-0.12,4.3-0.56,8.65-1.31,12.93
			C1265.17,417.71,1264.49,418.25,1263.73,418.25z M488.81,414.09c-0.14,0-0.29-0.02-0.43-0.06c-4.12-1.15-8.23-2.31-12.31-3.46
			c-0.85-0.24-1.34-1.12-1.1-1.97c0.24-0.85,1.12-1.34,1.97-1.1c4.08,1.15,8.18,2.3,12.3,3.46c0.85,0.24,1.35,1.12,1.11,1.97
			C490.15,413.63,489.51,414.09,488.81,414.09z M464.21,407.16c-0.14,0-0.29-0.02-0.44-0.06c-4.12-1.17-8.22-2.34-12.29-3.5
			c-0.85-0.24-1.34-1.13-1.1-1.97c0.24-0.85,1.13-1.34,1.97-1.1c4.07,1.16,8.17,2.33,12.29,3.5c0.85,0.24,1.34,1.12,1.1,1.97
			C465.55,406.7,464.91,407.16,464.21,407.16z M185.88,403.5c-0.41,0-0.83-0.16-1.14-0.48c-0.62-0.63-0.61-1.64,0.02-2.26
			c3.01-2.96,6.29-5.83,9.75-8.52c0.7-0.54,1.7-0.41,2.24,0.28c0.54,0.7,0.41,1.7-0.28,2.24c-3.36,2.61-6.55,5.4-9.47,8.27
			C186.69,403.34,186.29,403.5,185.88,403.5z M439.64,400.14c-0.15,0-0.29-0.02-0.44-0.06c-4.12-1.18-8.22-2.36-12.28-3.53
			c-0.85-0.24-1.34-1.13-1.09-1.98c0.24-0.85,1.12-1.34,1.98-1.09c4.06,1.17,8.16,2.35,12.28,3.53c0.85,0.24,1.34,1.13,1.09,1.98
			C440.97,399.69,440.33,400.14,439.64,400.14z M415.08,393.06c-0.15,0-0.3-0.02-0.44-0.06l-12.27-3.56
			c-0.85-0.25-1.33-1.13-1.09-1.98c0.25-0.85,1.13-1.33,1.98-1.09l12.27,3.56c0.85,0.25,1.33,1.13,1.09,1.98
			C416.41,392.61,415.77,393.06,415.08,393.06z M1263.78,392.9c-0.75,0-1.42-0.53-1.57-1.29c-0.81-4.17-1.81-8.29-2.98-12.23
			c-0.25-0.85,0.23-1.73,1.08-1.98c0.85-0.25,1.73,0.23,1.98,1.08c1.19,4.04,2.22,8.25,3.05,12.52c0.17,0.87-0.4,1.7-1.26,1.87
			C1263.99,392.89,1263.89,392.9,1263.78,392.9z M205.98,387.81c-0.53,0-1.05-0.27-1.36-0.75c-0.47-0.75-0.24-1.73,0.51-2.2
			c3.58-2.23,7.38-4.34,11.28-6.29c0.79-0.39,1.75-0.07,2.14,0.72c0.39,0.79,0.07,1.75-0.72,2.14c-3.82,1.9-7.53,3.97-11.02,6.15
			C206.56,387.73,206.27,387.81,205.98,387.81z M390.64,385.61c-0.17,0-0.33-0.03-0.5-0.08c-4.03-1.33-8.08-2.65-12.14-3.96
			c-0.84-0.27-1.3-1.17-1.03-2.01c0.27-0.84,1.17-1.3,2.01-1.03c4.07,1.31,8.12,2.63,12.16,3.96c0.84,0.28,1.29,1.18,1.02,2.02
			C391.94,385.18,391.31,385.61,390.64,385.61z M366.3,377.83c-0.15,0-0.31-0.02-0.46-0.07c-4.34-1.32-8.34-2.48-12.23-3.55
			c-0.85-0.24-1.35-1.11-1.11-1.96c0.23-0.85,1.11-1.35,1.96-1.11c3.91,1.08,7.94,2.25,12.3,3.58c0.84,0.26,1.32,1.15,1.06,1.99
			C367.62,377.39,366.99,377.83,366.3,377.83z M228.8,376.39c-0.64,0-1.24-0.38-1.49-1.01c-0.33-0.82,0.08-1.75,0.9-2.07
			c3.93-1.56,8.03-3,12.17-4.27c0.85-0.26,1.74,0.21,2,1.06c0.26,0.84-0.21,1.74-1.06,2c-4.06,1.25-8.08,2.66-11.93,4.19
			C229.19,376.36,229,376.39,228.8,376.39z M341.67,371.06c-0.12,0-0.25-0.01-0.38-0.04c-4.25-1.02-8.43-1.94-12.41-2.72
			c-0.87-0.17-1.43-1.01-1.26-1.87c0.17-0.87,1.01-1.43,1.87-1.26c4.03,0.79,8.25,1.71,12.54,2.75c0.86,0.21,1.38,1.07,1.18,1.93
			C343.05,370.57,342.39,371.06,341.67,371.06z M253.19,368.86c-0.73,0-1.39-0.5-1.56-1.24c-0.2-0.86,0.34-1.72,1.2-1.91
			c3.58-0.82,7.25-1.54,10.92-2.15c0.54-0.1,1.12-0.21,1.7-0.31c0.87-0.15,1.7,0.42,1.85,1.29c0.15,0.87-0.42,1.7-1.29,1.85
			c-0.56,0.1-1.13,0.2-1.7,0.31c-3.64,0.6-7.25,1.31-10.77,2.12C253.43,368.85,253.31,368.86,253.19,368.86z M1256.54,368.52
			c-0.63,0-1.22-0.37-1.48-0.99c-1.6-3.88-3.42-7.7-5.41-11.33c-0.42-0.77-0.14-1.74,0.63-2.17c0.77-0.42,1.74-0.14,2.17,0.63
			c2.05,3.74,3.92,7.66,5.56,11.65c0.34,0.82-0.05,1.75-0.87,2.08C1256.95,368.48,1256.75,368.52,1256.54,368.52z M316.61,366.19
			c-0.07,0-0.15-0.01-0.23-0.02c-4.28-0.6-8.52-1.07-12.59-1.38c-0.88-0.07-1.54-0.83-1.47-1.71c0.07-0.88,0.85-1.54,1.71-1.47
			c4.14,0.32,8.45,0.79,12.79,1.4c0.87,0.12,1.48,0.93,1.36,1.8C318.07,365.62,317.39,366.19,316.61,366.19z M278.39,364.79
			c-0.82,0-1.52-0.63-1.59-1.47c-0.07-0.88,0.58-1.65,1.46-1.72c4.07-0.34,8.28-0.51,12.5-0.51c0.01,0,0.02,0,0.04,0l0.36,0
			c0.88,0,1.59,0.72,1.59,1.6c0,0.88-0.72,1.59-1.6,1.59c0,0-0.01,0-0.01,0l-0.34,0c-0.01,0-0.02,0-0.04,0
			c-4.14,0-8.26,0.17-12.24,0.49C278.48,364.79,278.44,364.79,278.39,364.79z M1244.33,346.22c-0.5,0-1-0.24-1.31-0.68
			c-2.38-3.39-5.01-6.71-7.79-9.87c-0.58-0.66-0.52-1.67,0.14-2.25c0.66-0.58,1.67-0.52,2.25,0.14c2.86,3.24,5.55,6.66,8.01,10.15
			c0.51,0.72,0.33,1.72-0.39,2.22C1244.97,346.13,1244.65,346.22,1244.33,346.22z M1227.51,327.11c-0.39,0-0.77-0.14-1.08-0.42
			c-3.03-2.79-6.29-5.5-9.67-8.07c-0.7-0.53-0.84-1.53-0.31-2.24c0.53-0.7,1.53-0.84,2.24-0.31c3.47,2.63,6.8,5.41,9.91,8.26
			c0.65,0.6,0.69,1.61,0.09,2.26C1228.37,326.94,1227.94,327.11,1227.51,327.11z M1207.22,311.7c-0.29,0-0.58-0.08-0.85-0.25
			c-3.48-2.19-7.16-4.31-10.95-6.31c-0.78-0.41-1.08-1.38-0.67-2.16c0.41-0.78,1.38-1.08,2.16-0.67c3.86,2.04,7.62,4.21,11.16,6.44
			c0.75,0.47,0.97,1.46,0.5,2.2C1208.27,311.44,1207.75,311.7,1207.22,311.7z M1184.68,299.75c-0.22,0-0.44-0.04-0.65-0.14
			c-3.75-1.67-7.7-3.29-11.73-4.82c-0.83-0.31-1.24-1.23-0.93-2.06c0.31-0.82,1.24-1.24,2.06-0.93c4.09,1.55,8.09,3.19,11.9,4.89
			c0.81,0.36,1.17,1.3,0.81,2.11C1185.87,299.4,1185.29,299.75,1184.68,299.75z M1160.8,290.7c-0.16,0-0.33-0.02-0.49-0.08
			c-3.92-1.26-8.02-2.47-12.18-3.61c-0.85-0.23-1.35-1.11-1.12-1.96c0.23-0.85,1.11-1.35,1.96-1.12c4.2,1.15,8.35,2.38,12.32,3.65
			c0.84,0.27,1.3,1.17,1.03,2.01C1162.1,290.27,1161.48,290.7,1160.8,290.7z M1136.17,283.95c-0.12,0-0.24-0.01-0.36-0.04
			c-4.03-0.94-8.22-1.83-12.44-2.66c-0.86-0.17-1.43-1.01-1.26-1.87c0.17-0.87,1.01-1.43,1.87-1.26c4.26,0.84,8.48,1.74,12.55,2.68
			c0.86,0.2,1.39,1.06,1.19,1.92C1137.55,283.45,1136.89,283.95,1136.17,283.95z M1111.09,279c-0.09,0-0.17-0.01-0.26-0.02
			c-4.08-0.68-8.32-1.32-12.59-1.91c-0.87-0.12-1.48-0.93-1.36-1.8c0.12-0.87,0.93-1.48,1.8-1.36c4.3,0.6,8.57,1.25,12.68,1.93
			c0.87,0.14,1.46,0.97,1.31,1.84C1112.54,278.45,1111.86,279,1111.09,279z M1085.78,275.47c-0.06,0-0.12,0-0.19-0.01
			c-4.11-0.47-8.38-0.92-12.68-1.33c-0.88-0.08-1.52-0.86-1.44-1.74c0.08-0.88,0.85-1.53,1.74-1.44c4.32,0.41,8.61,0.86,12.74,1.33
			c0.88,0.1,1.5,0.89,1.4,1.77C1087.27,274.87,1086.58,275.47,1085.78,275.47z M1060.33,273.06c-0.04,0-0.08,0-0.12,0
			c-4.12-0.31-8.39-0.6-12.7-0.86c-0.88-0.05-1.55-0.81-1.5-1.69c0.05-0.88,0.85-1.55,1.69-1.5c4.33,0.26,8.62,0.55,12.75,0.87
			c0.88,0.07,1.54,0.83,1.47,1.71C1061.86,272.42,1061.16,273.06,1060.33,273.06z M1034.86,271.52c-0.02,0-0.05,0-0.07,0
			c-4.11-0.19-8.4-0.36-12.75-0.51c-0.88-0.03-1.57-0.77-1.54-1.65s0.78-1.55,1.65-1.54c4.37,0.15,8.67,0.32,12.79,0.51
			c0.88,0.04,1.56,0.79,1.52,1.67C1036.41,270.85,1035.7,271.52,1034.86,271.52z M894.26,270.74c-0.88,0-1.6-0.71-1.6-1.59
			c0-0.88,0.71-1.6,1.59-1.6c4.19-0.01,8.45-0.03,12.77-0.05c0.87-0.04,1.6,0.7,1.61,1.59c0.01,0.88-0.7,1.6-1.59,1.61
			C902.73,270.71,898.46,270.73,894.26,270.74C894.26,270.74,894.26,270.74,894.26,270.74z M881.49,270.71
			C881.48,270.71,881.48,270.71,881.49,270.71c-4.61-0.03-8.79-0.08-12.8-0.15c-0.88-0.02-1.58-0.74-1.57-1.62
			c0.02-0.87,0.73-1.57,1.6-1.57c0.01,0,0.02,0,0.03,0c4,0.07,8.17,0.12,12.76,0.15c0.88,0.01,1.59,0.72,1.59,1.61
			C883.08,270,882.36,270.71,881.49,270.71z M1009.29,270.65c-0.01,0-0.02,0-0.04,0c-4.27-0.1-8.54-0.17-12.79-0.23
			c-0.88-0.01-1.59-0.74-1.57-1.62c0.01-0.87,0.72-1.57,1.6-1.57c0.01,0,0.01,0,0.02,0c4.27,0.06,8.54,0.14,12.82,0.23
			c0.88,0.02,1.58,0.75,1.56,1.63C1010.87,269.96,1010.16,270.65,1009.29,270.65z M919.81,270.58c-0.88,0-1.59-0.71-1.6-1.58
			c-0.01-0.88,0.7-1.6,1.58-1.61l12.78-0.12c0.85,0.02,1.6,0.7,1.61,1.58c0.01,0.88-0.7,1.6-1.58,1.61l-12.78,0.12
			C919.82,270.58,919.82,270.58,919.81,270.58z M945.37,270.36c-0.88,0-1.59-0.71-1.6-1.58c-0.01-0.88,0.7-1.6,1.58-1.61
			c4.23-0.03,8.49-0.06,12.78-0.08c0,0,0.01,0,0.01,0c0.88,0,1.59,0.71,1.6,1.59c0,0.88-0.71,1.6-1.59,1.6
			c-4.29,0.02-8.55,0.05-12.77,0.08C945.38,270.36,945.38,270.36,945.37,270.36z M983.7,270.29
			C983.7,270.29,983.7,270.29,983.7,270.29c-4.28-0.03-8.54-0.04-12.78-0.04c-0.88,0-1.6-0.72-1.6-1.6c0-0.88,0.72-1.6,1.6-1.6l0,0
			c4.24,0,8.51,0.01,12.79,0.04c0.88,0.01,1.59,0.72,1.59,1.61C985.3,269.58,984.58,270.29,983.7,270.29z M855.95,270.25
			c-0.02,0-0.04,0-0.05,0c-4.5-0.15-8.81-0.34-12.8-0.57c-0.88-0.05-1.55-0.8-1.5-1.68c0.05-0.88,0.78-1.54,1.69-1.5
			c3.97,0.22,8.25,0.41,12.73,0.56c0.88,0.03,1.57,0.77,1.54,1.65C857.51,269.57,856.8,270.25,855.95,270.25z M830.44,268.77
			c-0.05,0-0.1,0-0.14-0.01c-0.7-0.06-1.4-0.13-2.09-0.19c-3.47-0.09-7.05-0.23-10.63-0.4c-0.88-0.04-1.56-0.79-1.52-1.67
			c0.04-0.88,0.78-1.57,1.67-1.52c3.58,0.17,7.15,0.31,10.62,0.4c0.04,0,0.07,0,0.11,0.01c0.7,0.07,1.41,0.13,2.12,0.2
			c0.88,0.08,1.53,0.85,1.45,1.73C831.96,268.14,831.26,268.77,830.44,268.77z M804.89,267.39c-0.04,0-0.08,0-0.12,0
			c-4.26-0.31-8.56-0.67-12.79-1.08c-0.88-0.08-1.52-0.86-1.44-1.74c0.08-0.88,0.85-1.52,1.74-1.44c4.2,0.4,8.48,0.76,12.71,1.07
			c0.88,0.06,1.54,0.83,1.48,1.71C806.42,266.75,805.72,267.39,804.89,267.39z M779.42,264.94c-0.06,0-0.13,0-0.19-0.01
			c-4.28-0.52-8.56-1.1-12.72-1.71c-0.87-0.13-1.48-0.94-1.35-1.81c0.13-0.87,0.94-1.47,1.81-1.35c4.13,0.61,8.38,1.19,12.64,1.7
			c0.88,0.11,1.5,0.9,1.39,1.78C780.9,264.34,780.21,264.94,779.42,264.94z M754.11,261.17c-0.09,0-0.19-0.01-0.28-0.03
			c-4.28-0.76-8.51-1.59-12.6-2.46c-0.86-0.18-1.41-1.03-1.23-1.89c0.18-0.86,1.03-1.41,1.89-1.23c4.05,0.86,8.25,1.68,12.49,2.44
			c0.87,0.15,1.45,0.98,1.29,1.85C755.54,260.63,754.87,261.17,754.11,261.17z M729.1,255.82c-0.13,0-0.26-0.02-0.39-0.05
			c-4.25-1.08-8.42-2.23-12.4-3.43c-0.84-0.25-1.32-1.14-1.07-1.99c0.25-0.84,1.15-1.32,1.99-1.07c3.93,1.18,8.05,2.32,12.26,3.39
			c0.85,0.22,1.37,1.08,1.16,1.94C730.46,255.34,729.81,255.82,729.1,255.82z M704.62,248.41c-0.18,0-0.36-0.03-0.54-0.1
			c-4.17-1.5-8.2-3.1-11.98-4.75c-0.81-0.35-1.18-1.29-0.83-2.1c0.35-0.81,1.29-1.18,2.1-0.82c3.72,1.62,7.68,3.19,11.79,4.67
			c0.83,0.3,1.26,1.21,0.96,2.04C705.89,248.01,705.28,248.41,704.62,248.41z M681.24,238.13c-0.26,0-0.51-0.06-0.75-0.19
			c-3.95-2.12-7.68-4.38-11.07-6.7c-0.73-0.5-0.92-1.49-0.42-2.22c0.5-0.73,1.49-0.91,2.22-0.42c3.3,2.26,6.93,4.45,10.78,6.52
			c0.78,0.42,1.07,1.39,0.65,2.16C682.36,237.83,681.81,238.13,681.24,238.13z M660.27,223.65c-0.38,0-0.77-0.14-1.07-0.41
			c-3.34-3.03-6.32-6.24-8.85-9.55c-0.54-0.7-0.4-1.7,0.3-2.24c0.7-0.54,1.7-0.4,2.24,0.29c2.42,3.15,5.27,6.23,8.47,9.13
			c0.65,0.59,0.7,1.6,0.11,2.26C661.14,223.48,660.7,223.65,660.27,223.65z M645.01,203.46c-0.6,0-1.18-0.34-1.45-0.93
			c-1.84-3.97-3.19-8.16-4.03-12.43c-0.17-0.87,0.4-1.7,1.26-1.87c0.86-0.17,1.7,0.4,1.87,1.26c0.78,4.03,2.06,7.96,3.79,11.7
			c0.37,0.8,0.02,1.75-0.78,2.12C645.46,203.41,645.23,203.46,645.01,203.46z M640.1,178.72c-0.02,0-0.03,0-0.05,0
			c-0.88-0.03-1.57-0.77-1.55-1.65c0.13-4.18,0.69-8.53,1.66-12.94c0.19-0.86,1.04-1.4,1.9-1.22c0.86,0.19,1.41,1.04,1.22,1.9
			c-0.93,4.22-1.46,8.38-1.58,12.36C641.67,178.03,640.96,178.72,640.1,178.72z M645.37,153.83c-0.19,0-0.38-0.03-0.56-0.1
			c-0.83-0.31-1.24-1.23-0.93-2.06l0.43-1.12c1.44-3.73,3-7.34,4.65-10.75c0.38-0.79,1.33-1.13,2.13-0.74
			c0.79,0.38,1.13,1.34,0.74,2.13c-1.61,3.33-3.13,6.87-4.54,10.51l-0.42,1.1C646.62,153.44,646.01,153.83,645.37,153.83z
			 M656.51,130.91c-0.29,0-0.58-0.08-0.84-0.24c-0.75-0.47-0.98-1.45-0.51-2.2c2.33-3.75,4.85-7.3,7.5-10.57
			c0.56-0.69,1.56-0.79,2.25-0.23c0.69,0.56,0.79,1.56,0.23,2.25c-2.56,3.16-5.01,6.6-7.27,10.24
			C657.57,130.64,657.05,130.91,656.51,130.91z M1007.36,128.07c-4.1,0-8.36-0.1-12.66-0.29c-0.88-0.04-1.56-0.78-1.53-1.67
			c0.04-0.88,0.81-1.57,1.67-1.52c4.26,0.19,8.47,0.28,12.52,0.28c0.01,0,0.02,0,0.03,0h0.15c0.88,0,1.6,0.71,1.6,1.6
			s-0.72,1.6-1.6,1.6h-0.15C1007.37,128.07,1007.36,128.07,1007.36,128.07z M1020.31,127.74c-0.84,0-1.55-0.66-1.59-1.51
			c-0.05-0.88,0.63-1.63,1.51-1.68c4.29-0.22,8.54-0.57,12.64-1.03c0.86-0.1,1.67,0.53,1.76,1.41c0.1,0.88-0.53,1.67-1.41,1.76
			c-4.16,0.46-8.47,0.82-12.82,1.04C1020.36,127.74,1020.33,127.74,1020.31,127.74z M982.02,126.96c-0.04,0-0.09,0-0.13-0.01
			c-4.13-0.34-8.42-0.77-12.76-1.28c-0.88-0.1-1.5-0.9-1.4-1.77c0.1-0.88,0.88-1.5,1.77-1.4c4.31,0.5,8.57,0.93,12.66,1.27
			c0.88,0.07,1.53,0.85,1.46,1.72C983.54,126.33,982.84,126.96,982.02,126.96z M1045.68,124.87c-0.76,0-1.43-0.54-1.57-1.31
			c-0.16-0.87,0.42-1.7,1.29-1.85c4.2-0.75,8.36-1.66,12.36-2.69c0.85-0.22,1.72,0.29,1.94,1.15c0.22,0.85-0.29,1.72-1.15,1.94
			c-4.08,1.05-8.31,1.97-12.59,2.74C1045.86,124.86,1045.77,124.87,1045.68,124.87z M956.64,124.02c-0.08,0-0.15-0.01-0.23-0.02
			c-4.08-0.59-8.34-1.26-12.66-2c-0.87-0.15-1.45-0.97-1.31-1.84c0.15-0.87,0.98-1.45,1.84-1.31c4.3,0.73,8.53,1.4,12.58,1.99
			c0.87,0.13,1.48,0.94,1.35,1.81C958.1,123.45,957.42,124.02,956.64,124.02z M931.43,119.76c-0.1,0-0.2-0.01-0.3-0.03
			c-4-0.76-8.23-1.6-12.57-2.49c-0.86-0.18-1.42-1.02-1.24-1.89c0.18-0.86,1.02-1.42,1.89-1.24c4.33,0.89,8.54,1.73,12.52,2.48
			c0.87,0.16,1.44,1,1.27,1.87C932.85,119.23,932.18,119.76,931.43,119.76z M1070.38,118.48c-0.66,0-1.28-0.41-1.51-1.08
			c-0.29-0.83,0.15-1.74,0.99-2.03c4-1.38,7.95-2.95,11.75-4.64c0.8-0.36,1.75,0,2.11,0.81c0.36,0.81,0,1.75-0.81,2.11
			c-3.88,1.73-7.92,3.33-12,4.74C1070.73,118.45,1070.56,118.48,1070.38,118.48z M906.38,114.62c-0.11,0-0.23-0.01-0.34-0.04
			c-4.17-0.91-8.33-1.84-12.49-2.79c-0.86-0.2-1.4-1.05-1.2-1.91s1.05-1.4,1.91-1.2c4.15,0.94,8.3,1.87,12.46,2.78
			c0.86,0.19,1.41,1.04,1.22,1.9C907.78,114.11,907.11,114.62,906.38,114.62z M672.6,111.18c-0.43,0-0.86-0.17-1.17-0.51
			c-0.6-0.65-0.56-1.66,0.08-2.26c3.18-2.95,6.59-5.68,10.15-8.1c0.73-0.49,1.72-0.31,2.22,0.42c0.5,0.73,0.31,1.72-0.42,2.22
			c-3.43,2.34-6.72,4.96-9.78,7.81C673.37,111.04,672.98,111.18,672.6,111.18z M881.46,108.96c-0.12,0-0.24-0.01-0.36-0.04
			c-4.16-0.97-8.3-1.94-12.43-2.91c-0.86-0.2-1.39-1.06-1.19-1.92c0.2-0.86,1.06-1.39,1.92-1.19c4.13,0.97,8.27,1.94,12.43,2.91
			c0.86,0.2,1.39,1.06,1.19,1.92C882.84,108.47,882.19,108.96,881.46,108.96z M1093.67,108.07c-0.56,0-1.1-0.29-1.39-0.82
			c-0.43-0.77-0.16-1.74,0.61-2.17c3.66-2.05,7.26-4.29,10.72-6.67c0.73-0.5,1.72-0.32,2.22,0.41c0.5,0.73,0.31,1.72-0.41,2.22
			c-3.53,2.43-7.22,4.72-10.97,6.82C1094.2,108,1093.93,108.07,1093.67,108.07z M856.59,103.13c-0.12,0-0.24-0.01-0.36-0.04
			c-4.17-0.97-8.32-1.93-12.44-2.87c-0.86-0.2-1.4-1.05-1.2-1.91c0.2-0.86,1.05-1.4,1.91-1.2c4.13,0.94,8.29,1.9,12.46,2.88
			c0.86,0.2,1.39,1.06,1.19,1.92C857.97,102.63,857.31,103.13,856.59,103.13z M831.66,97.47c-0.11,0-0.23-0.01-0.34-0.04
			c-4.41-0.96-8.49-1.82-12.48-2.64c-0.86-0.18-1.42-1.02-1.25-1.88c0.17-0.86,1.02-1.42,1.88-1.25c4,0.82,8.1,1.68,12.52,2.65
			c0.86,0.19,1.41,1.04,1.22,1.9C833.06,96.96,832.4,97.47,831.66,97.47z M693.61,96.85c-0.59,0-1.16-0.33-1.44-0.9
			c-0.38-0.79-0.05-1.75,0.74-2.13c3.81-1.84,7.86-3.47,12.04-4.84c0.84-0.28,1.74,0.18,2.01,1.02c0.27,0.84-0.18,1.74-1.02,2.01
			c-4.05,1.32-7.96,2.9-11.64,4.67C694.08,96.79,693.84,96.85,693.61,96.85z M806.62,92.39c-0.1,0-0.19-0.01-0.29-0.03
			c-4.34-0.8-8.56-1.53-12.55-2.16c-0.87-0.14-1.46-0.96-1.33-1.83c0.14-0.87,0.95-1.46,1.83-1.33c4.02,0.64,8.27,1.37,12.63,2.18
			c0.87,0.16,1.44,0.99,1.28,1.86C808.04,91.85,807.37,92.39,806.62,92.39z M717.78,88.85c-0.74,0-1.41-0.52-1.56-1.28
			c-0.18-0.86,0.38-1.71,1.25-1.88c4.06-0.82,8.36-1.47,12.77-1.93c0.87-0.1,1.66,0.55,1.75,1.42c0.09,0.88-0.55,1.66-1.42,1.75
			c-4.31,0.45-8.51,1.08-12.47,1.89C718,88.84,717.89,88.85,717.78,88.85z M781.38,88.4c-0.07,0-0.14,0-0.2-0.01
			c-4.34-0.55-8.59-1.01-12.64-1.36c-0.88-0.08-1.53-0.85-1.45-1.73c0.08-0.88,0.87-1.52,1.73-1.45c4.09,0.36,8.38,0.82,12.77,1.38
			c0.88,0.11,1.49,0.91,1.38,1.79C782.86,87.81,782.17,88.4,781.38,88.4z M755.93,86.22c-0.02,0-0.04,0-0.06,0
			c-4.37-0.16-8.57-0.19-12.67-0.09c-0.01,0-0.03,0-0.04,0c-0.86,0-1.57-0.69-1.59-1.56c-0.02-0.88,0.67-1.61,1.56-1.64
			c4.16-0.11,8.43-0.08,12.87,0.09c0.88,0.03,1.57,0.77,1.54,1.65C757.49,85.55,756.78,86.22,755.93,86.22z"/><path fill="#561d8a" d="M832.76,877.12H475.61c-1.76,0-3.19-1.43-3.19-3.19c0-1.76,1.43-3.19,3.19-3.19h357.15
			c1.76,0,3.19,1.43,3.19,3.19C835.95,875.69,834.52,877.12,832.76,877.12z"/><path fill="#561d8a" d="M1134.89,877.12h-102.72c-1.76,0-3.19-1.43-3.19-3.19c0-1.76,1.43-3.19,3.19-3.19h102.72
			c1.76,0,3.19,1.43,3.19,3.19C1138.08,875.69,1136.65,877.12,1134.89,877.12z"/><path fill="#561d8a" d="M340.54,877.12h-60.53c-1.76,0-3.19-1.43-3.19-3.19c0-1.76,1.43-3.19,3.19-3.19h60.53
			c1.76,0,3.19,1.43,3.19,3.19C343.73,875.69,342.3,877.12,340.54,877.12z"/><rect width="825.95" height="491.99" x="280.42" y="194.12" fill="#fff" transform="rotate(-180 693.398 440.118)"/><rect width="141.82" height="92.22" x="620.9" y="671.03" fill="#c0b5eb"/><path fill="#d5cbfa" d="M549.46,763.25h284.69c23.48,0,42.52,18.32,42.52,40.92l0,0H506.95l0,0
								C506.95,781.57,525.98,763.25,549.46,763.25z"/><path fill="#d5cbfa" d="M268.78,195.72v497.7c0,6.23,5.47,11.29,12.24,11.29h821.58c6.76,0,12.24-5.06,12.24-11.29v-497.7
									c0-6.23-5.48-11.29-12.24-11.29H281.02C274.26,184.43,268.78,189.49,268.78,195.72z M289.18,212.12
									c0-6.65,5.82-12.04,13.01-12.04h784.18c7.19,0,13.02,5.39,13.02,12.04v438.02c0,6.65-5.83,12.04-13.02,12.04H302.19
									c-7.19,0-13.01-5.39-13.01-12.04V212.12z"/><path fill="#ffa200" d="M1009.37,531.11H893.99c-5.98,0-10.83,4.85-10.83,10.83v51.23c0,5.98,4.85,10.83,10.83,10.83h115.38
			c5.98,0,10.83-4.85,10.83-10.83v-51.23C1020.2,535.96,1015.35,531.11,1009.37,531.11z"/><path fill="#e0deff" d="M976.13,273.25h-649.4c-4.2,0-7.6-3.4-7.6-7.6v-25.5c0-4.2,3.4-7.6,7.6-7.6h649.4c4.2,0,7.6,3.4,7.6,7.6
			v25.5C983.72,269.85,980.32,273.25,976.13,273.25z"/><path fill="#d2cfff" d="M1057.46,262.23l-12.01-6.2l-3.03-2.12c-0.14-0.1-0.3-0.18-0.45-0.25c1.33-2.53,2.01-5.45,1.79-8.55
			c-0.56-7.98-7.04-14.4-15.03-14.86c-9.62-0.56-17.56,7.42-16.94,17.05c0.5,7.86,6.77,14.26,14.62,14.92
			c4.37,0.37,8.4-1.04,11.49-3.57l14.63,11.66c2.23,1.36,5.14,0.66,6.51-1.56l0,0C1060.38,266.51,1059.68,263.6,1057.46,262.23z
			 M1027.77,257.69c-6.31,0-11.45-5.13-11.45-11.45c0-6.31,5.13-11.45,11.45-11.45c6.31,0,11.45,5.13,11.45,11.45
			C1039.22,252.56,1034.08,257.69,1027.77,257.69z"/><path fill="#e04531" d="M673.46,334.1v145.36c-1.8-3.26-5.28-5.46-9.27-5.46c-0.08,0-0.12,0-0.2,0.02
						c-4.57,0.08-8.45,3.05-9.84,7.16c-0.38,1.09-0.59,2.24-0.59,3.45c0,1.89,0.49,3.66,1.35,5.2H361.64v-169.9h296.88
						c-2.98,1.87-4.96,5.2-4.96,8.97c0,1.23,0.2,2.41,0.61,3.51c1.41,4.09,5.27,7.05,9.84,7.11c0.06,0.02,0.12,0.02,0.18,0.02
						C668.18,339.54,671.65,337.35,673.46,334.1z"/><path fill="#1ba1ac" d="M673.46,319.93v3.78c-0.86-1.54-2.11-2.85-3.6-3.78H673.46z"/><path fill="#e04531" d="M773.42,383.9c0.4,6.73,4.61,10.88,5.58,11.79c-0.57,0.38-6.71,4.79-6.76,12.76
						c-0.06,8.1,6.24,12.6,6.77,12.96c-0.62,0.44-6.54,4.81-6.65,12.64c-0.11,8.08,6.07,12.66,6.65,13.06
						c-4.54,1.5-7.68,5.56-7.96,10.19c-0.27,5.07,2.98,9.81,7.94,11.47c0.02,2.72,0.02,5.42,0.02,8.14c-1.75,0.18-5.9,0.9-9.77,4.13
						c-3.36,2.81-4.99,6.25-5.78,8.79h-90.02c0.86-1.52,1.35-3.31,1.35-5.2c0-1.21-0.2-2.36-0.59-3.45
						c-0.2-0.61-0.45-1.17-0.77-1.72c-1.8-3.26-5.28-5.46-9.27-5.46c-0.08,0-0.12,0-0.2,0.02V474c0-44.82,0.02-89.62,0.02-134.44
						c0-0.02,0-0.02,0-0.04c0.06,0.02,0.12,0.02,0.18,0.02c3.99,0,7.46-2.19,9.27-5.44c0.3-0.53,0.55-1.1,0.75-1.69
						c0.4-1.1,0.61-2.28,0.61-3.51c0-1.89-0.49-3.67-1.35-5.2c-0.86-1.54-2.11-2.84-3.59-3.78h92.91c0.33,1.82,1.34,6.11,4.92,10.04
						c4.31,4.72,9.58,5.89,11.31,6.21c0,2.7,0,5.4,0.02,8.1c-1.16,1.23-4.55,5.14-5.09,11.16c-0.73,8.1,4.25,13.64,5.09,14.55
						C778.25,370.7,772.94,375.88,773.42,383.9z"/><path fill="#e04531" d="M452.77,474v15.83h-99.5c-0.79-2.55-2.41-6-5.77-8.8c-3.86-3.22-8.01-3.93-9.76-4.13
						c0.01-2.71,0.01-5.42,0.01-8.12c4.98-1.67,8.22-6.42,7.94-11.48c-0.26-4.62-3.42-8.69-7.95-10.19
						c0.56-0.39,6.76-4.98,6.64-13.07c-0.11-7.81-6.01-12.18-6.63-12.64c0.53-0.37,6.81-4.86,6.76-12.95
						c-0.05-7.98-6.19-12.38-6.76-12.77c0.97-0.9,5.19-5.05,5.58-11.79c0.48-8-4.83-13.18-5.6-13.9c0.85-0.9,5.81-6.45,5.08-14.54
						c-0.54-6.03-3.92-9.95-5.07-11.17c0-2.7,0-5.4,0.01-8.1c1.73-0.31,7-1.48,11.3-6.2c3.59-3.94,4.6-8.23,4.92-10.06h98.78v19.62
						C452.76,384.36,452.76,429.19,452.77,474z"/><path fill="#bfc1c4" d="M674.21,332.41c-0.2,0.59-0.45,1.16-0.75,1.69c-1.82,3.25-5.28,5.44-9.27,5.44c-0.06,0-0.12,0-0.18-0.02
						c-4.57-0.06-8.43-3.02-9.84-7.11h-3.32v-0.02H367.91v148.77h96.01v0.02h190.23c1.39-4.11,5.27-7.08,9.84-7.16
						c0.08-0.02,0.12-0.02,0.2-0.02H375.42V339.54h271.75v0.02h92.21V474h-75.19c3.99,0,7.48,2.2,9.27,5.46
						c0.32,0.55,0.57,1.11,0.77,1.72h72.64V332.41H674.21z"/><path fill="#fff" d="M416.37,439.4c-2.87-3.18-4.3-7.75-4.3-13.7v-4.2h10.92v5.04c0,4.76,1.99,7.14,5.98,7.14
					c1.96,0,3.45-0.58,4.46-1.73c1.01-1.15,1.52-3.03,1.52-5.62c0-3.08-0.7-5.79-2.1-8.14c-1.4-2.34-3.99-5.16-7.77-8.45
					c-4.76-4.2-8.08-7.99-9.97-11.39c-1.89-3.39-2.83-7.23-2.83-11.49c0-5.81,1.47-10.3,4.41-13.49c2.94-3.18,7.21-4.78,12.81-4.78
					c5.53,0,9.71,1.59,12.54,4.78c2.83,3.19,4.25,7.75,4.25,13.7v3.04h-10.92v-3.78c0-2.52-0.49-4.36-1.47-5.51
					c-0.98-1.15-2.41-1.73-4.3-1.73c-3.85,0-5.77,2.35-5.77,7.03c0,2.66,0.72,5.14,2.15,7.45c1.43,2.31,4.04,5.11,7.82,8.4
					c4.83,4.2,8.15,8.01,9.97,11.44c1.82,3.43,2.73,7.45,2.73,12.07c0,6.02-1.49,10.64-4.46,13.86c-2.98,3.22-7.3,4.83-12.96,4.83
					C423.47,444.18,419.24,442.59,416.37,439.4z"/><path fill="#fff" d="M456.78,439.35c-3.01-3.22-4.51-7.77-4.51-13.65v-38.63c0-5.88,1.5-10.43,4.51-13.65
					c3.01-3.22,7.35-4.83,13.02-4.83c5.67,0,10.01,1.61,13.02,4.83c3.01,3.22,4.51,7.77,4.51,13.65v38.63
					c0,5.88-1.51,10.43-4.51,13.65c-3.01,3.22-7.35,4.83-13.02,4.83C464.13,444.18,459.79,442.57,456.78,439.35z M475.78,426.44
					v-40.1c0-4.83-1.99-7.24-5.98-7.24c-3.99,0-5.98,2.41-5.98,7.24v40.1c0,4.83,1.99,7.24,5.98,7.24
					C473.79,433.68,475.78,431.27,475.78,426.44z"/><path fill="#fff" d="M495.1,369.65h11.55v62.98h19v10.5H495.1V369.65z"/><path fill="#fff" d="M531.21,369.65h17.64c5.74,0,10.04,1.54,12.91,4.62c2.87,3.08,4.3,7.59,4.3,13.54v37.16
					c0,5.95-1.44,10.46-4.3,13.54c-2.87,3.08-7.17,4.62-12.91,4.62h-17.64V369.65z M548.63,432.63c1.89,0,3.34-0.56,4.36-1.68
					c1.01-1.12,1.52-2.94,1.52-5.46v-38.21c0-2.52-0.51-4.34-1.52-5.46c-1.02-1.12-2.47-1.68-4.36-1.68h-5.88v52.49H548.63z"/><path fill="#fff" d="M594.29,439.35c-3.01-3.22-4.51-7.77-4.51-13.65v-38.63c0-5.88,1.5-10.43,4.51-13.65
					c3.01-3.22,7.35-4.83,13.02-4.83c5.67,0,10.01,1.61,13.02,4.83c3.01,3.22,4.51,7.77,4.51,13.65v38.63
					c0,5.88-1.51,10.43-4.51,13.65c-3.01,3.22-7.35,4.83-13.02,4.83C601.64,444.18,597.3,442.57,594.29,439.35z M613.29,426.44
					v-40.1c0-4.83-1.99-7.24-5.98-7.24c-3.99,0-5.98,2.41-5.98,7.24v40.1c0,4.83,1.99,7.24,5.98,7.24
					C611.3,433.68,613.29,431.27,613.29,426.44z"/><path fill="#fff" d="M636.6,439.4c-2.94-3.18-4.41-7.75-4.41-13.7v-56.06h11.55v56.9c0,2.52,0.51,4.34,1.52,5.46
					c1.01,1.12,2.47,1.68,4.36,1.68c1.89,0,3.34-0.56,4.36-1.68c1.01-1.12,1.52-2.94,1.52-5.46v-56.9h11.13v56.06
					c0,5.95-1.47,10.52-4.41,13.7c-2.94,3.19-7.21,4.78-12.81,4.78C643.81,444.18,639.54,442.59,636.6,439.4z"/><path fill="#fff" d="M683.84,380.14h-12.07v-10.5h35.69v10.5h-12.07v62.98h-11.55V380.14z"/><path fill="#fff" d="M905.28,545.25h11.41c3.89,0,6.74,0.91,8.52,2.72c1.79,1.81,2.68,4.6,2.68,8.35v1.93
				c0,2.48-0.4,4.49-1.2,6.05c-0.8,1.56-2.03,2.68-3.68,3.37v0.14c3.76,1.28,5.64,4.63,5.64,10.04v4.12c0,3.71-0.97,6.54-2.92,8.49
				c-1.95,1.95-4.8,2.92-8.56,2.92h-11.89V545.25z M915.8,564.84c1.51,0,2.65-0.39,3.4-1.17c0.76-0.78,1.13-2.08,1.13-3.92v-2.68
				c0-1.74-0.31-3-0.93-3.78c-0.62-0.78-1.59-1.17-2.92-1.17h-3.64v12.72H915.8z M917.17,586.5c1.33,0,2.31-0.36,2.96-1.07
				c0.64-0.71,0.96-1.94,0.96-3.68v-4.19c0-2.2-0.38-3.72-1.13-4.57c-0.76-0.85-2.01-1.27-3.75-1.27h-3.37v14.78H917.17z"/><path fill="#fff" d="M942.54,590.93c-1.92-2.08-2.89-5.08-2.89-8.97v-36.71h7.56v37.26c0,1.65,0.33,2.84,1,3.57
				c0.66,0.73,1.61,1.1,2.85,1.1c1.24,0,2.19-0.37,2.85-1.1c0.66-0.73,1-1.92,1-3.57v-37.26h7.29v36.71c0,3.9-0.96,6.89-2.89,8.97
				c-1.93,2.09-4.72,3.13-8.39,3.13C947.26,594.06,944.47,593.02,942.54,590.93z"/><path fill="#fff" d="M981.38,572.88l-9.14-27.64h8.04l5.16,17.67h0.14l5.16-17.67h7.36l-9.14,27.64v20.49h-7.56V572.88z"/><path fill="#e04531" d="M949.67,472.05c-19.04,0-38.07-7.25-52.57-21.74l0,0c-28.99-28.99-28.99-76.15,0-105.13
					c28.98-28.99,76.15-28.99,105.13,0c28.99,28.99,28.99,76.15,0,105.13C987.74,464.8,968.71,472.05,949.67,472.05z M901.62,445.79
					c26.5,26.49,69.61,26.5,96.1,0c26.49-26.5,26.49-69.61,0-96.1c-26.5-26.5-69.61-26.49-96.1,0
					C875.12,376.18,875.12,419.29,901.62,445.79L901.62,445.79z"/><rect width="6.39" height="142.3" x="946.48" y="326.59" fill="#e04531" transform="rotate(-45.001 949.666 397.751)"/><rect width="142.3" height="6.39" x="878.52" y="394.55" fill="#e04531" transform="rotate(-45.001 949.67 397.751)"/><path fill="#e0deff" d="M349.04,533.64h50.85c4.69,0,8.5,3.8,8.5,8.5v50.85c0,4.69-3.8,8.5-8.5,8.5h-50.85c-4.69,0-8.5-3.8-8.5-8.5
			v-50.85C340.54,537.44,344.34,533.64,349.04,533.64z"/><path fill="#e0deff" d="M454.99,533.64h50.85c4.69,0,8.5,3.8,8.5,8.5v50.85c0,4.69-3.8,8.5-8.5,8.5h-50.85c-4.69,0-8.5-3.8-8.5-8.5
			v-50.85C446.49,537.44,450.3,533.64,454.99,533.64z"/><rect width="211.19" height="6.25" x="567.84" y="533.64" fill="#e0deff"/><rect width="211.19" height="6.25" x="567.84" y="561.31" fill="#e0deff"/><rect width="211.19" height="6.25" x="567.84" y="588.98" fill="#e0deff"/><ellipse cx="1133.79" cy="438.18" fill="#703123" rx="26.85" ry="24.21" transform="matrix(.00666 -1 1 .00666 688.063 1569.031)"/><path fill="#ffd8b5" d="M1197.96,459.83c-2.7-0.81-9.07,13.05-11.07,14.54c-1.69,1.27-2.68-6.92-3.86-4.69s0.95,13.77,0.95,13.77
			l6.98,3.92C1203.24,483.45,1203.64,461.53,1197.96,459.83z"/><path fill="#f55171" d="M1172.43,802.56c-6.36-1.72-7.51-5.39-9.48-9.66c-1.97-4.27-7.15-6.52-7.15-6.52l-3.82,10.96
										l-4.01-1.26c0.4-0.93,1.02-8.32,1.28-13.71c0.04-0.78,0.07-1.51,0.08-2.16l0.01-0.02c0.01-1.16,0.03-2.1,0.01-2.73
										c-0.13-3.5,5.3-11.6,5.3-11.6c0.02,0.03,0.14,0.01,0.16,0.04c4.28,2.82,9.9,3.7,15.15,2.93c0,0-0.01,0.02,0,0.1
										c0,0-0.01,0.02-0.01,0.05c-0.02,0.33-0.02,1.19,0.04,2.41c0.16,2.87,0.76,7.74,2.91,12.5c0.57,1.29,1.5,2.68,2.62,4.11
										c4.73,5.95,12.94,12.71,12.8,15.64C1188.15,807.28,1178.79,804.28,1172.43,802.56z"/><path fill="#ffd5b3" d="M1179.21,792.21c-11.85,8.14-24.5-26.36-24.5-26.36c0.89,0.38,4.78-24.39,4.78-24.39
					s14.56,4.52,18.43,3.95C1175.74,757.44,1166.62,774.64,1179.21,792.21z"/><path fill="#f59f00" d="M1130.98,581.24c6.81,37.41,21.57,56.95,35.09,80.55l-32.46,108.03c14.58,5.28,33.63,9.57,48.9,10.79
				c2.73-21.31,20.12-96.51,22.12-123.58c1.49-20.21-32.7-90.37-32.7-90.37L1130.98,581.24z"/><path fill="#ae5adb" d="M1151.64,473.53c1.66-0.19-0.9,35.75-0.02,38.07c0.66,1.41,18.14,23.71,25.54,27.41
			c13.07,6.52,11.45-7.71,11.45-7.71s-9.4-30.82-17.74-43.58C1163.64,476.64,1153.41,474.9,1151.64,473.53z"/><path fill="#ae5adb" d="M1192.86,534.39c4.32-9.17,4.65-39.73,4.43-50.72c-1.7-1.01-11.55-1.99-14.62-0.49
			c-0.72,8-8.88,53.09-8.88,53.09S1185.85,549.29,1192.86,534.39z"/><path fill="#f55171" d="M1144.38,806.15c-6.53-0.25-8.34-3.81-11.07-7.8c-2.73-3.99-8.2-5.09-8.2-5.09l-1.65,12.41
									l-4.15-0.35c0.21-1.07-0.58-8.96-1.34-14.67c-0.11-0.82-0.22-1.59-0.33-2.28l0-0.03c-0.21-1.22-0.37-2.2-0.51-2.86
									c-0.79-3.63,2.97-13.44,2.97-13.44c0.03,0.03,0.14-0.02,0.16,0c4.71,1.91,10.35,1.46,15.33-0.63c0,0,0,0.03,0.02,0.11
									c0,0,0,0.03,0,0.05c0.04,0.35,0.21,1.25,0.49,2.52c0.7,2.97,2.21,7.92,5.2,12.39c0.8,1.21,1.97,2.44,3.34,3.66
									c5.74,5.08,15.02,10.15,15.44,13.26C1160.6,807.25,1150.9,806.4,1144.38,806.15z"/><path fill="#ffd5b3" d="M1149.04,793.65c-10.02,11.41-28.88-21.63-28.88-21.63c0.94,0.18-3.18-25.89-3.18-25.89
				s18.59,1.57,22.26,0.03C1139.4,759.29,1133.44,778.32,1149.04,793.65z"/><path fill="#ffaf00" d="M1109.58,782.41c4.27,2.62,13.17,3.19,22.8,2.68c10.78-0.58,23.71-3.64,23.71-3.64s-7.04-81.99-6.03-109.56
			c0.91-24.87,8.34-71.55,4.75-99.44c-0.25-1.91-3.54-10.09-3.8-11.93l-38.03,0.48c-8.93,32.89,3.78,81.83,2.6,112.29
			L1109.58,782.41z"/><path fill="#933cc2" d="M1120.43,528.83c-0.75-5.95-2.15-11.69-3.85-16.92c-0.95-2.99-1.99-5.8-3.04-8.4
				c-4.25-10.43-9.24-19.8-9.24-19.8c6.85-5.83,14.96-8.13,23.52-11.43l15.17-1.45c0,0,14.62,3.54,19.2,8.68
				c9.68,10.92,6.07,26.82,4.7,35.35c-0.92,5.63-1.46,10.01-1.35,14.34c0.17,7.86,1.56,22.63,7.96,37.16
				c5.93,13.4-48.14,24.92-63.63,4.73C1108.51,562.65,1122.43,544.85,1120.43,528.83z"/><path fill="#ffd5b3" d="M1145.46,473.12c-5.04,5.59-11.08,6.43-19.5,3.12c1.38-0.75,1.31-2.43,1.86-3.95
				c0.96-2.63,1.8-5.83,0.89-10.54l13.63-1.81c-0.31,2.49-0.22,5.06,0.21,7.28C1143.07,469.96,1144.08,472.18,1145.46,473.12z"/><path fill="#fff" d="M1143.88,471.2c0,0,5.36-0.92,4.81,2.79c-0.55,3.7-3.15,7.78-5.88,7.22c-2.73-0.56-5.52-2.35-5.52-2.35
				s-3.11,3.47-6.21,3.89c-3.55,0.47-8.94-5.71-8.13-7.82c1.05-2.75,4.88-2.64,4.88-2.64s4.53,4.79,9.53,4.32
				S1143.88,471.2,1143.88,471.2z"/><ellipse cx="1138.53" cy="483.58" fill="#fff" rx="1.52" ry="1.54" transform="rotate(-17.326 1138.593 483.603)"/><ellipse cx="1139.99" cy="490.35" fill="#fff" rx="1.52" ry="1.54" transform="rotate(-17.326 1140.06 490.372)"/><path fill="#ffd8b5" d="M1164.38,589.69c-1.65,3.25-7.5-1.26-7.69-0.53c-1.48,5.75,13.26,13.96,13.88,17.09
			c0.92,4.63-13.24-3.62-18.45-6.77c-2.98-1.8-4.77-8.63-6.96-14.35l3.71-6.08c5.33,1.17,8.5,5.94,13.06,8.21
			C1163.2,587.9,1164.89,588.69,1164.38,589.69z"/><path fill="#ae5adb" d="M1119.7,548.58c0,0,3.8-27.34,2.9-46.94c-1.05-22.91-18.62-26.88-22.72-10.44
			c-5.98,23.98-2.78,49.17,0.97,59.44C1106.04,564.9,1119.7,548.58,1119.7,548.58z"/><path fill="#ae5adb" d="M1142.73,590.89c-9.04-6.45-37.57-27.42-41.02-37.41c-2.99-8.67,2.77-10.14,14.94-12.99
			c2.55,2.56,31.12,34.08,37,38.28C1153.32,582.44,1144.61,589.88,1142.73,590.89z"/><path fill="#edd6c7" d="M1142.34,465.49c0,0-0.22,4.12-4.55,4.51c-5.96,0.53-8.58-7.58-8.58-7.58L1142.34,465.49z"/><path fill="#552996" d="M1197.54,457.36l-9.12-3.11c-0.69-0.23-1.36,0.34-1.51,1.28l-4.58,26c-0.15,0.94,0.29,1.89,0.97,2.12
			l9.12,3.11c0.69,0.23,1.36-0.34,1.51-1.28l4.58-26C1198.66,458.54,1198.22,457.59,1197.54,457.36z"/><polygon fill="#46b7f0" points="1183.57 481.97 1188.13 455.98 1188.15 455.92 1197.27 459.03 1192.72 485.02 1192.69 485.08"/><path fill="#ffd8b5" d="M1182.97,465.02c1.08-3.25,1.89-4.65,2.8-2.74c0.91,1.9-0.73,4.27-0.73,4.27l-1.76,10.47
			C1183.28,477.02,1181.9,468.27,1182.97,465.02z"/><ellipse cx="1197.53" cy="466.94" fill="#ffd8b5" rx="7.71" ry="3.17" transform="rotate(-88.642 1197.494 466.973)"/><path fill="#703123" d="M1109.35,416.67c4.5-0.75,9.51,4.5,9.51,4.5c1.59,6.79-0.04,12.05-5.6,16.03c0,0-6.88,0.37-10.14-2.87
			C1097.9,429.12,1101.65,417.96,1109.35,416.67z"/><path fill="#703123" d="M1102.6,421.44c1.21-2.35,2.89-4.7,6.03-5.54c1.33-0.35,2.87-0.43,4.4-0.08c1.54,0.35,2.96,1.12,4.07,2.15
			c1.24,1.15,2.11,2.59,2.38,3.98c0.06,0.28-0.47,0.3-0.54,0.01c-0.57-2.32-2.57-4.78-5.57-5.64c-3.11-0.89-5.98,0.12-7.8,1.66
			c-1.19,1.01-2.03,2.25-2.78,3.53C1102.73,421.59,1102.55,421.52,1102.6,421.44z"/><path fill="#703123" d="M1103.26,435.08c-0.71-0.81-1.07-1.65-1.15-2.54c0-0.04,0.07-0.02,0.08,0.01c0.28,2.22,3,4.13,5.57,4.77
			c3,0.75,5.72,0.2,8.33-0.38c0.39-0.09,0.71,0.44,0.32,0.52c-2.21,0.49-4.59,0.87-7.09,0.53
			C1107.07,437.69,1104.72,436.74,1103.26,435.08z"/><path fill="#ffd5b3" d="M1116.35,440.31c1.04-1.4,2.85-1.03,4.35-0.35c1.39,0.62,2.19,1.79,1.96,2.98
				c-0.55,2.85,1.57,5.84,2.15,8.79C1114.53,451.42,1114.36,442.99,1116.35,440.31z"/><path fill="#edd6c7" d="M1117.98,442.54c0.73-0.28,1.81-0.18,2.22,0.4c0.18,0.25-0.28,0.49-0.51,0.25c-0.18-0.19-0.5-0.27-0.8-0.2
				c-0.26,0.07-0.49,0.29-0.6,0.47c-0.35,0.55,0.04,1.21,0.35,1.72c0.31,0.51,0.71,1,1.18,1.44c0.5,0.47,1.17,0.82,1.66,1.28
				c0.47,0.44-0.34,1.1-0.99,0.81c-0.5-0.22-0.88-0.57-1.24-0.9c-0.34-0.3-0.64-0.63-0.92-0.96c-0.57-0.69-1.05-1.45-1.26-2.24
				C1116.88,443.92,1117,442.92,1117.98,442.54z"/><path fill="#ffd5b3" d="M1120.15,438.23c-0.11,16,7.83,28.39,20.32,28.48c11.89,0.08,20.82-13.02,19.91-29.7
			c-0.88-15.98-8-24.15-20.49-24.23C1127.39,412.7,1120.26,422.23,1120.15,438.23z"/><path fill="#edd6c7" d="M1147.04,448.25c-0.48-1.44-1.69-2-1.97-5.81c-0.59,2.27,0.54,5.18,0.97,6.4
				c0.86,2.48-3.46,2.03-2.18,2.31C1145.41,451.49,1147.99,451.1,1147.04,448.25z"/><path fill="#703123" d="M1150.62,438.03c3.17-1.72,6.95,1.02,7.15,2.36c0.05,0.35-0.25,0.01-1.66-0.95
				c-1.04-0.68-3.05-0.86-4.23-0.51C1150.67,439.28,1149.11,438.94,1150.62,438.03z"/><path fill="#943f27" d="M1148.59,443.93c0.47,2.43,7.07,2.58,8.09,1.85c0.06-0.04,0.11-0.08,0.16-0.12c0,0,0,0,0,0
					c0.49-0.75,0.92-2.07,0.92-2.07s-1.2-1.27-1.86-1.64c-0.01,0-0.01-0.01-0.03-0.01c-0.16-0.09-0.81-0.43-1.68-0.66
					c-1.19-0.32-2.82-0.44-4.18,0.55c-0.16,0.11-1.09,0.79-1.46,1.75C1148.56,443.68,1148.57,443.8,1148.59,443.93z"/><path fill="#fff" d="M1148.41,444.52c0.13,1.74,2.47,2.83,4.17,2.97c0.17,0.02,0.65,0.05,1.27-0.06
					c0.57-0.09,1.26-0.31,1.93-0.78c0.09-0.05,0.42-0.29,0.78-0.63c0.1-0.09,0.19-0.21,0.29-0.36c0,0,0,0,0,0
					c0.49-0.75,0.92-2.07,0.92-2.07s-1.2-1.27-1.86-1.64c-0.01,0-0.01-0.01-0.03-0.01c-0.16-0.09-0.81-0.43-1.68-0.66
					c-1.19-0.32-2.82-0.44-4.18,0.55c-0.16,0.11-1.09,0.79-1.46,1.75C1148.45,443.85,1148.39,444.18,1148.41,444.52z"/><circle cx="1153.68" cy="444.11" r="3.32" fill="#b56953"/><circle cx="1153.75" cy="443.99" r="2.05" fill="#2e130c"/><circle cx="1152.34" cy="442.8" r=".51" fill="#fff"/><circle cx="1151.75" cy="444.49" r=".29" fill="#fff"/><path fill="#703123" d="M1148.57,443.56c0.37-0.96,1.3-1.63,1.46-1.75c1.36-0.99,2.99-0.86,4.18-0.55
					c0.87,0.24,1.51,0.57,1.68,0.66c0.01,0,0.02,0.01,0.03,0.01c0.66,0.37,1.86,1.64,1.86,1.64s-0.44,1.32-0.92,2.07
					c0.35-0.29,0.54-0.55,0.54-0.55c0.08-0.12,0.24-0.37,0.39-0.7c0.19-0.41,0.22-0.59,0.36-0.63c0.11-0.03,0.51,0.98,1.76,0.79
					c0.11-0.02,0.23-0.14,0.23-0.14c-0.5,0.1-1.3-0.49-2.19-1.7c-2.42-3.28-7.32-3.31-8.98-0.28
					C1148.8,442.72,1148.59,443.12,1148.57,443.56z"/><path fill="#943f27" d="M1139.64,443.82c-0.5,2.42-7.1,2.49-8.11,1.74c-0.05-0.04-0.11-0.08-0.16-0.12c0,0,0,0,0,0
					c-0.48-0.76-0.89-2.08-0.89-2.08s1.21-1.25,1.88-1.62c0.01,0,0.01-0.01,0.03-0.01c0.17-0.09,0.81-0.42,1.69-0.64
					c1.2-0.3,2.82-0.4,4.17,0.61c0.16,0.12,1.08,0.8,1.43,1.77C1139.68,443.57,1139.67,443.69,1139.64,443.82z"/><path fill="#fff" d="M1139.81,444.41c-0.15,1.74-2.51,2.79-4.21,2.92c-0.17,0.01-0.65,0.04-1.26-0.08
					c-0.57-0.1-1.25-0.33-1.92-0.8c-0.09-0.06-0.42-0.29-0.77-0.64c-0.1-0.09-0.19-0.22-0.28-0.36c0,0,0,0,0,0
					c-0.48-0.76-0.89-2.08-0.89-2.08s1.21-1.25,1.88-1.62c0.01,0,0.01-0.01,0.03-0.01c0.17-0.09,0.81-0.42,1.69-0.64
					c1.2-0.3,2.82-0.4,4.17,0.61c0.16,0.12,1.08,0.8,1.43,1.77C1139.78,443.74,1139.84,444.07,1139.81,444.41z"/><circle cx="1136.01" cy="443.94" r="3.32" fill="#b56953"/><circle cx="1135.93" cy="443.83" r="2.05" fill="#2e130c"/><circle cx="1137.37" cy="442.65" r=".51" fill="#fff"/><circle cx="1137.93" cy="444.35" r=".29" fill="#fff"/><path fill="#703123" d="M1139.67,443.45c-0.36-0.97-1.28-1.65-1.43-1.77c-1.35-1.01-2.97-0.9-4.17-0.61
					c-0.87,0.22-1.52,0.55-1.69,0.64c-0.01,0-0.02,0.01-0.03,0.01c-0.66,0.36-1.88,1.62-1.88,1.62s0.42,1.32,0.89,2.08
					c-0.35-0.29-0.53-0.56-0.53-0.56c-0.08-0.12-0.24-0.38-0.38-0.7c-0.19-0.41-0.22-0.6-0.35-0.63c-0.11-0.03-0.52,0.97-1.77,0.77
					c-0.11-0.02-0.22-0.14-0.22-0.14c0.49,0.11,1.31-0.48,2.22-1.67c2.47-3.24,7.37-3.21,8.98-0.16
					C1139.45,442.61,1139.65,443.01,1139.67,443.45z"/><path fill="#703123" d="M1138.11,437.77c-3.15-1.76-6.96,0.93-7.18,2.26c-0.06,0.35,0.25,0.01,1.67-0.93
				c1.05-0.67,3.06-0.81,4.23-0.45C1138.05,439.02,1139.61,438.7,1138.11,437.77z"/><g><path fill="#703123" d="M1139.94,411.79c-13.13,0.38-24.53,13.59-18.91,33.55c2.54-6.68,6.35-13.89,12.66-19.36
				c0,0-1.14,5.1-1.95,6.96c6.57-1.17,16.54-2.42,17.01-11.03c1.14,3.82,11.44,13.6,11.94,10.77
				C1161.63,418,1149.87,411.51,1139.94,411.79z"/><path fill="#703123" d="M1145.6,429.24c-1.59,1.62-3.71,2.64-5.85,3.33c-0.37,0.12-0.75,0.23-1.13,0.33
				c3.94-1.85,7.92-4.66,9.36-8.04C1147.66,426.51,1146.78,428.04,1145.6,429.24z"/><path fill="#703123" d="M1153.9,430.72c-0.71-0.59-1.36-1.24-1.95-1.95c-1.18-1.42-2.1-3.07-2.68-4.82
				c-0.2-0.61-0.37-1.23-0.49-1.87c1.6,3.12,3.87,6.87,5.77,9.13C1154.33,431.06,1154.11,430.9,1153.9,430.72z"/></g><g><path fill="#801d29" d="M1137.52,454.52c0,0-0.07,0.37-0.11,0.87c-0.06,0.89-0.04,2.11,0.75,2.79c0,0,0,0,0,0.01
				c0.65,0.61,1.87,0.82,3.85,1.2c1.81,0.4,2.95,0.7,3.76,0.47c0-0.01,0.01,0,0.01-0.01c1.11-0.26,1.63-1.49,1.94-2.42
				c0.15-0.49,0.23-0.86,0.23-0.86C1147.61,453.64,1138.68,452.05,1137.52,454.52z"/><path fill="#ff8582" d="M1138.15,458.19C1138.15,458.19,1138.15,458.19,1138.15,458.19c0.64,0.61,1.87,0.83,3.84,1.21
				c1.81,0.4,2.95,0.7,3.76,0.47c0-0.01,0.01,0,0.01-0.01c-0.01,0.09-0.62-3.24-3.52-2.66
				C1142.26,457.19,1140.44,455.76,1138.15,458.19z"/></g><g><path fill="#e64732" d="M1150.87,392.53c0.01,0.88-0.14,1.72-0.47,2.5c-0.33,0.78-0.77,1.46-1.33,2.04c-0.56,0.58-1.23,1.04-2,1.39
			c-0.77,0.35-1.59,0.53-2.45,0.54c-0.88,0.01-1.72-0.14-2.5-0.47c-0.78-0.33-1.46-0.77-2.04-1.33c-0.58-0.56-1.04-1.23-1.39-2
			c-0.35-0.77-0.53-1.6-0.54-2.48c-0.01-0.86,0.14-1.68,0.47-2.46c0.33-0.78,0.77-1.46,1.33-2.04c0.56-0.58,1.23-1.04,2-1.39
			c0.77-0.35,1.6-0.53,2.48-0.54c0.86-0.01,1.68,0.15,2.46,0.47c0.78,0.33,1.46,0.77,2.04,1.33c0.58,0.56,1.04,1.23,1.39,2
			C1150.68,390.85,1150.86,391.67,1150.87,392.53z M1151.3,344.07l-3.34,39.96l-7.14,0.1l-4.43-39.85L1151.3,344.07z"/><path fill="#ffa200" d="M1174.64,390.59l-6.12-3.68c1.03-1.71,2.14-3.04,3.34-3.99c1.19-0.95,2.43-1.71,3.7-2.27
			c1.27-0.56,2.57-1.03,3.89-1.4c1.32-0.37,2.61-0.82,3.88-1.35c1.27-0.53,2.48-1.24,3.64-2.14c1.16-0.9,2.24-2.17,3.22-3.8
			c0.79-1.31,1.38-2.55,1.77-3.72c0.39-1.16,0.55-2.24,0.48-3.23c-0.07-0.99-0.39-1.91-0.95-2.75c-0.57-0.84-1.41-1.6-2.52-2.27
			c-1.06-0.63-2.15-0.94-3.29-0.92c-1.14,0.02-2.24,0.25-3.3,0.68c-1.06,0.43-2.04,1.04-2.92,1.82c-0.89,0.78-1.6,1.62-2.14,2.52
			l-4.62-10.91c1.65-0.99,3.34-1.63,5.06-1.92c1.72-0.29,3.44-0.33,5.15-0.12c1.71,0.22,3.41,0.66,5.08,1.32
			c1.67,0.67,3.29,1.47,4.84,2.4c1.39,0.84,2.71,1.83,3.94,2.98c1.23,1.15,2.33,2.41,3.29,3.79c0.96,1.38,1.76,2.84,2.39,4.38
			c0.63,1.54,1.03,3.13,1.2,4.77c0.17,1.63,0.08,3.29-0.26,4.97c-0.34,1.68-1,3.32-1.97,4.94c-0.91,1.51-1.92,2.69-3.02,3.53
			c-1.1,0.84-2.26,1.46-3.47,1.86c-1.21,0.4-2.47,0.63-3.76,0.71c-1.29,0.08-2.58,0.1-3.86,0.06c-1.28-0.04-2.53-0.07-3.76-0.1
			c-1.23-0.03-2.39,0.05-3.48,0.25c-1.09,0.2-2.1,0.57-3.03,1.11C1176.11,388.65,1175.31,389.48,1174.64,390.59z M1172.69,399.46
			c-0.44,0.74-1.01,1.35-1.7,1.85c-0.69,0.49-1.43,0.84-2.23,1.04c-0.8,0.2-1.62,0.24-2.46,0.13c-0.84-0.11-1.63-0.39-2.37-0.83
			c-0.74-0.44-1.35-1.01-1.83-1.69c-0.48-0.68-0.83-1.42-1.02-2.22c-0.2-0.8-0.24-1.62-0.13-2.46c0.11-0.84,0.39-1.63,0.83-2.37
			c0.44-0.74,1.01-1.35,1.69-1.83c0.68-0.48,1.42-0.82,2.22-1.02c0.8-0.2,1.61-0.25,2.44-0.14c0.83,0.11,1.61,0.38,2.35,0.82
			c0.74,0.44,1.35,1.01,1.85,1.7c0.49,0.69,0.84,1.43,1.04,2.23c0.2,0.8,0.24,1.61,0.14,2.44
			C1173.41,397.94,1173.13,398.72,1172.69,399.46z"/></g><g><path fill="#ffd4b5" d="M223.8,501.2c-7-7.33-28.22-33.9-28.35-45.46c-0.07-5.87,17.47-17.25,31.96-25.65
			c7.8-4.53,15.42-7.93,18.23-9.39c0.88-0.46,5.37,7.64,5.37,7.64l-14.4,12.85l-19.09,16.39c0,0,20.09,24.54,25.49,34.6
			C251.16,507.41,237.01,514.99,223.8,501.2z"/><polygon fill="#ffd291" points="226.92 429.4 231.86 425.69 237.85 433.42 235.84 437.4 240.15 436.66 241.23 438.08 235.84 442.12"/><path fill="#ffa200" d="M231.69,511.95c-1.48-1.55-40.2-41.29-38.4-58.15c0.26-2.42,3.03-5.84,7.66-9.59
			c6.55-5.31,16.22-11.32,24.71-16.23c3.86,4.27,7.86,9.38,11.55,14.23l-7.31,6.79l-9.54,8.85c0,0,2.22,2.05,5.44,5.19
			c0.61,0.6,1.26,1.23,1.93,1.89c7.29,7.19,25.89,15.98,26.57,23.18C255.35,499.3,244.9,525.74,231.69,511.95z"/><path fill="#decbbc" d="M211.42,457.87c0,0,9.09-1.04,18.47-8.88l-9.54,8.85c0,0,2.22,2.05,5.44,5.19
			C223.68,461.37,218.19,459.4,211.42,457.87z"/><path fill="#ffd4b5" d="M264.86,423.54c-0.44-2.85-6.73-0.01-6.59-2.37c0.34-5.75,16.49-8.49,11.8-13.53
			c-4.78-5.14-23.24,3.79-25.92,13.82l5.82,7.61C251.39,427.94,265.3,426.39,264.86,423.54z"/><path fill="#691994" d="M215.37,799.36c-0.01-0.09,0.02-0.16,0.06-0.23c0.31-6.09,16-4.78,18.83-16.29
			c4.72-9.87,12.31,12.24,17.05-1.1c3.51-0.49,2.94,6.58,3.21,6.85c0.97,1.05,1.74,5.51,0.9,6.32c1.87,14.22-8.19,5.01-26.66,8.61
			C212.5,805.89,215.5,801.48,215.37,799.36z"/><path fill="#691994" d="M294.07,782.6l17.53,1.12c0,0,8.83,16.17,3.73,20.56c-5.1,4.4-22.15,2.28-24.06-0.46
			C287.99,799.13,294.07,782.6,294.07,782.6z"/><path fill="#7e28ad" d="M230.69,786.53c8.25,1.57,16.54,1.46,24.88,0l13.38-106.15l-33.37-12.35
			C232.91,709.29,230.69,786.53,230.69,786.53z"/><path fill="#7e28ad" d="M234.65,690.71l32.36,3.76l17.73-114.58c0,0-44.2-9.04-46.15,8.85L234.65,690.71z"/><path fill="#933cc2" d="M288.11,787.47c8.64,1.35,20.13,0.97,29.34-0.72l-3.32-112.2l-36.47-7.3
			C281.06,710.49,288.11,787.47,288.11,787.47z"/><path fill="#933cc2" d="M266.89,589.1l13.39,103.2l34.13-1.72l-0.71-36.22l0-0.07l-2-47.88l-1.11-10.3c0,0-8.94-28.09-20.24-31.95
			C279.96,560.62,266.58,580.06,266.89,589.1z"/><path fill="#9c43cc" d="M310.92,598.77c-1.43-0.65-2.9-1.38-4.41-2.18c-13.12-6.97-16.85-19.21-19.03-27.75
			c1.48,0.03,1.35-0.02,2.87,0.1c5.45,0.41,11.19,1.3,17.11,2.44l2.83,22.37L310.92,598.77z"/><path fill="#7e28ad" d="M310.29,593.76c-4.05-2.01-7.18-4.63-9.59-7.41c-3.95-4.53-5.99-9.46-6.99-12.65l0-0.01
			c-0.66-2.1-0.86-3.45-0.86-3.45l-2.5-1.29c2.42,0.18,4.9,0.46,7.42,0.82c3.16,0.43,6.4,0.99,9.69,1.62l1.18,9.36L310.29,593.76z"/><path fill="#ffa200" d="M307.03,546.42c-0.04,1.25-0.05,2.51-0.06,3.77c-0.03,5.01,0.16,10.02,0.63,15c0.59,6.37,5.2,4.53,6.12,13.5
			c0.18,1.75-3.27,6.77-4.68,6.5c-8.48-1.64-9.87-11.68-13.44-11.79c-1.03-0.03-2.17,0.04-3.4,0.23c-4.31,0.67-4.59,7.17-9.74,11.57
			c-7.66,6.54-24.1,1.64-29.09,0.97c-5.1-0.69-10.55-1.08-15.63-2.27c2.61-11.09,2.65-11.93,3.03-18.56
			c0.29-4.93,0.33-10.07,0.22-15.15c-0.02-1.25-0.06-2.51-0.11-3.74c-0.05-1.51-0.12-3.01-0.2-4.48c-0.01-0.21-0.02-0.42-0.03-0.63
			c-0.01-0.14-0.02-0.27-0.02-0.38c-0.02-0.25-0.03-0.5-0.05-0.75c-0.01-0.17-0.02-0.27-0.02-0.27c-0.05-0.91-0.11-1.82-0.17-2.73
			c-0.13-1.94-0.27-3.88-0.41-5.81c-0.06-0.86-0.13-1.71-0.2-2.57c-0.13-1.64-0.27-3.27-0.4-4.88c-0.15-1.8-0.3-3.58-0.45-5.33
			c-0.15-1.75-0.29-3.48-0.42-5.16c-0.55-6.84-0.95-13.12-0.89-18.44c0,0-0.01-0.01,0-0.01c0.02-2.27,0.12-4.37,0.33-6.25
			c0.49-4.45,1.57-7.71,3.54-9.33c0.38-0.31,0.79-0.58,1.27-0.84c0.09-0.05,0.2-0.11,0.3-0.16c0.13-0.06,0.26-0.13,0.39-0.19
			c0.2-0.1,0.41-0.19,0.62-0.27c1.97-0.81,4.63-1.46,8.14-2.37c2.62-0.68,5.55-1.2,8.43-1.59c2.97-0.41,5.87-0.68,8.25-0.85
			c0.05,0,0.1-0.01,0.15-0.01c3.68-0.26,7.38,0.37,11.09,0.6c1.28,0.09,2.57,0.12,3.85,0.05h0.04c0.15-0.01,0.35-0.01,0.6,0
			c0.02-0.01,0.03-0.01,0.05,0c1.37,0.05,4.06,0.35,7.28,0.91c2.18,0.37,4.62,0.86,7.06,1.47c7.31,1.83,14.67,4.75,15.51,8.85
			c1.07,5.21,0.85,9.49,0.04,13.74c-0.48,2.51-1.15,5-1.9,7.67c-1.35,4.87-2.93,10.32-3.84,17.48c-0.02,0.07-0.02,0.14-0.03,0.21
			c-0.2,1.55-0.38,3.11-0.55,4.67c-0.09,0.85-0.18,1.71-0.26,2.57c-0.2,1.94-0.36,3.88-0.5,5.83c-0.12,1.57-0.22,3.15-0.3,4.73
			C307.12,543.44,307.07,544.93,307.03,546.42z"/><path fill="#ffd4b5" d="M285.08,474.66c-1.75,3.09-3.71,5.24-5.69,6.58c-0.03,0-0.03,0-0.03,0c-6.07,4.11-12.16,0.62-11.63-6.58
			l1.75-11.2l0.46-2.87l11.79-2.26L285.08,474.66z"/><path fill="#f0c9a3" d="M268.49,469.84c0,0-0.12,3.57,4.93,3.45c7.35-0.18,8.8-10.22,8.8-10.22L268.49,469.84z"/><path fill="#fff" d="M267.96,473.26c-2.75-0.26-6.17,0.06-9.45,1l8.35,11.64l7.56-2.49l7.47,3.22l12.43-11.49
			c-2.75-0.9-6.97-1.45-9.69-1.32c0,0-3.26,8.32-9.81,8.32S267.96,473.26,267.96,473.26z"/><path fill="#ffd291" d="M307.59,565.19c-3.84,0.32-7.66,0.59-11.47,0.8c-18.65,1.04-37.11,0.82-55.36-0.65
			c0.29-4.93,0.33-10.07,0.22-15.15c-0.02-1.25-0.06-2.51-0.11-3.74c20.35,0.8,39.64,0.91,57.89,0.31c2.78-0.09,5.53-0.2,8.26-0.33
			c-0.04,1.25-0.05,2.51-0.06,3.77C306.94,555.2,307.12,560.21,307.59,565.19z"/><path fill="#ffd291" d="M307.5,537.22c-0.12,1.57-0.22,3.15-0.3,4.73c-2.91,0.09-5.81,0.18-8.71,0.26
			c-19.49,0.49-38.77,0.42-57.82-0.25c-0.01-0.21-0.02-0.42-0.03-0.63c-0.01-0.14-0.02-0.27-0.02-0.38
			c-0.02-0.25-0.03-0.5-0.05-0.75c-0.01-0.17-0.02-0.27-0.02-0.27c-0.05-0.91-0.11-1.82-0.17-2.73c19.24,1.18,38.5,1.35,57.74,0.51
			C301.25,537.58,304.38,537.41,307.5,537.22z"/><path fill="#decbbc" d="M307.59,565.19c0.59,6.37,5.2,4.53,6.12,13.5c0.18,1.75-3.27,6.77-4.68,6.5
			c-8.48-1.64-9.87-11.68-13.44-11.79c-1.03-0.03-2.17,0.04-3.4,0.23c1.67-2.73,2.94-5.23,3.92-7.64c2.48-6.17,2.97-11.8,2.65-19.24
			c-0.07-1.44-0.16-2.94-0.27-4.53c-0.11-1.43-0.23-2.92-0.37-4.5c-0.01-0.16-0.02-0.34-0.04-0.51
			c-1.68-19.73,1.11-32.06,1.11-32.06l14.36-8.27c0.05,0.1,0.4,0.78,1.01,1.93c-0.48,2.51-1.15,5-1.9,7.67
			c-1.35,4.87-2.93,10.32-3.84,17.48c-0.02,0.07-0.02,0.14-0.03,0.21c-0.2,1.55-0.38,3.11-0.55,4.67c-0.09,0.85-0.18,1.71-0.26,2.57
			c-0.2,1.94-0.36,3.88-0.5,5.83c-0.12,1.57-0.22,3.15-0.3,4.73c-0.08,1.49-0.13,2.98-0.17,4.46c-0.04,1.25-0.05,2.51-0.06,3.77
			C306.94,555.2,307.12,560.21,307.59,565.19z"/><path fill="#ffd4b5" d="M323.87,569.57c-4.04,3.21-9.94,7.9-15.1,11.61c-3.23,2.33-6.05,4.19-8.08,5.16
			c-4-4.55-6.25-9.36-6.99-12.66l0.48-0.25l4.24-3.72l15.5-13.58L323.87,569.57z"/><polygon fill="#ffd291" points="323.62 569.7 318.45 574.28 311.08 566.21 312.95 561.6 308.22 562.82 306.89 561.33 312.52 556.34"/><path fill="#ffa200" d="M311.38,532.79c4.71,7.97,8.92,14.57,8.92,14.57l-9.59,8.78l12.66,15.01c8.04-5.83,14.76-12.21,16.65-14.79
				c9-12.32-10.39-56.81-24.77-71.99c-10.58-11.17-24.97,2.89-15.27,26.94C302.23,516.85,307.02,525.4,311.38,532.79z"/><path fill="#decbbc" d="M310.71,556.14c5.76-1.2,18.2-9.02,18.2-9.02c-7.18-1.12-15.07-11.99-17.52-14.33
				c4.71,7.97,8.92,14.57,8.92,14.57L310.71,556.14z"/><path fill="#7d3513" d="M296.7,422.52c-3.61-5.57-11.42-10.71-23.86-8.93c-12.43,1.77-21.08,13.29-19.3,25.72
			c1.77,12.43,13.84,24.92,26.27,23.15C292.25,460.69,307.67,439.46,296.7,422.52z"/><path fill="#ffd4b5" d="M297.07,442.18c-1.24-1.54-3.28-1.05-4.96-0.22c-1.56,0.77-2.41,2.13-2.1,3.47
				c0.75,3.21-1.53,6.71-2.07,10.09C299.61,454.73,299.45,445.15,297.07,442.18z"/><path fill="#edd6c7" d="M295.31,444.79c-0.84-0.28-2.07-0.12-2.51,0.55c-0.19,0.29,0.34,0.55,0.59,0.26
				c0.19-0.22,0.55-0.33,0.9-0.26c0.3,0.06,0.57,0.31,0.7,0.51c0.42,0.61,0.01,1.38-0.32,1.97c-0.33,0.6-0.77,1.17-1.28,1.69
				c-0.54,0.56-1.29,0.98-1.84,1.53c-0.52,0.52,0.43,1.23,1.16,0.88c0.56-0.27,0.97-0.69,1.37-1.07c0.37-0.36,0.71-0.74,1-1.13
				c0.61-0.8,1.13-1.7,1.34-2.6C296.62,446.3,296.44,445.17,295.31,444.79z"/><path fill="#ffd4b5" d="M292.63,436.44c0.8,18.18-8.54,32.77-22.74,33.39c-13.51,0.6-23.37-14.08-23.04-33.07
			c0.32-18.2,6.97-21.8,21.17-22.43C282.22,413.71,291.82,418.26,292.63,436.44z"/><path fill="#33160e" d="M270.17,443.37c0,0,0.03,0.04,0.09,0.09c0.42,0.4,2.25,1.92,5.37,1.93c2.47,0.01,4.57-2.09,4.53-3.2
							c-0.21-1.61-1.81-3.84-5.41-2.97c-2.74,0.65-4.36,3.73-4.56,4.11C270.18,443.36,270.17,443.37,270.17,443.37z"/><path fill="#f7f7f7" d="M270.17,443.37c0,0,0.03,0.04,0.09,0.09c0.41,0.44,2.25,2.17,5.39,2.18c2.51,0.01,4.61-2.13,4.54-3.25
							c-0.01-0.07-0.01-0.13-0.03-0.2c-0.21-1.61-1.81-3.84-5.41-2.97c-2.74,0.65-4.36,3.73-4.56,4.11
							C270.18,443.36,270.17,443.37,270.17,443.37z"/><circle cx="274.24" cy="442.4" r="2.95" fill="#ad6b39"/><circle cx="273.89" cy="442.74" r="2.31" fill="#33160e"/><circle cx="275.21" cy="440.56" r=".49" fill="#f7f7f7"/><circle cx="276.4" cy="441.94" r=".24" fill="#f7f7f7"/><path fill="#33160e" d="M270.18,443.33c0.2-0.38,1.82-3.46,4.56-4.11c3.6-0.86,5.21,1.36,5.41,2.97
							c0.01-0.01,0.01-0.03,0.01-0.04c-0.11-1.63-1.66-4.51-5.44-3.63C271.71,439.23,270.35,442.88,270.18,443.33z"/><path fill="#7d3513" d="M271.5,437.6c0.46-0.48,1.05-0.93,1.65-1.26c0.6-0.33,1.25-0.56,1.91-0.66c0.66-0.11,1.35-0.05,2,0.16
						c0.67,0.17,1.29,0.57,1.89,1l0.02,0.01c0.12,0.08,0.27,0.04,0.34-0.1c0.06-0.14,0.03-0.31-0.08-0.4
						c-0.62-0.5-1.27-0.99-2.01-1.25c-0.72-0.29-1.5-0.41-2.25-0.35c-0.76,0.05-1.5,0.25-2.2,0.57c-0.7,0.33-1.34,0.73-1.98,1.31
						c-0.23,0.21-0.26,0.61-0.08,0.89c0.18,0.28,0.52,0.34,0.75,0.13c0.01-0.01,0.02-0.02,0.03-0.03L271.5,437.6z"/><path fill="#33160e" d="M259.23,444.29c0,0-1.51,2.3-5.04,2.91c-2.47,0.42-4.9-1.34-5.02-2.45c-0.16-1.62,0.9-4.72,4.76-4.48
							C257.22,440.47,259.23,444.29,259.23,444.29z"/><path fill="#f7f7f7" d="M259.23,444.29c0,0-1.49,2.55-5.02,3.16c-2.47,0.42-4.9-1.34-5.02-2.45c-0.16-1.62,0.98-4.29,4.84-4.04
							C257.03,441.16,259.23,444.29,259.23,444.29z"/><circle cx="252.68" cy="444.28" r="2.95" fill="#ad6b39"/><circle cx="252.28" cy="444.57" r="2.18" fill="#33160e"/><circle cx="253.83" cy="442.43" r=".49" fill="#f7f7f7"/><circle cx="254.62" cy="443.27" r=".24" fill="#f7f7f7"/><path fill="#7d3513" d="M256.96,438.81c-0.53-0.4-1.19-0.74-1.83-0.97c-0.65-0.23-1.33-0.35-1.99-0.33
						c-0.67,0-1.34,0.17-1.95,0.49c-0.63,0.28-1.17,0.78-1.7,1.3l-0.02,0.02c-0.1,0.1-0.26,0.08-0.35-0.04
						c-0.09-0.12-0.08-0.3,0.02-0.41c0.53-0.6,1.09-1.19,1.78-1.56c0.66-0.41,1.41-0.66,2.17-0.72c0.76-0.08,1.52,0,2.27,0.2
						c0.75,0.21,1.45,0.5,2.17,0.97c0.26,0.17,0.36,0.55,0.23,0.86c-0.13,0.31-0.45,0.42-0.71,0.25c-0.01-0.01-0.02-0.01-0.03-0.02
						L256.96,438.81z"/><path fill="#edd6c7" d="M263.48,448.38c0.34-0.7,0.69-1.4,0.9-2.1c0.2-0.71,0.31-1.42,0.32-2.12c0.01-0.79-0.03-1.58-0.25-2.35
				c-0.03-0.09,0.28-0.13,0.33-0.05c0.36,0.63,0.69,1.28,0.81,1.95c0.12,0.65,0.15,1.32,0.04,1.99c-0.11,0.7-0.32,1.4-0.64,2.09
				c-0.29,0.63-0.71,1.28-0.58,1.91c0.05,0.24,0.23,0.5,0.51,0.69c0.3,0.21,0.67,0.3,1.16,0.4c0.6,0.12,0.26,0.6-0.43,0.57
				c-1.15-0.05-1.96-0.57-2.29-1.06C262.96,449.71,263.17,449.02,263.48,448.38z"/><path fill="#7d3513" d="M259.54,431.58c4.19-0.01,7.92-0.98,10.95-2.87c-0.87,1.75-2.24,3.22-3.9,4.16
			c5.57-0.69,11.93-1.8,16.15-5.55c2.25,2.48,4.69,6.25,4.48,9.59c-0.35,5.61,1.12,8.52,4.19,9.61c0.26-7.84,7.44-7.35,6.22-18.35
			c-1.09-9.88-8.89-10.29-8.89-10.29s-3.05-8.21-12.45-9.3c-6.46-0.74-13.96,1.57-19.52,4.94c-7.62,4.61-12.85-2.9-13.42-0.07
			C241.36,423.3,245.88,431.61,259.54,431.58z"/><g><path fill="#dbb191" d="M262.54,459.79c0.49-1.63,3.16-3.64,6.14-3.8c2.16-0.12,4.22,0.72,5.92,1.95
					C270.76,456.13,265.87,457.45,262.54,459.79z"/><path fill="#dbb191" d="M274.69,456.83c0.18,0.12,0.31,0.32,0.37,0.54c0.06,0.22,0.05,0.46,0,0.67c-0.05,0.22-0.14,0.42-0.27,0.6
					c-0.12,0.18-0.27,0.34-0.45,0.46c0.06-0.21,0.14-0.4,0.2-0.59c0.07-0.19,0.13-0.37,0.17-0.55c0.04-0.18,0.07-0.36,0.07-0.55
					C274.79,457.23,274.75,457.04,274.69,456.83z"/><path fill="#f5dcc9" d="M265.22,459.44l6.47-1.18C271.68,458.25,267.81,461.37,265.22,459.44z"/></g></g><g><circle cx="300.45" cy="193.3" r="95.25" fill="#e04531"/><path fill="#fff" d="M315.5,202.85h-30.2l-8.36-77.94h46.93L315.5,202.85z M302.43,215.84c3.79,0,7.01,0.53,9.66,1.58
				c2.65,1.06,4.84,2.5,6.58,4.34c3.46,3.57,5.2,8.2,5.2,13.88c0,5.68-2.25,10.77-6.74,15.26c-4.49,4.49-10.53,6.75-18.1,6.78
				c-7.58,0.03-13.13-1.81-16.64-5.52c-3.52-3.71-5.28-8.35-5.28-13.92c0-5.57,2.41-10.7,7.23-15.39
				C289.15,218.18,295.18,215.84,302.43,215.84z"/></g><g><path fill="#99ad39" d="M886.19,450.67c0,0-25.82,10.15-43.8,18.46c-21,9.71-2.81,37.39,8.27,30.58
			c15.45-9.49,33.13-24.89,40.55-34.3C899.14,455.36,886.19,450.67,886.19,450.67z"/><path fill="#ffd3ad" d="M820.43,547.46c1.53,0.55,1.15,0.24,1,0.55c-2.47,5.4-13.01,2.35-14.42,5.2c-1.68,3.42,6.06,8.37,12.09,9.2
			c3.45,0.48,8.53-7.22,13.82-10.28l-1.07-7.61c-4.87-2.45-13.02-1.94-12.93-1.61C819.23,544.03,820.41,547.45,820.43,547.46z"/><path fill="#ffd3ad" d="M727.11,457.82c1.04-1.47,5,4.93,5.23,5.61c0.23,0.68,0.73,6.91,0.73,6.91l-4.82-3.51
				c0,0,0.38-1.15,0.21-2.57C728.15,461.74,725,460.79,727.11,457.82z"/><path fill="#443075" d="M757.1,393.79c-13.1-6.73-29.2-1.59-35.9,11.45c-6.7,13.04-1.49,29.12,11.6,35.85
					c13.1,6.73,29.21,1.6,35.91-11.44C775.41,416.61,770.2,400.52,757.1,393.79z M734.67,437.45c-11.1-5.7-15.5-19.29-9.82-30.33
					c5.68-11.05,19.28-15.39,30.38-9.69c11.1,5.7,15.5,19.29,9.82,30.34C759.38,438.82,745.77,443.16,734.67,437.45z"/><path fill="#defdff" d="M765.05,427.77c-5.68,11.05-19.28,15.38-30.38,9.68c-11.1-5.7-15.5-19.29-9.82-30.33
					c5.68-11.05,19.28-15.39,30.38-9.69C766.33,403.14,770.73,416.72,765.05,427.77z"/><path fill="#d8ecf5" d="M765.38,407.95c0.47,4.23-0.25,8.64-2.34,12.71c-5.68,11.05-19.28,15.38-30.38,9.68
					c-4.64-2.38-8.1-6.14-10.15-10.51c0.81,7.27,5.14,14.02,12.16,17.63c11.1,5.7,24.71,1.37,30.38-9.68
					C768.36,421.34,768.24,414.04,765.38,407.95z"/><rect width="4.88" height="7.44" x="731.51" y="440.76" fill="#443075" transform="rotate(27.193 733.922 444.455)"/><path fill="#fff" d="M744.28,406.4c-3.21,0.03-8.23-0.93-8.6-3.11c-0.37-2.17,3.91-5.2,8.05-5.65
					c4.89-0.53,10.3,2.46,10.19,4.77C753.8,404.66,748.39,406.36,744.28,406.4z"/><path fill="#443075" d="M728.54,461.95c-1.54,3.01-3.1,5.81-4.65,8.38c-0.23,0.38-0.46,0.76-0.69,1.14
					c-0.2,0.33-0.4,0.65-0.6,0.97c-0.99,1.58-1.97,3.07-2.92,4.47l-3.76-1.93c0.58-1.59,1.22-3.25,1.93-4.98
					c0.14-0.35,0.29-0.7,0.44-1.05c0.17-0.4,0.34-0.81,0.52-1.22c1.19-2.76,2.55-5.66,4.1-8.66c1.42-2.75,2.87-5.32,4.3-7.69
					c0.23-0.38,0.46-0.76,0.69-1.14c0.2-0.33,0.4-0.65,0.6-0.97c0.99-1.58,1.97-3.07,2.92-4.47l3.76,1.93
					c-0.58,1.59-1.22,3.25-1.93,4.98c-0.14,0.35-0.29,0.7-0.44,1.05c-0.17,0.4-0.34,0.81-0.52,1.22
					C731.19,456.53,729.94,459.2,728.54,461.95z"/><path fill="#ffd3ad" d="M728.65,464.09c0.89,0.42,3.3,2.89,3.39,3.02c1.87,3.04,0.54,6.3,1.02,9.73l-8.96,4.33
				c-3.29-1.6-7.5-3.98-8.65-5.55c-1.63-2.22-4.18-5.6-1.98-8.03c0,0,11.48-1.3,9.13-3.68l-0.99-4.19
				C723.78,458.35,727.09,463.37,728.65,464.09z"/><path fill="#ffd3ad" d="M723.12,460.06c0.44,0.49,3.51,3.35,3.25,5.51c-0.25,2.16-4.54,6.4-6.8,7.15c-3.49,1.16-6.63,0.55-7-2.73
				c-0.13-1.12,1-3.75,3.06-5.89S721.56,458.32,723.12,460.06z"/><path fill="#99ad39" d="M810.56,471.46c-1.48-0.99-7.84,35.09-9.79,36.86c-1.31,1.02-34.31,24.82-41.44,25.31
			c-15.52,0.38-9.68-19.1-1.84-21.01c0,0,13.97-23.91,28.03-31.95C797.74,473.69,808.23,471.9,810.56,471.46z"/><path fill="#99ad39" d="M749.39,529.45c-0.4-0.4-0.82-0.88-1.27-1.42c-6.06-7.41-22.86-35.18-26.68-44.98
			c1.22-1.7,10.4-6.85,14.03-6.7c4.1,7.48,32.07,43.29,32.07,43.29S760.12,541.03,749.39,529.45z"/><path fill="#e04531" d="M779.16,805.06c6.3-0.38,8.2-3.77,11-7.6c2.8-3.83,8.12-4.98,8.12-4.98l1.06,11.66l4.01-0.42
									c-0.16-1,0.94-8.46,1.92-13.85c0.14-0.78,0.28-1.51,0.42-2.16l0-0.03c0.25-1.15,0.45-2.08,0.61-2.71
									c0.92-3.44-2.3-12.6-2.3-12.6c-0.03,0.03-0.13-0.02-0.16,0.01c-4.62,1.9-10.04,1.61-14.75-0.25c0,0,0,0.02-0.03,0.1
									c0,0,0,0.02,0,0.05c-0.06,0.33-0.25,1.18-0.58,2.39c-0.8,2.81-2.46,7.51-5.54,11.79c-0.82,1.16-2,2.34-3.37,3.53
									c-5.75,4.92-14.91,9.9-15.44,12.83C763.47,806.46,772.86,805.44,779.16,805.06z"/><path fill="#ffd3ad" d="M775.2,793.39c11.11-4.58,28.75-21.03,28.75-21.03c-0.92,0.19,1.09-25.17,1.09-25.17
				s-14.56,1.44-18.03,0.08C786.3,759.64,790.89,778.59,775.2,793.39z"/><path fill="#e04531" d="M863.42,800.52c5.7-2.49,6.07-6.28,7.1-10.77c1.03-4.49,5.5-7.37,5.5-7.37l5.78,10.43l3.56-1.75
									c-0.56-0.87-2.61-8.15-3.91-13.48c-0.19-0.77-0.36-1.49-0.5-2.14l-0.01-0.02c-0.24-1.15-0.44-2.08-0.55-2.72
									c-0.56-3.5-7.32-10.88-7.32-10.88c-0.02,0.03-0.13,0.03-0.14,0.06c-3.51,3.33-8.67,4.9-13.81,4.78c0,0,0.01,0.02,0.02,0.1
									c0,0,0.01,0.02,0.02,0.05c0.08,0.32,0.25,1.18,0.44,2.41c0.41,2.88,0.8,7.79-0.3,12.79c-0.29,1.35-0.9,2.85-1.68,4.41
									c-3.32,6.51-9.79,14.23-9.07,17.13C849.42,807.15,857.72,803.02,863.42,800.52z"/><path fill="#ffd3ad" d="M854.94,791.07c5.11-3.79,18.08-29.24,18.08-29.24c-0.77,0.49-6.19-24.06-6.19-24.06
				s-15.94,7.86-19.73,7.78C851.52,757.24,863.43,772.04,854.94,791.07z"/><path fill="#e04531" d="M831.4,539.88l-13.78,234.19c-6.87,0.63-14.49,0.84-22.1,0.6c-9.03-0.29-18.06-1.21-25.77-2.68
			c5.15-31.87,12.67-123,22.9-196.86c0.26-1.93,0.52-3.86,0.78-5.77c1.55-10.89,3.17-21.34,4.83-31.12L831.4,539.88z"/><path fill="#efd8c6" d="M828.38,591.28l-10.76,182.79c-6.87,0.63-14.49,0.84-22.1,0.6c20-38.03,26.47-158.72,26.47-158.72
			L828.38,591.28z"/><path fill="#e04531" d="M888.58,765.64c-3.54,3.35-11.78,5.43-20.9,6.56c-10.21,1.26-21.53,1.33-28.6,0.7
			c-10.47-82.39-16.28-163.47-19.23-216.93c-0.11-1.95-4.62-4.3-4.7-6.18l31.01-5.26C860,584.73,888.58,765.64,888.58,765.64z"/><path fill="#efd8c6" d="M867.68,771.89c4.65-34.3-8.91-189.43-19.2-188.16c-10.98,1.38-24.6-1.74-24.6-1.74l-8.44-26.76
			c-0.11-1.95-0.21-3.88-0.3-5.76l31.01-5.26c13.84,40.21,42.43,221.12,42.43,221.12C885.04,768.68,876.8,770.76,867.68,771.89z"/><path fill="#99ad39" d="M846.19,527.33c0.31-6.37,2.91-11.55,4.42-17.26c0.83-3.26,1.8-6.35,2.79-9.2
				c4.02-11.47,0.66-23.19,0.66-23.19c-8.71-5.48-10.21-5.78-20.69-8.41l-18.17,0c0,0-17.02,5.23-21.96,11.14
				c-10.43,12.54-4.58,29-2.1,37.89c1.64,5.86,2.72,10.45,3.02,15.03c0.58,8.33,0.49,19.21-1.59,32.76
				c-2.41,15.67,9.06,20.24,30.43,19.14c0.03,0,0.06,0,0.08-0.03c16.22-0.82,28.95-3.35,34.25-10.49
				C857.67,559.16,845.39,544.48,846.19,527.33z"/><path fill="#ffd5b3" d="M842.94,431.68c0.19,17.9-8.7,31.81-22.77,31.98c-13.39,0.16-23.51-14.44-22.55-33.1
			c0.92-17.88,8.91-27.07,22.99-27.24C834.68,403.16,842.75,413.78,842.94,431.68z"/><path fill="#662d20" d="M797.92,428.94c11.75-15.07,19.37-16.17,32.47-12.96c0.28,19.67,8.84,16.7,10.01,29.41
			c0,0,7.17-14.71,2.04-29.31c-4.44-12.64-26.8-21.25-40.72-3.39C796.76,419.06,797.64,426.86,797.92,428.94z"/><path fill="#662d20" d="M851.74,460.09c-16.46-18.1,7.15-32.64-16.41-53.01l-30.4,7.57c-1.88,9.81,5.76,19.71,3.47,29.43
			c-2.91,8.12-8.07,20.03-5.63,29.23c1.11,4.21,4.03,3.38,5.46,3.04c6.57-1.56,13.5-5.61,19.99-3.75
			C838.17,477.15,861.45,475.77,851.74,460.09z"/><path fill="#ffd5b3" d="M812.4,431.23c-1.17-1.55-3.22-1.13-4.91-0.37c-1.57,0.71-2.46,2.02-2.2,3.34
				c0.64,3.18-1.74,6.55-2.39,9.85C814.49,443.64,814.65,434.22,812.4,431.23z"/><path fill="#edd6c7" d="M810.57,433.74c-0.82-0.31-2.04-0.19-2.5,0.46c-0.2,0.28,0.32,0.55,0.58,0.27c0.2-0.21,0.56-0.31,0.9-0.23
				c0.3,0.07,0.55,0.33,0.68,0.53c0.4,0.61-0.04,1.35-0.38,1.93c-0.34,0.57-0.8,1.12-1.32,1.62c-0.56,0.53-1.31,0.92-1.87,1.44
				c-0.53,0.5,0.39,1.22,1.11,0.9c0.56-0.25,0.99-0.64,1.4-1.01c0.38-0.34,0.72-0.7,1.03-1.08c0.63-0.77,1.17-1.63,1.41-2.52
				C811.81,435.27,811.67,434.15,810.57,433.74z"/><path fill="#ffd4b5" d="M836.97,422.28c0.44-2.85,6.73-0.01,6.59-2.37c-0.34-5.75-16.49-8.49-11.8-13.53
			c4.78-5.14,23.24,3.79,25.92,13.82l-5.82,7.61C850.44,426.67,836.53,425.13,836.97,422.28z"/><path fill="#99ad39" d="M858.06,419.94c9.8,5.63,32.3,24.32,34.65,36.56c1.07,5.57-0.51,6.43-11.99,10.05
			c-2.78-2.36-25.34-34.52-31.61-38.24C849.15,424.58,856.26,421.11,858.06,419.94z"/></g><g><path fill="#ffa200" d="M721.72,143.13v89.06c0,5.9,4.78,10.69,10.69,10.69h116.24c5.9,0,10.69-4.78,10.69-10.69v-89.06H721.72z"/><path fill="#e04531" d="M844.78,121.28H736.29c-8.04,0-14.56,6.52-14.56,14.56v8.01h137.61v-8.01
			C859.34,127.8,852.82,121.28,844.78,121.28z"/><path fill="#3c2870" d="M751.54,114.37c-3.82,0-6.92,3.1-6.92,6.92c0,3.82,3.1,6.92,6.92,6.92v-1.26c-3.12,0-5.66-2.54-5.66-5.66
				s2.54-5.66,5.66-5.66s5.66,2.54,5.66,5.66h1.26C758.46,117.46,755.36,114.37,751.54,114.37z"/><path fill="#3c2870" d="M767.26,114.37c-3.82,0-6.92,3.1-6.92,6.92c0,3.82,3.1,6.92,6.92,6.92v-1.26c-3.12,0-5.66-2.54-5.66-5.66
				s2.54-5.66,5.66-5.66c3.12,0,5.66,2.54,5.66,5.66h1.26C774.18,117.46,771.08,114.37,767.26,114.37z"/><path fill="#3c2870" d="M782.99,114.37c-3.82,0-6.92,3.1-6.92,6.92c0,3.82,3.1,6.92,6.92,6.92v-1.26c-3.12,0-5.66-2.54-5.66-5.66
				s2.54-5.66,5.66-5.66c3.12,0,5.66,2.54,5.66,5.66h1.26C789.9,117.46,786.81,114.37,782.99,114.37z"/><path fill="#3c2870" d="M798.08,114.37c-3.82,0-6.92,3.1-6.92,6.92c0,3.82,3.1,6.92,6.92,6.92v-1.26c-3.12,0-5.66-2.54-5.66-5.66
				s2.54-5.66,5.66-5.66c3.12,0,5.66,2.54,5.66,5.66h1.26C804.99,117.46,801.9,114.37,798.08,114.37z"/><path fill="#3c2870" d="M813.8,114.37c-3.82,0-6.92,3.1-6.92,6.92c0,3.82,3.1,6.92,6.92,6.92v-1.26c-3.12,0-5.66-2.54-5.66-5.66
				s2.54-5.66,5.66-5.66c3.12,0,5.66,2.54,5.66,5.66h1.26C820.72,117.46,817.62,114.37,813.8,114.37z"/><path fill="#3c2870" d="M829.52,114.37c-3.82,0-6.92,3.1-6.92,6.92c0,3.82,3.1,6.92,6.92,6.92v-1.26c-3.12,0-5.66-2.54-5.66-5.66
				s2.54-5.66,5.66-5.66s5.66,2.54,5.66,5.66h1.26C836.44,117.46,833.34,114.37,829.52,114.37z"/><rect width="13.8" height="13.8" x="739.38" y="164.24" fill="#ffd282"/><rect width="13.8" height="13.8" x="761.51" y="164.24" fill="#fff"/><rect width="13.8" height="13.8" x="783.63" y="164.24" fill="#fff"/><rect width="13.8" height="13.8" x="805.76" y="164.24" fill="#fff"/><rect width="13.8" height="13.8" x="827.89" y="164.24" fill="#fff"/><rect width="13.8" height="13.8" x="739.38" y="182.47" fill="#fff"/><rect width="13.8" height="13.8" x="761.51" y="182.47" fill="#fff"/><rect width="13.8" height="13.8" x="783.63" y="182.47" fill="#fff"/><rect width="13.8" height="13.8" x="805.76" y="182.47" fill="#fff"/><rect width="13.8" height="13.8" x="827.89" y="182.47" fill="#ffd282"/><rect width="13.8" height="13.8" x="739.38" y="200.69" fill="#fff"/><rect width="13.8" height="13.8" x="761.51" y="200.69" fill="#fff"/><rect width="13.8" height="13.8" x="783.63" y="200.69" fill="#fff"/><rect width="13.8" height="13.8" x="805.76" y="200.69" fill="#fff"/><rect width="13.8" height="13.8" x="827.89" y="200.69" fill="#ffd282"/><path fill="#3c2870" d="M749.62,127.44c0-1.06,0.86-1.92,1.92-1.92c1.06,0,1.92,0.86,1.92,1.92c0,1.06-0.86,1.92-1.92,1.92
			C750.48,129.36,749.62,128.5,749.62,127.44z"/><path fill="#3c2870" d="M765.34,127.44c0-1.06,0.86-1.92,1.92-1.92s1.92,0.86,1.92,1.92c0,1.06-0.86,1.92-1.92,1.92
			S765.34,128.5,765.34,127.44z"/><path fill="#3c2870" d="M781.06,127.44c0-1.06,0.86-1.92,1.92-1.92c1.06,0,1.92,0.86,1.92,1.92c0,1.06-0.86,1.92-1.92,1.92
			C781.92,129.36,781.06,128.5,781.06,127.44z"/><circle cx="798.71" cy="127.44" r="1.92" fill="#3c2870"/><path fill="#3c2870" d="M812.5,127.44c0-1.06,0.86-1.92,1.92-1.92c1.06,0,1.92,0.86,1.92,1.92c0,1.06-0.86,1.92-1.92,1.92
			C813.36,129.36,812.5,128.5,812.5,127.44z"/><path fill="#3c2870" d="M828.22,127.44c0-1.06,0.86-1.92,1.92-1.92s1.92,0.86,1.92,1.92c0,1.06-0.86,1.92-1.92,1.92
			S828.22,128.5,828.22,127.44z"/></g><g><path fill="#3e6e04" d="M482.6,720.29c4.19,9.39,6.57,19.53,7.61,29.74c0.9,8.87,0.74,17.79,0.72,26.69
						c-0.01,5.1,0.07,10.21,0.3,15.31c0.04,0.83-1.21,0.81-1.27,0c-0.73-8.83-0.35-17.71-0.4-26.56c-0.05-9.2-0.62-18.4-2.54-27.42
						c-1.27-5.95-3.06-11.74-5.06-17.48C481.83,720.18,482.44,719.92,482.6,720.29L482.6,720.29z"/><path fill="#3e6e04" d="M495.22,694.38c0.46,13.02,0.77,26.04,0.92,39.07c0.15,12.6,0.12,25.19-0.31,37.79
						c-0.24,7.05-0.56,14.1-1.22,21.13c-0.08,0.9-1.48,0.93-1.43,0c0.71-12.5,1.32-24.99,1.49-37.52
						c0.17-12.74,0.1-25.48-0.05-38.22c-0.09-7.42-0.16-14.83-0.15-22.25C494.47,693.9,495.2,693.9,495.22,694.38L495.22,694.38z"/><path fill="#3e6e04" d="M466.06,656.75c5.84,6.37,10.39,13.75,13.87,21.63c3.73,8.45,6.34,17.34,8.24,26.37
						c1.99,9.44,3.21,19.04,3.95,28.65c0.75,9.63,1.02,19.29,0.99,28.94c-0.02,9-0.34,17.99-0.75,26.98
						c-0.05,1.01-0.09,2.03-0.14,3.04c-0.05,1.12-1.79,1.12-1.74,0c0.42-8.75,0.72-17.51,0.8-26.27c0.09-9.53-0.08-19.07-0.69-28.59
						c-0.62-9.57-1.67-19.12-3.43-28.54c-1.69-9.07-4.04-18.04-7.39-26.64c-3.11-7.96-7.16-15.7-12.39-22.48
						c-0.64-0.83-1.3-1.64-1.98-2.44C465.02,656.95,465.65,656.3,466.06,656.75L466.06,656.75z"/><path fill="#3e6e04" d="M514.52,694.88c-2.75,5.86-4.95,12.07-6.76,18.28c-1.78,6.12-3.22,12.33-4.3,18.62
						c-2.19,12.77-3.05,25.72-3.76,38.64c-0.39,7.23-0.72,14.46-1.16,21.68c-0.07,1.19-1.94,1.2-1.87,0
						c0.77-13.03,1.15-26.09,2.29-39.1c1.13-12.91,2.94-25.82,6.53-38.29c2.04-7.05,4.84-13.78,8.28-20.26
						C514.04,693.96,514.75,694.39,514.52,694.88L514.52,694.88z"/><path fill="#3e6e04" d="M513.81,657.23c-2.57,17.9-6.19,35.63-9.22,53.45c-2.94,17.29-5.54,34.65-7.14,52.12
						c-0.44,4.85-0.81,9.72-1.09,14.58c-0.29,4.99-0.29,10-0.64,14.98c-0.07,1.06-1.63,1.08-1.67,0c-0.15-4.4,0.17-8.86,0.4-13.25
						c0.23-4.39,0.54-8.78,0.91-13.17c0.74-8.74,1.73-17.45,2.9-26.14c2.37-17.6,5.48-35.09,8.68-52.56
						c1.85-10.11,3.77-20.21,5.91-30.27C512.99,656.33,513.89,656.62,513.81,657.23L513.81,657.23z"/><path fill="#3e6e04" d="M505.85,620.57c-0.35,5-0.59,10.02-0.94,15.02c-0.37,5.38-0.79,10.76-1.19,16.13
						c-0.87,11.49-1.72,22.98-2.54,34.48c-0.84,11.85-1.64,23.7-2.36,35.55c-0.69,11.45-1.34,22.91-1.86,34.38
						c-0.47,10.31-0.84,20.63-1.02,30.96c-0.02,1.18-0.05,2.36-0.08,3.54c-0.03,1.12-1.73,1.12-1.74,0
						c-0.05-10.12,0.41-20.26,0.84-30.37c0.48-11.36,1.08-22.72,1.78-34.07c0.73-11.85,1.54-23.69,2.4-35.53
						c0.84-11.58,1.75-23.16,2.7-34.73c0.87-10.58,1.79-21.14,2.9-31.7c0.13-1.22,0.25-2.44,0.37-3.66
						C505.15,620.11,505.88,620.09,505.85,620.57L505.85,620.57z"/><path fill="#3e6e04" d="M477.82,625.07c3.41,10.57,5.92,21.49,8.03,32.39c2.09,10.82,3.76,21.73,5.03,32.68
						c1.27,11,2.16,22.03,2.73,33.09c0.56,10.94,0.8,21.89,0.78,32.84c-0.02,10.88-0.3,21.77-0.79,32.64c-0.06,1.33-0.13,2.67-0.2,4
						c-0.06,1.16-1.86,1.17-1.81,0c0.49-10.8,0.87-21.6,0.96-32.42c0.09-10.94-0.08-21.88-0.56-32.81
						c-0.48-10.95-1.27-21.88-2.42-32.78c-1.17-11.01-2.69-21.99-4.65-32.89c-1.96-10.91-4.33-21.73-7.07-32.47
						c-0.34-1.34-0.65-2.68-0.98-4.03C476.73,624.72,477.63,624.47,477.82,625.07L477.82,625.07z"/><path fill="#3e6e04" d="M512.42,695.69c21.51,3.13,17.68-26.56,44.85-25.3c3.62,0.17,7.79,0.89,12.65,2.31
						c-0.85-4.15-9.35-10.55-14.63-11.45c-1.71,0.71-3.21,2.05-4.22,4.28c-0.45-0.27-0.01-2.93,2.46-5.09
						c-5.25-0.39-8.84-3.77-13.36-3.51h-0.01c-1.34,1.62-1.99,3.72-2.06,6.23c-0.55,0.15-1.82-2.53-0.01-6.36
						c-5.16,1.76-15.17,1.25-20.44,7.84c-0.57,2.09,0.14,5.62,1.37,7.52c-1.18,0.36-2.98-2.86-2.86-5.78
						C504.65,680.79,512.42,695.69,512.42,695.69z"/><path fill="#255403" d="M512.42,695.69c21.51,3.13,17.68-26.56,44.85-25.3c-6.24-1.56-17.88-3.16-23.44,1.32
						C522.07,681.18,523.14,693.17,512.42,695.69z"/><path fill="#7b9e06" d="M467.47,658.6c-21.51,3.13-17.68-26.56-44.85-25.3c-3.62,0.17-7.79,0.89-12.65,2.31
						c2.68-5.74,9.35-10.55,14.63-11.45c1.71,0.71,3.21,2.05,4.22,4.28c0.45-0.27,0.01-2.93-2.46-5.09
						c5.25-0.39,8.84-3.77,13.36-3.51h0.01c1.34,1.62,1.99,3.72,2.06,6.23c0.55,0.15,1.82-2.53,0.01-6.36
						c5.16,1.76,15.17,1.25,20.44,7.84c0.57,2.09-0.14,5.62-1.37,7.52c1.18,0.36,2.98-2.86,2.86-5.78
						C475.24,643.7,467.47,658.6,467.47,658.6z"/><path fill="#668500" d="M467.47,658.6c-21.51,3.13-17.68-26.56-44.85-25.3c6.24-1.56,17.88-3.16,23.44,1.32
						C457.82,644.09,456.75,656.08,467.47,658.6z"/><path fill="#7b9e06" d="M511.38,658.57c0.63,0.49,14.93,1.29,21.92-8.19c3.48-4.72,5-11.72,7.09-17.19
						c0.45-1.16,2.07-4.26,2.63-5.33c-2.6-0.11-5.37,0.9-5.87,1.27c2.08-2.97,5.46-1.5,7.64-4.09c2.49-2.96,8.18-10.91,13.84-11.38
						c-4.97-2.97-10.89-4.34-15.7-4.01c-0.8,0.05-1.56,0.41-2.06,1.04c-0.93,1.17-1.15,2.75-1.53,4.78
						c-0.45-0.15-0.93-2.84,0.74-5.55c-3.34-0.69-8.06,0.68-10.63,2.83c-1.1,1.8-0.22,3.42,0.14,6.1c-0.6,0.05-1.93-2.25-1.24-5.3
						C510.89,623.13,502.9,648.36,511.38,658.57z"/><path fill="#668500" d="M511.38,658.57c0.63,0.49,14.93,1.29,21.92-8.19c3.48-4.72,5-11.72,7.09-17.19
						c0.45-1.16,2.07-4.26,2.63-5.33c-2.6-0.11-5.37,0.9-5.87,1.27c2.08-2.97,5.46-1.5,7.64-4.09c2.49-2.96,8.18-10.91,13.84-11.38
						c0,0-22.94,0.08-27.84,14.59C525.88,642.75,517.81,656.32,511.38,658.57z"/><path fill="#3e6e04" d="M482.86,721.45c-0.63,0.49-14.93,1.29-21.92-8.19c-3.48-4.72-5-11.72-7.09-17.19
						c-0.45-1.16-2.07-4.26-2.63-5.33c2.6-0.11,5.37,0.9,5.87,1.27c-2.08-2.97-5.46-1.5-7.64-4.09
						c-2.49-2.96-8.18-10.91-13.84-11.38c4.97-2.97,10.89-4.34,15.7-4.01c0.8,0.05,1.56,0.41,2.06,1.04
						c0.93,1.17,1.15,2.75,1.53,4.78c0.45-0.15,0.93-2.84-0.74-5.55c3.34-0.69,8.06,0.68,10.63,2.83c1.1,1.8,0.22,3.42-0.14,6.1
						c0.6,0.05,1.93-2.25,1.24-5.3C483.35,686,491.35,711.24,482.86,721.45z"/><path fill="#255403" d="M482.86,721.45c-0.63,0.49-14.93,1.29-21.92-8.19c-3.48-4.72-5-11.72-7.09-17.19
						c-0.45-1.16-2.07-4.26-2.63-5.33c2.6-0.11,5.37,0.9,5.87,1.27c-2.08-2.97-5.46-1.5-7.64-4.09
						c-2.49-2.96-8.18-10.91-13.84-11.38c0,0,22.94,0.08,27.84,14.59C468.36,705.63,476.43,719.2,482.86,721.45z"/><path fill="#a3bc3e" d="M472.21,658.89c0.79,19.45,11.07,32.95,22.22,36.17c9.4-8.01,14.65-20.6,13.92-32.9
						c-1.91,4.24-4.44,5.78-4.55,5.26c2.35-2.81,3.74-5.75,4.18-8.77c0-0.01,0-0.01,0-0.01c0.14-4.52-1.38-8.97-3.91-13.47
						c-1.27,4.21-3.97,6.01-4.66,5.42c2.23-2.23,3.3-5.07,3.76-7.7c-0.89-2.22-1.81-4.42-2.68-6.63c-0.17-0.45-0.35-0.89-0.53-1.35
						c-1.14,3.55-2.82,4.45-2.97,3.97c1.01-1.92,1.73-3.89,2.18-6.1c-2.33-6.48-4-13.26-3.15-20.04c-3.52,3.33-6.88,6.82-8.54,12.04
						c0.06,1.49,0.47,2.99,1.64,4.35c-0.31,0.21-1.82-0.79-2.45-3.16c-2.21,2.13-4.65,4.78-5,7.81c-0.02,2.45,1.13,4.2,2.66,6.42
						c-0.43-0.07-2.84-1.99-3.59-4.95c-0.13,0.22-0.29,0.42-0.39,0.66c-1.49,3.47-4.82,5.93-4.94,8.99
						c-0.16,2.58,1.9,5.06,4.43,7.43c-0.71,0.21-4.31-1.55-5.11-5.03C473.33,651.04,471.94,655.94,472.21,658.89z"/><path fill="#8aa329" d="M490.3,649.06c4.87,16.2,8.34,36.95,4.13,46c9.4-8.01,14.65-20.6,13.92-32.9
						c-1.91,4.24-4.44,5.78-4.55,5.26c2.35-2.81,3.74-5.75,4.18-8.77c0-0.01,0-0.01,0-0.01c0.14-4.52-1.38-8.97-3.91-13.47
						c-1.27,4.21-3.97,6.01-4.66,5.42c2.23-2.23,3.3-5.07,3.76-7.7c-0.89-2.22-1.81-4.42-2.68-6.63c-0.17-0.45-0.35-0.89-0.53-1.35
						c-1.14,3.55-2.82,4.45-2.97,3.97c1.01-1.92,1.73-3.89,2.18-6.1c-2.33-6.48-4-13.26-3.15-20.04
						C496.03,612.75,485.42,632.85,490.3,649.06z"/><path fill="#3e6e04" d="M478.51,627.49c-0.5,0.32-11.1-0.03-15.63-7.48c-2.26-3.71-2.92-8.97-4.1-13.15
						c-0.25-0.88-1.25-3.28-1.59-4.11c1.92,0.09,3.9,1.02,4.25,1.33c-1.34-2.33-3.93-1.46-5.37-3.52c-1.64-2.35-5.32-8.59-9.46-9.3
						c3.87-1.86,8.32-2.49,11.84-1.93c0.59,0.09,1.12,0.41,1.45,0.9c0.61,0.93,0.67,2.1,0.81,3.63c0.34-0.08,0.87-2.04-0.18-4.14
						c2.51-0.29,5.9,1.03,7.65,2.79c0.7,1.4-0.06,2.54-0.5,4.49c0.44,0.07,1.57-1.53,1.27-3.83
						C481.2,601.37,485.44,620.52,478.51,627.49z"/><path fill="#255403" d="M478.51,627.49c-0.5,0.32-11.1-0.03-15.63-7.48c-2.26-3.71-2.92-8.97-4.1-13.15
						c-0.25-0.88-1.25-3.28-1.59-4.11c1.92,0.09,3.9,1.02,4.25,1.33c-1.34-2.33-3.93-1.46-5.37-3.52c-1.64-2.35-5.32-8.59-9.46-9.3
						c0,0,16.92,1.57,19.58,12.59C468.85,614.86,473.92,625.41,478.51,627.49z"/><g><path fill="#a3bc3e" d="M500.96,600.91c-3.98,10.81-1.43,20.53,3.93,24.82c6.96-2.25,12.69-7.93,15.08-14.83
						c-2.01,1.88-3.74,2.15-3.68,1.84c1.92-1,3.35-2.29,4.27-3.84c0,0,0,0,0,0c1.1-2.44,1.28-5.22,0.92-8.25
						c-1.65,2.01-3.54,2.38-3.78,1.9c1.73-0.72,2.96-2.02,3.8-3.35c0.02-1.41,0.01-2.83,0.04-4.23c0.01-0.28,0.01-0.57,0.02-0.86
						c-1.43,1.68-2.55,1.79-2.53,1.5c0.99-0.82,1.83-1.73,2.58-2.84c0.2-4.07,0.83-8.15,2.83-11.67c-2.68,1.02-5.31,2.17-7.4,4.64
						c-0.3,0.83-0.42,1.74-0.09,2.75c-0.22,0.04-0.81-0.85-0.62-2.28c-1.69,0.66-3.63,1.56-4.51,3.14c-0.57,1.33-0.34,2.55,0,4.11
						c-0.22-0.14-1.1-1.73-0.84-3.52c-0.12,0.09-0.25,0.17-0.37,0.27c-1.6,1.56-3.98,2.15-4.74,3.79c-0.67,1.37-0.11,3.2,0.74,5.07
						c-0.43-0.05-2-1.83-1.65-3.91C503.36,596.88,501.48,599.24,500.96,600.91z"/><path fill="#8aa329" d="M513.08,599.64c-1.02,9.96-3.83,22.09-8.19,26.09c6.96-2.25,12.69-7.93,15.08-14.83
						c-2.01,1.88-3.74,2.15-3.68,1.84c1.92-1,3.35-2.29,4.27-3.84c0,0,0,0,0,0c1.1-2.44,1.28-5.22,0.92-8.25
						c-1.65,2.01-3.54,2.38-3.78,1.9c1.73-0.72,2.96-2.02,3.8-3.35c0.02-1.41,0.01-2.83,0.04-4.23c0.01-0.28,0.01-0.57,0.02-0.86
						c-1.43,1.68-2.55,1.79-2.53,1.5c0.99-0.82,1.83-1.73,2.58-2.84c0.2-4.07,0.83-8.15,2.83-11.67
						C524.46,581.1,514.1,589.68,513.08,599.64z"/></g><g><polygon fill="#cf3232" points="465.86 758.26 466.61 764.18 471.59 803.5 515.41 803.5 520.91 764.18 521.73 758.26"/><path fill="#cf3232" d="M466.95,758.27h53.68c3.6,0,6.52-2.38,6.52-5.32l0,0c0-2.94-2.92-5.32-6.52-5.32h-53.68
					c-3.6,0-6.52,2.38-6.52,5.32l0,0C460.43,755.88,463.35,758.27,466.95,758.27z"/><path fill="#d1bca1" d="M521.73,758.26l-1.12,8.03c-25.55-2.05-46.65,14.59-49.03,37.2l-5.72-45.23H521.73z"/></g></g><g><path fill="#561d8a" d="M1283.24,809.6H80.76c-1.76,0-3.19-1.43-3.19-3.19c0-1.76,1.43-3.19,3.19-3.19h1202.47
			c1.76,0,3.19,1.43,3.19,3.19C1286.43,808.17,1285,809.6,1283.24,809.6z"/></g><g><polygon fill="#44248f" points="1042.28 126.36 1078.17 116.88 1061.43 101.88"/><polygon fill="#6f4ebd" points="1077.37 123.64 1118.5 94.42 1060.84 110.61"/><polygon fill="#6f4ebd" points="1118.53 94.35 1036.67 83.79 1052.37 97.4"/><polygon fill="#5939a3" points="1118.5 94.42 1060.77 110.81 1042.28 126.36 1052.28 97.13"/></g><g><path fill="#ffb300" d="M167.65,333.1l-5.89-5.94c-1.34-1.35-1.33-3.52,0.02-4.86c1.35-1.34,3.52-1.33,4.86,0.02l5.89,5.94
			l5.94-5.89c1.35-1.34,3.52-1.33,4.86,0.02c1.34,1.35,1.33,3.52-0.02,4.86l-5.94,5.89l5.88,5.92c1.34,1.35,1.33,3.52-0.02,4.86
			c-0.67,0.67-1.55,1-2.43,1c-0.88,0-1.76-0.34-2.43-1.02l-5.88-5.92l-5.92,5.88c-0.67,0.67-1.55,1-2.43,1
			c-0.88,0-1.76-0.34-2.43-1.02c-1.34-1.35-1.33-3.52,0.02-4.86L167.65,333.1z"/></g><g><path fill="#ffb300" d="M1174.34,215.82l-5.89-5.94c-1.34-1.35-1.33-3.52,0.02-4.86c1.35-1.34,3.52-1.33,4.86,0.02l5.89,5.94
			l5.94-5.89c1.35-1.34,3.52-1.33,4.86,0.02c1.34,1.35,1.33,3.52-0.02,4.86l-5.94,5.89l5.88,5.92c1.34,1.35,1.33,3.52-0.02,4.86
			c-0.67,0.67-1.55,1-2.43,1c-0.88,0-1.76-0.34-2.43-1.02l-5.88-5.92l-5.92,5.88c-0.67,0.67-1.55,1-2.43,1s-1.76-0.34-2.43-1.02
			c-1.34-1.35-1.33-3.52,0.02-4.86L1174.34,215.82z"/></g><g><path fill="#e03131" d="M179.72,704.65c0.03-7.45,6.11-13.49,13.56-13.46c7.45,0.03,13.49,6.11,13.46,13.56
			c-0.03,7.45-6.11,13.49-13.56,13.46C185.73,718.18,179.69,712.1,179.72,704.65z M183.95,704.67c-0.02,5.12,4.13,9.3,9.25,9.31
			c5.12,0.02,9.3-4.13,9.31-9.25c0.02-5.12-4.13-9.3-9.25-9.31C188.15,695.4,183.97,699.55,183.95,704.67z"/></g><g><path fill="#e03131" d="M1210.41,583.76c0.03-7.45,6.11-13.49,13.56-13.46c7.45,0.03,13.49,6.11,13.46,13.56
			c-0.03,7.45-6.11,13.49-13.56,13.46C1216.42,597.29,1210.38,591.21,1210.41,583.76z M1214.63,583.77
			c-0.02,5.12,4.13,9.3,9.25,9.31c5.12,0.02,9.3-4.13,9.31-9.25c0.02-5.12-4.13-9.3-9.25-9.31
			C1218.83,574.51,1214.65,578.66,1214.63,583.77z"/></g><g><path fill="#7159c1" d="M599.76,110.91l12.14-11.54c1.26-1.2,3-1.62,4.67-1.12c1.66,0.49,2.9,1.79,3.31,3.48l3.92,16.28
								c0.41,1.69-0.1,3.41-1.36,4.6c-1.26,1.2-3,1.61-4.67,1.12l-16.06-4.75c-1.66-0.49-2.9-1.79-3.31-3.48
								c-0.31-1.28-0.09-2.57,0.58-3.65C599.19,111.52,599.46,111.2,599.76,110.91z M620.12,118.9l-3.92-16.28
								c-0.12-0.51-0.53-0.69-0.7-0.74c-0.17-0.05-0.6-0.13-0.99,0.24l-12.14,11.54c-0.38,0.37-0.33,0.8-0.29,0.97
								c0.04,0.17,0.19,0.59,0.7,0.74l16.06,4.75c0.51,0.15,0.86-0.12,0.99-0.24c0.04-0.04,0.11-0.11,0.17-0.21
								C620.11,119.49,620.2,119.23,620.12,118.9z"/></g></svg>