
<svg xmlns="http://www.w3.org/2000/svg" enable-background="new 0 0 1364 960" viewBox="0 0 1364 960"><path fill="#FDCFFF" d="M395.177,147.77c-21.977,9.395-32.18,34.811-22.785,56.787c9.389,21.963,34.819,32.161,56.795,22.766
	c21.963-9.389,32.161-34.818,22.772-56.781C442.563,148.565,417.14,138.381,395.177,147.77z M416.579,197.832
	c-5.69,2.433-12.256-0.212-14.683-5.888c-2.427-5.676,0.198-12.25,5.888-14.683c5.676-2.427,12.256,0.212,14.682,5.888
	C424.894,188.826,422.255,195.405,416.579,197.832z"/><path fill="#FDCFFF" d="M483.901,142.363l-18.787,1.777c-0.001-0.001-0.001-0.002-0.002-0.002
	c-3.214-3.93-6.847-7.458-10.777-10.523l1.189-18.944c0.201-3.207-1.677-6.181-4.659-7.377l-11.414-4.577
	c-3.005-1.205-6.445-0.33-8.509,2.165l-12.041,14.557l-0.011,0.005c-4.962-0.5-9.995-0.459-15.037,0.162c0,0,0,0,0,0l-12.558-14.24
	c-2.125-2.409-5.557-3.184-8.511-1.921l-11.308,4.834c-2.977,1.273-4.79,4.324-4.486,7.547l1.779,18.809
	c-0.001,0.001-0.003,0.002-0.004,0.004c-3.938,3.202-7.447,6.812-10.513,10.745c-0.002,0.003-0.004,0.006-0.006,0.009l-18.948-1.189
	c-3.207-0.201-6.181,1.677-7.377,4.66l-4.577,11.414c-1.205,3.005-0.33,6.445,2.165,8.508l14.538,12.026
	c-0.494,4.972-0.447,10.017,0.179,15.069L329.99,208.43c-2.41,2.125-3.184,5.557-1.921,8.511l4.834,11.308
	c1.273,2.977,4.324,4.79,7.547,4.486l18.784-1.776c0.001,0.001,0.002,0.003,0.003,0.004c3.214,3.931,6.848,7.459,10.778,10.524
	l-1.189,18.941c-0.201,3.207,1.678,6.181,4.66,7.377l11.414,4.577c3.005,1.205,6.445,0.33,8.509-2.165l12.038-14.553
	c4.961,0.5,9.994,0.459,15.03-0.176l0.012-0.005l12.567,14.25c2.125,2.41,5.557,3.184,8.511,1.921l11.308-4.834
	c2.977-1.273,4.791-4.324,4.486-7.547l-1.777-18.791c0.002-0.002,0.005-0.004,0.007-0.006c3.933-3.216,7.454-6.832,10.508-10.758
	c0.003-0.004,0.005-0.007,0.008-0.011l18.948,1.189c3.207,0.201,6.181-1.677,7.377-4.66l4.578-11.414
	c1.205-3.005,0.33-6.445-2.165-8.509l-14.539-12.026c0.494-4.972,0.446-10.015-0.18-15.067l14.235-12.554
	c2.41-2.125,3.184-5.557,1.921-8.511l-4.834-11.308C490.176,143.871,487.125,142.058,483.901,142.363z M431.423,232.554
	c-24.855,10.626-53.622-0.911-64.248-25.766s0.911-53.622,25.766-64.248c24.855-10.626,53.609,0.917,64.235,25.772
	C467.801,193.167,456.278,221.928,431.423,232.554z"/><path fill="#FDCFFF" d="M531.937,65.732c-15.43,6.596-22.594,24.441-15.997,39.87c6.592,15.42,24.446,22.58,39.875,15.984
	c15.42-6.592,22.58-24.446,15.988-39.866C565.206,66.29,547.357,59.14,531.937,65.732z M546.963,100.88
	c-3.995,1.708-8.605-0.149-10.309-4.134c-1.704-3.985,0.139-8.601,4.134-10.309c3.985-1.704,8.605,0.149,10.308,4.134
	C552.801,94.557,550.949,99.177,546.963,100.88z"/><path fill="#FDCFFF" d="M594.23,61.935l-13.19,1.247c0-0.001-0.001-0.001-0.001-0.002c-2.257-2.759-4.807-5.236-7.566-7.388
	l0.834-13.301c0.141-2.252-1.178-4.34-3.271-5.179l-8.014-3.214c-2.11-0.846-4.525-0.232-5.974,1.52l-8.454,10.22l-0.007,0.003
	c-3.484-0.351-7.018-0.322-10.558,0.114c0,0,0,0,0,0l-8.817-9.998c-1.492-1.692-3.901-2.236-5.976-1.349l-7.939,3.394
	c-2.09,0.894-3.363,3.036-3.149,5.299l1.249,13.206c-0.001,0.001-0.002,0.002-0.003,0.002c-2.765,2.248-5.228,4.783-7.381,7.544
	c-0.002,0.002-0.003,0.004-0.005,0.006l-13.304-0.835c-2.251-0.141-4.34,1.178-5.179,3.271l-3.214,8.014
	c-0.846,2.11-0.232,4.525,1.52,5.974l10.207,8.443c-0.347,3.491-0.313,7.033,0.126,10.58l-9.993,8.813
	c-1.692,1.492-2.236,3.901-1.349,5.975l3.394,7.939c0.894,2.09,3.036,3.363,5.299,3.149l13.188-1.247
	c0.001,0.001,0.002,0.002,0.002,0.003c2.257,2.76,4.808,5.237,7.568,7.389l-0.834,13.299c-0.141,2.252,1.178,4.34,3.271,5.179
	l8.014,3.214c2.11,0.846,4.525,0.232,5.974-1.52l8.452-10.218c3.483,0.351,7.017,0.322,10.553-0.123l0.008-0.004l8.823,10.005
	c1.492,1.692,3.901,2.236,5.976,1.349l7.939-3.394c2.09-0.894,3.364-3.036,3.149-5.299l-1.248-13.193
	c0.002-0.001,0.003-0.002,0.005-0.004c2.761-2.258,5.234-4.797,7.377-7.553c0.002-0.002,0.004-0.005,0.006-0.008l13.303,0.835
	c2.252,0.141,4.34-1.178,5.179-3.271l3.214-8.014c0.846-2.11,0.232-4.525-1.52-5.974l-10.208-8.444
	c0.347-3.491,0.313-7.032-0.126-10.579l9.994-8.814c1.692-1.492,2.236-3.901,1.349-5.976l-3.394-7.939
	C598.635,62.994,596.493,61.721,594.23,61.935z M557.385,125.259c-17.451,7.46-37.648-0.64-45.109-18.091s0.64-37.648,18.091-45.108
	c17.451-7.46,37.639,0.644,45.099,18.094C582.926,97.605,574.836,117.798,557.385,125.259z"/><path fill="#FDCFFF" d="M1046.162,153.666c-15.43,6.596-22.594,24.44-15.998,39.87c6.592,15.42,24.446,22.58,39.876,15.984
	c15.42-6.592,22.58-24.446,15.988-39.866C1079.432,154.225,1061.583,147.074,1046.162,153.666z M1061.189,188.815
	c-3.995,1.708-8.605-0.149-10.309-4.134c-1.704-3.985,0.139-8.601,4.134-10.309c3.985-1.704,8.605,0.149,10.309,4.134
	C1067.026,182.492,1065.174,187.111,1061.189,188.815z"/><path fill="#FDCFFF" d="M1108.455,149.87l-13.19,1.247c0-0.001-0.001-0.001-0.001-0.002c-2.257-2.759-4.807-5.236-7.567-7.388
	l0.834-13.301c0.141-2.252-1.178-4.34-3.271-5.179l-8.014-3.214c-2.11-0.846-4.525-0.232-5.974,1.52l-8.454,10.22l-0.008,0.003
	c-3.484-0.351-7.018-0.322-10.558,0.114c0,0,0,0,0,0l-8.817-9.998c-1.492-1.692-3.901-2.236-5.976-1.349l-7.939,3.394
	c-2.09,0.894-3.363,3.036-3.149,5.299l1.249,13.206c-0.001,0.001-0.002,0.002-0.003,0.002c-2.765,2.248-5.228,4.783-7.381,7.544
	c-0.002,0.002-0.003,0.004-0.005,0.006l-13.303-0.835c-2.252-0.141-4.34,1.178-5.179,3.271l-3.214,8.014
	c-0.846,2.11-0.232,4.525,1.52,5.974l10.207,8.443c-0.347,3.491-0.314,7.033,0.126,10.58l-9.993,8.813
	c-1.692,1.492-2.236,3.901-1.349,5.976l3.394,7.939c0.894,2.09,3.036,3.364,5.299,3.149l13.188-1.247
	c0.001,0.001,0.002,0.002,0.002,0.003c2.257,2.76,4.808,5.237,7.567,7.389l-0.834,13.299c-0.141,2.252,1.178,4.34,3.272,5.179
	l8.014,3.214c2.11,0.846,4.525,0.232,5.974-1.52l8.452-10.218c3.483,0.351,7.017,0.322,10.553-0.123l0.009-0.004l8.824,10.005
	c1.492,1.692,3.901,2.236,5.976,1.349l7.939-3.394c2.09-0.894,3.363-3.036,3.149-5.299l-1.248-13.193
	c0.002-0.001,0.003-0.003,0.005-0.004c2.761-2.258,5.234-4.797,7.377-7.553c0.002-0.003,0.003-0.005,0.005-0.008l13.304,0.835
	c2.252,0.141,4.339-1.178,5.179-3.271l3.214-8.014c0.846-2.11,0.232-4.525-1.52-5.974l-10.208-8.444
	c0.347-3.491,0.313-7.032-0.126-10.579l9.994-8.814c1.692-1.492,2.236-3.901,1.349-5.976l-3.394-7.939
	C1112.861,150.929,1110.719,149.656,1108.455,149.87z M1071.61,213.193c-17.451,7.46-37.648-0.64-45.109-18.09
	c-7.46-17.451,0.64-37.648,18.09-45.108c17.451-7.46,37.639,0.644,45.099,18.094C1097.152,185.539,1089.061,205.733,1071.61,213.193
	z"/><path fill="#D39EFF" d="M309.883,377.085c-1.805-2.277-5.047-3.126-7.876-2.481c-2.829,0.645-5.236,2.598-6.908,4.97
	c-1.672,2.372-2.68,5.148-3.471,7.941c-1.309,4.623-2.056,9.56-1.246,14.256c-5.682-4.176-11.041-8.795-16.022-13.8
	c-0.453-0.455-0.898-0.918-1.344-1.379c3.807-3.289,7.614-6.578,11.421-9.866c2.54-2.194,5.141-4.464,6.679-7.449
	c1.538-2.985,1.778-6.895-0.309-9.529c-1.805-2.277-5.047-3.126-7.876-2.481c-2.829,0.645-5.236,2.598-6.908,4.97
	c-1.672,2.372-2.68,5.147-3.471,7.941c-1.35,4.769-2.105,9.873-1.166,14.7c-5.356-5.722-10.232-11.89-14.557-18.425
	c3.729-3.48,7.458-6.96,11.188-10.441c2.454-2.29,4.966-4.659,6.388-7.701c1.422-3.042,1.513-6.958-0.674-9.51
	c-1.89-2.206-5.163-2.93-7.965-2.177c-2.802,0.753-5.132,2.797-6.712,5.232c-1.58,2.434-2.481,5.246-3.164,8.069
	c-1.094,4.519-1.655,9.312-0.794,13.841c-3.02-4.798-5.753-9.776-8.162-14.911c-0.713-1.52-1.387-3.057-2.042-4.602
	c3.717-3.706,7.435-7.411,11.152-11.117c2.377-2.37,4.81-4.82,6.131-7.907c1.321-3.087,1.283-7.004-0.986-9.484
	c-1.962-2.143-5.256-2.759-8.032-1.914c-2.776,0.845-5.038,2.965-6.537,5.45c-1.499,2.485-2.308,5.326-2.897,8.169
	c-0.844,4.063-1.251,8.329-0.613,12.397c-2.032-5.318-3.722-10.764-5.054-16.304c1.467-4.903,2.933-9.806,4.4-14.709
	c0.963-3.218,1.936-6.533,1.629-9.88c-0.307-3.347-2.203-6.776-5.376-7.877c-2.744-0.952-5.932,0.075-7.97,2.141
	c-2.038,2.065-3.017,5.008-3.154,7.91c-0.136,2.902,0.504,5.786,1.337,8.57c1.535,5.13,3.864,10.216,7.74,13.866
	c0.003,0.018,0.003,0.035,0.008,0.054c1.406,5.898,3.221,11.693,5.413,17.34c-2.838-3.254-6.606-5.728-10.493-7.689
	c-2.593-1.308-5.319-2.445-8.198-2.819c-2.879-0.374-5.946,0.076-8.335,1.721c-2.39,1.646-3.959,4.607-3.503,7.476
	c0.527,3.319,3.57,5.788,6.809,6.676c3.239,0.888,6.671,0.51,10.006,0.125c5.079-0.586,10.157-1.172,15.236-1.757
	c2.887,6.83,6.332,13.425,10.281,19.706c-3.664-2.692-8.152-4.262-12.63-5.247c-2.836-0.624-5.758-1.048-8.638-0.695
	c-2.88,0.352-5.739,1.55-7.645,3.739c-1.906,2.188-2.691,5.447-1.538,8.115c1.334,3.085,4.892,4.721,8.249,4.778
	c3.357,0.056,6.587-1.163,9.721-2.364c4.771-1.829,9.541-3.657,14.312-5.485c0.129,0.194,0.254,0.392,0.384,0.586
	c4.263,6.358,9.042,12.364,14.268,17.951c-4.456-2.468-9.746-3.246-14.873-3.31c-2.902-0.036-5.849,0.14-8.597,1.069
	c-2.749,0.929-5.305,2.682-6.729,5.212c-1.423,2.53-1.532,5.881,0.136,8.26c1.93,2.752,5.745,3.634,9.043,3.008
	c3.298-0.626,6.214-2.474,9.039-4.286c4.439-2.847,8.879-5.693,13.318-8.54c0.074,0.077,0.149,0.153,0.223,0.23l-0.032,0.146
	c0.032-0.027,0.063-0.054,0.095-0.082c5.175,5.351,10.769,10.293,16.733,14.756c-4.552-0.464-9.252,0.439-13.65,1.842
	c-2.817,0.899-5.609,2.017-7.969,3.8c-2.36,1.782-4.27,4.299-4.836,7.201c-0.566,2.902,0.402,6.177,2.777,7.939
	c2.747,2.038,6.718,1.663,9.706-0.002c2.988-1.666,5.215-4.39,7.366-7.05c3.055-3.778,6.111-7.555,9.166-11.333
	c0.112-0.096,0.223-0.193,0.335-0.289c6.697,4.74,13.817,8.868,21.271,12.298c0.787,0.363,1.504-0.798,0.706-1.165
	c-7.328-3.372-14.326-7.418-20.913-12.052c3.612-3.12,7.223-6.24,10.835-9.36c2.539-2.194,5.141-4.465,6.679-7.449
	C311.73,383.628,311.971,379.719,309.883,377.085z"/><path fill="#D39EFF" d="M275.552,739.551c-2.81,0.753-5.969-0.568-7.918-2.862c-1.949-2.294-2.789-5.404-2.781-8.402
	c0.008-2.998,0.797-5.914,1.775-8.709c1.618-4.627,3.881-9.162,7.284-12.528c-7.102-0.098-14.198,0.37-21.208,1.392
	c-0.637,0.093-1.273,0.198-1.909,0.299c1.212,5.084,2.424,10.167,3.636,15.25c0.809,3.391,1.624,6.884,1.148,10.302
	c-0.476,3.419-2.557,6.792-5.807,7.663c-2.81,0.753-5.969-0.568-7.918-2.863c-1.949-2.294-2.789-5.404-2.781-8.401
	c0.008-2.997,0.797-5.913,1.775-8.709c1.669-4.772,4.023-9.45,7.608-12.844c-7.735,1.379-15.336,3.426-22.699,6.117
	c1.037,5.193,2.073,10.385,3.11,15.578c0.682,3.417,1.366,6.935,0.762,10.329c-0.604,3.394-2.811,6.678-6.096,7.42
	c-2.839,0.641-5.95-0.802-7.814-3.169c-1.864-2.367-2.587-5.504-2.467-8.495c0.12-2.991,1.018-5.871,2.101-8.623
	c1.734-4.406,4.066-8.707,7.413-11.904c-5.278,2.073-10.425,4.474-15.396,7.206c-1.472,0.809-2.921,1.656-4.359,2.522
	c0.895,5.371,1.791,10.742,2.686,16.113c0.572,3.435,1.144,6.971,0.431,10.339c-0.713,3.368-3.027,6.573-6.336,7.204
	c-2.861,0.544-5.927-1.001-7.715-3.427c-1.789-2.426-2.412-5.583-2.196-8.565c0.216-2.983,1.207-5.828,2.379-8.539
	c1.674-3.875,3.825-7.646,6.72-10.601c-4.768,3.118-9.331,6.554-13.653,10.291c-1.652,4.955-3.304,9.911-4.955,14.867
	c-1.084,3.252-2.216,6.592-4.418,9.159c-2.202,2.568-5.759,4.213-9.008,3.143c-2.809-0.925-4.83-3.758-5.301-6.731
	c-0.471-2.972,0.439-6.009,2.017-8.485c1.579-2.477,3.786-4.455,6.093-6.231c4.251-3.272,9.128-6.014,14.44-6.607
	c0.013-0.013,0.023-0.027,0.038-0.04c4.593-3.986,9.46-7.632,14.553-10.921c-4.229,0.914-8.766,0.606-13.104-0.2
	c-2.893-0.537-5.796-1.299-8.379-2.785c-2.584-1.485-4.842-3.767-5.847-6.613c-1.005-2.846-0.569-6.264,1.478-8.345
	c2.368-2.408,6.306-2.547,9.485-1.261c3.179,1.286,5.779,3.737,8.295,6.132c3.832,3.647,7.664,7.295,11.496,10.942
	c6.353-3.831,13.026-7.121,19.931-9.838c-4.579-0.064-9.183-1.566-13.436-3.545c-2.694-1.253-5.342-2.724-7.503-4.809
	c-2.162-2.085-3.813-4.854-4.103-7.845c-0.291-2.991,0.963-6.167,3.464-7.647c2.894-1.712,6.771-0.844,9.562,1.202
	c2.792,2.045,4.735,5.063,6.611,8.006c2.855,4.48,5.71,8.96,8.564,13.44c0.219-0.08,0.437-0.165,0.657-0.244
	c7.208-2.586,14.635-4.558,22.184-5.907c-5.1-0.742-9.9-3.396-14.151-6.539c-2.406-1.778-4.724-3.76-6.441-6.238
	c-1.718-2.479-2.797-5.517-2.492-8.489c0.305-2.972,2.168-5.803,4.925-6.724c3.189-1.066,6.838,0.584,9.184,3.155
	c2.345,2.57,3.664,5.911,4.93,9.165c1.989,5.113,3.979,10.226,5.968,15.338c0.106-0.017,0.212-0.033,0.317-0.05l0.058-0.14
	c0.01,0.042,0.02,0.084,0.03,0.126c7.37-1.187,14.847-1.775,22.349-1.738c-4.011-2.454-7.347-6.126-10.144-10.024
	c-1.791-2.497-3.434-5.158-4.334-8.098c-0.901-2.94-1.004-6.204,0.223-8.95c1.226-2.745,3.929-4.841,6.908-4.814
	c3.445,0.031,6.49,2.815,7.974,6.049c1.485,3.235,1.727,6.869,1.945,10.401c0.31,5.018,0.619,10.036,0.928,15.054
	c0.036,0.149,0.071,0.298,0.106,0.447c8.265,0.266,16.522,1.299,24.645,3.116c0.858,0.192,0.771,1.595-0.099,1.4
	c-7.986-1.786-16.095-2.811-24.208-3.096c1.15,4.822,2.3,9.645,3.45,14.467c0.808,3.391,1.623,6.884,1.147,10.302
	C280.883,735.308,278.803,738.681,275.552,739.551z"/><path fill="#BF74FC" d="M230.298,556.017c-18.911-4.51-37.736-5.588-55.545-4.664c-0.326,0.029-0.591,0.019-0.918,0.048
	c-5.831,0.315-11.559,0.867-17.122,1.62c4.899,7.618,4.944,15.25,2.11,22.887c-1.687-10.582-8.133-17.076-18.94-19.812
	c-0.454-0.108-0.983-0.128-1.433-0.022c-13.89,2.816-26.438,6.486-37.062,10.135c-0.301,0.142-0.589,0.233-0.877,0.325
	c-18.378,6.437-30.658,12.783-33.334,14.169c-0.363,0.182-0.55,0.296-0.55,0.296s0.115,0.188,0.357,0.512
	c2.554,3.594,19.049,26.289,46.271,49.143c0.228,0.161,0.445,0.373,0.672,0.534c7.563,6.282,15.919,12.592,25.012,18.491
	c9.659,4.648,17.605,1.053,21.903-2.666c-1.77,4.962-4.633,8.702-9.94,9.942c15.183,8.526,32.1,15.81,50.508,20.199
	c0.505,0.12,1.059,0.253,1.576,0.323l1.059,0.253c9.668,2.147,19.327,3.437,28.84,3.999c0.314,0.023,0.579,0.031,0.843,0.043
	c66.249,3.805,124.638-26.029,130.802-29.304c0.362-0.18,0.549-0.295,0.549-0.295s-0.115-0.186-0.357-0.512
	c-2.235-3.143-14.593-20.162-35.187-39.303c-0.215-0.212-0.394-0.361-0.609-0.572c-6.505-6.027-13.815-12.248-21.916-18.285
	c-0.406-0.31-0.812-0.62-1.218-0.93c-10.776-8.006-22.805-15.672-36.067-22.194c-1.378,5.109-2.64,9.285-2.64,9.285l-9.972-14.958
	C248.613,561.238,239.628,558.242,230.298,556.017z M88.412,597.602c-0.766-1.037-0.518-2.523,0.506-3.239
	c1.035-0.765,2.471-0.53,3.237,0.505c0.765,1.036,0.53,2.472-0.506,3.238C90.627,598.821,89.178,598.636,88.412,597.602z
	 M94.9,602.133c0.469-1.968,2.405-3.159,4.372-2.69c1.966,0.469,3.208,2.417,2.738,4.385c-0.469,1.966-2.468,3.196-4.434,2.727
	C95.609,606.087,94.432,604.099,94.9,602.133z M169.165,642.282c0.325-1.362,1.687-2.156,3.048-1.832
	c1.311,0.313,2.169,1.637,1.844,2.998c-0.325,1.362-1.687,2.156-2.998,1.843C169.698,644.967,168.841,643.644,169.165,642.282z
	 M175.866,652.407c0.565-2.37,2.938-3.829,5.258-3.275c2.37,0.565,3.83,2.938,3.265,5.308c-0.553,2.321-2.927,3.78-5.297,3.214
	C176.772,657.101,175.312,654.728,175.866,652.407z M162.966,556.751c0.157-0.656,0.781-1.039,1.435-0.883
	c0.656,0.156,1.091,0.792,0.935,1.449c-0.156,0.655-0.832,1.027-1.488,0.871C163.194,558.031,162.81,557.405,162.966,556.751z
	 M137.644,566.382c0.361-1.513,1.859-2.435,3.373-2.074c1.512,0.361,2.434,1.86,2.074,3.373c-0.361,1.513-1.861,2.434-3.373,2.074
	C138.205,569.393,137.283,567.895,137.644,566.382z M146.711,572.168c0.144-0.604,0.78-1.039,1.437-0.883
	c0.656,0.156,1.077,0.844,0.933,1.448c-0.157,0.657-0.843,1.078-1.498,0.921C146.926,573.498,146.554,572.824,146.711,572.168z"/><path fill="#FFF" d="M190.77,580.969l8.46-17.596l0.709,0.382l-8.694,18.128l17.647,32.615l42.16,10.054l-19.557-37.122
	l0.675-0.373l19.94,37.747l73.076,17.426l-19.391-49.661c0.406,0.309,0.813,0.62,1.218,0.93l12.315,31.506l9.602-13.221
	c0.215,0.211,0.394,0.36,0.609,0.572l-9.848,13.588l6.455,16.515l39.033,9.308l-0.193,0.808l-56.736-13.53l-21.009,14.124
	l-0.473-0.698l20.424-13.678l-39.235-9.356l-26.392,19.929c-1.843,7.502-5.633,23.175-7.834,32.405
	c-0.265-0.012-0.529-0.02-0.843-0.043c2.333-9.784,6.376-26.514,7.629-31.546l-36.47,27.546l-1.059-0.253l63.909-48.293
	l-78.269-18.665l-17.145,18.03l-0.559-0.559l16.797-17.688l-33.185-7.914l-40.606,28.799c-0.228-0.161-0.444-0.372-0.672-0.534
	l20.203-14.315c-9.183-1.498-22.272-3.607-23.076-3.585l-0.016-0.376l-0.051-0.012l-0.377,0.017l0.135-0.342
	c0.199-0.166,0.398-0.331,24.347,3.621l19.056-13.525l-86.49-20.625c-0.242-0.324-0.357-0.512-0.357-0.512s0.187-0.114,0.55-0.296
	l67.881,16.188l-34.547-30.357c0.288-0.092,0.576-0.183,0.877-0.325l35.385,31.09l71.058,16.945l-33.996-62.844
	c0.327-0.029,0.592-0.02,0.918-0.048L190.77,580.969z"/><path fill="#FCA1FF" d="M298.926,459.521c-11.272-15.84-24.737-29.04-38.753-40.064c-0.265-0.193-0.458-0.375-0.723-0.568
	c-4.598-3.6-9.274-6.954-13.958-10.047c-1.324,8.959-6.313,14.736-13.473,18.622c5.694-9.078,5.113-18.209-1.223-27.382
	c-0.27-0.38-0.656-0.743-1.065-0.96c-12.312-7.02-24.175-12.514-34.576-16.758c-0.32-0.091-0.597-0.212-0.874-0.332
	c-18.074-7.247-31.496-10.55-34.423-11.267c-0.393-0.102-0.609-0.139-0.609-0.139s-0.037,0.217-0.068,0.62
	c-0.442,4.387-2.957,32.33,2.501,67.452c0.066,0.272,0.09,0.574,0.155,0.844c1.561,9.707,3.701,19.957,6.665,30.382
	c4.214,9.856,12.563,12.378,18.247,12.406c-4.598,2.571-9.215,3.503-14.027,0.945c5.822,16.411,13.767,33.028,24.738,48.447
	c0.301,0.423,0.631,0.887,0.974,1.28l0.631,0.887c5.867,7.978,12.291,15.306,19.084,21.99c0.221,0.224,0.415,0.404,0.607,0.587
	c47.379,46.462,110.977,62.421,117.773,64.011c0.391,0.103,0.608,0.139,0.608,0.139s0.036-0.216,0.069-0.62
	c0.385-3.837,2.28-24.784-0.631-52.749c-0.023-0.301-0.059-0.531-0.082-0.831c-0.931-8.819-2.342-18.314-4.47-28.19
	c-0.102-0.5-0.203-1.002-0.305-1.502c-2.845-13.119-6.858-26.808-12.553-40.446c-4.4,2.94-8.098,5.254-8.098,5.254l2.335-17.825
	C309.281,475.505,304.487,467.336,298.926,459.521z M164.726,397.463c0.105-1.285,1.27-2.241,2.512-2.106
	c1.283,0.105,2.209,1.227,2.105,2.511c-0.105,1.283-1.228,2.21-2.511,2.105C165.591,399.838,164.622,398.746,164.726,397.463z
	 M166.629,405.145c1.648-1.173,3.89-0.796,5.062,0.852c1.172,1.647,0.824,3.931-0.824,5.104c-1.647,1.172-3.961,0.782-5.134-0.865
	C164.561,408.588,164.983,406.316,166.629,405.145z M196.128,484.246c1.141-0.812,2.689-0.513,3.501,0.627
	c0.782,1.098,0.556,2.659-0.585,3.471c-1.141,0.812-2.689,0.513-3.471-0.585C194.762,486.619,194.987,485.058,196.128,484.246z
	 M194.51,496.279c1.985-1.413,4.732-0.949,6.115,0.994c1.413,1.985,0.95,4.733-1.035,6.145c-1.944,1.383-4.691,0.92-6.104-1.066
	C192.103,500.409,192.566,497.662,194.51,496.279z M247.745,415.765c0.55-0.391,1.272-0.269,1.662,0.279
	c0.391,0.55,0.301,1.315-0.249,1.706c-0.548,0.39-1.303,0.226-1.694-0.323C247.074,416.879,247.197,416.155,247.745,415.765z
	 M222.341,406.353c1.267-0.902,3.002-0.61,3.904,0.658c0.901,1.266,0.609,3.003-0.658,3.904c-1.268,0.902-3.003,0.609-3.904-0.658
	C220.781,408.989,221.073,407.255,222.341,406.353z M225.36,416.676c0.506-0.36,1.272-0.269,1.663,0.28
	c0.391,0.549,0.256,1.344-0.25,1.705c-0.55,0.391-1.344,0.257-1.735-0.292C224.647,417.819,224.81,417.068,225.36,416.676z"/><path fill="#FFF" d="M252.743,452.296l17.949-7.682l0.282,0.754l-18.475,7.928l-8.176,36.171l25.129,35.314l9.703-40.821
	l0.754,0.164l-9.826,41.544l43.556,61.21l18.079-50.153c0.102,0.5,0.204,1.001,0.305,1.502l-11.46,31.826l15.93-3.636
	c0.023,0.301,0.059,0.53,0.082,0.831l-16.357,3.75l-6.008,16.683l23.265,32.695l-0.677,0.481l-33.816-47.523l-25.113-3.191
	l0.103-0.837l24.379,3.141l-23.386-32.864l-32.987-2.361c-6.325,4.436-19.492,13.743-27.223,19.244
	c-0.192-0.183-0.385-0.363-0.607-0.587c8.195-5.831,22.249-15.768,26.503-18.732l-45.588-3.258l-0.631-0.887l79.901,5.693
	l-46.651-65.56l-24.775,2.294l-0.054-0.789l24.287-2.265l-19.779-27.796l-49.526-5.037c-0.065-0.271-0.089-0.573-0.155-0.844
	l24.633,2.516c-5.929-7.171-14.396-17.372-15.017-17.885l0.235-0.294l-0.031-0.043l-0.295-0.235l0.326-0.169
	c0.259,0.006,0.518,0.013,15.949,18.748l23.249,2.356l-51.551-72.446c0.031-0.404,0.068-0.62,0.068-0.62s0.216,0.037,0.609,0.139
	l40.459,56.859l-6.036-45.592c0.277,0.121,0.554,0.241,0.874,0.332l6.184,46.695l42.353,59.52l15.757-69.69
	c0.265,0.193,0.458,0.374,0.723,0.568L252.743,452.296z"/><path fill="#D39EFF" d="M1030.581,390.149c1.804-2.277,5.047-3.126,7.876-2.481c2.829,0.645,5.236,2.598,6.908,4.97
	c1.672,2.372,2.68,5.148,3.471,7.941c1.309,4.623,2.056,9.56,1.246,14.256c5.682-4.176,11.041-8.795,16.022-13.8
	c0.453-0.455,0.898-0.918,1.344-1.38c-3.807-3.289-7.614-6.578-11.421-9.866c-2.54-2.194-5.142-4.464-6.679-7.449
	c-1.538-2.985-1.778-6.895,0.309-9.529c1.805-2.277,5.047-3.126,7.876-2.481c2.829,0.645,5.236,2.598,6.908,4.97
	c1.672,2.372,2.68,5.147,3.471,7.941c1.35,4.769,2.105,9.873,1.166,14.7c5.356-5.722,10.232-11.89,14.557-18.425
	c-3.729-3.48-7.458-6.96-11.188-10.441c-2.454-2.29-4.966-4.659-6.388-7.701c-1.422-3.042-1.513-6.958,0.674-9.51
	c1.89-2.206,5.163-2.93,7.965-2.177c2.802,0.753,5.132,2.797,6.713,5.232c1.58,2.434,2.481,5.246,3.164,8.069
	c1.094,4.519,1.655,9.312,0.794,13.841c3.02-4.798,5.753-9.776,8.162-14.911c0.713-1.52,1.387-3.057,2.042-4.602
	c-3.717-3.706-7.435-7.411-11.152-11.117c-2.377-2.37-4.81-4.82-6.132-7.907c-1.321-3.087-1.283-7.004,0.986-9.484
	c1.962-2.143,5.256-2.759,8.032-1.914c2.776,0.845,5.038,2.964,6.537,5.45c1.499,2.485,2.308,5.326,2.898,8.169
	c0.844,4.063,1.251,8.329,0.613,12.397c2.032-5.318,3.722-10.764,5.054-16.304c-1.467-4.903-2.933-9.806-4.4-14.709
	c-0.963-3.218-1.936-6.533-1.629-9.879c0.307-3.347,2.203-6.776,5.376-7.877c2.744-0.952,5.932,0.076,7.969,2.141
	c2.038,2.065,3.017,5.008,3.154,7.91c0.136,2.901-0.504,5.786-1.337,8.57c-1.535,5.13-3.864,10.216-7.74,13.866
	c-0.003,0.018-0.003,0.035-0.008,0.054c-1.406,5.898-3.221,11.693-5.413,17.34c2.838-3.254,6.606-5.728,10.494-7.689
	c2.593-1.308,5.319-2.445,8.198-2.819c2.879-0.374,5.946,0.076,8.335,1.721c2.39,1.646,3.959,4.607,3.503,7.476
	c-0.527,3.319-3.57,5.788-6.809,6.676c-3.239,0.888-6.672,0.51-10.006,0.125c-5.079-0.585-10.157-1.171-15.236-1.757
	c-2.887,6.83-6.332,13.425-10.281,19.706c3.664-2.692,8.152-4.262,12.63-5.247c2.836-0.624,5.758-1.048,8.638-0.695
	c2.88,0.352,5.739,1.55,7.645,3.739c1.906,2.188,2.691,5.447,1.538,8.115c-1.334,3.085-4.892,4.721-8.249,4.778
	c-3.357,0.056-6.587-1.163-9.721-2.364c-4.771-1.829-9.541-3.657-14.312-5.485c-0.129,0.194-0.254,0.392-0.384,0.586
	c-4.263,6.358-9.042,12.364-14.268,17.951c4.456-2.468,9.745-3.246,14.873-3.31c2.902-0.036,5.849,0.14,8.597,1.069
	c2.749,0.929,5.305,2.682,6.729,5.212c1.423,2.53,1.532,5.881-0.136,8.26c-1.93,2.752-5.745,3.634-9.043,3.008
	c-3.298-0.626-6.214-2.474-9.039-4.286c-4.439-2.847-8.879-5.693-13.318-8.54c-0.074,0.077-0.149,0.153-0.223,0.23l0.032,0.146
	c-0.032-0.027-0.063-0.054-0.095-0.082c-5.175,5.351-10.769,10.293-16.733,14.756c4.552-0.464,9.252,0.439,13.65,1.842
	c2.818,0.899,5.609,2.017,7.969,3.8c2.36,1.782,4.27,4.299,4.836,7.201c0.566,2.902-0.402,6.177-2.777,7.938
	c-2.747,2.038-6.718,1.664-9.706-0.002c-2.988-1.666-5.215-4.39-7.366-7.05c-3.055-3.778-6.111-7.555-9.166-11.333
	c-0.112-0.096-0.223-0.193-0.335-0.289c-6.697,4.74-13.817,8.868-21.271,12.298c-0.787,0.362-1.504-0.798-0.706-1.165
	c7.328-3.372,14.326-7.418,20.913-12.052c-3.612-3.12-7.223-6.24-10.835-9.36c-2.539-2.194-5.141-4.465-6.679-7.449
	C1028.734,396.692,1028.494,392.783,1030.581,390.149z"/><path fill="#D39EFF" d="M1063.983,747.574c2.81,0.753,5.969-0.568,7.918-2.862c1.948-2.294,2.789-5.404,2.781-8.402
	c-0.008-2.998-0.797-5.914-1.775-8.709c-1.618-4.627-3.881-9.162-7.283-12.528c7.102-0.098,14.198,0.37,21.208,1.392
	c0.637,0.093,1.273,0.198,1.909,0.299c-1.212,5.084-2.424,10.167-3.636,15.25c-0.809,3.391-1.624,6.884-1.148,10.302
	c0.476,3.419,2.557,6.792,5.807,7.663c2.81,0.753,5.969-0.568,7.918-2.863c1.949-2.294,2.789-5.404,2.781-8.401
	c-0.008-2.997-0.797-5.913-1.775-8.709c-1.669-4.772-4.023-9.45-7.608-12.844c7.735,1.379,15.336,3.426,22.699,6.117
	c-1.037,5.193-2.073,10.385-3.109,15.578c-0.682,3.417-1.366,6.935-0.762,10.329c0.604,3.394,2.811,6.678,6.096,7.42
	c2.839,0.641,5.95-0.802,7.814-3.169c1.864-2.367,2.587-5.504,2.467-8.495c-0.12-2.991-1.018-5.871-2.101-8.623
	c-1.734-4.406-4.066-8.708-7.413-11.904c5.278,2.073,10.425,4.474,15.396,7.206c1.472,0.809,2.921,1.656,4.359,2.522
	c-0.895,5.371-1.791,10.742-2.686,16.113c-0.573,3.435-1.144,6.971-0.431,10.339c0.713,3.368,3.027,6.573,6.336,7.204
	c2.861,0.544,5.927-1.001,7.715-3.427c1.789-2.426,2.413-5.583,2.196-8.565c-0.216-2.983-1.207-5.828-2.379-8.539
	c-1.674-3.875-3.825-7.645-6.72-10.601c4.768,3.118,9.331,6.554,13.653,10.291c1.652,4.955,3.304,9.911,4.955,14.867
	c1.084,3.252,2.216,6.592,4.418,9.159c2.203,2.568,5.759,4.213,9.008,3.143c2.809-0.925,4.83-3.758,5.301-6.731
	c0.471-2.972-0.439-6.009-2.017-8.485c-1.579-2.477-3.786-4.455-6.093-6.231c-4.251-3.272-9.128-6.014-14.44-6.607
	c-0.013-0.013-0.023-0.027-0.038-0.04c-4.593-3.986-9.46-7.632-14.553-10.921c4.229,0.914,8.766,0.606,13.104-0.2
	c2.893-0.537,5.796-1.299,8.379-2.785c2.584-1.485,4.842-3.767,5.847-6.613c1.005-2.846,0.569-6.264-1.478-8.345
	c-2.368-2.408-6.306-2.547-9.485-1.261c-3.179,1.286-5.779,3.737-8.295,6.132c-3.832,3.647-7.664,7.295-11.496,10.942
	c-6.353-3.831-13.026-7.121-19.931-9.838c4.579-0.064,9.183-1.566,13.436-3.545c2.694-1.253,5.342-2.724,7.503-4.809
	c2.162-2.085,3.813-4.854,4.103-7.845c0.291-2.991-0.963-6.167-3.464-7.647c-2.894-1.712-6.771-0.844-9.562,1.201
	c-2.792,2.046-4.735,5.063-6.611,8.006c-2.855,4.48-5.709,8.96-8.564,13.44c-0.219-0.08-0.437-0.165-0.657-0.244
	c-7.208-2.586-14.635-4.558-22.184-5.907c5.1-0.742,9.9-3.396,14.151-6.539c2.406-1.778,4.724-3.76,6.441-6.238
	c1.718-2.479,2.797-5.517,2.492-8.489c-0.305-2.972-2.168-5.803-4.925-6.724c-3.189-1.066-6.838,0.584-9.184,3.155
	c-2.345,2.57-3.665,5.911-4.93,9.165c-1.989,5.113-3.979,10.226-5.968,15.338c-0.106-0.018-0.212-0.033-0.317-0.05l-0.058-0.14
	c-0.01,0.042-0.02,0.084-0.03,0.126c-7.37-1.187-14.847-1.775-22.349-1.738c4.011-2.454,7.347-6.126,10.144-10.024
	c1.791-2.497,3.433-5.158,4.334-8.098c0.901-2.94,1.004-6.204-0.223-8.95c-1.226-2.745-3.929-4.841-6.908-4.814
	c-3.445,0.031-6.49,2.815-7.974,6.049c-1.485,3.235-1.727,6.869-1.945,10.401c-0.309,5.018-0.619,10.036-0.928,15.054
	c-0.035,0.149-0.071,0.298-0.106,0.447c-8.265,0.266-16.522,1.299-24.645,3.116c-0.858,0.192-0.771,1.595,0.099,1.4
	c7.986-1.786,16.094-2.811,24.208-3.096c-1.15,4.822-2.3,9.645-3.45,14.467c-0.808,3.391-1.623,6.884-1.147,10.302
	C1058.652,743.331,1060.733,746.704,1063.983,747.574z"/><path fill="#BF74FC" d="M1106.885,564.703l-9.972,14.958c0,0-1.262-4.177-2.64-9.285c-13.262,6.521-25.292,14.188-36.067,22.194
	c-0.406,0.309-0.812,0.62-1.218,0.93c-8.101,6.036-15.411,12.257-21.916,18.285c-0.215,0.211-0.394,0.36-0.609,0.572
	c-20.594,19.141-32.952,36.16-35.187,39.303c-0.242,0.326-0.357,0.512-0.357,0.512s0.187,0.115,0.549,0.295
	c6.164,3.274,64.553,33.109,130.802,29.304c0.265-0.012,0.529-0.02,0.843-0.043c9.514-0.562,19.173-1.853,28.841-3.999l1.059-0.253
	c0.516-0.07,1.071-0.203,1.575-0.323c18.407-4.39,35.325-11.674,50.508-20.199c-5.306-1.24-8.17-4.98-9.94-9.942
	c4.298,3.719,12.245,7.314,21.903,2.666c9.092-5.899,17.449-12.209,25.012-18.491c0.228-0.161,0.444-0.372,0.672-0.534
	c27.222-22.853,43.717-45.549,46.271-49.143c0.242-0.324,0.357-0.512,0.357-0.512s-0.187-0.114-0.55-0.296
	c-2.676-1.386-14.956-7.732-33.334-14.169c-0.288-0.092-0.576-0.183-0.877-0.325c-10.624-3.649-23.172-7.319-37.062-10.135
	c-0.451-0.106-0.98-0.086-1.433,0.022c-10.807,2.737-17.253,9.23-18.94,19.812c-2.834-7.638-2.789-15.27,2.11-22.887
	c-5.563-0.753-11.291-1.305-17.122-1.62c-0.327-0.029-0.592-0.02-0.918-0.048c-17.808-0.923-36.634,0.155-55.545,4.664
	C1124.372,558.242,1115.386,561.238,1106.885,564.703z M1272.35,598.106c-1.035-0.765-1.271-2.202-0.506-3.238
	c0.766-1.035,2.202-1.27,3.237-0.505c1.024,0.715,1.272,2.202,0.506,3.239C1274.822,598.636,1273.373,598.821,1272.35,598.106z
	 M1266.423,606.556c-1.966,0.469-3.966-0.761-4.434-2.727c-0.469-1.968,0.772-3.916,2.738-4.385c1.967-0.469,3.903,0.722,4.372,2.69
	C1269.568,604.099,1268.391,606.087,1266.423,606.556z M1192.941,645.292c-1.311,0.313-2.674-0.482-2.998-1.843
	c-0.325-1.362,0.532-2.685,1.844-2.998c1.361-0.325,2.724,0.47,3.048,1.832C1195.159,643.644,1194.302,644.967,1192.941,645.292z
	 M1184.909,657.654c-2.37,0.565-4.744-0.894-5.297-3.214c-0.565-2.37,0.895-4.743,3.265-5.308c2.32-0.553,4.693,0.906,5.258,3.275
	C1188.688,654.728,1187.228,657.101,1184.909,657.654z M1200.151,558.187c-0.656,0.156-1.332-0.216-1.488-0.871
	c-0.156-0.657,0.279-1.292,0.935-1.449c0.655-0.156,1.279,0.227,1.435,0.883C1201.19,557.405,1200.806,558.031,1200.151,558.187z
	 M1224.282,569.754c-1.512,0.361-3.012-0.56-3.373-2.074c-0.361-1.513,0.562-3.012,2.074-3.373c1.514-0.361,3.012,0.561,3.373,2.074
	C1226.717,567.895,1225.795,569.393,1224.282,569.754z M1216.418,573.654c-0.656,0.156-1.342-0.265-1.498-0.921
	c-0.144-0.604,0.278-1.292,0.933-1.448c0.656-0.156,1.292,0.279,1.437,0.883C1217.446,572.824,1217.074,573.498,1216.418,573.654z"/><path fill="#FFF" d="M1173.23,580.969l-8.46-17.596l-0.709,0.382l8.694,18.128l-17.647,32.615l-42.16,10.054l19.557-37.122
	l-0.675-0.373l-19.94,37.747l-73.076,17.426l19.391-49.661c-0.406,0.309-0.812,0.62-1.218,0.93l-12.315,31.506l-9.602-13.221
	c-0.215,0.211-0.394,0.36-0.609,0.572l9.848,13.588l-6.455,16.515l-39.033,9.308l0.193,0.808l56.736-13.53l21.009,14.124
	l0.474-0.698l-20.424-13.678l39.235-9.356l26.392,19.929c1.843,7.502,5.633,23.175,7.834,32.405c0.265-0.012,0.529-0.02,0.843-0.043
	c-2.333-9.784-6.376-26.514-7.629-31.546l36.47,27.546l1.059-0.253l-63.909-48.293l78.269-18.665l17.145,18.03l0.559-0.559
	l-16.797-17.688l33.185-7.914l40.606,28.799c0.228-0.161,0.444-0.372,0.672-0.534l-20.203-14.315
	c9.183-1.498,22.272-3.607,23.077-3.585l0.016-0.376l0.051-0.012l0.377,0.017l-0.135-0.342c-0.199-0.166-0.398-0.331-24.347,3.621
	l-19.056-13.525l86.49-20.625c0.242-0.324,0.357-0.512,0.357-0.512s-0.187-0.114-0.55-0.296l-67.881,16.188l34.547-30.357
	c-0.288-0.092-0.576-0.183-0.877-0.325l-35.385,31.09l-71.058,16.945l33.996-62.844c-0.327-0.029-0.592-0.02-0.918-0.048
	L1173.23,580.969z"/><path fill="#FCA1FF" d="M1050.598,483.708l2.335,17.825c0,0-3.699-2.314-8.098-5.254c-5.694,13.638-9.707,27.326-12.553,40.446
	c-0.102,0.5-0.204,1.001-0.305,1.502c-2.128,9.876-3.538,19.371-4.47,28.19c-0.023,0.301-0.059,0.53-0.082,0.831
	c-2.91,27.965-1.016,48.912-0.63,52.749c0.032,0.405,0.069,0.62,0.069,0.62s0.217-0.036,0.608-0.139
	c6.796-1.591,70.394-17.55,117.773-64.011c0.192-0.183,0.385-0.363,0.607-0.587c6.793-6.684,13.217-14.012,19.084-21.99l0.631-0.887
	c0.342-0.393,0.673-0.857,0.974-1.28c10.972-15.419,18.916-32.036,24.738-48.447c-4.811,2.559-9.428,1.627-14.027-0.945
	c5.684-0.028,14.033-2.55,18.247-12.406c2.964-10.425,5.104-20.675,6.665-30.382c0.066-0.271,0.089-0.573,0.155-0.844
	c5.458-35.121,2.943-63.065,2.501-67.452c-0.031-0.404-0.068-0.62-0.068-0.62s-0.216,0.037-0.609,0.139
	c-2.927,0.717-16.349,4.02-34.423,11.267c-0.277,0.121-0.554,0.241-0.874,0.332c-10.401,4.244-22.264,9.737-34.576,16.758
	c-0.409,0.217-0.794,0.58-1.065,0.96c-6.336,9.172-6.917,18.304-1.223,27.382c-7.16-3.886-12.148-9.662-13.473-18.622
	c-4.683,3.094-9.36,6.447-13.958,10.047c-0.265,0.193-0.458,0.374-0.723,0.568c-14.017,11.024-27.482,24.224-38.754,40.064
	C1059.513,467.336,1054.719,475.505,1050.598,483.708z M1197.168,399.973c-1.283,0.105-2.406-0.822-2.511-2.105
	c-0.104-1.284,0.822-2.406,2.105-2.511c1.241-0.135,2.406,0.821,2.512,2.106C1199.378,398.746,1198.409,399.838,1197.168,399.973z
	 M1198.266,410.236c-1.172,1.647-3.487,2.037-5.133,0.865c-1.648-1.173-1.996-3.457-0.824-5.104
	c1.173-1.648,3.414-2.025,5.062-0.852C1199.017,406.316,1199.439,408.588,1198.266,410.236z M1168.427,487.759
	c-0.782,1.098-2.33,1.397-3.471,0.585s-1.366-2.372-0.585-3.471c0.811-1.14,2.36-1.439,3.501-0.627
	C1169.013,485.058,1169.238,486.619,1168.427,487.759z M1170.514,502.352c-1.413,1.985-4.16,2.449-6.104,1.066
	c-1.985-1.413-2.447-4.16-1.035-6.145c1.382-1.943,4.13-2.406,6.115-0.994C1171.434,497.662,1171.896,500.409,1170.514,502.352z
	 M1116.536,417.427c-0.391,0.55-1.145,0.713-1.694,0.323c-0.55-0.391-0.641-1.156-0.249-1.706c0.39-0.548,1.112-0.671,1.662-0.279
	C1116.803,416.155,1116.926,416.879,1116.536,417.427z M1142.317,410.257c-0.901,1.266-2.637,1.56-3.904,0.658
	c-1.267-0.902-1.559-2.638-0.658-3.904c0.902-1.268,2.637-1.56,3.904-0.658C1142.927,407.255,1143.219,408.989,1142.317,410.257z
	 M1138.962,418.369c-0.391,0.549-1.184,0.684-1.734,0.292c-0.506-0.36-0.641-1.155-0.25-1.705c0.391-0.549,1.156-0.641,1.663-0.28
	C1139.19,417.068,1139.353,417.819,1138.962,418.369z"/><path fill="#FFF" d="M1111.257,452.296l-17.949-7.682l-0.282,0.754l18.475,7.928l8.176,36.171l-25.129,35.314l-9.703-40.821
	l-0.754,0.164l9.826,41.544l-43.556,61.21l-18.079-50.153c-0.102,0.5-0.204,1.001-0.305,1.502l11.46,31.826l-15.93-3.636
	c-0.023,0.301-0.059,0.53-0.082,0.831l16.357,3.75l6.008,16.683l-23.265,32.695l0.677,0.481l33.816-47.523l25.113-3.191
	l-0.103-0.837l-24.379,3.141l23.385-32.864l32.987-2.361c6.325,4.436,19.492,13.743,27.223,19.244
	c0.192-0.183,0.385-0.363,0.607-0.587c-8.195-5.831-22.249-15.768-26.503-18.732l45.588-3.258l0.631-0.887l-79.901,5.693
	l46.651-65.56l24.775,2.294l0.053-0.789l-24.287-2.265l19.779-27.796l49.526-5.037c0.066-0.271,0.089-0.573,0.155-0.844
	l-24.633,2.516c5.929-7.171,14.396-17.372,15.016-17.885l-0.235-0.294l0.031-0.043l0.295-0.235l-0.326-0.169
	c-0.259,0.006-0.518,0.013-15.949,18.748l-23.249,2.356l51.551-72.446c-0.031-0.404-0.068-0.62-0.068-0.62s-0.216,0.037-0.609,0.139
	l-40.459,56.859l6.036-45.592c-0.277,0.121-0.554,0.241-0.874,0.332l-6.184,46.695l-42.353,59.52l-15.757-69.69
	c-0.265,0.193-0.458,0.374-0.723,0.568L1111.257,452.296z"/><path fill="#907DF0" d="M1194.599,876.756H151.726c-3.975,0-7.197,3.221-7.197,7.196v26.025c0,9.002,7.298,16.3,16.3,16.3h1026.17
	c9.003,0,16.3-7.298,16.3-16.3v-24.52C1203.3,880.651,1199.404,876.756,1194.599,876.756z"/><path fill="#A9F" d="M1187.652,891.61H160.182c-8.459,0-18.277-6.831-15.01-10.545L290.01,716.377
	c1.391-1.583,3.753-2.457,6.636-2.457h754.468c2.883,0,5.247,0.874,6.637,2.457l144.904,164.689
	C1205.924,884.779,1196.111,891.61,1187.652,891.61z"/><path fill="#907DF0" d="M382.17,742.605h-36.807c-3.829,0-7.891,1.407-9.077,3.153l-9.494,13.983
	c-1.258,1.856,0.944,3.369,4.928,3.369h38.282c3.984,0,8.091-1.513,9.167-3.369l8.109-13.983
	C388.29,744.012,386.001,742.605,382.17,742.605z"/><path fill="#907DF0" d="M326.174,836.968h-43.591c-4.537,0-9.555,1.974-11.221,4.428l-13.412,19.759
	c-1.791,2.635,0.602,4.789,5.354,4.789h45.675c4.754,0,9.856-2.154,11.385-4.789l11.456-19.759
	C333.243,838.942,330.711,836.968,326.174,836.968z"/><path fill="#907DF0" d="M398.913,836.968h-43.59c-4.537,0-9.319,1.974-10.689,4.428l-11.042,19.759
	c-1.474,2.635,1.176,4.789,5.93,4.789h45.674c4.755,0,9.598-2.154,10.811-4.789l9.087-19.759
	C406.22,838.942,403.451,836.968,398.913,836.968z"/><path fill="#907DF0" d="M809.912,836.968h-43.59c-4.537,0-7.979,1.974-7.688,4.428l2.351,19.759
	c0.313,2.635,4.423,4.789,9.176,4.789h45.673c4.755,0,8.14-2.154,7.563-4.789l-4.304-19.759
	C818.557,838.942,814.448,836.968,809.912,836.968z"/><path fill="#907DF0" d="M884.639,836.968h-43.59c-4.538,0-7.736,1.974-7.142,4.428l4.786,19.759
	c0.639,2.635,5.013,4.789,9.767,4.789h45.673c4.754,0,7.874-2.154,6.972-4.789l-6.74-19.759
	C893.528,838.942,889.176,836.968,884.639,836.968z"/><path fill="#907DF0" d="M959.367,836.968h-43.592c-4.537,0-7.493,1.974-6.594,4.428l7.218,19.759
	c0.964,2.635,5.605,4.789,10.361,4.789h45.673c4.752,0,7.606-2.154,6.382-4.789l-9.175-19.759
	C968.497,838.942,963.903,836.968,959.367,836.968z"/><path fill="#907DF0" d="M1081.18,836.968h-84.799c-8.826,0-15.023,1.974-13.832,4.428l9.595,19.759
	c1.279,2.635,9.821,4.789,19.069,4.789h88.852c9.25,0,15.285-2.154,13.497-4.789l-13.397-19.759
	C1098.5,838.942,1090.007,836.968,1081.18,836.968z"/><path fill="#907DF0" d="M449.296,742.605h-36.807c-3.831,0-7.707,1.407-8.665,3.153l-7.659,13.983
	c-1.017,1.856,1.383,3.369,5.369,3.369h38.28c3.984,0,7.894-1.513,8.726-3.369l6.276-13.983
	C455.6,744.012,453.127,742.605,449.296,742.605z"/><path fill="#907DF0" d="M455.633,768.301h-39.062c-4.066,0-8.165,1.584-9.163,3.552l-8.008,15.785
	c-1.065,2.099,1.502,3.812,5.742,3.812h40.719c4.238,0,8.371-1.713,9.23-3.812l6.451-15.785
	C462.347,769.885,459.699,768.301,455.633,768.301z"/><path fill="#907DF0" d="M527.583,768.301h-39.061c-4.066,0-7.958,1.584-8.696,3.552l-5.926,15.785
	c-0.787,2.099,2.005,3.812,6.244,3.812h40.719c4.238,0,8.148-1.713,8.727-3.812l4.37-15.785
	C534.505,769.885,531.65,768.301,527.583,768.301z"/><path fill="#907DF0" d="M599.533,768.301h-39.063c-4.065,0-7.746,1.584-8.225,3.552l-3.846,15.785
	c-0.51,2.099,2.509,3.812,6.746,3.812h40.72c4.238,0,7.921-1.713,8.225-3.812l2.288-15.785
	C606.665,769.885,603.599,768.301,599.533,768.301z"/><path fill="#907DF0" d="M671.483,768.301H632.42c-4.064,0-7.537,1.584-7.756,3.552l-1.764,15.785
	c-0.234,2.099,3.009,3.812,7.247,3.812h40.72c4.238,0,7.697-1.713,7.724-3.812l0.206-15.785
	C678.822,769.885,675.549,768.301,671.483,768.301z"/><path fill="#907DF0" d="M743.431,768.301h-39.06c-4.066,0-7.33,1.584-7.29,3.552l0.317,15.785c0.043,2.099,3.513,3.812,7.751,3.812
	h40.721c4.237,0,7.469-1.713,7.219-3.812l-1.875-15.785C750.982,769.885,747.498,768.301,743.431,768.301z"/><path fill="#907DF0" d="M815.384,768.301h-39.063c-4.067,0-7.12,1.584-6.823,3.552l2.401,15.785c0.32,2.099,4.017,3.812,8.252,3.812
	h40.721c4.237,0,7.243-1.713,6.719-3.812l-3.958-15.785C823.141,769.885,819.449,768.301,815.384,768.301z"/><path fill="#907DF0" d="M887.333,768.301H848.27c-4.065,0-6.912,1.584-6.352,3.552l4.481,15.785
	c0.597,2.099,4.519,3.812,8.756,3.812h40.718c4.24,0,7.022-1.713,6.218-3.812l-6.039-15.785
	C895.299,769.885,891.396,768.301,887.333,768.301z"/><path fill="#907DF0" d="M959.281,768.301h-39.063c-4.066,0-6.7,1.584-5.882,3.552l6.564,15.785c0.872,2.099,5.02,3.812,9.259,3.812
	h40.716c4.239,0,6.793-1.713,5.716-3.812l-8.121-15.785C967.459,769.885,963.347,768.301,959.281,768.301z"/><path fill="#907DF0" d="M468.624,801.595h-41.046c-4.273,0-8.552,1.75-9.567,3.924l-8.142,17.473
	c-1.086,2.325,1.648,4.226,6.111,4.226h42.89c4.464,0,8.78-1.9,9.633-4.226l6.414-17.473
	C475.717,803.345,472.896,801.595,468.624,801.595z"/><path fill="#907DF0" d="M538.618,801.595h-41.049c-4.271,0-8.337,1.75-9.084,3.924l-6.002,17.473
	c-0.799,2.325,2.166,4.226,6.63,4.226h42.89c4.465,0,8.548-1.9,9.118-4.226l4.272-17.473
	C545.925,803.345,542.89,801.595,538.618,801.595z"/><path fill="#907DF0" d="M608.61,801.595h-41.046c-4.273,0-8.122,1.75-8.603,3.924l-3.862,17.473
	c-0.513,2.325,2.686,4.226,7.151,4.226h42.889c4.464,0,8.314-1.9,8.597-4.226l2.131-17.473
	C616.133,803.345,612.883,801.595,608.61,801.595z"/><path fill="#907DF0" d="M678.604,801.595h-41.047c-4.274,0-7.909,1.75-8.122,3.924l-1.719,17.473
	c-0.23,2.325,3.204,4.226,7.667,4.226h42.888c4.464,0,8.082-1.9,8.081-4.226l-0.011-17.473
	C686.339,803.345,682.877,801.595,678.604,801.595z"/><path fill="#907DF0" d="M748.595,801.595h-41.046c-4.273,0-7.693,1.75-7.641,3.924l0.424,17.473c0.056,2.325,3.72,4.226,8.184,4.226
	h42.888c4.465,0,7.849-1.9,7.561-4.226l-2.152-17.473C756.546,803.345,752.868,801.595,748.595,801.595z"/><path fill="#907DF0" d="M818.589,801.595H777.54c-4.27,0-7.478,1.75-7.157,3.924l2.563,17.473c0.343,2.325,4.24,4.226,8.704,4.226
	h42.89c4.464,0,7.615-1.9,7.044-4.226l-4.294-17.473C826.755,803.345,822.862,801.595,818.589,801.595z"/><path fill="#907DF0" d="M888.581,801.595h-41.047c-4.273,0-7.264,1.75-6.678,3.924l4.708,17.473
	c0.626,2.325,4.756,4.226,9.219,4.226h42.89c4.464,0,7.383-1.9,6.527-4.226l-6.436-17.473
	C896.962,803.345,892.855,801.595,888.581,801.595z"/><path fill="#907DF0" d="M958.575,801.595h-41.048c-4.271,0-7.048,1.75-6.196,3.924l6.847,17.473c0.912,2.325,5.276,4.226,9.74,4.226
	h42.89c4.464,0,7.149-1.9,6.006-4.226l-8.576-17.473C967.171,803.345,962.847,801.595,958.575,801.595z"/><path fill="#907DF0" d="M516.419,742.605h-36.805c-3.832,0-7.523,1.407-8.251,3.153l-5.826,13.983
	c-0.773,1.856,1.825,3.369,5.809,3.369h38.282c3.983,0,7.694-1.513,8.284-3.369l4.442-13.983
	C522.91,744.012,520.251,742.605,516.419,742.605z"/><path fill="#907DF0" d="M583.545,742.605h-36.807c-3.829,0-7.338,1.407-7.837,3.153l-3.992,13.983
	c-0.529,1.856,2.269,3.369,6.253,3.369h38.282c3.984,0,7.496-1.513,7.842-3.369l2.607-13.983
	C590.218,744.012,587.376,742.605,583.545,742.605z"/><path fill="#907DF0" d="M650.671,742.605h-36.807c-3.831,0-7.154,1.407-7.423,3.153l-2.16,13.983
	c-0.285,1.856,2.71,3.369,6.695,3.369h38.281c3.984,0,7.298-1.513,7.402-3.369l0.775-13.983
	C657.528,744.012,654.501,742.605,650.671,742.605z"/><path fill="#907DF0" d="M717.794,742.605h-36.805c-3.833,0-6.97,1.407-7.01,3.153l-0.327,13.983
	c-0.044,1.856,3.152,3.369,7.136,3.369h38.282c3.984,0,7.099-1.513,6.958-3.369l-1.059-13.983
	C724.839,744.012,721.626,742.605,717.794,742.605z"/><path fill="#907DF0" d="M784.92,742.605h-36.806c-3.832,0-6.784,1.407-6.597,3.153l1.508,13.983c0.2,1.856,3.593,3.369,7.578,3.369
	h38.281c3.984,0,6.901-1.513,6.517-3.369l-2.892-13.983C792.147,744.012,788.752,742.605,784.92,742.605z"/><path fill="#907DF0" d="M852.045,742.605h-36.807c-3.831,0-6.6,1.407-6.182,3.153l3.34,13.983c0.443,1.856,4.036,3.369,8.019,3.369
	h38.282c3.984,0,6.702-1.513,6.073-3.369l-4.725-13.983C859.456,744.012,855.876,742.605,852.045,742.605z"/><path fill="#907DF0" d="M919.171,742.605h-36.807c-3.831,0-6.416,1.407-5.771,3.153l5.175,13.983
	c0.688,1.856,4.476,3.369,8.462,3.369h38.28c3.984,0,6.504-1.513,5.634-3.369l-6.559-13.983
	C926.766,744.012,923,742.605,919.171,742.605z"/><path fill="#907DF0" d="M1020.056,742.605h-69.591c-7.245,0-12.426,1.407-11.567,3.153l6.865,13.983
	c0.911,1.856,7.762,3.369,15.294,3.369h72.379c7.534,0,12.614-1.513,11.357-3.369l-9.484-13.983
	C1034.125,744.012,1027.3,742.605,1020.056,742.605z"/><path fill="#907DF0" d="M1060.545,801.595h-67.009c-6.975,0-11.722,1.75-10.6,3.924l9.026,17.473
	c1.2,2.325,8.091,4.226,15.376,4.226h70.015c7.289,0,11.907-1.9,10.328-4.226l-11.847-17.473
	C1074.359,803.345,1067.519,801.595,1060.545,801.595z"/><path fill="#907DF0" d="M1044.499,768.301h-52.772c-5.494,0-9.087,1.584-8.02,3.552l8.559,15.785
	c1.137,2.099,6.706,3.812,12.432,3.812h55.012c5.726,0,9.21-1.713,7.795-3.812l-10.66-15.785
	C1055.514,769.885,1049.99,768.301,1044.499,768.301z"/><path fill="#907DF0" d="M392.362,768.415H323.34c-3.47,0-7.52,1.831-9.06,4.109l-9.738,14.403c-1.634,2.42-0.043,4.399,3.573,4.399
	h71.92c3.613,0,7.584-1.979,8.859-4.399l7.582-14.403C397.677,770.246,395.831,768.415,392.362,768.415z"/><path fill="#907DF0" d="M400.354,800.793h-92.968c-4.672,0-9.829,2.019-11.534,4.526l-10.785,15.888
	c-1.814,2.676,0.657,4.862,5.535,4.862h97.092c4.878,0,9.896-2.186,11.195-4.862l7.725-15.888
	C407.833,802.812,405.028,800.793,400.354,800.793z"/><path fill="#907DF0" d="M727.368,836.968H443.829c-5.781,0-11.516,2.519-12.824,5.654l-7.177,17.233
	c-1.397,3.349,2.371,6.09,8.428,6.09h297.088c6.058,0,10.734-2.742,10.447-6.09l-1.474-17.233
	C738.049,839.487,733.148,836.968,727.368,836.968z"/><path fill="#FFF" d="M376.957,734.4h-37.024c-3.854,0-7.933,1.423-9.121,3.191l-9.491,14.149
	c-1.26,1.877,0.961,3.407,4.969,3.407h38.505c4.007,0,8.134-1.531,9.209-3.407l8.104-14.149
	C383.119,735.823,380.813,734.4,376.957,734.4z"/><path fill="#FFF" d="M321.01,829.848h-43.832c-4.562,0-9.6,1.997-11.265,4.479l-13.402,19.974
	c-1.787,2.665,0.628,4.843,5.406,4.843h45.921c4.781,0,9.901-2.178,11.427-4.843l11.44-19.974
	C328.126,831.845,325.572,829.848,321.01,829.848z"/><path fill="#FFF" d="M394.152,829.848h-43.831c-4.563,0-9.363,1.997-10.732,4.479l-11.024,19.974
	c-1.471,2.665,1.202,4.843,5.982,4.843h45.92c4.781,0,9.643-2.178,10.85-4.843l9.063-19.974
	C401.506,831.845,398.714,829.848,394.152,829.848z"/><path fill="#FFF" d="M807.428,829.848h-43.833c-4.562,0-8.02,1.997-7.721,4.479l2.405,19.974
	c0.322,2.665,4.458,4.843,9.237,4.843h45.921c4.781,0,8.177-2.178,7.596-4.843l-4.368-19.974
	C816.124,831.845,811.989,829.848,807.428,829.848z"/><path fill="#FFF" d="M882.567,829.848h-43.831c-4.562,0-7.776,1.997-7.174,4.479l4.848,19.974
	c0.646,2.665,5.051,4.843,9.829,4.843h45.92c4.781,0,7.912-2.178,7.004-4.843l-6.807-19.974
	C891.508,831.845,887.131,829.848,882.567,829.848z"/><path fill="#FFF" d="M957.709,829.848h-43.832c-4.562,0-7.531,1.997-6.627,4.479l7.289,19.974
	c0.974,2.665,5.643,4.843,10.422,4.843h45.92c4.778,0,7.646-2.178,6.412-4.843l-9.251-19.974
	C966.895,831.845,962.271,829.848,957.709,829.848z"/><path fill="#FFF" d="M1080.198,829.848h-85.27c-8.874,0-15.103,1.997-13.902,4.479l9.67,19.974
	c1.289,2.665,9.881,4.843,19.18,4.843h89.332c9.298,0,15.365-2.178,13.566-4.843l-13.483-19.974
	C1097.615,831.845,1089.072,829.848,1080.198,829.848z"/><path fill="#FFF" d="M444.481,734.4h-37.026c-3.853,0-7.747,1.423-8.703,3.191l-7.652,14.149
	c-1.017,1.877,1.403,3.407,5.41,3.407h38.506c4.007,0,7.933-1.531,8.765-3.407l6.265-14.149
	C450.829,735.823,448.336,734.4,444.481,734.4z"/><path fill="#FFF" d="M454.518,760.747h-39.281c-4.089,0-8.209,1.602-9.211,3.595l-8.034,15.959
	c-1.07,2.122,1.515,3.853,5.775,3.853h40.944c4.261,0,8.416-1.731,9.276-3.853l6.476-15.959
	C461.269,762.349,458.606,760.747,454.518,760.747z"/><path fill="#FFF" d="M526.868,760.747h-39.279c-4.088,0-8,1.602-8.742,3.595l-5.946,15.959c-0.789,2.122,2.019,3.853,6.28,3.853
	h40.942c4.262,0,8.192-1.731,8.774-3.853l4.387-15.959C533.831,762.349,530.956,760.747,526.868,760.747z"/><path fill="#FFF" d="M599.219,760.747h-39.279c-4.089,0-7.791,1.602-8.272,3.595l-3.858,15.959
	c-0.514,2.122,2.522,3.853,6.785,3.853h40.942c4.26,0,7.965-1.731,8.269-3.853l2.298-15.959
	C606.391,762.349,603.308,760.747,599.219,760.747z"/><path fill="#FFF" d="M671.57,760.747h-39.279c-4.088,0-7.579,1.602-7.8,3.595l-1.77,15.959c-0.237,2.122,3.027,3.853,7.286,3.853
	h40.943c4.262,0,7.738-1.731,7.767-3.853l0.209-15.959C678.954,762.349,675.659,760.747,671.57,760.747z"/><path fill="#FFF" d="M743.924,760.747h-39.281c-4.089,0-7.37,1.602-7.331,3.595l0.318,15.959
	c0.044,2.122,3.532,3.853,7.792,3.853h40.943c4.262,0,7.512-1.731,7.263-3.853l-1.879-15.959
	C751.513,762.349,748.011,760.747,743.924,760.747z"/><path fill="#FFF" d="M816.273,760.747h-39.28c-4.087,0-7.161,1.602-6.86,3.595l2.406,15.959c0.32,2.122,4.035,3.853,8.297,3.853
	h40.943c4.262,0,7.285-1.731,6.758-3.853l-3.97-15.959C824.074,762.349,820.362,760.747,816.273,760.747z"/><path fill="#FFF" d="M888.624,760.747h-39.281c-4.087,0-6.949,1.602-6.388,3.595l4.494,15.959
	c0.598,2.122,4.539,3.853,8.802,3.853h40.941c4.26,0,7.059-1.731,6.254-3.853l-6.054-15.959
	C896.634,762.349,892.713,760.747,888.624,760.747z"/><path fill="#FFF" d="M960.975,760.747h-39.278c-4.089,0-6.743,1.602-5.922,3.595l6.584,15.959
	c0.873,2.122,5.042,3.853,9.305,3.853h40.942c4.262,0,6.832-1.731,5.75-3.853l-8.144-15.959
	C969.195,762.349,965.064,760.747,960.975,760.747z"/><path fill="#FFF" d="M464.128,794.076h-41.282c-4.297,0-8.594,1.77-9.604,3.97l-8.127,17.669
	c-1.081,2.353,1.673,4.273,6.161,4.273h43.13c4.488,0,8.823-1.919,9.674-4.273l6.391-17.669
	C471.268,795.846,468.424,794.076,464.128,794.076z"/><path fill="#FFF" d="M534.52,794.076h-41.283c-4.295,0-8.377,1.77-9.122,3.97l-5.977,17.669
	c-0.796,2.353,2.194,4.273,6.682,4.273h43.131c4.487,0,8.586-1.919,9.152-4.273l4.244-17.669
	C541.873,795.846,538.816,794.076,534.52,794.076z"/><path fill="#FFF" d="M604.911,794.076H563.63c-4.298,0-8.164,1.77-8.639,3.97l-3.829,17.669
	c-0.509,2.353,2.711,4.273,7.201,4.273h43.129c4.488,0,8.357-1.919,8.634-4.273l2.095-17.669
	C612.481,795.846,609.206,794.076,604.911,794.076z"/><path fill="#FFF" d="M675.301,794.076h-41.28c-4.296,0-7.947,1.77-8.157,3.97l-1.681,17.669
	c-0.222,2.353,3.233,4.273,7.722,4.273h43.129c4.489,0,8.122-1.919,8.114-4.273l-0.054-17.669
	C683.088,795.846,679.599,794.076,675.301,794.076z"/><path fill="#FFF" d="M745.693,794.076h-41.282c-4.295,0-7.73,1.77-7.673,3.97l0.468,17.669c0.061,2.353,3.752,4.273,8.24,4.273
	h43.13c4.49,0,7.887-1.919,7.594-4.273l-2.203-17.669C753.694,795.846,749.991,794.076,745.693,794.076z"/><path fill="#FFF" d="M816.086,794.076h-41.283c-4.296,0-7.518,1.77-7.192,3.97l2.617,17.669c0.348,2.353,4.272,4.273,8.759,4.273
	h43.131c4.488,0,7.655-1.919,7.074-4.273l-4.351-17.669C824.301,795.846,820.382,794.076,816.086,794.076z"/><path fill="#FFF" d="M886.477,794.076h-41.28c-4.298,0-7.304,1.77-6.711,3.97l4.764,17.669c0.635,2.353,4.793,4.273,9.281,4.273
	h43.129c4.489,0,7.422-1.919,6.556-4.273l-6.5-17.669C894.906,795.846,890.773,794.076,886.477,794.076z"/><path fill="#FFF" d="M956.867,794.076h-41.281c-4.294,0-7.088,1.77-6.226,3.97l6.913,17.669c0.921,2.353,5.311,4.273,9.798,4.273
	h43.13c4.488,0,7.186-1.919,6.037-4.273l-8.649-17.669C965.514,795.846,961.164,794.076,956.867,794.076z"/><path fill="#FFF" d="M512.005,734.4h-37.024c-3.855,0-7.563,1.423-8.29,3.191l-5.811,14.149
	c-0.772,1.877,1.846,3.407,5.856,3.407h38.505c4.008,0,7.735-1.531,8.322-3.407l4.424-14.149
	C518.539,735.823,515.859,734.4,512.005,734.4z"/><path fill="#FFF" d="M579.53,734.4h-37.026c-3.854,0-7.377,1.423-7.873,3.191l-3.974,14.149
	c-0.525,1.877,2.292,3.407,6.299,3.407h38.506c4.008,0,7.537-1.531,7.879-3.407l2.583-14.149
	C586.248,735.823,583.385,734.4,579.53,734.4z"/><path fill="#FFF" d="M647.054,734.4h-37.026c-3.853,0-7.191,1.423-7.459,3.191l-2.133,14.149
	c-0.284,1.877,2.735,3.407,6.744,3.407h38.506c4.005,0,7.334-1.531,7.433-3.407l0.744-14.149
	C653.959,735.823,650.907,734.4,647.054,734.4z"/><path fill="#FFF" d="M714.579,734.4h-37.025c-3.854,0-7.009,1.423-7.044,3.191l-0.295,14.149
	c-0.038,1.877,3.18,3.407,7.187,3.407h38.506c4.007,0,7.137-1.531,6.992-3.407l-1.097-14.149
	C721.666,735.823,718.434,734.4,714.579,734.4z"/><path fill="#FFF" d="M782.102,734.4h-37.026c-3.852,0-6.822,1.423-6.627,3.191l1.547,14.149c0.206,1.877,3.622,3.407,7.63,3.407
	h38.505c4.007,0,6.937-1.531,6.547-3.407l-2.937-14.149C789.376,735.823,785.957,734.4,782.102,734.4z"/><path fill="#FFF" d="M849.627,734.4h-37.027c-3.853,0-6.635,1.423-6.212,3.191l3.389,14.149c0.448,1.877,4.063,3.407,8.071,3.407
	h38.506c4.007,0,6.739-1.531,6.105-3.407l-4.777-14.149C857.086,735.823,853.479,734.4,849.627,734.4z"/><path fill="#FFF" d="M917.151,734.4h-37.025c-3.854,0-6.453,1.423-5.798,3.191l5.228,14.149c0.693,1.877,4.508,3.407,8.515,3.407
	h38.506c4.007,0,6.539-1.531,5.662-3.407l-6.618-14.149C924.794,735.823,921.006,734.4,917.151,734.4z"/><path fill="#FFF" d="M1018.637,734.4h-70.007c-7.285,0-12.495,1.423-11.629,3.191l6.926,14.149
	c0.917,1.877,7.81,3.407,15.387,3.407h72.804c7.577,0,12.687-1.531,11.418-3.407l-9.553-14.149
	C1032.792,735.823,1025.924,734.4,1018.637,734.4z"/><path fill="#FFF" d="M1059.418,794.076h-67.389c-7.015,0-11.789,1.77-10.657,3.97l9.096,17.669
	c1.212,2.353,8.141,4.273,15.468,4.273h70.406c7.328,0,11.971-1.919,10.383-4.273l-11.928-17.669
	C1073.313,795.846,1066.431,794.076,1059.418,794.076z"/><path fill="#FFF" d="M1040.255,760.747h-47.567c-4.95,0-8.16,1.602-7.163,3.595l7.997,15.959
	c1.063,2.122,6.113,3.853,11.273,3.853h49.581c5.161,0,8.27-1.731,6.956-3.853l-9.887-15.959
	C1050.211,762.349,1045.205,760.747,1040.255,760.747z"/><path fill="#FFF" d="M390.893,760.864h-69.407c-3.487,0-7.56,1.854-9.106,4.158l-9.769,14.562
	c-1.642,2.447-0.036,4.445,3.598,4.445h72.314c3.635,0,7.625-1.998,8.903-4.445l7.61-14.562
	C396.242,762.718,394.383,760.864,390.893,760.864z"/><path fill="#FFF" d="M395.467,793.266h-93.499c-4.699,0-9.878,2.041-11.581,4.579l-10.78,16.069
	c-1.813,2.705,0.682,4.915,5.588,4.915h97.633c4.906,0,9.943-2.21,11.241-4.915l7.709-16.069
	C402.996,795.307,400.167,793.266,395.467,793.266z"/><path fill="#FFF" d="M724.427,829.848h-285.11c-5.813,0-11.571,2.546-12.873,5.718l-7.157,17.422
	c-1.391,3.385,2.409,6.157,8.497,6.157H726.48c6.091,0,10.786-2.772,10.491-6.157l-1.522-17.422
	C735.173,832.395,730.238,829.848,724.427,829.848z"/><path fill="#B5BDFF" d="M1037.866,241.99v434.484c0,6.589-5.224,11.93-11.683,11.93H321.544c-6.459,0-11.698-5.341-11.698-11.93
	V241.99c0-6.589,5.239-11.93,11.698-11.93h704.639C1032.642,230.06,1037.866,235.401,1037.866,241.99z"/><path fill="#FFF" d="M1037.866,241.99v434.484c0,6.589-5.224,11.93-11.683,11.93H321.544c-6.459,0-11.698-5.341-11.698-11.93
	V241.99c0-6.589,5.239-11.93,11.698-11.93h704.639C1032.642,230.06,1037.866,235.401,1037.866,241.99z"/><path fill="#999" d="M660.965,210.503c0-7.623,6.179-13.802,13.8-13.802c7.623,0,13.802,6.179,13.802,13.802
	c0,7.623-6.18,13.801-13.802,13.801C667.145,224.304,660.965,218.126,660.965,210.503z"/><path fill="#907DF0" d="M1052.833,720.09H296.699c-4.716,0-8.54-3.823-8.54-8.54l0,0c0-4.716,3.824-8.541,8.54-8.541h756.135
	c4.716,0,8.538,3.825,8.538,8.541l0,0C1061.372,716.267,1057.549,720.09,1052.833,720.09z"/><path fill="#A9F" d="M1046.952,189.148H298.453c-6.153,0-11.146,4.992-11.146,11.147v491.562c0,6.153,4.992,11.146,11.146,11.146
	h748.498c6.152,0,11.145-4.992,11.145-11.146V200.295C1058.097,194.141,1053.104,189.148,1046.952,189.148z M1037.866,676.474
	c0,6.589-5.224,11.93-11.683,11.93H321.544c-6.459,0-11.698-5.341-11.698-11.93V241.99c0-6.589,5.239-11.93,11.698-11.93h704.639
	c6.459,0,11.683,5.341,11.683,11.93V676.474z"/><path fill="#FFF" d="M705.266,210.503c0,7.828-6.35,14.188-14.189,14.188c-7.84,0-14.189-6.36-14.189-14.188
	c0-7.84,6.349-14.19,14.189-14.19C698.916,196.313,705.266,202.663,705.266,210.503z"/><path fill="#A9F" d="M680.994,210.499c0-5.569,4.514-10.083,10.082-10.083c5.568,0,10.083,4.514,10.083,10.083
	c0,5.568-4.514,10.081-10.083,10.081C685.508,220.58,680.994,216.067,680.994,210.499z"/><path fill="#FFF" d="M686.273,206.557c0-1.326,1.075-2.401,2.401-2.401c1.326,0,2.402,1.075,2.402,2.401
	c0,1.325-1.076,2.401-2.402,2.401C687.348,208.958,686.273,207.882,686.273,206.557z"/><path fill="#907AFF" d="M518.98,517.941h-92.659v-41.834l92.659-110.142h44.332V478.48h22.977v39.461h-22.977v34.216H518.98V517.941
	z M518.98,478.48v-57.613l-48.96,57.613H518.98z"/><path fill="#907AFF" d="M602.149,459.873c0-34.798,6.263-59.149,18.794-73.053c12.529-13.903,31.614-20.855,57.257-20.855
	c12.32,0,22.435,1.52,30.345,4.558c7.908,3.04,14.361,6.993,19.356,11.864c4.995,4.87,8.929,9.99,11.801,15.359
	c2.872,5.37,5.182,11.635,6.931,18.794c3.413,13.654,5.12,27.891,5.12,42.708c0,33.218-5.619,57.528-16.858,72.929
	c-11.239,15.403-30.595,23.102-58.068,23.102c-15.403,0-27.848-2.457-37.338-7.368c-9.491-4.911-17.276-12.113-23.352-21.604
	c-4.414-6.743-7.848-15.962-10.302-27.66C603.376,486.952,602.149,474.027,602.149,459.873z M652.599,459.998
	c0,23.311,2.06,39.233,6.182,47.765c4.121,8.534,10.094,12.8,17.92,12.8c5.161,0,9.635-1.811,13.424-5.432
	c3.787-3.622,6.575-9.345,8.367-17.171c1.789-7.824,2.685-20.021,2.685-36.589c0-24.308-2.06-40.648-6.182-49.015
	c-4.121-8.366-10.302-12.55-18.544-12.55c-8.41,0-14.486,4.267-18.232,12.8C654.472,421.142,652.599,436.938,652.599,459.998z"/><path fill="#907AFF" d="M860.145,517.941h-92.659v-41.834l92.659-110.142h44.332V478.48h22.977v39.461h-22.977v34.216h-44.332
	V517.941z M860.145,478.48v-57.613l-48.96,57.613H860.145z"/><path fill="#907AFF" d="M591.423,314.288c0-6.544,1.823-11.639,5.468-15.285c3.646-3.646,8.722-5.468,15.23-5.468
	c6.671,0,11.812,1.79,15.421,5.373c3.609,3.582,5.414,8.599,5.414,15.052c0,4.685-0.789,8.526-2.365,11.525
	c-1.577,2.999-3.855,5.332-6.835,7c-2.981,1.668-6.695,2.502-11.143,2.502c-4.521,0-8.262-0.72-11.224-2.161
	c-2.963-1.439-5.364-3.719-7.205-6.835C592.342,322.873,591.423,318.973,591.423,314.288z M603.809,314.342
	c0,4.047,0.752,6.955,2.255,8.723c1.505,1.768,3.55,2.652,6.138,2.652c2.662,0,4.721-0.865,6.179-2.598
	c1.459-1.731,2.188-4.839,2.188-9.324c0-3.773-0.761-6.53-2.283-8.271c-1.522-1.74-3.586-2.611-6.193-2.611
	c-2.497,0-4.502,0.884-6.015,2.652C604.564,307.333,603.809,310.259,603.809,314.342z"/><path fill="#907AFF" d="M637.522,319.866c0-4.43,1.494-8.08,4.484-10.952c2.989-2.871,7.028-4.306,12.113-4.306
	c5.815,0,10.208,1.686,13.18,5.059c2.387,2.716,3.582,6.061,3.582,10.035c0,4.466-1.481,8.126-4.443,10.978
	c-2.963,2.853-7.059,4.279-12.291,4.279c-4.666,0-8.44-1.184-11.32-3.555C639.289,328.469,637.522,324.623,637.522,319.866z
	 M648.678,319.838c0,2.588,0.524,4.503,1.572,5.742c1.048,1.24,2.365,1.859,3.951,1.859c1.604,0,2.921-0.611,3.951-1.832
	c1.029-1.22,1.545-3.181,1.545-5.878c0-2.515-0.52-4.388-1.559-5.619c-1.039-1.231-2.324-1.846-3.855-1.846
	c-1.622,0-2.962,0.625-4.02,1.874C649.206,315.386,648.678,317.286,648.678,319.838z"/><path fill="#907AFF" d="M676.295,345.348v-40.085h10.417v4.293c1.44-1.805,2.762-3.026,3.965-3.664
	c1.622-0.857,3.418-1.285,5.387-1.285c3.882,0,6.886,1.486,9.009,4.457c2.123,2.972,3.186,6.645,3.186,11.019
	c0,4.831-1.158,8.517-3.473,11.06c-2.316,2.543-5.241,3.815-8.777,3.815c-1.713,0-3.277-0.291-4.69-0.875
	c-1.413-0.583-2.675-1.449-3.787-2.597v13.862H676.295z M687.451,319.866c0,2.296,0.483,4.001,1.449,5.113
	c0.966,1.112,2.188,1.668,3.664,1.668c1.294,0,2.379-0.534,3.254-1.6c0.875-1.066,1.312-2.875,1.312-5.428
	c0-2.351-0.456-4.078-1.367-5.181c-0.911-1.104-2.023-1.655-3.336-1.655c-1.422,0-2.607,0.557-3.555,1.668
	C687.924,315.564,687.451,317.368,687.451,319.866z"/><path fill="#907AFF" d="M711.622,326.236l11.046-1.039c0.455,1.313,1.093,2.252,1.914,2.817c0.82,0.565,1.914,0.847,3.281,0.847
	c1.495,0,2.653-0.318,3.473-0.955c0.638-0.473,0.957-1.065,0.957-1.775c0-0.801-0.42-1.42-1.258-1.857
	c-0.601-0.309-2.197-0.691-4.785-1.146c-3.865-0.674-6.549-1.298-8.052-1.871c-1.504-0.573-2.771-1.543-3.801-2.909
	c-1.03-1.366-1.545-2.923-1.545-4.671c0-1.913,0.556-3.56,1.668-4.945c1.112-1.384,2.643-2.417,4.594-3.1
	c1.95-0.682,4.566-1.025,7.847-1.025c3.464,0,6.02,0.264,7.67,0.794c1.649,0.529,3.026,1.349,4.129,2.46
	c1.102,1.112,2.019,2.616,2.747,4.512l-10.554,1.039c-0.273-0.93-0.729-1.613-1.367-2.051c-0.874-0.583-1.932-0.875-3.171-0.875
	c-1.258,0-2.174,0.224-2.748,0.669c-0.574,0.446-0.861,0.987-0.861,1.625c0,0.71,0.365,1.246,1.093,1.61
	c0.73,0.364,2.316,0.691,4.758,0.983c3.7,0.419,6.453,1.001,8.257,1.749c1.804,0.746,3.185,1.812,4.142,3.195
	c0.957,1.385,1.436,2.905,1.436,4.562c0,1.675-0.506,3.306-1.517,4.889c-1.012,1.584-2.607,2.846-4.785,3.784
	c-2.178,0.937-5.145,1.406-8.9,1.406c-5.305,0-9.082-0.756-11.334-2.269C713.704,331.176,712.26,329.025,711.622,326.236z"/><path fill="#907AFF" d="M747.824,323.146h11.895v11.156h-11.895V323.146z"/><path fill="#907AFF" d="M766.471,323.146h11.895v11.156h-11.895V323.146z"/><path fill="#907AFF" d="M785.118,323.146h11.895v11.156h-11.895V323.146z"/><path fill="#907AFF" d="M409.193,581.108h23.6c5.14,0,8.989,1.222,11.549,3.667c2.559,2.445,3.839,5.923,3.839,10.436
	c0,4.638-1.395,8.264-4.184,10.875c-2.79,2.612-7.047,3.918-12.772,3.918h-7.772v17.049h-14.26V581.108z M423.454,600.696h3.479
	c2.737,0,4.659-0.475,5.767-1.426c1.107-0.95,1.661-2.166,1.661-3.65c0-1.442-0.481-2.664-1.442-3.667
	c-0.961-1.003-2.769-1.505-5.422-1.505h-4.043V600.696z"/><path fill="#907AFF" d="M465.293,604.551l-12.192-1.285c0.459-2.131,1.123-3.808,1.99-5.029c0.867-1.222,2.116-2.283,3.745-3.181
	c1.17-0.647,2.779-1.149,4.827-1.505c2.047-0.354,4.262-0.533,6.644-0.533c3.824,0,6.895,0.215,9.215,0.642
	c2.319,0.428,4.251,1.321,5.798,2.68c1.086,0.94,1.943,2.272,2.57,3.995c0.627,1.724,0.94,3.369,0.94,4.937v14.699
	c0,1.566,0.099,2.794,0.298,3.682c0.198,0.889,0.632,2.022,1.301,3.401h-11.972c-0.481-0.856-0.794-1.509-0.94-1.959
	c-0.146-0.448-0.293-1.154-0.439-2.116c-1.672,1.609-3.333,2.758-4.983,3.448c-2.257,0.92-4.879,1.379-7.867,1.379
	c-3.97,0-6.984-0.92-9.042-2.758c-2.058-1.839-3.087-4.105-3.087-6.801c0-2.528,0.741-4.608,2.225-6.238
	c1.483-1.63,4.221-2.84,8.212-3.635c4.784-0.961,7.887-1.635,9.308-2.022c1.421-0.387,2.925-0.893,4.513-1.52
	c0-1.567-0.324-2.664-0.972-3.291c-0.647-0.627-1.786-0.94-3.416-0.94c-2.09,0-3.656,0.335-4.701,1.003
	C466.453,602.128,465.795,603.109,465.293,604.551z M476.357,611.258c-1.755,0.627-3.583,1.182-5.485,1.661
	c-2.591,0.69-4.231,1.369-4.92,2.037c-0.711,0.69-1.066,1.473-1.066,2.351c0,1.003,0.35,1.823,1.05,2.461
	c0.7,0.638,1.729,0.956,3.087,0.956c1.42,0,2.742-0.345,3.964-1.034c1.222-0.69,2.089-1.531,2.601-2.523
	c0.512-0.992,0.768-2.282,0.768-3.871V611.258z"/><path fill="#907AFF" d="M520.673,593.77h11.941v31.435l0.031,1.473c0,2.089-0.444,4.08-1.332,5.97
	c-0.888,1.891-2.068,3.421-3.541,4.592c-1.473,1.171-3.343,2.016-5.61,2.539c-2.268,0.522-4.863,0.784-7.788,0.784
	c-6.686,0-11.278-1.003-13.774-3.009c-2.497-2.006-3.746-4.691-3.746-8.054c0-0.418,0.021-0.983,0.063-1.693l12.38,1.41
	c0.313,1.149,0.794,1.943,1.442,2.382c0.94,0.647,2.12,0.972,3.541,0.972c1.839,0,3.213-0.492,4.122-1.473
	c0.908-0.982,1.363-2.696,1.363-5.141v-5.045c-1.253,1.483-2.507,2.559-3.761,3.227c-1.964,1.045-4.085,1.567-6.362,1.567
	c-4.45,0-8.044-1.943-10.781-5.829c-1.943-2.758-2.914-6.404-2.914-10.938c0-5.181,1.253-9.131,3.761-11.847
	c2.507-2.716,5.787-4.075,9.841-4.075c2.591,0,4.727,0.439,6.409,1.316c1.682,0.878,3.254,2.33,4.717,4.357V593.77z
	 M508.669,609.911c0,2.403,0.512,4.183,1.536,5.343c1.024,1.16,2.371,1.74,4.043,1.74c1.588,0,2.92-0.6,3.996-1.802
	c1.075-1.201,1.614-3.014,1.614-5.437c0-2.424-0.564-4.279-1.692-5.564c-1.128-1.285-2.508-1.928-4.138-1.928
	c-1.629,0-2.93,0.591-3.902,1.771C509.155,605.214,508.669,607.173,508.669,609.911z"/><path fill="#907AFF" d="M577.274,613.577H551.7c0.23,2.048,0.784,3.573,1.661,4.576c1.233,1.442,2.842,2.163,4.827,2.163
	c1.254,0,2.445-0.313,3.573-0.94c0.69-0.397,1.431-1.097,2.225-2.1l12.568,1.16c-1.923,3.343-4.242,5.741-6.958,7.192
	c-2.716,1.453-6.613,2.179-11.69,2.179c-4.409,0-7.877-0.622-10.405-1.865c-2.528-1.243-4.623-3.218-6.284-5.923
	c-1.661-2.706-2.491-5.887-2.491-9.544c0-5.202,1.665-9.412,4.999-12.629c3.332-3.218,7.934-4.827,13.805-4.827
	c4.764,0,8.525,0.721,11.283,2.163c2.758,1.442,4.858,3.531,6.3,6.268c1.442,2.738,2.163,6.3,2.163,10.687V613.577z
	 M564.299,607.466c-0.251-2.465-0.914-4.231-1.99-5.297c-1.076-1.066-2.491-1.599-4.247-1.599c-2.027,0-3.646,0.805-4.858,2.413
	c-0.773,1.003-1.265,2.497-1.473,4.482H564.299z"/><path fill="#907AFF" d="M605.481,581.108h13.257l17.3,25.419v-25.419h13.382v45.946h-13.382l-17.206-25.227v25.227h-13.351V581.108z
	"/><path fill="#907AFF" d="M656.442,610.505c0-5.076,1.712-9.261,5.14-12.551c3.426-3.291,8.054-4.937,13.884-4.937
	c6.665,0,11.7,1.932,15.106,5.799c2.737,3.113,4.106,6.946,4.106,11.502c0,5.119-1.698,9.313-5.093,12.582
	c-3.396,3.271-8.092,4.905-14.088,4.905c-5.349,0-9.674-1.357-12.975-4.075C658.468,620.368,656.442,615.959,656.442,610.505z
	 M669.228,610.474c0,2.968,0.6,5.161,1.802,6.582c1.201,1.421,2.711,2.131,4.529,2.131c1.839,0,3.348-0.7,4.529-2.1
	c1.18-1.4,1.771-3.646,1.771-6.738c0-2.884-0.596-5.031-1.787-6.441c-1.19-1.411-2.664-2.116-4.419-2.116
	c-1.86,0-3.395,0.716-4.607,2.147C669.834,605.371,669.228,607.549,669.228,610.474z"/><path fill="#907AFF" d="M716.209,581.108v12.662h7.02v9.339h-7.02v11.793c0,1.418,0.136,2.356,0.407,2.814
	c0.418,0.71,1.149,1.065,2.194,1.065c0.94,0,2.257-0.271,3.949-0.814l0.94,8.805c-3.155,0.69-6.101,1.034-8.838,1.034
	c-3.177,0-5.516-0.408-7.021-1.221c-1.505-0.814-2.617-2.049-3.338-3.708c-0.721-1.66-1.081-4.346-1.081-8.06v-11.707h-4.701v-9.339
	h4.701v-6.111L716.209,581.108z"/><path fill="#907AFF" d="M751.624,581.108h35.102v9.872h-20.841v8.024h17.801v9.277h-17.801v18.773h-14.26V581.108z"/><path fill="#907AFF" d="M789.766,610.505c0-5.076,1.712-9.261,5.14-12.551c3.426-3.291,8.054-4.937,13.884-4.937
	c6.665,0,11.7,1.932,15.106,5.799c2.737,3.113,4.106,6.946,4.106,11.502c0,5.119-1.698,9.313-5.093,12.582
	c-3.396,3.271-8.092,4.905-14.088,4.905c-5.349,0-9.674-1.357-12.975-4.075C791.792,620.368,789.766,615.959,789.766,610.505z
	 M802.552,610.474c0,2.968,0.6,5.161,1.802,6.582c1.201,1.421,2.711,2.131,4.529,2.131c1.838,0,3.348-0.7,4.529-2.1
	c1.18-1.4,1.771-3.646,1.771-6.738c0-2.884-0.595-5.031-1.787-6.441c-1.19-1.411-2.664-2.116-4.419-2.116
	c-1.859,0-3.395,0.716-4.607,2.147C803.158,605.371,802.552,607.549,802.552,610.474z"/><path fill="#907AFF" d="M869.215,627.054h-11.91v-5.391c-1.776,2.216-3.568,3.793-5.375,4.733c-1.808,0.94-4.027,1.411-6.66,1.411
	c-3.51,0-6.263-1.05-8.258-3.15c-1.996-2.1-2.993-5.332-2.993-9.7V593.77h12.819v18.303c0,2.09,0.386,3.573,1.16,4.451
	c0.773,0.878,1.859,1.317,3.259,1.317c1.525,0,2.774-0.585,3.746-1.755c0.971-1.169,1.457-3.269,1.457-6.299V593.77h12.756V627.054z
	"/><path fill="#907AFF" d="M876.956,593.77h11.878v5.422c1.776-2.215,3.573-3.797,5.391-4.749c1.818-0.951,4.033-1.426,6.644-1.426
	c3.531,0,6.294,1.05,8.29,3.15c1.995,2.1,2.993,5.343,2.993,9.731v21.155h-12.819v-18.303c0-2.089-0.387-3.568-1.16-4.435
	c-0.773-0.867-1.86-1.301-3.259-1.301c-1.547,0-2.8,0.586-3.761,1.755c-0.961,1.171-1.442,3.271-1.442,6.299v15.984h-12.756V593.77z
	"/><path fill="#907AFF" d="M954.807,581.108v45.946h-11.941v-4.921c-1.672,2.09-3.197,3.501-4.576,4.231
	c-1.839,0.961-3.886,1.442-6.143,1.442c-4.534,0-7.997-1.724-10.389-5.172c-2.392-3.447-3.588-7.636-3.588-12.567
	c0-5.517,1.321-9.737,3.964-12.662c2.643-2.926,6.002-4.388,10.076-4.388c1.985,0,3.787,0.334,5.406,1.003
	c1.619,0.669,3.056,1.672,4.309,3.009v-15.922H954.807z M942.02,610.319c0-2.612-0.554-4.561-1.661-5.846
	c-1.108-1.285-2.508-1.928-4.2-1.928c-1.484,0-2.726,0.617-3.729,1.849c-1.003,1.233-1.505,3.302-1.505,6.205
	c0,2.717,0.517,4.708,1.552,5.971c1.034,1.265,2.314,1.896,3.839,1.896c1.63,0,2.988-0.638,4.075-1.912
	C941.477,615.281,942.02,613.201,942.02,610.319z"/><path fill="#DCB5FC" d="M936.272,122.968c-0.89,2.812-3.215,4.895-5.741,6.271c-2.555,1.399-5.358,2.268-8.178,2.955
	c-5.676,1.291-11.501,1.78-17.31,1.919c-11.629,0.259-23.264-0.618-34.798-2.101c-23.091-2.909-45.899-7.906-68.32-14.217
	c-22.393-6.406-44.494-14.044-65.751-23.822c-10.596-4.944-21.011-10.382-30.819-16.983c-4.886-3.323-9.617-6.957-13.874-11.31
	c-2.095-2.211-4.103-4.589-5.661-7.455c-0.754-1.446-1.445-2.993-1.764-4.753c-0.432-1.711-0.284-3.661,0.154-5.492
	c0.625-1.778,1.574-3.49,2.87-4.688c1.229-1.301,2.654-2.219,4.076-3.016c2.872-1.55,5.852-2.443,8.817-3.15
	c5.944-1.318,11.892-1.775,17.8-1.886c5.911-0.125,11.79,0.168,17.638,0.629c5.849,0.464,11.666,1.153,17.454,1.99
	c23.148,3.419,45.829,9.117,68.082,15.993c22.224,6.974,44.055,15.257,64.98,25.448c10.468,5.065,20.692,10.689,30.287,17.265
	c4.788,3.291,9.399,6.885,13.446,11.069c1.987,2.115,3.858,4.377,5.233,6.945C936.256,117.112,937.065,120.128,936.272,122.968z
	 M936.272,122.968c0.776-2.845-0.049-5.847-1.422-8.367c-1.386-2.554-3.265-4.8-5.259-6.901c-4.062-4.155-8.685-7.719-13.484-10.978
	c-9.636-6.493-19.965-11.885-30.48-16.79c-21.101-9.708-43.105-17.308-65.393-23.681c-22.316-6.279-45.023-11.244-67.944-14.133
	c-11.445-1.472-22.982-2.331-34.407-2.081c-5.702,0.133-11.398,0.624-16.802,1.855c-2.674,0.649-5.298,1.48-7.538,2.711
	c-2.249,1.221-3.945,2.898-4.559,4.795c-0.533,1.924-0.022,4.258,1.192,6.51c1.203,2.256,2.947,4.387,4.832,6.391
	c3.853,3.986,8.355,7.509,13.057,10.738c9.423,6.468,19.56,12.045,29.947,17.071c20.769,10.122,42.503,18.366,64.622,25.307
	c22.148,6.845,44.728,12.51,67.706,15.909c11.486,1.639,23.083,2.77,34.701,2.599c5.801-0.107,11.62-0.564,17.292-1.822
	c2.818-0.67,5.62-1.524,8.177-2.905C933.036,127.837,935.367,125.775,936.272,122.968z"/><path fill="#DCB5FC" d="M673.221,99.874c-0.329-2.931,0.951-5.778,2.701-8.061c1.767-2.315,3.976-4.249,6.274-6.02
	c4.663-3.484,9.788-6.297,15.04-8.781c10.523-4.957,21.512-8.878,32.655-12.206c22.285-6.715,45.157-11.408,68.209-14.743
	c23.065-3.236,46.364-5.229,69.76-4.922c11.691,0.216,23.417,0.96,35.06,3.009c5.814,1.054,11.613,2.453,17.27,4.703
	c2.813,1.171,5.612,2.528,8.2,4.516c1.276,1.014,2.536,2.147,3.541,3.628c1.09,1.387,1.746,3.231,2.089,5.082
	c0.15,1.878-0.022,3.829-0.72,5.449c-0.595,1.686-1.525,3.104-2.5,4.411c-1.996,2.582-4.357,4.608-6.779,6.458
	c-4.897,3.616-10.148,6.449-15.502,8.948c-5.352,2.513-10.843,4.634-16.375,6.585c-5.534,1.95-11.129,3.682-16.759,5.268
	c-22.543,6.272-45.584,10.273-68.712,13.023c-23.142,2.647-46.455,3.942-69.715,3.123c-11.623-0.38-23.249-1.369-34.688-3.483
	c-5.712-1.065-11.384-2.477-16.781-4.658c-2.675-1.127-5.303-2.434-7.602-4.223C675.614,105.22,673.65,102.792,673.221,99.874z
	 M673.221,99.874c0.446,2.915,2.418,5.324,4.696,7.07c2.303,1.772,4.933,3.062,7.608,4.172c5.399,2.147,11.07,3.527,16.78,4.559
	c11.442,2.02,23.07,2.756,34.671,2.97c23.225,0.305,46.42-1.682,69.376-4.906c22.944-3.321,45.711-8.003,67.831-14.667
	c11.057-3.301,21.949-7.2,32.289-12.066c5.157-2.437,10.163-5.197,14.602-8.516c2.181-1.678,4.242-3.504,5.789-5.537
	c1.559-2.03,2.429-4.251,2.219-6.234c-0.294-1.974-1.709-3.899-3.732-5.466c-2.015-1.573-4.474-2.812-7.01-3.879
	c-5.139-2.078-10.684-3.472-16.291-4.514c-11.237-2.085-22.766-3.067-34.299-3.444c-23.089-0.819-46.298,0.471-69.331,3.106
	c-23.02,2.737-45.955,6.725-68.334,12.948c-11.162,3.165-22.22,6.838-32.768,11.713c-5.259,2.452-10.391,5.233-15.064,8.685
	c-2.304,1.755-4.518,3.673-6.294,5.973C674.202,94.109,672.909,96.942,673.221,99.874z"/><path fill="#DCB5FC" d="M685.982,101.978c0.562-0.624,0.166-1.621-0.671-1.689l-4.597-0.369c-0.332-0.027-0.63-0.215-0.797-0.504
	l-2.302-3.996c-0.419-0.728-1.491-0.659-1.813,0.117l-1.771,4.258c-0.128,0.308-0.399,0.533-0.726,0.602l-4.512,0.955
	c-0.822,0.174-1.087,1.214-0.449,1.761l3.502,3c0.253,0.217,0.383,0.545,0.348,0.876l-0.486,4.586
	c-0.088,0.835,0.819,1.409,1.536,0.971l3.936-2.403c0.284-0.174,0.636-0.197,0.941-0.061l4.211,1.88
	c0.767,0.342,1.593-0.343,1.398-1.16l-1.07-4.486c-0.077-0.324,0.01-0.666,0.233-0.914L685.982,101.978z"/><path fill="#DCB5FC" d="M755.095,57.373c0.562-0.624,0.166-1.621-0.671-1.689l-4.597-0.369c-0.332-0.027-0.63-0.215-0.797-0.504
	l-2.302-3.996c-0.419-0.728-1.491-0.659-1.813,0.117l-1.771,4.258c-0.128,0.308-0.399,0.533-0.726,0.602l-4.512,0.955
	c-0.822,0.174-1.087,1.214-0.449,1.761l3.502,3c0.253,0.217,0.383,0.545,0.348,0.876l-0.486,4.586
	c-0.088,0.835,0.819,1.409,1.536,0.972l3.936-2.404c0.284-0.174,0.636-0.196,0.941-0.061l4.211,1.879
	c0.767,0.342,1.593-0.343,1.398-1.16l-1.07-4.486c-0.077-0.324,0.01-0.666,0.233-0.914L755.095,57.373z"/><path fill="#DCB5FC" d="M807.932,112.471c0.562-0.624,0.166-1.621-0.671-1.689l-4.597-0.369c-0.332-0.027-0.63-0.215-0.797-0.504
	l-2.302-3.996c-0.419-0.728-1.491-0.659-1.813,0.117l-1.771,4.258c-0.128,0.308-0.399,0.533-0.726,0.602l-4.512,0.955
	c-0.822,0.174-1.087,1.214-0.449,1.761l3.502,3c0.253,0.217,0.383,0.545,0.348,0.876l-0.486,4.586
	c-0.088,0.835,0.819,1.409,1.536,0.971l3.936-2.403c0.284-0.174,0.636-0.197,0.941-0.061l4.211,1.88
	c0.767,0.342,1.593-0.343,1.398-1.16l-1.07-4.486c-0.077-0.324,0.01-0.666,0.233-0.914L807.932,112.471z"/><path fill="#DCB5FC" d="M896.808,43.189c0.562-0.624,0.166-1.621-0.671-1.689l-4.597-0.369c-0.332-0.027-0.63-0.215-0.797-0.504
	l-2.302-3.996c-0.419-0.728-1.491-0.659-1.813,0.117l-1.771,4.258c-0.128,0.308-0.399,0.533-0.726,0.602l-4.512,0.955
	c-0.822,0.174-1.087,1.214-0.45,1.761l3.502,3c0.253,0.217,0.383,0.545,0.348,0.876l-0.486,4.586
	c-0.089,0.835,0.819,1.409,1.536,0.972l3.936-2.404c0.285-0.174,0.636-0.196,0.941-0.061l4.211,1.879
	c0.767,0.342,1.593-0.343,1.398-1.16l-1.07-4.486c-0.077-0.324,0.01-0.666,0.233-0.914L896.808,43.189z"/><path fill="#DCB5FC" d="M944.44,120.155c0.563-0.624,0.166-1.621-0.671-1.689l-4.597-0.369c-0.332-0.027-0.63-0.215-0.797-0.504
	l-2.302-3.996c-0.419-0.728-1.491-0.659-1.813,0.117l-1.771,4.258c-0.128,0.308-0.399,0.533-0.726,0.602l-4.512,0.955
	c-0.822,0.174-1.087,1.214-0.449,1.761l3.502,3c0.253,0.217,0.383,0.545,0.348,0.876l-0.486,4.586
	c-0.089,0.835,0.819,1.409,1.536,0.972l3.936-2.404c0.285-0.174,0.637-0.196,0.941-0.061l4.211,1.879
	c0.767,0.342,1.593-0.343,1.398-1.16l-1.07-4.486c-0.077-0.324,0.01-0.666,0.233-0.914L944.44,120.155z"/><path fill="#DCB5FC" d="M454.691,77.423c-0.819-7.856-4.894-15.115-11.204-19.542c-3.397-2.383-7.381-3.895-11.493-4.413
	c-4.301-0.542-8.475,0.056-12.623,1.429c-4.123,1.365-8.23,2.87-12.577,2.05c-0.677-0.128-1.342-0.312-1.999-0.523
	c-5.778,5.694-14.281,7.248-21.746,4.839c-0.79-0.255-1.567-0.57-2.325-0.924c-3.237,1.567-6.952,2.119-10.446,2.048
	c-4.33-0.088-8.82-1.359-12.092-4.305c-2.94-2.647-4.696-6.563-4.62-10.648c0.037-1.979,0.619-3.86,1.583-5.582
	c0.434-0.777,1.579-0.89,2.229-0.423c0.755,0.543,0.794,1.505,0.358,2.284c-1.591,2.843-1.1,6.352,0.343,9.065
	c1.695,3.186,4.95,5.016,8.307,5.837c3.206,0.784,7.331,0.791,10.95-0.355c-1.363-1.076-2.556-2.364-3.449-3.903
	c-1.84-3.173-1.813-7.089-0.027-10.366c1.791-3.286,5.448-4.989,8.927-3.875c3.635,1.164,5.962,4.821,5.973,8.682
	c0.01,3.66-1.949,7.013-4.65,9.341c0.369,0.12,0.74,0.231,1.112,0.329c5.583,1.482,11.878,0.353,16.395-3.449
	c-2.067-1.19-3.874-2.827-5.168-4.897c-2.137-3.42-2.929-7.977-0.791-11.71c1.873-3.27,5.929-5.357,9.489-4.199
	c3.92,1.276,5.494,5.794,5.389,9.712c-0.092,3.434-1.412,6.868-3.393,9.705c1.924,0.366,3.931,0.304,5.917-0.161
	c3.694-0.864,7.173-2.519,10.926-3.125c7.384-1.192,15.118,0.494,21.237,4.733c5.674,3.931,9.76,9.965,11.67,16.729
	c0.459,1.625,0.767,3.288,0.943,4.976C458.054,78.875,454.91,79.522,454.691,77.423z M382.819,43.747
	c-2.288-1.453-4.928-0.485-6.249,1.885c-1.409,2.527-1.058,5.549,0.563,7.793c0.98,1.358,2.249,2.421,3.664,3.249
	c1.839-1.169,3.332-2.786,4.18-4.935C386.153,48.762,385.515,45.459,382.819,43.747z M407.351,43.026
	c-0.138-2.757-1.644-6.242-4.85-5.832c-3.058,0.391-5.059,3.392-4.931,6.411c0.147,3.476,2.405,6.471,5.139,8.261
	c0.411,0.269,0.834,0.506,1.264,0.719c0.017-0.02,0.035-0.039,0.05-0.06C406.071,49.867,407.522,46.431,407.351,43.026z"/><path fill="#DCB5FC" d="M189.205,346.894c-2.835-7.372-8.659-13.321-15.905-15.952c-3.9-1.417-8.14-1.839-12.245-1.269
	c-4.294,0.597-8.169,2.26-11.815,4.666c-3.625,2.392-7.2,4.913-11.61,5.253c-0.687,0.053-1.377,0.048-2.066,0.016
	c-4.097,7.002-11.902,10.715-19.737,10.332c-0.83-0.041-1.661-0.143-2.485-0.288c-2.718,2.355-6.161,3.856-9.553,4.696
	c-4.204,1.042-8.87,0.983-12.795-1.01c-3.527-1.79-6.243-5.115-7.233-9.078c-0.479-1.921-0.407-3.888,0.076-5.802
	c0.217-0.863,1.293-1.27,2.042-0.989c0.871,0.327,1.159,1.247,0.94,2.112c-0.797,3.16,0.591,6.419,2.691,8.663
	c2.466,2.635,6.085,3.555,9.54,3.473c3.3-0.078,7.284-1.144,10.481-3.193c-1.597-0.684-3.083-1.617-4.346-2.871
	c-2.602-2.584-3.596-6.373-2.724-10.001c0.874-3.639,3.962-6.235,7.611-6.065c3.813,0.178,7.011,3.103,8.027,6.828
	c0.963,3.531-0.057,7.279-2.058,10.229c0.388,0.02,0.774,0.03,1.159,0.028c5.776-0.023,11.561-2.751,14.932-7.598
	c-2.305-0.611-4.476-1.721-6.265-3.383c-2.953-2.746-4.904-6.94-3.812-11.1c0.958-3.645,4.33-6.716,8.069-6.524
	c4.117,0.211,6.813,4.165,7.732,7.975c0.805,3.34,0.424,6.999-0.75,10.254c1.953-0.148,3.875-0.73,5.671-1.696
	c3.341-1.795,6.27-4.299,9.736-5.861c6.82-3.073,14.725-3.458,21.737-0.958c6.501,2.319,12.018,7.081,15.622,13.115
	c0.866,1.449,1.597,2.975,2.205,4.559C192.83,347.42,189.962,348.863,189.205,346.894z M111.045,333.087
	c-2.587-0.807-4.884,0.815-5.542,3.446c-0.702,2.807,0.423,5.633,2.572,7.378c1.3,1.056,2.802,1.752,4.383,2.183
	c1.471-1.608,2.492-3.558,2.751-5.853C115.569,337.06,114.094,334.038,111.045,333.087z M134.544,326.004
	c-0.851-2.626-3.212-5.599-6.201-4.369c-2.851,1.173-4.002,4.591-3.092,7.473c1.047,3.318,4.007,5.622,7.113,6.638
	c0.467,0.153,0.937,0.271,1.408,0.365c0.011-0.024,0.023-0.047,0.033-0.071C135.089,332.943,135.594,329.247,134.544,326.004z"/><path fill="#DCB5FC" d="M1140.392,296.641c0.609-1.584,1.339-3.11,2.205-4.559c3.604-6.034,9.121-10.796,15.622-13.115
	c7.012-2.5,14.917-2.115,21.737,0.958c3.466,1.562,6.395,4.066,9.736,5.861c1.797,0.965,3.719,1.548,5.671,1.696
	c-1.174-3.255-1.555-6.914-0.75-10.254c0.919-3.81,3.614-7.764,7.732-7.975c3.738-0.192,7.111,2.879,8.069,6.524
	c1.092,4.16-0.859,8.354-3.812,11.1c-1.788,1.662-3.959,2.772-6.265,3.383c3.371,4.847,9.156,7.575,14.932,7.598
	c0.385,0.001,0.771-0.009,1.159-0.028c-2.002-2.951-3.021-6.698-2.058-10.229c1.016-3.725,4.215-6.65,8.027-6.828
	c3.649-0.17,6.737,2.426,7.611,6.065c0.871,3.628-0.122,7.417-2.724,10.001c-1.263,1.253-2.749,2.186-4.346,2.87
	c3.196,2.048,7.181,3.115,10.481,3.193c3.454,0.081,7.074-0.838,9.54-3.474c2.099-2.244,3.487-5.503,2.691-8.663
	c-0.219-0.866,0.069-1.785,0.94-2.112c0.749-0.282,1.825,0.125,2.042,0.989c0.483,1.913,0.555,3.881,0.076,5.802
	c-0.99,3.964-3.705,7.288-7.233,9.078c-3.926,1.993-8.592,2.051-12.796,1.009c-3.392-0.84-6.835-2.341-9.553-4.696
	c-0.824,0.145-1.656,0.247-2.485,0.287c-7.835,0.383-15.64-3.33-19.737-10.332c-0.689,0.032-1.379,0.037-2.066-0.016
	c-4.41-0.34-7.985-2.861-11.61-5.253c-3.647-2.406-7.521-4.069-11.815-4.666c-4.105-0.57-8.345-0.148-12.245,1.269
	c-7.245,2.632-13.069,8.581-15.905,15.952C1142.504,300.046,1139.637,298.603,1140.392,296.641z M1217.258,291.424
	c0.26,2.295,1.28,4.245,2.751,5.853c1.581-0.431,3.083-1.127,4.383-2.183c2.149-1.745,3.274-4.571,2.572-7.378
	c-0.659-2.632-2.955-4.254-5.542-3.446C1218.373,285.221,1216.897,288.243,1217.258,291.424z M1198.663,287.225
	c0.01,0.024,0.022,0.047,0.033,0.071c0.471-0.094,0.941-0.212,1.408-0.365c3.106-1.017,6.066-3.321,7.113-6.638
	c0.909-2.882-0.242-6.3-3.092-7.473c-2.989-1.23-5.35,1.742-6.201,4.369C1196.872,280.431,1197.378,284.126,1198.663,287.225z"/><path fill="#FEDEFF" d="M223.125,215.765l7.705-7.704c1.749-1.749,1.749-4.584,0-6.333c-1.748-1.749-4.585-1.749-6.333,0
	l-7.705,7.705l-7.704-7.705c-1.748-1.749-4.585-1.749-6.333,0c-1.749,1.749-1.749,4.584,0,6.333l7.705,7.704l-7.691,7.691
	c-1.749,1.749-1.749,4.584,0,6.333c0.874,0.875,2.02,1.312,3.166,1.312s2.293-0.437,3.166-1.312l7.69-7.691l7.691,7.691
	c0.874,0.875,2.02,1.312,3.166,1.312c1.146,0,2.293-0.437,3.166-1.312c1.749-1.749,1.749-4.584,0-6.333L223.125,215.765z"/><path fill="#FEDEFF" d="M1255.364,504.22l7.705-7.705c1.749-1.748,1.749-4.584,0-6.333c-1.748-1.749-4.585-1.749-6.333,0
	l-7.704,7.704l-7.705-7.704c-1.748-1.749-4.585-1.749-6.333,0c-1.749,1.748-1.749,4.584,0,6.333l7.705,7.705l-7.691,7.69
	c-1.749,1.749-1.749,4.584,0,6.333c0.874,0.875,2.02,1.312,3.166,1.312c1.146,0,2.292-0.437,3.166-1.312l7.691-7.691l7.69,7.691
	c0.874,0.875,2.021,1.312,3.167,1.312c1.146,0,2.292-0.437,3.166-1.312c1.749-1.748,1.749-4.584,0-6.333L1255.364,504.22z"/><path fill="#FEDEFF" d="M1197.95,204.163l7.704-7.704c1.749-1.749,1.749-4.584,0-6.333c-1.748-1.749-4.585-1.749-6.333,0
	l-7.705,7.705l-7.705-7.705c-1.748-1.749-4.585-1.749-6.333,0c-1.749,1.749-1.749,4.584,0,6.333l7.704,7.704l-7.691,7.691
	c-1.749,1.749-1.749,4.584,0,6.333c0.874,0.875,2.021,1.312,3.166,1.312c1.146,0,2.292-0.437,3.166-1.312l7.691-7.691l7.691,7.691
	c0.874,0.875,2.021,1.312,3.166,1.312c1.146,0,2.293-0.437,3.166-1.312c1.749-1.749,1.749-4.584,0-6.333L1197.95,204.163z"/><path fill="#FEDEFF" d="M99.925,504.22l7.704-7.705c1.749-1.748,1.749-4.584,0-6.333c-1.748-1.749-4.585-1.749-6.333,0l-7.705,7.704
	l-7.704-7.704c-1.748-1.749-4.585-1.749-6.333,0c-1.749,1.748-1.749,4.584,0,6.333l7.704,7.705l-7.69,7.69
	c-1.749,1.749-1.749,4.584,0,6.333c0.874,0.875,2.02,1.312,3.166,1.312c1.146,0,2.293-0.437,3.166-1.312l7.691-7.691l7.691,7.691
	c0.874,0.875,2.02,1.312,3.166,1.312c1.146,0,2.293-0.437,3.166-1.312c1.749-1.748,1.749-4.584,0-6.333L99.925,504.22z"/><path fill="#E8CFFC" d="M108.627,448.21c0-3.664,2.971-6.635,6.635-6.635c3.664,0,6.635,2.971,6.635,6.635
	c0,3.664-2.971,6.635-6.635,6.635C111.598,454.845,108.627,451.874,108.627,448.21z"/><path fill="#E8CFFC" d="M268.664,134.669c0-3.664,2.971-6.635,6.635-6.635c3.664,0,6.635,2.971,6.635,6.635
	c0,3.664-2.971,6.635-6.635,6.635C271.635,141.303,268.664,138.333,268.664,134.669z"/><path fill="#E8CFFC" d="M1126.996,236.507c0-3.664,2.971-6.635,6.635-6.635c3.664,0,6.635,2.971,6.635,6.635
	c0,3.664-2.971,6.635-6.635,6.635C1129.967,243.141,1126.996,240.171,1126.996,236.507z"/><circle cx="1261.89" cy="431.042" r="6.635" fill="#E8CFFC"/><path fill="#E8CFFC" d="M1225.932,713.919c0-3.664,2.97-6.635,6.635-6.635c3.664,0,6.635,2.971,6.635,6.635
	c0,3.664-2.971,6.635-6.635,6.635C1228.902,720.554,1225.932,717.584,1225.932,713.919z"/><circle cx="102.11" cy="707.284" r="6.635" fill="#E8CFFC"/><circle cx="137.818" cy="249.692" r="6.635" fill="#E8CFFC"/></svg>