
<svg xmlns="http://www.w3.org/2000/svg" viewBox="0 0 1364 960"><path fill="#F0F2FC" d="M1287.394 499.548c-35.603-45.44-102.757-52.886-137.431-105.969-44.023-67.395-.324-130.216-55.16-178.744-46.886-41.492-132.123-38.061-186.692-8.115-28.965 16.809-56.383 40.476-89.813 42.438-86.313 2.847-135.012-100.392-216.377-116.335-95.762-18.764-171.465 21.352-208.346 129.887-13.731 40.407-28.146 49.666-39.9 63.949-24.737 30.061-73.98 35.375-84.556 72.841-10.268 64.775 8.035 119.002-64.979 156.244-20.134 9.267-42.689 11.859-63.497 19.498-48.522 17.814-86.059 64.896-89.739 116.454-6.65 93.222 57.328 123.428 147.043 131.192l980.095-.64c105.557-73.281 176.385-237.146 109.352-322.7z"/><path fill="#E6ECFF" d="M1208.236 822.207c10.469-50.591 11.611-104.315-5.931-152.909-17.541-48.593-55.753-91.305-105.305-105.916-20.838-6.143-44.298-7.914-60.456-22.435-21.307-19.146-21.143-51.818-21.696-80.458-1.207-62.606-13.651-144.239-44.762-198.582-31.112-54.342-71.82-90.494-136.849-101.908-61.676-10.826-136.149 4.382-178.915 50.122-15.686 16.777-39.07 63.447-58.872 75.08-25.882 15.205-81.861 30.657-138.509 18.441-108.012-23.293-211.259 12.134-273.007 100.938-80.924 116.381-60.522 295.651 14.012 418.31l1010.29-.683z"/><path fill="#C7D7FF" d="M449.18 805.708a382.98 382.98 0 0 0-8.887-22.582c-2.009-4.665-4.155-9.362-7.477-13.204-3.374-3.904-7.799-6.736-12.251-9.343a207.14 207.14 0 0 0-37.99-17.354 55.823 55.823 0 0 1 12.923 14.706c5.695 9.408 8.464 20.235 11.747 30.731 3.282 10.496 7.338 21.131 14.949 29.069 7.611 7.938 19.596 12.589 29.899 8.742l-2.913-20.765z"/><path fill="#9EBCF2" d="M545.351 737.388c-12.833-3.924-26.878-.331-38.846 5.743-3.967 2.013-7.833 4.321-11.069 7.375-4.085 3.855-7.022 8.758-9.604 13.746-8.549 16.516-13.304 45.182-10.688 63.595h23.413c8.164-4.332 12.877-16.386 14.408-25.5 1.922-11.443-2.804-23.245-.788-34.672 2.756-15.623 17.729-26.663 33.174-30.287z"/><path fill="#C7D7FF" d="M538.106 769.285c-11.097 2.07-21.932 7.195-29.142 15.88-3.597 4.333-6.188 9.395-8.749 14.41-3.828 7.499-7.657 20.771-11.486 28.271h33.57c5.823-.603 11.206-4.441 13.673-9.749 3.867-8.32.552-18.297 2.847-27.179 1.759-6.803 6.791-12.473 12.87-15.997 6.079-3.525 13.134-5.071 20.145-5.554-11.201-1.41-22.631-2.152-33.728-.082z"/><path fill="#9EBCF2" d="M461.732 768.83c-7.603-19.539-21.527-37.734-41.172-45.058 6.393 4.49 9.784 9.462 11.405 16.224a149.252 149.252 0 0 1 4.11 35.32c-.024 6.631-2.92 18.543-1.857 25.088 1.982 12.204 9.523 19.213 14.884 27.442h17.266c10.667-17.387 2.761-40.005-4.636-59.016z"/><path fill="#C7D7FF" d="M480.562 803.005c.294-4.808 1.319-9.629 2.184-14.367 3.369-18.45 12.393-35.366 11.306-54.088-.38-6.539-.723-12.971-2.683-19.221-3.425-10.922-5.916-22.632-11.908-32.661 2.187 8.384 4.022 16.024 1.698 23.904-2.324 7.88-6.64 14.993-10.666 22.155-6.314 11.23-11.607 23.077-14.603 35.606-6.142 25.678 1.457 46.529 4.006 63.513h21.758c-1.699-9.163-1.609-16.383-1.092-24.841zM1178.392 803.767a382.98 382.98 0 0 0-8.887-22.582c-2.009-4.665-4.155-9.362-7.477-13.204-3.374-3.904-7.799-6.736-12.251-9.343a207.14 207.14 0 0 0-37.99-17.354 55.823 55.823 0 0 1 12.923 14.706c5.695 9.408 8.464 20.235 11.747 30.731 3.282 10.496 7.338 21.131 14.949 29.069 7.611 7.938 19.596 12.588 29.899 8.742l-2.913-20.765z"/><path fill="#9EBCF2" d="M1274.563 735.447c-12.833-3.924-26.878-.331-38.846 5.743-3.967 2.013-7.833 4.321-11.069 7.375-4.085 3.855-7.022 8.758-9.604 13.746-8.55 16.516-13.305 45.182-10.688 63.595h23.413c8.164-4.332 12.877-16.386 14.408-25.5 1.922-11.443-2.804-23.245-.788-34.672 2.756-15.623 17.729-26.663 33.174-30.287z"/><path fill="#C7D7FF" d="M1267.318 767.344c-11.097 2.07-21.932 7.195-29.142 15.88-3.597 4.333-6.188 9.395-8.749 14.41-3.828 7.499-7.657 20.771-11.486 28.271h33.57c5.823-.603 11.206-4.441 13.673-9.749 3.867-8.32.552-18.297 2.847-27.179 1.759-6.803 6.791-12.473 12.87-15.997 6.079-3.525 13.134-5.071 20.145-5.554-11.201-1.41-22.631-2.153-33.728-.082z"/><path fill="#9EBCF2" d="M1190.944 766.889c-7.603-19.539-21.527-37.734-41.172-45.058 6.393 4.49 9.784 9.463 11.405 16.224a149.252 149.252 0 0 1 4.11 35.32c-.024 6.631-2.92 18.543-1.857 25.088 1.982 12.204 9.524 19.213 14.884 27.442h17.266c10.667-17.387 2.761-40.005-4.636-59.016z"/><path fill="#C7D7FF" d="M1209.774 801.064c.294-4.808 1.319-9.629 2.184-14.367 3.369-18.45 12.393-35.366 11.306-54.088-.38-6.539-.723-12.971-2.683-19.221-3.425-10.922-5.916-22.632-11.908-32.661 2.188 8.384 4.022 16.025 1.698 23.905-2.324 7.88-6.64 14.993-10.666 22.155-6.314 11.23-11.607 23.077-14.604 35.606-6.141 25.678 1.457 46.529 4.006 63.513h21.758c-1.698-9.164-1.608-16.384-1.091-24.842z"/><path fill="#352E9B" d="M1051.901 708.958h-24.062a3.437 3.437 0 1 1 0-6.874h20.624V681.46a3.437 3.437 0 1 1 6.875 0v24.062a3.437 3.437 0 0 1-3.437 3.436zM980.531 708.958h-47.31a3.437 3.437 0 1 1 0-6.874h47.31a3.437 3.437 0 1 1 0 6.874zm-94.619 0h-47.31a3.437 3.437 0 1 1 0-6.874h47.31a3.437 3.437 0 1 1 0 6.874zm-94.619 0h-47.31a3.437 3.437 0 1 1 0-6.874h47.31a3.437 3.437 0 1 1 0 6.874zm-94.618 0h-47.31a3.437 3.437 0 1 1 0-6.874h47.31a3.437 3.437 0 1 1 0 6.874zm-94.62 0h-47.308a3.437 3.437 0 1 1 0-6.874h47.308a3.437 3.437 0 1 1 0 6.874zm-94.618 0h-47.31a3.437 3.437 0 1 1 0-6.874h47.31a3.437 3.437 0 1 1 0 6.874zm-94.619 0H365.51a3.437 3.437 0 1 1 0-6.874h47.308a3.437 3.437 0 1 1 0 6.874zm-94.619 0h-47.31a3.437 3.437 0 1 1 0-6.874h47.31a3.437 3.437 0 1 1 0 6.874zM223.58 708.958h-24.062a3.437 3.437 0 0 1-3.437-3.437v-24.062a3.437 3.437 0 1 1 6.874 0v20.624h20.624a3.437 3.437 0 0 1 3.437 3.437 3.436 3.436 0 0 1-3.436 3.438zM199.518 641.136a3.437 3.437 0 0 1-3.437-3.437v-43.76a3.437 3.437 0 1 1 6.874 0v43.76a3.437 3.437 0 0 1-3.437 3.437zm0-87.521a3.437 3.437 0 0 1-3.437-3.437v-43.76a3.437 3.437 0 1 1 6.874 0v43.76a3.436 3.436 0 0 1-3.437 3.437zm0-87.52a3.437 3.437 0 0 1-3.437-3.437v-43.76a3.437 3.437 0 1 1 6.874 0v43.76a3.437 3.437 0 0 1-3.437 3.437zm0-87.521a3.437 3.437 0 0 1-3.437-3.437v-43.76a3.437 3.437 0 1 1 6.874 0v43.76a3.436 3.436 0 0 1-3.437 3.437zm0-87.52a3.437 3.437 0 0 1-3.437-3.437v-43.76a3.437 3.437 0 1 1 6.874 0v43.76a3.437 3.437 0 0 1-3.437 3.437zM199.518 203.533a3.437 3.437 0 0 1-3.437-3.437v-24.062a3.437 3.437 0 0 1 3.437-3.437h24.062a3.437 3.437 0 1 1 0 6.874h-20.624v20.624a3.438 3.438 0 0 1-3.438 3.438zM980.531 179.471h-47.31a3.437 3.437 0 1 1 0-6.874h47.31a3.437 3.437 0 1 1 0 6.874zm-94.62 0h-47.308a3.437 3.437 0 1 1 0-6.874h47.308a3.437 3.437 0 1 1 0 6.874zm-94.618 0h-47.31a3.437 3.437 0 1 1 0-6.874h47.31a3.437 3.437 0 1 1 0 6.874zm-94.62 0h-47.308a3.437 3.437 0 1 1 0-6.874h47.308a3.437 3.437 0 1 1 0 6.874zm-94.618 0h-47.31a3.437 3.437 0 1 1 0-6.874h47.31a3.437 3.437 0 1 1 0 6.874zm-94.618 0h-47.31a3.437 3.437 0 1 1 0-6.874h47.31a3.437 3.437 0 1 1 0 6.874zm-94.619 0h-47.31a3.437 3.437 0 1 1 0-6.874h47.31a3.437 3.437 0 1 1 0 6.874zm-94.619 0h-47.31a3.437 3.437 0 1 1 0-6.874h47.31a3.437 3.437 0 1 1 0 6.874zM1051.901 203.533a3.437 3.437 0 0 1-3.437-3.437v-20.624h-20.624a3.437 3.437 0 1 1 0-6.874h24.062a3.437 3.437 0 0 1 3.438 3.437v24.062a3.44 3.44 0 0 1-3.439 3.436zM1051.901 641.136a3.437 3.437 0 0 1-3.437-3.437v-43.76a3.437 3.437 0 1 1 6.875 0v43.76a3.439 3.439 0 0 1-3.438 3.437zm0-87.521a3.437 3.437 0 0 1-3.437-3.437v-43.76a3.437 3.437 0 1 1 6.875 0v43.76a3.438 3.438 0 0 1-3.438 3.437zm0-87.52a3.437 3.437 0 0 1-3.437-3.437v-43.76a3.437 3.437 0 1 1 6.875 0v43.76a3.439 3.439 0 0 1-3.438 3.437zm0-87.521a3.437 3.437 0 0 1-3.437-3.437v-43.76a3.437 3.437 0 1 1 6.875 0v43.76a3.438 3.438 0 0 1-3.438 3.437zm0-87.52a3.437 3.437 0 0 1-3.437-3.437v-43.76a3.437 3.437 0 1 1 6.875 0v43.76a3.439 3.439 0 0 1-3.438 3.437zM653.695 388.622c3.913 30.947 6.386 75.281 10.162 116.581l-77.806-.014c3.778-42.665 7.521-85.131 11.534-116.567h-44.846L625.64 243.38h.14l72.901 145.242h-44.986zM430.98 542.202h389.458v7.789H430.98zM484.098 587.889h9.984v26.777c0 4.25.123 7.004.37 8.263.426 2.023 1.446 3.648 3.053 4.873 1.605 1.226 3.803 1.838 6.592 1.838 2.833 0 4.97-.578 6.407-1.736 1.44-1.158 2.304-2.58 2.598-4.266.291-1.686.438-4.486.438-8.397V587.89h9.984v25.968c0 5.935-.27 10.129-.811 12.579-.538 2.451-1.534 4.519-2.983 6.206-1.452 1.686-3.389 3.03-5.819 4.03-2.427 1-5.599 1.501-9.51 1.501-4.72 0-8.302-.546-10.742-1.636-2.439-1.09-4.367-2.506-5.784-4.249-1.417-1.742-2.348-3.569-2.798-5.48-.652-2.833-.979-7.015-.979-12.546v-26.374zM534.045 637.33v-49.441h16.02c6.069 0 10.028.248 11.87.741 2.833.742 5.205 2.356 7.115 4.84 1.913 2.485 2.868 5.694 2.868 9.629 0 3.035-.552 5.588-1.652 7.656-1.102 2.068-2.504 3.693-4.2 4.873-1.699 1.181-3.424 1.963-5.178 2.345-2.383.472-5.834.708-10.351.708h-6.51v18.65h-9.982zm9.983-41.077v14.03h5.463c3.932 0 6.566-.258 7.891-.776 1.326-.517 2.366-1.326 3.118-2.428.755-1.101 1.132-2.383 1.132-3.844 0-1.799-.529-3.283-1.584-4.452-1.058-1.169-2.395-1.9-4.015-2.192-1.193-.224-3.585-.337-7.183-.337h-4.822zM580.383 637.33v-49.037h9.983V629h24.822v8.33h-34.805zM620.281 612.913c0-5.036.752-9.263 2.257-12.681a23.335 23.335 0 0 1 4.605-6.779c1.943-2.001 4.073-3.485 6.389-4.452 3.08-1.303 6.633-1.956 10.66-1.956 7.283 0 13.113 2.259 17.486 6.779 4.37 4.519 6.56 10.804 6.56 18.853 0 7.982-2.172 14.227-6.51 18.734-4.341 4.508-10.142 6.762-17.404 6.762-7.35 0-13.196-2.243-17.536-6.729-4.337-4.485-6.507-10.662-6.507-18.531zm10.287-.337c0 5.599 1.29 9.842 3.877 12.731 2.586 2.89 5.869 4.333 9.848 4.333s7.244-1.433 9.798-4.3c2.551-2.867 3.826-7.167 3.826-12.9 0-5.666-1.243-9.892-3.727-12.681-2.483-2.787-5.784-4.182-9.898-4.182s-7.432 1.411-9.948 4.233c-2.518 2.823-3.776 7.078-3.776 12.766zM720.613 637.33h-10.859l-4.317-11.23h-19.761l-4.082 11.23h-10.589l19.256-49.441h10.557l19.795 49.441zm-18.38-19.561-6.812-18.346-6.677 18.346h13.489zM725.874 587.889h18.245c4.115 0 7.25.314 9.41.944a16.535 16.535 0 0 1 7.453 4.552c2.069 2.181 3.641 4.851 4.723 8.01 1.079 3.159 1.616 7.054 1.616 11.686 0 4.07-.505 7.577-1.516 10.522-1.237 3.598-3.001 6.509-5.296 8.735-1.731 1.686-4.068 3.001-7.015 3.946-2.201.697-5.149 1.045-8.834 1.045h-18.786v-49.44zm9.983 8.364V629h7.453c2.786 0 4.799-.156 6.037-.472 1.619-.405 2.962-1.09 4.029-2.057 1.07-.967 1.94-2.558 2.616-4.772.673-2.214 1.011-5.233 1.011-9.055s-.338-6.756-1.011-8.802c-.676-2.045-1.619-3.642-2.833-4.789-1.214-1.147-2.757-1.923-4.62-2.327-1.396-.315-4.126-.472-8.197-.472h-4.485z"/><path fill="#A0ABFF" d="M1153.692 809.081H853.141L835.848 578.71h335.136z"/><path fill="#A0ABFF" d="M1158.263 555.756h-89.427l-46.1 30.032h148.248v-17.312c0-7.025-5.695-12.72-12.721-12.72z"/><path fill="#FFF" d="M861.461 590.276h283.911v231.752H861.461z"/><path fill="#FFF" d="M850.662 600.367h305.508v221.662H850.662z"/><path fill="#A0ABFF" d="M1164.313 822.889H842.519l-19.296-209.364h360.386z"/><path fill="#FFCBC7" d="M307.745 427.629s-10.739 60.464-26.42 64.638c-7.099 1.889-16.217.304-24.923-2.643-14.722-4.982-28.255-13.841-28.723-16.259l-14.936-45.338c8.597 3.705 57.575 31.625 61.577 34.299 6.48-9.728 19.034-35.632 19.495-37.491 0 0-.712-8.78 3.316-14.957 5.875-9.01 1.086 5.817 2.091 4.466 1.095-1.487 7.583-17.26 11.898-12.652 9.58 10.27-3.375 25.937-3.375 25.937z"/><path fill="#A0ABFF" d="M266.054 455.905c-1.123 11.832-7.983 27.827-8.698 35.239-14.723-4.981-32.472-6.649-32.94-9.067l-11.673-54.051c8.597 3.705 36.223 17.739 53.311 27.879z"/><path fill="#FFCBC7" d="M208.799 685.833c-3.093 11.519-5.005 21.857-6.017 31.469-2.606 24.556-1.87 62.366 2.622 86.265l12.591-1.236s17.788-64.592 26.193-97.624c2.161-8.381 3.837-15.867 4.709-21.515 5.079-32.232-13.733-123.549-14.94-129.46l-.05-.227-.016-.084-50.664-7.077c-26.916 64.047 5.013 80.157 25.572 139.489z"/><path fill="#15156D" d="M184.912 633.206c7.149 14.709 16.288 30.712 23.887 52.627-2.804 10.433-5.995 21.28-9.684 33.925l43.818 6.121c2.16-8.38 5.091-37.04 5.963-42.687 5.079-32.232-13.733-123.549-14.94-129.46l-.05-.227-.016-.084-50.664-7.077c-16.991 40.404-10.545 61.718 1.686 86.862z"/><path fill="#FFCBC7" d="m155.758 818.313-30.868-35.78s22.666-35.401 41.006-58.938c4.354-5.633 8.462-10.557 11.972-14.204 25.116-26.013 38.231-157.114 38.231-157.114h-41.524c-32.553 29.925-24.354 71.127-25.315 111.831-.332 14.108-4.869 27.711-12.489 39.59a124.882 124.882 0 0 0-4.344 7.299c-9.498 17.333-15.129 37.659-20.326 71.046l-6.428 21.67 50.085 14.6z"/><path fill="#1F1F7C" d="m130.333 710.289 11.999 5.496 24.382 11.156c4.354-5.632 7.646-13.903 11.156-17.551 25.116-26.013 41.333-157.63 41.333-157.63l-42.856.49-1.769.027c-31.464 28.923-24.857 68.383-25.247 107.744-.159 16.062-5.352 31.742-15.149 44.471-1.439 1.868-2.748 3.785-3.849 5.797z"/><path fill="#6776F0" d="M153.488 467.652c.354 26.177 6.803 71.564 9.251 87.891.354 2.367 1.66 4.407 3.51 5.686a8.176 8.176 0 0 0 3.484 1.387c11.727 1.742 23.21 2.695 34.394 2.666 10.068 0 19.891-.761 29.442-2.421 3.728-.653 6.585-3.647 6.993-7.402 1.333-12.353-2.542-39.455-1.916-65.822.408-16.68-4.826-59.374-35.973-66.092l-18.247-.165c-20.462 5.307-29.033 20.952-30.448 31.89-.436 3.24-.572 7.484-.49 12.382z"/><path fill="#15156D" d="M219.473 798.727c19.378 7.439 40.88 6.674 42.22 24.162l-60.969-2.128c-.717-7.412.515-14.757 3.696-22.034h15.053zM124.89 782.532c15.51 13.793 38.715 23.518 33.803 40.357l-56.304-18.823c1.942-7.189 4.548-18.732 10.09-24.421l12.411 2.887z"/><path fill="#1F1F7C" d="M196.986 407.453c-5.94 1.837-8.34 4.803-15.938 1.371-11.56-5.223-21.318-25.232-5.967-34.28 1.062-3.168 2.131-4.401 6.177-5.28 4.044-.878 8.191.883 13.768.787 5.576-.095 13.464-5.836 18.326 2.273 4.861 8.108-7.193 14.414-13.233 18.407-6.043 3.992-4.084 10.879-3.133 16.722z"/><path fill="#FFCBC7" d="M184.167 423.428c6.639 6.639 12.902 7.911 18.506.117l-1.578-12.807-.659-5.393h-14.691l-.283 3.344-1.295 14.739z"/><path fill="#F0B4B4" d="M185.253 411.073c3.631 4.369 13.635 5.633 16.347 3.76l-1.163-9.486-14.775-6.201-.409 11.927z"/><path fill="#FFCBC7" d="M207.965 379.668c2.703 7.621 5.353 24.469-1.114 30.735-4.094 3.966-18.95 2.432-21.983-8.475-3.583-2.595-6.213-8.921-2.912-11.792 2.354-2.046 5.36 3.36 9.465 2.466 1.558-.339-3.227-10.747 1.635-12.55 4.863-1.803 10.008 2.104 14.909-.384z"/><path fill="#A0ABFF" d="m452.931 437.07-141.23-41.888a7.785 7.785 0 0 0-9.677 5.25l-27.539 92.852a7.785 7.785 0 0 0 5.25 9.677l141.23 41.888a7.785 7.785 0 0 0 9.677-5.25l27.539-92.852a7.785 7.785 0 0 0-5.25-9.677z"/><path fill="#E6E6E6" d="M453.608 437.309a7.792 7.792 0 0 1-.317 2.402l-27.539 92.852a7.785 7.785 0 0 1-9.677 5.25l-141.23-41.888a8.325 8.325 0 0 1-.677-.238 7.785 7.785 0 0 0 5.567 7.275l141.23 41.888a7.785 7.785 0 0 0 9.677-5.25l27.539-92.852a7.782 7.782 0 0 0-4.573-9.439z"/><path fill="#FFF" d="m295.08 479.952 40.667-31.152c2.171-1.663 5.335-.638 6.119 1.982l13.445 44.932c.839 2.805 4.352 3.724 6.457 1.69l8.452-8.163c2.186-2.112 5.84-1.028 6.522 1.934l2.237 9.725c.737 3.203 4.859 4.12 6.884 1.532l22.663-28.957c2.243-2.865 6.84-1.379 6.981 2.257l1.604 41.501c.103 2.673-2.45 4.657-5.015 3.897L296.345 486.8c-3.062-.908-3.8-4.906-1.265-6.848zM367.143 443.758c1.789-6.032 8.129-9.471 14.161-7.682 6.032 1.789 9.472 8.129 7.683 14.161-1.789 6.032-8.129 9.472-14.161 7.683-6.032-1.79-9.472-8.13-7.683-14.162zM345.392 432.208a3.199 3.199 0 0 0-.611-.118 4.539 4.539 0 0 0-8.122-4.011 2.685 2.685 0 0 0-4.142-.598 3.715 3.715 0 1 0-3.435 6.415 3.7 3.7 0 0 0 2.437-.113c.879 1.323 2.634 2.539 4.834 3.191 2.062.611 4.065.595 5.509.073a3.179 3.179 0 1 0 3.53-4.839zM421.245 454.706a3.204 3.204 0 0 0-.61-.118 4.538 4.538 0 0 0-8.122-4.011 2.685 2.685 0 0 0-4.142-.598 3.714 3.714 0 1 0-3.434 6.416 3.7 3.7 0 0 0 2.437-.113c.879 1.323 2.634 2.539 4.834 3.191 2.062.611 4.065.595 5.509.073a3.179 3.179 0 1 0 3.528-4.84z"/><path fill="#FFCBC7" d="M165.492 476.323s16.315 19.648 31.126 30.456c3.544 2.562 6.976 4.617 10.092 5.804 21.583 8.192 70.975 5.443 70.975 5.443 15.691 8.005 26.831 3.225 30.36-2.925 8.71-15.183-17.009-5.696-19.492-12.018 0 0 10.028-3.055 6.712-7.751-3.292-4.725-21.735 6.153-21.735 6.153-23.334-4.345-35.839-10.99-54.302-14.662-1.59-2.233-3.181-4.465-4.822-6.665-11.888-15.788-25.671-30.16-44.421-39.708-9.081 11.881-8.814 23.87-4.493 35.873z"/><path fill="#A0ABFF" d="m191.995 507.301 25.76-28.789c-11.888-15.788-34.655-50.394-50.531-36.585-21.139 18.385 9.96 54.566 24.771 65.374z"/><path fill="#1F1F7C" d="M974.719 447.414c-2.48-32.212-28.537-32.8-43.956-57.443-5.286-8.448-2.877-20.767-9.671-28.057-16.975-18.213-48.81-8.712-43.803 15.945 1.22 6.008 10.149 11.244 7.857 19.23-4.186 10.651-6.808 23.832 3.343 32.146l29.502 74.102c35.642-6.199 59.444-20.65 56.728-55.923z"/><path fill="#FCBEBB" d="M789.089 726.466c6.092-30.867 9.417-56.106 8.57-78.34-.601-16.308-2.213-31.277-3.524-46.328l94.566-54.139 30.047-17.208h-57.582s-82.137 26.632-96.068 49.85c-9.37 15.625-7.43 50.834-3.032 82.766 4.644 33.488 12.019 63.399 12.019 63.399h15.004z"/><path fill="#15156D" d="m789.324 725.783 4.848 15.854-3.034 24.643-4.88.238-4.45-21.573-7.878 14.324c-2.122 3.857-5.306 7.013-9.671 7.578-11.513 1.493-34.01 1.881-34.942-5.674-.958-7.764 20.849-8.096 27.218-16.632 6.168-8.266 13.582-19.08 13.582-19.08l19.207.322zM762.067 663.067l19.585 3.223 16.007-18.165 70.692-80.171 20.35-20.296 17.237-17.208h-44.771s-81.892 15.724-95.823 38.943c-9.37 15.625-7.675 61.742-3.277 93.674z"/><path fill="#FFCBC7" d="M772.102 727.383c17.209-14.751 28.643-33.45 37.576-54.728 5.791-13.794 10.298-28.599 14.068-43.978 0 0 87.628-7.402 110.682-40.946 15.707-22.863 3.114-57.281 3.114-57.281-14.969.464-34.608-2.814-47.01 1.202-46.737 15.106-96.915 35.019-108.579 67.36-6.884 19.093-11.636 40.208-16.389 63.617-3.933 19.339-7.477 41.813-12.667 64.43l19.205.324z"/><path fill="#1F1F7C" d="m765.563 662.63 29.228 6.638 14.887 3.387c5.791-13.794 10.298-28.599 14.068-43.978 0 0 51.599-4.37 86.016-21.524 10.435-5.217 19.312-11.609 24.666-19.421 14.368-20.924 5.054-51.544 3.36-56.571-.164-.464-.246-.71-.246-.71h-.109c-14.969.437-36.275-4.234-48.648-.218-46.738 15.105-93.925 27.221-105.589 59.562-6.912 19.093-12.879 49.426-17.633 72.835z"/><path fill="#E6E6E6" d="M909.762 607.152c10.435-5.217 19.312-11.609 24.666-19.421 14.368-20.924 5.054-51.544 3.36-56.571-.164-.464-.246-.71-.246-.71h-.109l-14.641 6.091c10.429 26.444 4.477 49.664-13.03 70.611z"/><path fill="#FCA7E2" d="M882.175 479.18c-7.172 13.548-44.594 28.933-44.594 28.933l-6.41-12.994c5.664-3.391 22.889-15.725 29.168-23.111 5.419-6.376 10.095-38.625 23.722-49.758-.001-.001 4.961 43.997-1.886 56.93z"/><path fill="#FF80D2" d="M857.016 531.843c23.163-3.086 42.175 6.529 65.776 4.698a77.964 77.964 0 0 0 8.741-1.174c5.49-1.092 9.315-6.119 8.741-11.691l-7.785-75.936-6.856-23.355-.901-4.815-11.125-4.359-17.229-.947c-20.132 8.741-32.122 31.046-19.912 57.186 11.854 25.402-19.45 60.393-19.45 60.393z"/><path fill="#FFCBC7" d="M896.377 414.263c0 8.017 9.763 8.965 17.229.947l-4.07-11.701-1.084-6.028-11.229 5.614-.827 9.889-.019 1.279z"/><path fill="#E6E6E6" d="M922.5 467.385c5.381 14.641 4.17 49.134.292 69.156a77.964 77.964 0 0 0 8.741-1.174c5.49-1.092 9.315-6.119 8.741-11.691l-7.785-75.936-6.856-23.355c-6.036 4.753-7.596 7.404-7.596 7.404s-2.148 17.759 4.463 35.596z"/><path fill="#FFCBC7" d="M849.89 523.637c7.951 9.24 18.153.241 18.153.241s39.475-5.24 51.346-7.182c14.335-2.27 31.493-5.766 37.593-9.894 6.223-4.253-7.633-49.977-14.164-61.784-8.679-15.672-18.326-25.503-18.326-25.503l11.853 27.476.269 45.096c-7.632 1.948-15.321 4.564-23.035 7.871-6.833 2.869-32.776 7.633-39.679 11.501-14.212-5.064-31.93 2.962-24.01 12.178z"/><path fill="#FCA7E2" d="m913.579 499.958 3.348 19.566c14.335-2.27 36.769-3.069 40.63-9.343 7.765-12.619.191-56.132-10.174-72.169-11.128-17.218-22.89-18.498-22.89-18.498-22.413 20.151 8.042 32.261 12.122 72.572-7.633 1.949-15.322 4.565-23.036 7.872z"/><path fill="#E6E6E6" d="M896.397 412.985c.768.098 1.615.178 2.521.216 4.945.257 8.609-5.476 10.619-9.691l-1.084-6.028-11.229 5.614-.827 9.889z"/><path fill="#FFCBC7" d="M884.389 372.568s11.971 13.689 20.884 13.923c0 0 5.022-5.478 7.19-2.054s-3.081 9.472-3.081 9.472c-.603 9.949-7.76 17.841-15.178 15.977-16.868-4.239-9.815-37.318-9.815-37.318z"/><path fill="#1F1F7C" d="m772.102 727.383 4.848 15.854-3.035 24.643-4.88.238-4.45-21.573-7.878 14.324c-2.121 3.857-5.305 7.012-9.67 7.578-11.513 1.492-34.011 1.881-34.943-5.674-.958-7.764 20.85-8.097 27.219-16.633 6.168-8.266 13.583-19.08 13.583-19.08l19.206.323z"/><path fill="#A0ABFF" d="m780.306 556.628 84.913-17.915-33.841-62.788-84.913 17.916z"/><path fill="#A0ABFF" d="m898.853 531.56-74.102 15.63-1.9-9.003 74.103-15.63z"/><path fill="#1F1F7C" d="m799.081 511.744 6.261-1.321c2.187-.461 4.314.846 4.752 2.921l1.253 5.941c.438 2.075-.98 4.13-3.167 4.592l-6.261 1.321c-2.187.461-4.314-.846-4.752-2.921l-1.253-5.941c-.438-2.075.98-4.131 3.167-4.592z"/><path fill="#352E9B" d="M45.16 821.271h1273.68v10.353H45.16z"/></svg>